; NON-PLATED HOLES START AT T1
; THROUGH (PLATED) HOLES START AT T100
M48
INCH
T1C0.044000
T100C0.088356
T101C0.051181
T102C0.035000
T103C0.053000
T104C0.047244
T105C0.041333
T106C0.200724
T107C0.031496
T108C0.031497
T109C0.052972
T110C0.041361
%
T1
X002452Y025390
X005086Y028315
X005963Y024877
X005817Y027657
X003183Y024732
T100
X019068Y021333
X003677Y021371
X004485Y017573
X009590Y014423
X013473Y014423
X018393Y017509
T101
X015130Y034856
X007256Y034856
T102
X008201Y028084
X019062Y024851
X011083Y024147
X013240Y019974
X016941Y022730
X014579Y021155
X011083Y021147
X009228Y018792
X006620Y029310
X008988Y025171
X013083Y024147
X007728Y016194
X012083Y024147
X013083Y021147
X012083Y021147
X010083Y024147
X014579Y023596
X010083Y021147
X015209Y016116
X010642Y019974
X007574Y023756
X013847Y018789
T103
X004646Y023415
X007279Y026340
X006621Y025609
T104
X018595Y011706
X004264Y011627
X002295Y011627
X004264Y006706
X002295Y006706
X020563Y006785
X022138Y042336
X018595Y006785
X020563Y011706
X025760Y042336
T105
X006969Y020086
X015996Y020919
X012532Y017375
X011532Y017376
X007177Y019108
X015822Y019934
T106
X011174Y034961
T107
X023949Y041942
X023161Y042730
X023949Y042730
X024736Y041942
X024736Y042730
X023161Y041942
T108
X011272Y027769
X011272Y026785
T109
X005304Y024146
X004500Y026194
T110
X010531Y017375
X006761Y021064
X015649Y018949
T00
M30
