G04 MADE WITH FRITZING*
G04 WWW.FRITZING.ORG*
G04 DOUBLE SIDED*
G04 HOLES PLATED*
G04 CONTOUR ON CENTER OF CONTOUR VECTOR*
%ASAXBY*%
%FSLAX23Y23*%
%MOIN*%
%OFA0B0*%
%SFA1.0B1.0*%
%ADD10C,0.085000*%
%ADD11C,0.072992*%
%ADD12C,0.081181*%
%ADD13C,0.061496*%
%ADD14C,0.077244*%
%ADD15C,0.084667*%
%ADD16C,0.084695*%
%ADD17C,0.134033*%
%ADD18C,0.095000*%
%ADD19C,0.097695*%
%ADD20C,0.097722*%
%ADD21C,0.054000*%
%ADD22R,0.072992X0.072992*%
%ADD23C,0.030000*%
%ADD24R,0.001000X0.001000*%
%LNMASK1*%
G90*
G70*
G54D10*
X1458Y2360D03*
X1458Y2116D03*
X899Y2517D03*
X757Y2376D03*
X820Y2808D03*
X662Y2931D03*
G54D11*
X1127Y2679D03*
X1127Y2777D03*
G54D10*
X1064Y1997D03*
X1324Y1997D03*
X1008Y2115D03*
X1008Y2415D03*
X1108Y2115D03*
X1108Y2415D03*
X1208Y2115D03*
X1208Y2415D03*
X1308Y2115D03*
X1308Y2415D03*
G54D12*
X726Y3486D03*
X1513Y3486D03*
X726Y3486D03*
X1513Y3486D03*
G54D13*
X2316Y4273D03*
X2316Y4194D03*
X2395Y4273D03*
X2395Y4194D03*
X2474Y4273D03*
X2474Y4194D03*
G54D14*
X2576Y4234D03*
X2214Y4234D03*
G54D13*
X2316Y4273D03*
X2316Y4194D03*
X2395Y4273D03*
X2395Y4194D03*
X2474Y4273D03*
X2474Y4194D03*
G54D14*
X2576Y4234D03*
X2214Y4234D03*
G54D15*
X1600Y2092D03*
X1582Y1993D03*
G54D16*
X1565Y1895D03*
G54D17*
X1907Y2133D03*
X1839Y1751D03*
G54D15*
X1253Y1738D03*
X1153Y1738D03*
G54D16*
X1053Y1738D03*
G54D17*
X1347Y1442D03*
X959Y1442D03*
G54D15*
X718Y1911D03*
X697Y2009D03*
G54D16*
X676Y2106D03*
G54D17*
X449Y1757D03*
X368Y2137D03*
G54D10*
X1694Y2273D03*
X1906Y2485D03*
X773Y1619D03*
X923Y1879D03*
G54D18*
X1860Y679D03*
X2056Y679D03*
X2056Y1171D03*
X1860Y1171D03*
X1860Y679D03*
X2056Y679D03*
X2056Y1171D03*
X1860Y1171D03*
X230Y671D03*
X426Y671D03*
X426Y1163D03*
X230Y1163D03*
X230Y671D03*
X426Y671D03*
X426Y1163D03*
X230Y1163D03*
G54D19*
X450Y2619D03*
G54D20*
X728Y2634D03*
X662Y2561D03*
G54D19*
X530Y2415D03*
G54D20*
X465Y2342D03*
G54D21*
X509Y2832D03*
X245Y2539D03*
X318Y2473D03*
X596Y2488D03*
X582Y2766D03*
G54D10*
X1521Y1612D03*
X1385Y1879D03*
G54D22*
X1127Y2679D03*
G54D23*
G36*
X981Y2142D02*
X1036Y2142D01*
X1036Y2087D01*
X981Y2087D01*
X981Y2142D01*
G37*
D02*
G54D24*
X1635Y949D02*
X1644Y949D01*
X1634Y948D02*
X1646Y948D01*
X1633Y947D02*
X1646Y947D01*
X1632Y946D02*
X1647Y946D01*
X1632Y945D02*
X1648Y945D01*
X1631Y944D02*
X1648Y944D01*
X1631Y943D02*
X1649Y943D01*
X1630Y942D02*
X1649Y942D01*
X1630Y941D02*
X1650Y941D01*
X1629Y940D02*
X1638Y940D01*
X1642Y940D02*
X1650Y940D01*
X1629Y939D02*
X1637Y939D01*
X1642Y939D02*
X1651Y939D01*
X1628Y938D02*
X1637Y938D01*
X1643Y938D02*
X1651Y938D01*
X1628Y937D02*
X1636Y937D01*
X1643Y937D02*
X1652Y937D01*
X1627Y936D02*
X1636Y936D01*
X1644Y936D02*
X1652Y936D01*
X1627Y935D02*
X1635Y935D01*
X1644Y935D02*
X1653Y935D01*
X1626Y934D02*
X1635Y934D01*
X1645Y934D02*
X1653Y934D01*
X1626Y933D02*
X1634Y933D01*
X1645Y933D02*
X1654Y933D01*
X1625Y932D02*
X1634Y932D01*
X1646Y932D02*
X1654Y932D01*
X1625Y931D02*
X1633Y931D01*
X1646Y931D02*
X1655Y931D01*
X1624Y930D02*
X1633Y930D01*
X1647Y930D02*
X1655Y930D01*
X1624Y929D02*
X1632Y929D01*
X1647Y929D02*
X1656Y929D01*
X1623Y928D02*
X1632Y928D01*
X1648Y928D02*
X1656Y928D01*
X1623Y927D02*
X1631Y927D01*
X1648Y927D02*
X1656Y927D01*
X1622Y926D02*
X1631Y926D01*
X1649Y926D02*
X1657Y926D01*
X1623Y925D02*
X1631Y925D01*
X1649Y925D02*
X1657Y925D01*
X1623Y924D02*
X1631Y924D01*
X1649Y924D02*
X1657Y924D01*
X1623Y923D02*
X1631Y923D01*
X1648Y923D02*
X1656Y923D01*
X1623Y922D02*
X1632Y922D01*
X1648Y922D02*
X1656Y922D01*
X1624Y921D02*
X1632Y921D01*
X1648Y921D02*
X1656Y921D01*
X512Y920D02*
X515Y920D01*
X1624Y920D02*
X1632Y920D01*
X1647Y920D02*
X1655Y920D01*
X509Y919D02*
X517Y919D01*
X1624Y919D02*
X1632Y919D01*
X1647Y919D02*
X1655Y919D01*
X508Y918D02*
X519Y918D01*
X1625Y918D02*
X1633Y918D01*
X1647Y918D02*
X1655Y918D01*
X506Y917D02*
X520Y917D01*
X1625Y917D02*
X1633Y917D01*
X1647Y917D02*
X1655Y917D01*
X505Y916D02*
X521Y916D01*
X1625Y916D02*
X1633Y916D01*
X1646Y916D02*
X1654Y916D01*
X505Y915D02*
X523Y915D01*
X1625Y915D02*
X1634Y915D01*
X1646Y915D02*
X1654Y915D01*
X504Y914D02*
X524Y914D01*
X1625Y914D02*
X1634Y914D01*
X1646Y914D02*
X1655Y914D01*
X504Y913D02*
X526Y913D01*
X1624Y913D02*
X1634Y913D01*
X1645Y913D02*
X1656Y913D01*
X504Y912D02*
X527Y912D01*
X1623Y912D02*
X1634Y912D01*
X1645Y912D02*
X1656Y912D01*
X504Y911D02*
X512Y911D01*
X514Y911D02*
X528Y911D01*
X1622Y911D02*
X1634Y911D01*
X1645Y911D02*
X1657Y911D01*
X504Y910D02*
X512Y910D01*
X516Y910D02*
X530Y910D01*
X1622Y910D02*
X1634Y910D01*
X1645Y910D02*
X1657Y910D01*
X504Y909D02*
X512Y909D01*
X517Y909D02*
X531Y909D01*
X1622Y909D02*
X1634Y909D01*
X1646Y909D02*
X1657Y909D01*
X504Y908D02*
X512Y908D01*
X519Y908D02*
X532Y908D01*
X1622Y908D02*
X1633Y908D01*
X1647Y908D02*
X1657Y908D01*
X504Y907D02*
X512Y907D01*
X520Y907D02*
X532Y907D01*
X1622Y907D02*
X1630Y907D01*
X1649Y907D02*
X1657Y907D01*
X504Y906D02*
X512Y906D01*
X522Y906D02*
X533Y906D01*
X1622Y906D02*
X1630Y906D01*
X1650Y906D02*
X1658Y906D01*
X504Y905D02*
X512Y905D01*
X523Y905D02*
X533Y905D01*
X1622Y905D02*
X1630Y905D01*
X1650Y905D02*
X1658Y905D01*
X504Y904D02*
X512Y904D01*
X525Y904D02*
X533Y904D01*
X1622Y904D02*
X1630Y904D01*
X1650Y904D02*
X1658Y904D01*
X504Y903D02*
X512Y903D01*
X526Y903D02*
X533Y903D01*
X1622Y903D02*
X1630Y903D01*
X1650Y903D02*
X1658Y903D01*
X505Y902D02*
X512Y902D01*
X526Y902D02*
X534Y902D01*
X1622Y902D02*
X1630Y902D01*
X1650Y902D02*
X1658Y902D01*
X505Y901D02*
X512Y901D01*
X526Y901D02*
X534Y901D01*
X1622Y901D02*
X1630Y901D01*
X1650Y901D02*
X1658Y901D01*
X505Y900D02*
X512Y900D01*
X526Y900D02*
X534Y900D01*
X1622Y900D02*
X1630Y900D01*
X1650Y900D02*
X1658Y900D01*
X505Y899D02*
X512Y899D01*
X526Y899D02*
X535Y899D01*
X1622Y899D02*
X1630Y899D01*
X1650Y899D02*
X1658Y899D01*
X505Y898D02*
X512Y898D01*
X527Y898D02*
X537Y898D01*
X1622Y898D02*
X1630Y898D01*
X1650Y898D02*
X1658Y898D01*
X505Y897D02*
X513Y897D01*
X527Y897D02*
X538Y897D01*
X1622Y897D02*
X1630Y897D01*
X1650Y897D02*
X1658Y897D01*
X505Y896D02*
X513Y896D01*
X527Y896D02*
X539Y896D01*
X1622Y896D02*
X1630Y896D01*
X1650Y896D02*
X1658Y896D01*
X505Y895D02*
X514Y895D01*
X527Y895D02*
X539Y895D01*
X1622Y895D02*
X1630Y895D01*
X1650Y895D02*
X1658Y895D01*
X505Y894D02*
X515Y894D01*
X528Y894D02*
X540Y894D01*
X1622Y894D02*
X1630Y894D01*
X1650Y894D02*
X1658Y894D01*
X506Y893D02*
X516Y893D01*
X528Y893D02*
X541Y893D01*
X1622Y893D02*
X1630Y893D01*
X1650Y893D02*
X1658Y893D01*
X506Y892D02*
X517Y892D01*
X528Y892D02*
X541Y892D01*
X1622Y892D02*
X1630Y892D01*
X1650Y892D02*
X1658Y892D01*
X507Y891D02*
X518Y891D01*
X529Y891D02*
X542Y891D01*
X1622Y891D02*
X1630Y891D01*
X1650Y891D02*
X1658Y891D01*
X508Y890D02*
X519Y890D01*
X530Y890D02*
X543Y890D01*
X1622Y890D02*
X1630Y890D01*
X1650Y890D02*
X1658Y890D01*
X509Y889D02*
X520Y889D01*
X534Y889D02*
X543Y889D01*
X1622Y889D02*
X1630Y889D01*
X1650Y889D02*
X1658Y889D01*
X510Y888D02*
X521Y888D01*
X535Y888D02*
X544Y888D01*
X1622Y888D02*
X1630Y888D01*
X1650Y888D02*
X1658Y888D01*
X511Y887D02*
X521Y887D01*
X536Y887D02*
X544Y887D01*
X1622Y887D02*
X1630Y887D01*
X1650Y887D02*
X1658Y887D01*
X512Y886D02*
X522Y886D01*
X536Y886D02*
X545Y886D01*
X1622Y886D02*
X1630Y886D01*
X1650Y886D02*
X1658Y886D01*
X512Y885D02*
X522Y885D01*
X537Y885D02*
X545Y885D01*
X1622Y885D02*
X1630Y885D01*
X1650Y885D02*
X1658Y885D01*
X512Y884D02*
X521Y884D01*
X537Y884D02*
X546Y884D01*
X1622Y884D02*
X1630Y884D01*
X1650Y884D02*
X1658Y884D01*
X512Y883D02*
X521Y883D01*
X538Y883D02*
X547Y883D01*
X1622Y883D02*
X1630Y883D01*
X1650Y883D02*
X1658Y883D01*
X512Y882D02*
X520Y882D01*
X538Y882D02*
X547Y882D01*
X1622Y882D02*
X1630Y882D01*
X1650Y882D02*
X1658Y882D01*
X512Y881D02*
X520Y881D01*
X539Y881D02*
X548Y881D01*
X1622Y881D02*
X1630Y881D01*
X1650Y881D02*
X1658Y881D01*
X512Y880D02*
X521Y880D01*
X539Y880D02*
X548Y880D01*
X1622Y880D02*
X1630Y880D01*
X1650Y880D02*
X1658Y880D01*
X512Y879D02*
X521Y879D01*
X540Y879D02*
X549Y879D01*
X1622Y879D02*
X1630Y879D01*
X1650Y879D02*
X1658Y879D01*
X513Y878D02*
X522Y878D01*
X541Y878D02*
X549Y878D01*
X1622Y878D02*
X1630Y878D01*
X1650Y878D02*
X1658Y878D01*
X513Y877D02*
X522Y877D01*
X541Y877D02*
X550Y877D01*
X1622Y877D02*
X1630Y877D01*
X1650Y877D02*
X1658Y877D01*
X514Y876D02*
X523Y876D01*
X542Y876D02*
X551Y876D01*
X1622Y876D02*
X1630Y876D01*
X1650Y876D02*
X1658Y876D01*
X514Y875D02*
X523Y875D01*
X542Y875D02*
X551Y875D01*
X1622Y875D02*
X1630Y875D01*
X1650Y875D02*
X1658Y875D01*
X515Y874D02*
X524Y874D01*
X543Y874D02*
X552Y874D01*
X1622Y874D02*
X1630Y874D01*
X1650Y874D02*
X1658Y874D01*
X516Y873D02*
X525Y873D01*
X543Y873D02*
X552Y873D01*
X1622Y873D02*
X1630Y873D01*
X1650Y873D02*
X1658Y873D01*
X516Y872D02*
X525Y872D01*
X544Y872D02*
X553Y872D01*
X1622Y872D02*
X1630Y872D01*
X1650Y872D02*
X1658Y872D01*
X517Y871D02*
X526Y871D01*
X544Y871D02*
X553Y871D01*
X1622Y871D02*
X1630Y871D01*
X1650Y871D02*
X1658Y871D01*
X517Y870D02*
X526Y870D01*
X545Y870D02*
X554Y870D01*
X1622Y870D02*
X1630Y870D01*
X1650Y870D02*
X1658Y870D01*
X518Y869D02*
X527Y869D01*
X546Y869D02*
X554Y869D01*
X1622Y869D02*
X1630Y869D01*
X1650Y869D02*
X1658Y869D01*
X518Y868D02*
X527Y868D01*
X546Y868D02*
X555Y868D01*
X1622Y868D02*
X1630Y868D01*
X1650Y868D02*
X1658Y868D01*
X519Y867D02*
X528Y867D01*
X547Y867D02*
X556Y867D01*
X1622Y867D02*
X1630Y867D01*
X1650Y867D02*
X1658Y867D01*
X519Y866D02*
X528Y866D01*
X547Y866D02*
X556Y866D01*
X1622Y866D02*
X1630Y866D01*
X1650Y866D02*
X1658Y866D01*
X520Y865D02*
X529Y865D01*
X548Y865D02*
X557Y865D01*
X1622Y865D02*
X1630Y865D01*
X1650Y865D02*
X1658Y865D01*
X521Y864D02*
X529Y864D01*
X548Y864D02*
X557Y864D01*
X1622Y864D02*
X1630Y864D01*
X1650Y864D02*
X1658Y864D01*
X521Y863D02*
X530Y863D01*
X549Y863D02*
X558Y863D01*
X1622Y863D02*
X1630Y863D01*
X1650Y863D02*
X1658Y863D01*
X522Y862D02*
X531Y862D01*
X549Y862D02*
X558Y862D01*
X1622Y862D02*
X1630Y862D01*
X1650Y862D02*
X1658Y862D01*
X522Y861D02*
X531Y861D01*
X550Y861D02*
X559Y861D01*
X1622Y861D02*
X1630Y861D01*
X1650Y861D02*
X1658Y861D01*
X523Y860D02*
X532Y860D01*
X550Y860D02*
X559Y860D01*
X1622Y860D02*
X1630Y860D01*
X1650Y860D02*
X1658Y860D01*
X523Y859D02*
X532Y859D01*
X551Y859D02*
X560Y859D01*
X1622Y859D02*
X1630Y859D01*
X1650Y859D02*
X1658Y859D01*
X524Y858D02*
X533Y858D01*
X552Y858D02*
X560Y858D01*
X1622Y858D02*
X1630Y858D01*
X1650Y858D02*
X1658Y858D01*
X524Y857D02*
X533Y857D01*
X552Y857D02*
X561Y857D01*
X1622Y857D02*
X1630Y857D01*
X1650Y857D02*
X1658Y857D01*
X525Y856D02*
X534Y856D01*
X553Y856D02*
X562Y856D01*
X1622Y856D02*
X1630Y856D01*
X1650Y856D02*
X1658Y856D01*
X526Y855D02*
X534Y855D01*
X553Y855D02*
X562Y855D01*
X1622Y855D02*
X1630Y855D01*
X1650Y855D02*
X1658Y855D01*
X526Y854D02*
X535Y854D01*
X554Y854D02*
X563Y854D01*
X1622Y854D02*
X1630Y854D01*
X1650Y854D02*
X1658Y854D01*
X527Y853D02*
X536Y853D01*
X554Y853D02*
X563Y853D01*
X1622Y853D02*
X1630Y853D01*
X1650Y853D02*
X1658Y853D01*
X527Y852D02*
X536Y852D01*
X555Y852D02*
X564Y852D01*
X1622Y852D02*
X1630Y852D01*
X1650Y852D02*
X1658Y852D01*
X528Y851D02*
X537Y851D01*
X555Y851D02*
X564Y851D01*
X1622Y851D02*
X1630Y851D01*
X1650Y851D02*
X1658Y851D01*
X528Y850D02*
X537Y850D01*
X556Y850D02*
X565Y850D01*
X1622Y850D02*
X1630Y850D01*
X1650Y850D02*
X1658Y850D01*
X529Y849D02*
X538Y849D01*
X557Y849D02*
X565Y849D01*
X1622Y849D02*
X1630Y849D01*
X1650Y849D02*
X1658Y849D01*
X529Y848D02*
X538Y848D01*
X557Y848D02*
X566Y848D01*
X1622Y848D02*
X1630Y848D01*
X1650Y848D02*
X1658Y848D01*
X530Y847D02*
X539Y847D01*
X558Y847D02*
X567Y847D01*
X1622Y847D02*
X1630Y847D01*
X1650Y847D02*
X1658Y847D01*
X530Y846D02*
X539Y846D01*
X558Y846D02*
X567Y846D01*
X1622Y846D02*
X1630Y846D01*
X1650Y846D02*
X1658Y846D01*
X531Y845D02*
X540Y845D01*
X559Y845D02*
X568Y845D01*
X1622Y845D02*
X1630Y845D01*
X1650Y845D02*
X1658Y845D01*
X532Y844D02*
X540Y844D01*
X559Y844D02*
X568Y844D01*
X1622Y844D02*
X1630Y844D01*
X1650Y844D02*
X1658Y844D01*
X532Y843D02*
X541Y843D01*
X560Y843D02*
X569Y843D01*
X1622Y843D02*
X1630Y843D01*
X1650Y843D02*
X1658Y843D01*
X533Y842D02*
X542Y842D01*
X560Y842D02*
X569Y842D01*
X1622Y842D02*
X1630Y842D01*
X1650Y842D02*
X1658Y842D01*
X533Y841D02*
X542Y841D01*
X561Y841D02*
X570Y841D01*
X1622Y841D02*
X1630Y841D01*
X1650Y841D02*
X1658Y841D01*
X534Y840D02*
X543Y840D01*
X562Y840D02*
X570Y840D01*
X1622Y840D02*
X1630Y840D01*
X1650Y840D02*
X1658Y840D01*
X534Y839D02*
X543Y839D01*
X562Y839D02*
X571Y839D01*
X1622Y839D02*
X1630Y839D01*
X1650Y839D02*
X1658Y839D01*
X535Y838D02*
X544Y838D01*
X563Y838D02*
X572Y838D01*
X1622Y838D02*
X1630Y838D01*
X1650Y838D02*
X1658Y838D01*
X535Y837D02*
X544Y837D01*
X563Y837D02*
X572Y837D01*
X1622Y837D02*
X1630Y837D01*
X1650Y837D02*
X1658Y837D01*
X536Y836D02*
X545Y836D01*
X564Y836D02*
X573Y836D01*
X1622Y836D02*
X1630Y836D01*
X1650Y836D02*
X1658Y836D01*
X537Y835D02*
X545Y835D01*
X564Y835D02*
X573Y835D01*
X1622Y835D02*
X1630Y835D01*
X1650Y835D02*
X1658Y835D01*
X537Y834D02*
X546Y834D01*
X565Y834D02*
X574Y834D01*
X1622Y834D02*
X1630Y834D01*
X1650Y834D02*
X1658Y834D01*
X538Y833D02*
X547Y833D01*
X565Y833D02*
X574Y833D01*
X1622Y833D02*
X1630Y833D01*
X1650Y833D02*
X1658Y833D01*
X538Y832D02*
X547Y832D01*
X566Y832D02*
X575Y832D01*
X1622Y832D02*
X1630Y832D01*
X1650Y832D02*
X1658Y832D01*
X539Y831D02*
X548Y831D01*
X566Y831D02*
X576Y831D01*
X1622Y831D02*
X1630Y831D01*
X1650Y831D02*
X1658Y831D01*
X539Y830D02*
X548Y830D01*
X567Y830D02*
X576Y830D01*
X585Y830D02*
X585Y830D01*
X1622Y830D02*
X1630Y830D01*
X1650Y830D02*
X1658Y830D01*
X540Y829D02*
X549Y829D01*
X567Y829D02*
X577Y829D01*
X582Y829D02*
X588Y829D01*
X1622Y829D02*
X1630Y829D01*
X1650Y829D02*
X1658Y829D01*
X540Y828D02*
X549Y828D01*
X568Y828D02*
X577Y828D01*
X579Y828D02*
X589Y828D01*
X1622Y828D02*
X1630Y828D01*
X1650Y828D02*
X1658Y828D01*
X541Y827D02*
X550Y827D01*
X569Y827D02*
X590Y827D01*
X1622Y827D02*
X1630Y827D01*
X1650Y827D02*
X1658Y827D01*
X541Y826D02*
X550Y826D01*
X569Y826D02*
X591Y826D01*
X1622Y826D02*
X1630Y826D01*
X1650Y826D02*
X1658Y826D01*
X542Y825D02*
X551Y825D01*
X570Y825D02*
X591Y825D01*
X1622Y825D02*
X1630Y825D01*
X1650Y825D02*
X1658Y825D01*
X543Y824D02*
X552Y824D01*
X570Y824D02*
X592Y824D01*
X1622Y824D02*
X1630Y824D01*
X1650Y824D02*
X1658Y824D01*
X543Y823D02*
X552Y823D01*
X570Y823D02*
X592Y823D01*
X1622Y823D02*
X1630Y823D01*
X1650Y823D02*
X1658Y823D01*
X544Y822D02*
X553Y822D01*
X568Y822D02*
X593Y822D01*
X1622Y822D02*
X1630Y822D01*
X1650Y822D02*
X1658Y822D01*
X544Y821D02*
X553Y821D01*
X567Y821D02*
X593Y821D01*
X1622Y821D02*
X1630Y821D01*
X1650Y821D02*
X1658Y821D01*
X545Y820D02*
X554Y820D01*
X565Y820D02*
X594Y820D01*
X1622Y820D02*
X1630Y820D01*
X1650Y820D02*
X1658Y820D01*
X545Y819D02*
X554Y819D01*
X563Y819D02*
X595Y819D01*
X1622Y819D02*
X1630Y819D01*
X1649Y819D02*
X1658Y819D01*
X546Y818D02*
X555Y818D01*
X561Y818D02*
X595Y818D01*
X1615Y818D02*
X1665Y818D01*
X546Y817D02*
X556Y817D01*
X560Y817D02*
X596Y817D01*
X1612Y817D02*
X1667Y817D01*
X547Y816D02*
X596Y816D01*
X1611Y816D02*
X1669Y816D01*
X547Y815D02*
X597Y815D01*
X1610Y815D02*
X1669Y815D01*
X548Y814D02*
X597Y814D01*
X1609Y814D02*
X1670Y814D01*
X548Y813D02*
X598Y813D01*
X1609Y813D02*
X1671Y813D01*
X549Y812D02*
X598Y812D01*
X749Y812D02*
X758Y812D01*
X869Y812D02*
X877Y812D01*
X949Y812D02*
X958Y812D01*
X1029Y812D02*
X1039Y812D01*
X1124Y812D02*
X1133Y812D01*
X1216Y812D02*
X1224Y812D01*
X1391Y812D02*
X1401Y812D01*
X1609Y812D02*
X1671Y812D01*
X548Y811D02*
X599Y811D01*
X746Y811D02*
X761Y811D01*
X866Y811D02*
X880Y811D01*
X946Y811D02*
X961Y811D01*
X1027Y811D02*
X1042Y811D01*
X1121Y811D02*
X1135Y811D01*
X1213Y811D02*
X1227Y811D01*
X1388Y811D02*
X1403Y811D01*
X1609Y811D02*
X1671Y811D01*
X547Y810D02*
X600Y810D01*
X744Y810D02*
X763Y810D01*
X864Y810D02*
X882Y810D01*
X944Y810D02*
X963Y810D01*
X1025Y810D02*
X1043Y810D01*
X1119Y810D02*
X1137Y810D01*
X1211Y810D02*
X1229Y810D01*
X1387Y810D02*
X1405Y810D01*
X1609Y810D02*
X1671Y810D01*
X546Y809D02*
X600Y809D01*
X743Y809D02*
X764Y809D01*
X862Y809D02*
X884Y809D01*
X943Y809D02*
X964Y809D01*
X1023Y809D02*
X1045Y809D01*
X1117Y809D02*
X1139Y809D01*
X1209Y809D02*
X1231Y809D01*
X1385Y809D02*
X1407Y809D01*
X1609Y809D02*
X1671Y809D01*
X545Y808D02*
X601Y808D01*
X741Y808D02*
X765Y808D01*
X861Y808D02*
X885Y808D01*
X941Y808D02*
X966Y808D01*
X1022Y808D02*
X1046Y808D01*
X1116Y808D02*
X1140Y808D01*
X1208Y808D02*
X1232Y808D01*
X1384Y808D02*
X1408Y808D01*
X1609Y808D02*
X1671Y808D01*
X544Y807D02*
X601Y807D01*
X740Y807D02*
X767Y807D01*
X860Y807D02*
X886Y807D01*
X940Y807D02*
X967Y807D01*
X1021Y807D02*
X1047Y807D01*
X1115Y807D02*
X1141Y807D01*
X1207Y807D02*
X1233Y807D01*
X1285Y807D02*
X1295Y807D01*
X1383Y807D02*
X1409Y807D01*
X1609Y807D02*
X1671Y807D01*
X543Y806D02*
X602Y806D01*
X740Y806D02*
X768Y806D01*
X859Y806D02*
X887Y806D01*
X940Y806D02*
X968Y806D01*
X1020Y806D02*
X1048Y806D01*
X1114Y806D02*
X1142Y806D01*
X1206Y806D02*
X1234Y806D01*
X1283Y806D02*
X1297Y806D01*
X1382Y806D02*
X1410Y806D01*
X1609Y806D02*
X1671Y806D01*
X543Y805D02*
X602Y805D01*
X739Y805D02*
X768Y805D01*
X858Y805D02*
X888Y805D01*
X939Y805D02*
X968Y805D01*
X1019Y805D02*
X1049Y805D01*
X1114Y805D02*
X1143Y805D01*
X1205Y805D02*
X1235Y805D01*
X1281Y805D02*
X1299Y805D01*
X1381Y805D02*
X1411Y805D01*
X1609Y805D02*
X1671Y805D01*
X543Y804D02*
X603Y804D01*
X738Y804D02*
X769Y804D01*
X857Y804D02*
X889Y804D01*
X938Y804D02*
X969Y804D01*
X1019Y804D02*
X1050Y804D01*
X1113Y804D02*
X1144Y804D01*
X1205Y804D02*
X1235Y804D01*
X1279Y804D02*
X1301Y804D01*
X1380Y804D02*
X1411Y804D01*
X1609Y804D02*
X1671Y804D01*
X543Y803D02*
X603Y803D01*
X738Y803D02*
X769Y803D01*
X857Y803D02*
X889Y803D01*
X937Y803D02*
X970Y803D01*
X1018Y803D02*
X1050Y803D01*
X1112Y803D02*
X1144Y803D01*
X1204Y803D02*
X1236Y803D01*
X1278Y803D02*
X1302Y803D01*
X1379Y803D02*
X1412Y803D01*
X1609Y803D02*
X1671Y803D01*
X543Y802D02*
X604Y802D01*
X737Y802D02*
X770Y802D01*
X856Y802D02*
X890Y802D01*
X937Y802D02*
X970Y802D01*
X1017Y802D02*
X1051Y802D01*
X1112Y802D02*
X1145Y802D01*
X1204Y802D02*
X1237Y802D01*
X1277Y802D02*
X1303Y802D01*
X1378Y802D02*
X1413Y802D01*
X1609Y802D02*
X1671Y802D01*
X543Y801D02*
X605Y801D01*
X736Y801D02*
X771Y801D01*
X856Y801D02*
X890Y801D01*
X936Y801D02*
X971Y801D01*
X1017Y801D02*
X1051Y801D01*
X1111Y801D02*
X1145Y801D01*
X1203Y801D02*
X1237Y801D01*
X1276Y801D02*
X1304Y801D01*
X1378Y801D02*
X1413Y801D01*
X1609Y801D02*
X1671Y801D01*
X544Y800D02*
X605Y800D01*
X736Y800D02*
X771Y800D01*
X855Y800D02*
X891Y800D01*
X936Y800D02*
X971Y800D01*
X1017Y800D02*
X1052Y800D01*
X1111Y800D02*
X1146Y800D01*
X1203Y800D02*
X1238Y800D01*
X1275Y800D02*
X1305Y800D01*
X1377Y800D02*
X1414Y800D01*
X1609Y800D02*
X1671Y800D01*
X544Y799D02*
X606Y799D01*
X735Y799D02*
X772Y799D01*
X855Y799D02*
X891Y799D01*
X936Y799D02*
X972Y799D01*
X1016Y799D02*
X1052Y799D01*
X1110Y799D02*
X1147Y799D01*
X1202Y799D02*
X1239Y799D01*
X1274Y799D02*
X1305Y799D01*
X1376Y799D02*
X1415Y799D01*
X1609Y799D02*
X1671Y799D01*
X545Y798D02*
X606Y798D01*
X734Y798D02*
X772Y798D01*
X855Y798D02*
X891Y798D01*
X935Y798D02*
X972Y798D01*
X1016Y798D02*
X1052Y798D01*
X1110Y798D02*
X1147Y798D01*
X1202Y798D02*
X1239Y798D01*
X1274Y798D02*
X1306Y798D01*
X1375Y798D02*
X1415Y798D01*
X1609Y798D02*
X1671Y798D01*
X545Y797D02*
X607Y797D01*
X734Y797D02*
X773Y797D01*
X855Y797D02*
X892Y797D01*
X935Y797D02*
X972Y797D01*
X1016Y797D02*
X1052Y797D01*
X1109Y797D02*
X1148Y797D01*
X1201Y797D02*
X1240Y797D01*
X1273Y797D02*
X1306Y797D01*
X1374Y797D02*
X1416Y797D01*
X1609Y797D02*
X1671Y797D01*
X546Y796D02*
X607Y796D01*
X733Y796D02*
X773Y796D01*
X855Y796D02*
X892Y796D01*
X935Y796D02*
X972Y796D01*
X1015Y796D02*
X1053Y796D01*
X1108Y796D02*
X1148Y796D01*
X1201Y796D02*
X1240Y796D01*
X1273Y796D02*
X1307Y796D01*
X1373Y796D02*
X1416Y796D01*
X1609Y796D02*
X1671Y796D01*
X546Y795D02*
X608Y795D01*
X732Y795D02*
X774Y795D01*
X854Y795D02*
X892Y795D01*
X935Y795D02*
X972Y795D01*
X1015Y795D02*
X1053Y795D01*
X1108Y795D02*
X1149Y795D01*
X1200Y795D02*
X1241Y795D01*
X1272Y795D02*
X1308Y795D01*
X1373Y795D02*
X1417Y795D01*
X1609Y795D02*
X1671Y795D01*
X547Y794D02*
X608Y794D01*
X732Y794D02*
X775Y794D01*
X854Y794D02*
X892Y794D01*
X935Y794D02*
X972Y794D01*
X1015Y794D02*
X1053Y794D01*
X1107Y794D02*
X1149Y794D01*
X1200Y794D02*
X1242Y794D01*
X1272Y794D02*
X1308Y794D01*
X1372Y794D02*
X1418Y794D01*
X1609Y794D02*
X1671Y794D01*
X547Y793D02*
X609Y793D01*
X731Y793D02*
X775Y793D01*
X854Y793D02*
X892Y793D01*
X935Y793D02*
X972Y793D01*
X1015Y793D02*
X1053Y793D01*
X1107Y793D02*
X1150Y793D01*
X1199Y793D02*
X1242Y793D01*
X1272Y793D02*
X1309Y793D01*
X1371Y793D02*
X1418Y793D01*
X1609Y793D02*
X1671Y793D01*
X548Y792D02*
X610Y792D01*
X731Y792D02*
X776Y792D01*
X854Y792D02*
X892Y792D01*
X934Y792D02*
X973Y792D01*
X1015Y792D02*
X1053Y792D01*
X1106Y792D02*
X1150Y792D01*
X1199Y792D02*
X1243Y792D01*
X1272Y792D02*
X1309Y792D01*
X1370Y792D02*
X1419Y792D01*
X1609Y792D02*
X1671Y792D01*
X548Y791D02*
X610Y791D01*
X730Y791D02*
X776Y791D01*
X854Y791D02*
X892Y791D01*
X934Y791D02*
X973Y791D01*
X1015Y791D02*
X1053Y791D01*
X1106Y791D02*
X1151Y791D01*
X1199Y791D02*
X1243Y791D01*
X1271Y791D02*
X1310Y791D01*
X1369Y791D02*
X1419Y791D01*
X1609Y791D02*
X1671Y791D01*
X549Y790D02*
X611Y790D01*
X729Y790D02*
X777Y790D01*
X854Y790D02*
X892Y790D01*
X934Y790D02*
X973Y790D01*
X1015Y790D02*
X1053Y790D01*
X1105Y790D02*
X1151Y790D01*
X1198Y790D02*
X1244Y790D01*
X1271Y790D02*
X1310Y790D01*
X1368Y790D02*
X1420Y790D01*
X1609Y790D02*
X1671Y790D01*
X550Y789D02*
X611Y789D01*
X729Y789D02*
X777Y789D01*
X854Y789D02*
X891Y789D01*
X934Y789D02*
X973Y789D01*
X1015Y789D02*
X1053Y789D01*
X1104Y789D02*
X1152Y789D01*
X1198Y789D02*
X1244Y789D01*
X1271Y789D02*
X1311Y789D01*
X1368Y789D02*
X1421Y789D01*
X1609Y789D02*
X1671Y789D01*
X550Y788D02*
X612Y788D01*
X728Y788D02*
X778Y788D01*
X853Y788D02*
X891Y788D01*
X934Y788D02*
X973Y788D01*
X1016Y788D02*
X1053Y788D01*
X1104Y788D02*
X1152Y788D01*
X1197Y788D02*
X1245Y788D01*
X1271Y788D02*
X1311Y788D01*
X1367Y788D02*
X1421Y788D01*
X1609Y788D02*
X1671Y788D01*
X551Y787D02*
X612Y787D01*
X727Y787D02*
X778Y787D01*
X853Y787D02*
X891Y787D01*
X934Y787D02*
X973Y787D01*
X1016Y787D02*
X1054Y787D01*
X1103Y787D02*
X1153Y787D01*
X1197Y787D02*
X1246Y787D01*
X1271Y787D02*
X1312Y787D01*
X1366Y787D02*
X1422Y787D01*
X1609Y787D02*
X1671Y787D01*
X551Y786D02*
X613Y786D01*
X727Y786D02*
X779Y786D01*
X853Y786D02*
X891Y786D01*
X934Y786D02*
X973Y786D01*
X1016Y786D02*
X1054Y786D01*
X1103Y786D02*
X1154Y786D01*
X1196Y786D02*
X1246Y786D01*
X1271Y786D02*
X1312Y786D01*
X1365Y786D02*
X1422Y786D01*
X1609Y786D02*
X1671Y786D01*
X552Y785D02*
X613Y785D01*
X726Y785D02*
X780Y785D01*
X853Y785D02*
X891Y785D01*
X934Y785D02*
X973Y785D01*
X1016Y785D02*
X1054Y785D01*
X1102Y785D02*
X1154Y785D01*
X1196Y785D02*
X1247Y785D01*
X1271Y785D02*
X1313Y785D01*
X1364Y785D02*
X1423Y785D01*
X1609Y785D02*
X1671Y785D01*
X552Y784D02*
X614Y784D01*
X725Y784D02*
X780Y784D01*
X853Y784D02*
X891Y784D01*
X933Y784D02*
X973Y784D01*
X1016Y784D02*
X1054Y784D01*
X1102Y784D02*
X1155Y784D01*
X1196Y784D02*
X1247Y784D01*
X1271Y784D02*
X1313Y784D01*
X1363Y784D02*
X1424Y784D01*
X1609Y784D02*
X1671Y784D01*
X553Y783D02*
X615Y783D01*
X725Y783D02*
X781Y783D01*
X853Y783D02*
X891Y783D01*
X933Y783D02*
X973Y783D01*
X1016Y783D02*
X1054Y783D01*
X1101Y783D02*
X1155Y783D01*
X1195Y783D02*
X1248Y783D01*
X1271Y783D02*
X1314Y783D01*
X1363Y783D02*
X1424Y783D01*
X1609Y783D02*
X1671Y783D01*
X553Y782D02*
X615Y782D01*
X724Y782D02*
X781Y782D01*
X853Y782D02*
X891Y782D01*
X933Y782D02*
X973Y782D01*
X1016Y782D02*
X1054Y782D01*
X1101Y782D02*
X1156Y782D01*
X1195Y782D02*
X1249Y782D01*
X1271Y782D02*
X1314Y782D01*
X1362Y782D02*
X1425Y782D01*
X1609Y782D02*
X1671Y782D01*
X554Y781D02*
X616Y781D01*
X724Y781D02*
X782Y781D01*
X852Y781D02*
X891Y781D01*
X933Y781D02*
X973Y781D01*
X1016Y781D02*
X1054Y781D01*
X1100Y781D02*
X1156Y781D01*
X1194Y781D02*
X1249Y781D01*
X1271Y781D02*
X1315Y781D01*
X1361Y781D02*
X1426Y781D01*
X1609Y781D02*
X1671Y781D01*
X554Y780D02*
X616Y780D01*
X723Y780D02*
X782Y780D01*
X852Y780D02*
X890Y780D01*
X933Y780D02*
X973Y780D01*
X1016Y780D02*
X1054Y780D01*
X1100Y780D02*
X1157Y780D01*
X1194Y780D02*
X1250Y780D01*
X1271Y780D02*
X1315Y780D01*
X1360Y780D02*
X1426Y780D01*
X1609Y780D02*
X1671Y780D01*
X555Y779D02*
X617Y779D01*
X722Y779D02*
X783Y779D01*
X852Y779D02*
X890Y779D01*
X933Y779D02*
X974Y779D01*
X1016Y779D02*
X1054Y779D01*
X1099Y779D02*
X1157Y779D01*
X1193Y779D02*
X1250Y779D01*
X1271Y779D02*
X1316Y779D01*
X1359Y779D02*
X1427Y779D01*
X1609Y779D02*
X1671Y779D01*
X556Y778D02*
X617Y778D01*
X722Y778D02*
X783Y778D01*
X852Y778D02*
X890Y778D01*
X933Y778D02*
X974Y778D01*
X1016Y778D02*
X1054Y778D01*
X1099Y778D02*
X1158Y778D01*
X1193Y778D02*
X1251Y778D01*
X1271Y778D02*
X1316Y778D01*
X1359Y778D02*
X1427Y778D01*
X1609Y778D02*
X1671Y778D01*
X556Y777D02*
X618Y777D01*
X721Y777D02*
X784Y777D01*
X852Y777D02*
X890Y777D01*
X933Y777D02*
X974Y777D01*
X1016Y777D02*
X1054Y777D01*
X1098Y777D02*
X1158Y777D01*
X1192Y777D02*
X1252Y777D01*
X1271Y777D02*
X1316Y777D01*
X1358Y777D02*
X1428Y777D01*
X1609Y777D02*
X1671Y777D01*
X557Y776D02*
X618Y776D01*
X721Y776D02*
X784Y776D01*
X852Y776D02*
X890Y776D01*
X932Y776D02*
X974Y776D01*
X1016Y776D02*
X1054Y776D01*
X1097Y776D02*
X1159Y776D01*
X1192Y776D02*
X1252Y776D01*
X1271Y776D02*
X1317Y776D01*
X1357Y776D02*
X1429Y776D01*
X1609Y776D02*
X1671Y776D01*
X557Y775D02*
X619Y775D01*
X720Y775D02*
X785Y775D01*
X852Y775D02*
X890Y775D01*
X932Y775D02*
X974Y775D01*
X1017Y775D02*
X1054Y775D01*
X1097Y775D02*
X1159Y775D01*
X1192Y775D02*
X1253Y775D01*
X1271Y775D02*
X1317Y775D01*
X1356Y775D02*
X1429Y775D01*
X1609Y775D02*
X1671Y775D01*
X558Y774D02*
X620Y774D01*
X719Y774D02*
X786Y774D01*
X852Y774D02*
X890Y774D01*
X932Y774D02*
X974Y774D01*
X1017Y774D02*
X1055Y774D01*
X1096Y774D02*
X1160Y774D01*
X1191Y774D02*
X1253Y774D01*
X1271Y774D02*
X1318Y774D01*
X1355Y774D02*
X1430Y774D01*
X1609Y774D02*
X1671Y774D01*
X558Y773D02*
X620Y773D01*
X719Y773D02*
X786Y773D01*
X851Y773D02*
X890Y773D01*
X932Y773D02*
X974Y773D01*
X1017Y773D02*
X1055Y773D01*
X1096Y773D02*
X1161Y773D01*
X1191Y773D02*
X1254Y773D01*
X1271Y773D02*
X1318Y773D01*
X1354Y773D02*
X1430Y773D01*
X1609Y773D02*
X1671Y773D01*
X559Y772D02*
X621Y772D01*
X718Y772D02*
X787Y772D01*
X851Y772D02*
X889Y772D01*
X932Y772D02*
X974Y772D01*
X1017Y772D02*
X1055Y772D01*
X1095Y772D02*
X1161Y772D01*
X1190Y772D02*
X1254Y772D01*
X1272Y772D02*
X1319Y772D01*
X1354Y772D02*
X1431Y772D01*
X1609Y772D02*
X1671Y772D01*
X559Y771D02*
X621Y771D01*
X717Y771D02*
X787Y771D01*
X851Y771D02*
X889Y771D01*
X932Y771D02*
X974Y771D01*
X1017Y771D02*
X1055Y771D01*
X1095Y771D02*
X1162Y771D01*
X1190Y771D02*
X1255Y771D01*
X1272Y771D02*
X1319Y771D01*
X1353Y771D02*
X1432Y771D01*
X1609Y771D02*
X1671Y771D01*
X560Y770D02*
X622Y770D01*
X717Y770D02*
X788Y770D01*
X851Y770D02*
X889Y770D01*
X932Y770D02*
X974Y770D01*
X1017Y770D02*
X1055Y770D01*
X1094Y770D02*
X1162Y770D01*
X1189Y770D02*
X1256Y770D01*
X1272Y770D02*
X1320Y770D01*
X1352Y770D02*
X1432Y770D01*
X1609Y770D02*
X1671Y770D01*
X560Y769D02*
X622Y769D01*
X716Y769D02*
X788Y769D01*
X851Y769D02*
X889Y769D01*
X932Y769D02*
X974Y769D01*
X1017Y769D02*
X1055Y769D01*
X1094Y769D02*
X1163Y769D01*
X1189Y769D02*
X1256Y769D01*
X1272Y769D02*
X1320Y769D01*
X1351Y769D02*
X1433Y769D01*
X1609Y769D02*
X1671Y769D01*
X561Y768D02*
X623Y768D01*
X716Y768D02*
X789Y768D01*
X851Y768D02*
X889Y768D01*
X931Y768D02*
X974Y768D01*
X1017Y768D02*
X1055Y768D01*
X1093Y768D02*
X1163Y768D01*
X1189Y768D02*
X1257Y768D01*
X1272Y768D02*
X1321Y768D01*
X1351Y768D02*
X1433Y768D01*
X1609Y768D02*
X1671Y768D01*
X562Y767D02*
X623Y767D01*
X715Y767D02*
X789Y767D01*
X851Y767D02*
X889Y767D01*
X931Y767D02*
X974Y767D01*
X1017Y767D02*
X1055Y767D01*
X1093Y767D02*
X1164Y767D01*
X1188Y767D02*
X1257Y767D01*
X1272Y767D02*
X1321Y767D01*
X1350Y767D02*
X1434Y767D01*
X1609Y767D02*
X1671Y767D01*
X562Y766D02*
X624Y766D01*
X714Y766D02*
X790Y766D01*
X850Y766D02*
X889Y766D01*
X931Y766D02*
X974Y766D01*
X1017Y766D02*
X1055Y766D01*
X1092Y766D02*
X1164Y766D01*
X1188Y766D02*
X1258Y766D01*
X1272Y766D02*
X1322Y766D01*
X1349Y766D02*
X1435Y766D01*
X1609Y766D02*
X1671Y766D01*
X563Y765D02*
X624Y765D01*
X714Y765D02*
X791Y765D01*
X850Y765D02*
X889Y765D01*
X931Y765D02*
X975Y765D01*
X1017Y765D02*
X1055Y765D01*
X1092Y765D02*
X1165Y765D01*
X1187Y765D02*
X1259Y765D01*
X1272Y765D02*
X1322Y765D01*
X1348Y765D02*
X1435Y765D01*
X1609Y765D02*
X1671Y765D01*
X563Y764D02*
X625Y764D01*
X713Y764D02*
X791Y764D01*
X850Y764D02*
X888Y764D01*
X931Y764D02*
X975Y764D01*
X1017Y764D02*
X1055Y764D01*
X1091Y764D02*
X1165Y764D01*
X1187Y764D02*
X1259Y764D01*
X1272Y764D02*
X1323Y764D01*
X1347Y764D02*
X1436Y764D01*
X1609Y764D02*
X1671Y764D01*
X564Y763D02*
X626Y763D01*
X712Y763D02*
X792Y763D01*
X850Y763D02*
X888Y763D01*
X931Y763D02*
X975Y763D01*
X1017Y763D02*
X1055Y763D01*
X1091Y763D02*
X1166Y763D01*
X1186Y763D02*
X1260Y763D01*
X1272Y763D02*
X1323Y763D01*
X1347Y763D02*
X1436Y763D01*
X1609Y763D02*
X1671Y763D01*
X564Y762D02*
X626Y762D01*
X712Y762D02*
X792Y762D01*
X850Y762D02*
X888Y762D01*
X931Y762D02*
X975Y762D01*
X1018Y762D02*
X1056Y762D01*
X1090Y762D02*
X1166Y762D01*
X1186Y762D02*
X1260Y762D01*
X1272Y762D02*
X1324Y762D01*
X1346Y762D02*
X1437Y762D01*
X1609Y762D02*
X1671Y762D01*
X565Y761D02*
X627Y761D01*
X711Y761D02*
X793Y761D01*
X850Y761D02*
X888Y761D01*
X931Y761D02*
X975Y761D01*
X1018Y761D02*
X1056Y761D01*
X1089Y761D02*
X1167Y761D01*
X1186Y761D02*
X1261Y761D01*
X1272Y761D02*
X1324Y761D01*
X1345Y761D02*
X1438Y761D01*
X1609Y761D02*
X1671Y761D01*
X565Y760D02*
X627Y760D01*
X711Y760D02*
X793Y760D01*
X850Y760D02*
X888Y760D01*
X931Y760D02*
X975Y760D01*
X1018Y760D02*
X1056Y760D01*
X1089Y760D02*
X1168Y760D01*
X1185Y760D02*
X1262Y760D01*
X1272Y760D02*
X1325Y760D01*
X1345Y760D02*
X1438Y760D01*
X1609Y760D02*
X1671Y760D01*
X566Y759D02*
X628Y759D01*
X710Y759D02*
X794Y759D01*
X850Y759D02*
X888Y759D01*
X930Y759D02*
X975Y759D01*
X1018Y759D02*
X1056Y759D01*
X1088Y759D02*
X1168Y759D01*
X1185Y759D02*
X1262Y759D01*
X1272Y759D02*
X1325Y759D01*
X1344Y759D02*
X1439Y759D01*
X1609Y759D02*
X1671Y759D01*
X566Y758D02*
X628Y758D01*
X709Y758D02*
X794Y758D01*
X849Y758D02*
X888Y758D01*
X930Y758D02*
X975Y758D01*
X1018Y758D02*
X1056Y758D01*
X1088Y758D02*
X1169Y758D01*
X1184Y758D02*
X1263Y758D01*
X1272Y758D02*
X1326Y758D01*
X1343Y758D02*
X1392Y758D01*
X1395Y758D02*
X1439Y758D01*
X1609Y758D02*
X1671Y758D01*
X567Y757D02*
X629Y757D01*
X709Y757D02*
X795Y757D01*
X849Y757D02*
X888Y757D01*
X930Y757D02*
X975Y757D01*
X1018Y757D02*
X1056Y757D01*
X1087Y757D02*
X1169Y757D01*
X1184Y757D02*
X1263Y757D01*
X1272Y757D02*
X1326Y757D01*
X1343Y757D02*
X1391Y757D01*
X1395Y757D02*
X1440Y757D01*
X1609Y757D02*
X1671Y757D01*
X568Y756D02*
X629Y756D01*
X708Y756D02*
X795Y756D01*
X849Y756D02*
X888Y756D01*
X930Y756D02*
X975Y756D01*
X1018Y756D02*
X1056Y756D01*
X1087Y756D02*
X1170Y756D01*
X1183Y756D02*
X1264Y756D01*
X1272Y756D02*
X1327Y756D01*
X1343Y756D02*
X1390Y756D01*
X1396Y756D02*
X1441Y756D01*
X1609Y756D02*
X1671Y756D01*
X568Y755D02*
X630Y755D01*
X708Y755D02*
X796Y755D01*
X849Y755D02*
X887Y755D01*
X930Y755D02*
X975Y755D01*
X1018Y755D02*
X1056Y755D01*
X1086Y755D02*
X1170Y755D01*
X1183Y755D02*
X1264Y755D01*
X1272Y755D02*
X1327Y755D01*
X1342Y755D02*
X1389Y755D01*
X1397Y755D02*
X1441Y755D01*
X1609Y755D02*
X1671Y755D01*
X569Y754D02*
X631Y754D01*
X707Y754D02*
X797Y754D01*
X849Y754D02*
X887Y754D01*
X930Y754D02*
X975Y754D01*
X1018Y754D02*
X1056Y754D01*
X1086Y754D02*
X1171Y754D01*
X1183Y754D02*
X1265Y754D01*
X1272Y754D02*
X1328Y754D01*
X1342Y754D02*
X1388Y754D01*
X1397Y754D02*
X1442Y754D01*
X1609Y754D02*
X1671Y754D01*
X569Y753D02*
X631Y753D01*
X706Y753D02*
X751Y753D01*
X753Y753D02*
X797Y753D01*
X849Y753D02*
X887Y753D01*
X930Y753D02*
X975Y753D01*
X1018Y753D02*
X1056Y753D01*
X1085Y753D02*
X1171Y753D01*
X1182Y753D02*
X1266Y753D01*
X1272Y753D02*
X1328Y753D01*
X1342Y753D02*
X1388Y753D01*
X1398Y753D02*
X1442Y753D01*
X1609Y753D02*
X1671Y753D01*
X570Y752D02*
X632Y752D01*
X706Y752D02*
X751Y752D01*
X754Y752D02*
X798Y752D01*
X849Y752D02*
X887Y752D01*
X930Y752D02*
X976Y752D01*
X1018Y752D02*
X1056Y752D01*
X1085Y752D02*
X1172Y752D01*
X1182Y752D02*
X1266Y752D01*
X1272Y752D02*
X1329Y752D01*
X1342Y752D02*
X1387Y752D01*
X1399Y752D02*
X1443Y752D01*
X1608Y752D02*
X1671Y752D01*
X570Y751D02*
X632Y751D01*
X705Y751D02*
X750Y751D01*
X754Y751D02*
X798Y751D01*
X848Y751D02*
X887Y751D01*
X929Y751D02*
X976Y751D01*
X1018Y751D02*
X1056Y751D01*
X1084Y751D02*
X1172Y751D01*
X1181Y751D02*
X1267Y751D01*
X1272Y751D02*
X1329Y751D01*
X1342Y751D02*
X1386Y751D01*
X1399Y751D02*
X1444Y751D01*
X1608Y751D02*
X1671Y751D01*
X571Y750D02*
X633Y750D01*
X704Y750D02*
X749Y750D01*
X755Y750D02*
X799Y750D01*
X848Y750D02*
X887Y750D01*
X929Y750D02*
X976Y750D01*
X1019Y750D02*
X1057Y750D01*
X1084Y750D02*
X1127Y750D01*
X1129Y750D02*
X1173Y750D01*
X1181Y750D02*
X1267Y750D01*
X1272Y750D02*
X1330Y750D01*
X1342Y750D02*
X1385Y750D01*
X1400Y750D02*
X1444Y750D01*
X1608Y750D02*
X1671Y750D01*
X571Y749D02*
X633Y749D01*
X704Y749D02*
X749Y749D01*
X756Y749D02*
X799Y749D01*
X848Y749D02*
X887Y749D01*
X929Y749D02*
X976Y749D01*
X1019Y749D02*
X1057Y749D01*
X1083Y749D02*
X1127Y749D01*
X1130Y749D02*
X1173Y749D01*
X1181Y749D02*
X1268Y749D01*
X1272Y749D02*
X1330Y749D01*
X1342Y749D02*
X1384Y749D01*
X1400Y749D02*
X1445Y749D01*
X1608Y749D02*
X1671Y749D01*
X572Y748D02*
X634Y748D01*
X703Y748D02*
X748Y748D01*
X756Y748D02*
X800Y748D01*
X848Y748D02*
X887Y748D01*
X929Y748D02*
X976Y748D01*
X1019Y748D02*
X1057Y748D01*
X1082Y748D02*
X1126Y748D01*
X1131Y748D02*
X1174Y748D01*
X1180Y748D02*
X1222Y748D01*
X1224Y748D02*
X1269Y748D01*
X1272Y748D02*
X1331Y748D01*
X1342Y748D02*
X1383Y748D01*
X1401Y748D02*
X1446Y748D01*
X1608Y748D02*
X1671Y748D01*
X572Y747D02*
X634Y747D01*
X703Y747D02*
X747Y747D01*
X757Y747D02*
X800Y747D01*
X848Y747D02*
X886Y747D01*
X929Y747D02*
X976Y747D01*
X1019Y747D02*
X1057Y747D01*
X1082Y747D02*
X1125Y747D01*
X1131Y747D02*
X1174Y747D01*
X1180Y747D02*
X1221Y747D01*
X1225Y747D02*
X1269Y747D01*
X1272Y747D02*
X1331Y747D01*
X1342Y747D02*
X1382Y747D01*
X1402Y747D02*
X1446Y747D01*
X1608Y747D02*
X1671Y747D01*
X573Y746D02*
X635Y746D01*
X702Y746D02*
X747Y746D01*
X757Y746D02*
X801Y746D01*
X848Y746D02*
X886Y746D01*
X929Y746D02*
X976Y746D01*
X1019Y746D02*
X1057Y746D01*
X1081Y746D02*
X1125Y746D01*
X1132Y746D02*
X1175Y746D01*
X1179Y746D02*
X1221Y746D01*
X1225Y746D02*
X1270Y746D01*
X1272Y746D02*
X1332Y746D01*
X1342Y746D02*
X1382Y746D01*
X1402Y746D02*
X1447Y746D01*
X1608Y746D02*
X1671Y746D01*
X574Y745D02*
X636Y745D01*
X701Y745D02*
X746Y745D01*
X758Y745D02*
X801Y745D01*
X848Y745D02*
X886Y745D01*
X929Y745D02*
X976Y745D01*
X1019Y745D02*
X1057Y745D01*
X1081Y745D02*
X1124Y745D01*
X1132Y745D02*
X1176Y745D01*
X1179Y745D02*
X1220Y745D01*
X1226Y745D02*
X1270Y745D01*
X1272Y745D02*
X1332Y745D01*
X1343Y745D02*
X1381Y745D01*
X1403Y745D02*
X1447Y745D01*
X1608Y745D02*
X1671Y745D01*
X574Y744D02*
X636Y744D01*
X701Y744D02*
X746Y744D01*
X758Y744D02*
X802Y744D01*
X848Y744D02*
X886Y744D01*
X929Y744D02*
X976Y744D01*
X1019Y744D02*
X1057Y744D01*
X1080Y744D02*
X1124Y744D01*
X1133Y744D02*
X1176Y744D01*
X1179Y744D02*
X1220Y744D01*
X1226Y744D02*
X1333Y744D01*
X1343Y744D02*
X1380Y744D01*
X1403Y744D02*
X1448Y744D01*
X1608Y744D02*
X1671Y744D01*
X575Y743D02*
X637Y743D01*
X700Y743D02*
X745Y743D01*
X759Y743D02*
X803Y743D01*
X847Y743D02*
X886Y743D01*
X928Y743D02*
X976Y743D01*
X1019Y743D02*
X1057Y743D01*
X1080Y743D02*
X1123Y743D01*
X1133Y743D02*
X1219Y743D01*
X1227Y743D02*
X1333Y743D01*
X1344Y743D02*
X1379Y743D01*
X1404Y743D02*
X1449Y743D01*
X1608Y743D02*
X1671Y743D01*
X575Y742D02*
X637Y742D01*
X699Y742D02*
X744Y742D01*
X760Y742D02*
X803Y742D01*
X847Y742D02*
X886Y742D01*
X928Y742D02*
X976Y742D01*
X1019Y742D02*
X1057Y742D01*
X1079Y742D02*
X1123Y742D01*
X1134Y742D02*
X1219Y742D01*
X1228Y742D02*
X1333Y742D01*
X1344Y742D02*
X1378Y742D01*
X1405Y742D02*
X1449Y742D01*
X1608Y742D02*
X1671Y742D01*
X576Y741D02*
X638Y741D01*
X699Y741D02*
X744Y741D01*
X760Y741D02*
X804Y741D01*
X847Y741D02*
X886Y741D01*
X928Y741D02*
X976Y741D01*
X1019Y741D02*
X1057Y741D01*
X1079Y741D02*
X1122Y741D01*
X1135Y741D02*
X1218Y741D01*
X1228Y741D02*
X1334Y741D01*
X1345Y741D02*
X1377Y741D01*
X1405Y741D02*
X1450Y741D01*
X1608Y741D02*
X1671Y741D01*
X576Y740D02*
X638Y740D01*
X698Y740D02*
X743Y740D01*
X761Y740D02*
X804Y740D01*
X847Y740D02*
X886Y740D01*
X928Y740D02*
X976Y740D01*
X1019Y740D02*
X1057Y740D01*
X1078Y740D02*
X1122Y740D01*
X1135Y740D02*
X1218Y740D01*
X1229Y740D02*
X1334Y740D01*
X1345Y740D02*
X1377Y740D01*
X1406Y740D02*
X1450Y740D01*
X1608Y740D02*
X1671Y740D01*
X577Y739D02*
X639Y739D01*
X698Y739D02*
X742Y739D01*
X761Y739D02*
X805Y739D01*
X847Y739D02*
X885Y739D01*
X928Y739D02*
X976Y739D01*
X1019Y739D02*
X1057Y739D01*
X1078Y739D02*
X1121Y739D01*
X1136Y739D02*
X1218Y739D01*
X1230Y739D02*
X1335Y739D01*
X1346Y739D02*
X1376Y739D01*
X1406Y739D02*
X1451Y739D01*
X1608Y739D02*
X1671Y739D01*
X577Y738D02*
X639Y738D01*
X697Y738D02*
X742Y738D01*
X762Y738D02*
X805Y738D01*
X847Y738D02*
X885Y738D01*
X928Y738D02*
X977Y738D01*
X1019Y738D02*
X1057Y738D01*
X1077Y738D02*
X1121Y738D01*
X1136Y738D02*
X1217Y738D01*
X1230Y738D02*
X1335Y738D01*
X1347Y738D02*
X1375Y738D01*
X1407Y738D02*
X1452Y738D01*
X1608Y738D02*
X1671Y738D01*
X578Y737D02*
X640Y737D01*
X696Y737D02*
X741Y737D01*
X762Y737D02*
X806Y737D01*
X847Y737D02*
X885Y737D01*
X928Y737D02*
X977Y737D01*
X1020Y737D02*
X1058Y737D01*
X1077Y737D02*
X1120Y737D01*
X1137Y737D02*
X1217Y737D01*
X1231Y737D02*
X1336Y737D01*
X1348Y737D02*
X1374Y737D01*
X1408Y737D02*
X1452Y737D01*
X1608Y737D02*
X1671Y737D01*
X579Y736D02*
X640Y736D01*
X696Y736D02*
X741Y736D01*
X763Y736D02*
X806Y736D01*
X846Y736D02*
X885Y736D01*
X928Y736D02*
X977Y736D01*
X1020Y736D02*
X1058Y736D01*
X1076Y736D02*
X1119Y736D01*
X1137Y736D02*
X1216Y736D01*
X1231Y736D02*
X1336Y736D01*
X1349Y736D02*
X1373Y736D01*
X1408Y736D02*
X1453Y736D01*
X1608Y736D02*
X1671Y736D01*
X579Y735D02*
X641Y735D01*
X695Y735D02*
X740Y735D01*
X763Y735D02*
X807Y735D01*
X846Y735D02*
X885Y735D01*
X928Y735D02*
X977Y735D01*
X1020Y735D02*
X1058Y735D01*
X1076Y735D02*
X1119Y735D01*
X1138Y735D02*
X1216Y735D01*
X1232Y735D02*
X1337Y735D01*
X1350Y735D02*
X1371Y735D01*
X1409Y735D02*
X1453Y735D01*
X1608Y735D02*
X1671Y735D01*
X580Y734D02*
X642Y734D01*
X695Y734D02*
X739Y734D01*
X764Y734D02*
X807Y734D01*
X846Y734D02*
X885Y734D01*
X927Y734D02*
X977Y734D01*
X1020Y734D02*
X1058Y734D01*
X1075Y734D02*
X1118Y734D01*
X1138Y734D02*
X1215Y734D01*
X1232Y734D02*
X1337Y734D01*
X1352Y734D02*
X1370Y734D01*
X1409Y734D02*
X1454Y734D01*
X1608Y734D02*
X1671Y734D01*
X580Y733D02*
X642Y733D01*
X694Y733D02*
X739Y733D01*
X765Y733D02*
X808Y733D01*
X846Y733D02*
X885Y733D01*
X927Y733D02*
X977Y733D01*
X1020Y733D02*
X1058Y733D01*
X1074Y733D02*
X1118Y733D01*
X1139Y733D02*
X1215Y733D01*
X1233Y733D02*
X1338Y733D01*
X1353Y733D02*
X1368Y733D01*
X1410Y733D02*
X1455Y733D01*
X1608Y733D02*
X1671Y733D01*
X581Y732D02*
X643Y732D01*
X693Y732D02*
X738Y732D01*
X765Y732D02*
X809Y732D01*
X845Y732D02*
X885Y732D01*
X927Y732D02*
X977Y732D01*
X1020Y732D02*
X1058Y732D01*
X1074Y732D02*
X1117Y732D01*
X1139Y732D02*
X1214Y732D01*
X1234Y732D02*
X1338Y732D01*
X1357Y732D02*
X1365Y732D01*
X1411Y732D02*
X1455Y732D01*
X1608Y732D02*
X1671Y732D01*
X581Y731D02*
X643Y731D01*
X693Y731D02*
X737Y731D01*
X766Y731D02*
X809Y731D01*
X845Y731D02*
X884Y731D01*
X927Y731D02*
X977Y731D01*
X1020Y731D02*
X1058Y731D01*
X1073Y731D02*
X1117Y731D01*
X1140Y731D02*
X1214Y731D01*
X1234Y731D02*
X1339Y731D01*
X1411Y731D02*
X1456Y731D01*
X1609Y731D02*
X1671Y731D01*
X582Y730D02*
X644Y730D01*
X692Y730D02*
X737Y730D01*
X766Y730D02*
X810Y730D01*
X845Y730D02*
X884Y730D01*
X927Y730D02*
X977Y730D01*
X1020Y730D02*
X1058Y730D01*
X1073Y730D02*
X1116Y730D01*
X1140Y730D02*
X1213Y730D01*
X1235Y730D02*
X1339Y730D01*
X1412Y730D02*
X1456Y730D01*
X1609Y730D02*
X1671Y730D01*
X582Y729D02*
X644Y729D01*
X691Y729D02*
X736Y729D01*
X767Y729D02*
X810Y729D01*
X845Y729D02*
X884Y729D01*
X927Y729D02*
X977Y729D01*
X1020Y729D02*
X1058Y729D01*
X1072Y729D02*
X1116Y729D01*
X1141Y729D02*
X1213Y729D01*
X1235Y729D02*
X1340Y729D01*
X1412Y729D02*
X1457Y729D01*
X1609Y729D02*
X1671Y729D01*
X583Y728D02*
X645Y728D01*
X691Y728D02*
X736Y728D01*
X767Y728D02*
X811Y728D01*
X844Y728D02*
X884Y728D01*
X927Y728D02*
X977Y728D01*
X1020Y728D02*
X1058Y728D01*
X1072Y728D02*
X1115Y728D01*
X1141Y728D02*
X1212Y728D01*
X1236Y728D02*
X1340Y728D01*
X1413Y728D02*
X1458Y728D01*
X1609Y728D02*
X1671Y728D01*
X584Y727D02*
X645Y727D01*
X690Y727D02*
X735Y727D01*
X768Y727D02*
X811Y727D01*
X844Y727D02*
X884Y727D01*
X927Y727D02*
X977Y727D01*
X1020Y727D02*
X1058Y727D01*
X1071Y727D02*
X1115Y727D01*
X1142Y727D02*
X1212Y727D01*
X1237Y727D02*
X1341Y727D01*
X1414Y727D02*
X1458Y727D01*
X1609Y727D02*
X1671Y727D01*
X584Y726D02*
X646Y726D01*
X690Y726D02*
X734Y726D01*
X768Y726D02*
X812Y726D01*
X844Y726D02*
X884Y726D01*
X926Y726D02*
X977Y726D01*
X1020Y726D02*
X1058Y726D01*
X1071Y726D02*
X1114Y726D01*
X1142Y726D02*
X1211Y726D01*
X1237Y726D02*
X1341Y726D01*
X1414Y726D02*
X1459Y726D01*
X1609Y726D02*
X1671Y726D01*
X585Y725D02*
X646Y725D01*
X689Y725D02*
X734Y725D01*
X769Y725D02*
X812Y725D01*
X843Y725D02*
X884Y725D01*
X926Y725D02*
X977Y725D01*
X1020Y725D02*
X1058Y725D01*
X1070Y725D02*
X1113Y725D01*
X1143Y725D02*
X1210Y725D01*
X1238Y725D02*
X1342Y725D01*
X1415Y725D02*
X1459Y725D01*
X1609Y725D02*
X1671Y725D01*
X585Y724D02*
X647Y724D01*
X688Y724D02*
X733Y724D01*
X770Y724D02*
X813Y724D01*
X843Y724D02*
X883Y724D01*
X926Y724D02*
X977Y724D01*
X1021Y724D02*
X1059Y724D01*
X1070Y724D02*
X1113Y724D01*
X1144Y724D02*
X1209Y724D01*
X1238Y724D02*
X1342Y724D01*
X1416Y724D02*
X1460Y724D01*
X1609Y724D02*
X1671Y724D01*
X586Y723D02*
X647Y723D01*
X688Y723D02*
X733Y723D01*
X770Y723D02*
X813Y723D01*
X842Y723D02*
X883Y723D01*
X926Y723D02*
X978Y723D01*
X1021Y723D02*
X1059Y723D01*
X1069Y723D02*
X1112Y723D01*
X1144Y723D02*
X1208Y723D01*
X1239Y723D02*
X1343Y723D01*
X1416Y723D02*
X1461Y723D01*
X1609Y723D02*
X1671Y723D01*
X586Y722D02*
X648Y722D01*
X687Y722D02*
X732Y722D01*
X771Y722D02*
X814Y722D01*
X842Y722D02*
X883Y722D01*
X926Y722D02*
X978Y722D01*
X1021Y722D02*
X1059Y722D01*
X1069Y722D02*
X1112Y722D01*
X1145Y722D02*
X1207Y722D01*
X1240Y722D02*
X1343Y722D01*
X1417Y722D02*
X1461Y722D01*
X1609Y722D02*
X1671Y722D01*
X587Y721D02*
X648Y721D01*
X686Y721D02*
X731Y721D01*
X771Y721D02*
X814Y721D01*
X842Y721D02*
X883Y721D01*
X926Y721D02*
X978Y721D01*
X1021Y721D02*
X1059Y721D01*
X1068Y721D02*
X1111Y721D01*
X1145Y721D02*
X1205Y721D01*
X1240Y721D02*
X1344Y721D01*
X1417Y721D02*
X1462Y721D01*
X1609Y721D02*
X1671Y721D01*
X587Y720D02*
X649Y720D01*
X686Y720D02*
X731Y720D01*
X772Y720D02*
X815Y720D01*
X841Y720D02*
X883Y720D01*
X926Y720D02*
X978Y720D01*
X1021Y720D02*
X1059Y720D01*
X1067Y720D02*
X1111Y720D01*
X1146Y720D02*
X1203Y720D01*
X1241Y720D02*
X1344Y720D01*
X1418Y720D02*
X1462Y720D01*
X1609Y720D02*
X1671Y720D01*
X588Y719D02*
X649Y719D01*
X685Y719D02*
X730Y719D01*
X772Y719D02*
X816Y719D01*
X841Y719D02*
X883Y719D01*
X926Y719D02*
X978Y719D01*
X1021Y719D02*
X1059Y719D01*
X1067Y719D02*
X1110Y719D01*
X1146Y719D02*
X1190Y719D01*
X1195Y719D02*
X1198Y719D01*
X1241Y719D02*
X1345Y719D01*
X1419Y719D02*
X1463Y719D01*
X1609Y719D02*
X1671Y719D01*
X589Y718D02*
X648Y718D01*
X685Y718D02*
X730Y718D01*
X773Y718D02*
X816Y718D01*
X840Y718D02*
X883Y718D01*
X926Y718D02*
X978Y718D01*
X1021Y718D02*
X1059Y718D01*
X1066Y718D02*
X1110Y718D01*
X1147Y718D02*
X1190Y718D01*
X1242Y718D02*
X1345Y718D01*
X1419Y718D02*
X1464Y718D01*
X1609Y718D02*
X1671Y718D01*
X589Y717D02*
X648Y717D01*
X684Y717D02*
X729Y717D01*
X773Y717D02*
X817Y717D01*
X840Y717D02*
X883Y717D01*
X925Y717D02*
X978Y717D01*
X1021Y717D02*
X1059Y717D01*
X1066Y717D02*
X1109Y717D01*
X1147Y717D02*
X1191Y717D01*
X1242Y717D02*
X1346Y717D01*
X1420Y717D02*
X1464Y717D01*
X1609Y717D02*
X1671Y717D01*
X590Y716D02*
X648Y716D01*
X683Y716D02*
X728Y716D01*
X774Y716D02*
X817Y716D01*
X839Y716D02*
X882Y716D01*
X925Y716D02*
X978Y716D01*
X1021Y716D02*
X1059Y716D01*
X1065Y716D02*
X1109Y716D01*
X1148Y716D02*
X1191Y716D01*
X1243Y716D02*
X1346Y716D01*
X1420Y716D02*
X1465Y716D01*
X1609Y716D02*
X1671Y716D01*
X590Y715D02*
X647Y715D01*
X683Y715D02*
X728Y715D01*
X774Y715D02*
X818Y715D01*
X838Y715D02*
X882Y715D01*
X925Y715D02*
X978Y715D01*
X1021Y715D02*
X1059Y715D01*
X1065Y715D02*
X1108Y715D01*
X1148Y715D02*
X1192Y715D01*
X1244Y715D02*
X1347Y715D01*
X1421Y715D02*
X1466Y715D01*
X1609Y715D02*
X1671Y715D01*
X591Y714D02*
X646Y714D01*
X682Y714D02*
X727Y714D01*
X775Y714D02*
X818Y714D01*
X838Y714D02*
X882Y714D01*
X925Y714D02*
X978Y714D01*
X1021Y714D02*
X1059Y714D01*
X1064Y714D02*
X1108Y714D01*
X1149Y714D02*
X1192Y714D01*
X1244Y714D02*
X1347Y714D01*
X1422Y714D02*
X1466Y714D01*
X1609Y714D02*
X1671Y714D01*
X591Y713D02*
X645Y713D01*
X682Y713D02*
X727Y713D01*
X775Y713D02*
X819Y713D01*
X837Y713D02*
X882Y713D01*
X925Y713D02*
X978Y713D01*
X1021Y713D02*
X1059Y713D01*
X1064Y713D02*
X1107Y713D01*
X1149Y713D02*
X1193Y713D01*
X1245Y713D02*
X1348Y713D01*
X1422Y713D02*
X1467Y713D01*
X1609Y713D02*
X1671Y713D01*
X592Y712D02*
X645Y712D01*
X681Y712D02*
X726Y712D01*
X776Y712D02*
X819Y712D01*
X836Y712D02*
X882Y712D01*
X925Y712D02*
X978Y712D01*
X1021Y712D02*
X1060Y712D01*
X1063Y712D02*
X1107Y712D01*
X1150Y712D02*
X1193Y712D01*
X1245Y712D02*
X1348Y712D01*
X1423Y712D02*
X1467Y712D01*
X1609Y712D02*
X1671Y712D01*
X593Y711D02*
X645Y711D01*
X681Y711D02*
X725Y711D01*
X777Y711D02*
X820Y711D01*
X835Y711D02*
X882Y711D01*
X925Y711D02*
X978Y711D01*
X1022Y711D02*
X1060Y711D01*
X1063Y711D02*
X1106Y711D01*
X1150Y711D02*
X1194Y711D01*
X1246Y711D02*
X1349Y711D01*
X1423Y711D02*
X1468Y711D01*
X1609Y711D02*
X1671Y711D01*
X593Y710D02*
X646Y710D01*
X680Y710D02*
X725Y710D01*
X777Y710D02*
X820Y710D01*
X835Y710D02*
X882Y710D01*
X925Y710D02*
X978Y710D01*
X1022Y710D02*
X1060Y710D01*
X1062Y710D02*
X1105Y710D01*
X1151Y710D02*
X1194Y710D01*
X1247Y710D02*
X1349Y710D01*
X1424Y710D02*
X1469Y710D01*
X1609Y710D02*
X1671Y710D01*
X594Y709D02*
X647Y709D01*
X680Y709D02*
X725Y709D01*
X778Y709D02*
X821Y709D01*
X834Y709D02*
X881Y709D01*
X924Y709D02*
X979Y709D01*
X1022Y709D02*
X1105Y709D01*
X1152Y709D02*
X1195Y709D01*
X1247Y709D02*
X1350Y709D01*
X1425Y709D02*
X1469Y709D01*
X1609Y709D02*
X1671Y709D01*
X594Y708D02*
X647Y708D01*
X679Y708D02*
X728Y708D01*
X778Y708D02*
X822Y708D01*
X833Y708D02*
X881Y708D01*
X924Y708D02*
X979Y708D01*
X1022Y708D02*
X1104Y708D01*
X1152Y708D02*
X1195Y708D01*
X1248Y708D02*
X1350Y708D01*
X1425Y708D02*
X1470Y708D01*
X1609Y708D02*
X1671Y708D01*
X595Y707D02*
X648Y707D01*
X679Y707D02*
X730Y707D01*
X779Y707D02*
X822Y707D01*
X832Y707D02*
X881Y707D01*
X924Y707D02*
X979Y707D01*
X1022Y707D02*
X1104Y707D01*
X1153Y707D02*
X1196Y707D01*
X1248Y707D02*
X1350Y707D01*
X1426Y707D02*
X1470Y707D01*
X1609Y707D02*
X1671Y707D01*
X595Y706D02*
X649Y706D01*
X678Y706D02*
X733Y706D01*
X779Y706D02*
X823Y706D01*
X831Y706D02*
X881Y706D01*
X924Y706D02*
X979Y706D01*
X1022Y706D02*
X1103Y706D01*
X1153Y706D02*
X1196Y706D01*
X1249Y706D02*
X1351Y706D01*
X1426Y706D02*
X1471Y706D01*
X1609Y706D02*
X1671Y706D01*
X596Y705D02*
X649Y705D01*
X678Y705D02*
X736Y705D01*
X780Y705D02*
X823Y705D01*
X829Y705D02*
X881Y705D01*
X924Y705D02*
X979Y705D01*
X1022Y705D02*
X1103Y705D01*
X1154Y705D02*
X1197Y705D01*
X1250Y705D02*
X1351Y705D01*
X1427Y705D02*
X1471Y705D01*
X1609Y705D02*
X1671Y705D01*
X596Y704D02*
X650Y704D01*
X678Y704D02*
X739Y704D01*
X780Y704D02*
X824Y704D01*
X828Y704D02*
X881Y704D01*
X924Y704D02*
X979Y704D01*
X1022Y704D02*
X1102Y704D01*
X1154Y704D02*
X1197Y704D01*
X1250Y704D02*
X1352Y704D01*
X1428Y704D02*
X1472Y704D01*
X1609Y704D02*
X1671Y704D01*
X597Y703D02*
X651Y703D01*
X678Y703D02*
X742Y703D01*
X781Y703D02*
X824Y703D01*
X827Y703D02*
X881Y703D01*
X924Y703D02*
X979Y703D01*
X1022Y703D02*
X1102Y703D01*
X1155Y703D02*
X1198Y703D01*
X1251Y703D02*
X1352Y703D01*
X1428Y703D02*
X1473Y703D01*
X1609Y703D02*
X1671Y703D01*
X598Y702D02*
X651Y702D01*
X678Y702D02*
X746Y702D01*
X781Y702D02*
X881Y702D01*
X924Y702D02*
X979Y702D01*
X1022Y702D02*
X1101Y702D01*
X1155Y702D02*
X1198Y702D01*
X1251Y702D02*
X1353Y702D01*
X1429Y702D02*
X1473Y702D01*
X1609Y702D02*
X1671Y702D01*
X598Y701D02*
X652Y701D01*
X678Y701D02*
X749Y701D01*
X782Y701D02*
X880Y701D01*
X924Y701D02*
X979Y701D01*
X1022Y701D02*
X1101Y701D01*
X1156Y701D02*
X1199Y701D01*
X1252Y701D02*
X1353Y701D01*
X1429Y701D02*
X1474Y701D01*
X1609Y701D02*
X1671Y701D01*
X599Y700D02*
X653Y700D01*
X678Y700D02*
X753Y700D01*
X782Y700D02*
X880Y700D01*
X923Y700D02*
X979Y700D01*
X1022Y700D02*
X1100Y700D01*
X1156Y700D02*
X1199Y700D01*
X1252Y700D02*
X1354Y700D01*
X1430Y700D02*
X1474Y700D01*
X1609Y700D02*
X1671Y700D01*
X599Y699D02*
X654Y699D01*
X678Y699D02*
X757Y699D01*
X783Y699D02*
X880Y699D01*
X923Y699D02*
X979Y699D01*
X1023Y699D02*
X1100Y699D01*
X1157Y699D02*
X1200Y699D01*
X1253Y699D02*
X1354Y699D01*
X1431Y699D02*
X1475Y699D01*
X1609Y699D02*
X1671Y699D01*
X600Y698D02*
X654Y698D01*
X678Y698D02*
X761Y698D01*
X784Y698D02*
X880Y698D01*
X923Y698D02*
X979Y698D01*
X1023Y698D02*
X1099Y698D01*
X1157Y698D02*
X1200Y698D01*
X1254Y698D02*
X1355Y698D01*
X1431Y698D02*
X1476Y698D01*
X1609Y698D02*
X1671Y698D01*
X601Y697D02*
X655Y697D01*
X678Y697D02*
X766Y697D01*
X784Y697D02*
X880Y697D01*
X923Y697D02*
X979Y697D01*
X1023Y697D02*
X1099Y697D01*
X1158Y697D02*
X1201Y697D01*
X1254Y697D02*
X1355Y697D01*
X1432Y697D02*
X1476Y697D01*
X1609Y697D02*
X1671Y697D01*
X601Y696D02*
X656Y696D01*
X678Y696D02*
X772Y696D01*
X785Y696D02*
X880Y696D01*
X923Y696D02*
X979Y696D01*
X1023Y696D02*
X1098Y696D01*
X1158Y696D02*
X1201Y696D01*
X1255Y696D02*
X1356Y696D01*
X1432Y696D02*
X1477Y696D01*
X1609Y696D02*
X1671Y696D01*
X602Y695D02*
X656Y695D01*
X678Y695D02*
X779Y695D01*
X785Y695D02*
X880Y695D01*
X923Y695D02*
X979Y695D01*
X1023Y695D02*
X1097Y695D01*
X1159Y695D02*
X1202Y695D01*
X1255Y695D02*
X1356Y695D01*
X1433Y695D02*
X1477Y695D01*
X1609Y695D02*
X1671Y695D01*
X603Y694D02*
X657Y694D01*
X679Y694D02*
X880Y694D01*
X923Y694D02*
X980Y694D01*
X1023Y694D02*
X1097Y694D01*
X1159Y694D02*
X1202Y694D01*
X1256Y694D02*
X1357Y694D01*
X1434Y694D02*
X1478Y694D01*
X1609Y694D02*
X1671Y694D01*
X604Y693D02*
X609Y693D01*
X611Y693D02*
X658Y693D01*
X679Y693D02*
X879Y693D01*
X923Y693D02*
X980Y693D01*
X1023Y693D02*
X1096Y693D01*
X1160Y693D02*
X1203Y693D01*
X1256Y693D02*
X1313Y693D01*
X1315Y693D02*
X1357Y693D01*
X1434Y693D02*
X1479Y693D01*
X1609Y693D02*
X1671Y693D01*
X612Y692D02*
X659Y692D01*
X679Y692D02*
X879Y692D01*
X923Y692D02*
X980Y692D01*
X1023Y692D02*
X1096Y692D01*
X1160Y692D02*
X1203Y692D01*
X1257Y692D02*
X1313Y692D01*
X1315Y692D02*
X1358Y692D01*
X1435Y692D02*
X1479Y692D01*
X1609Y692D02*
X1671Y692D01*
X613Y691D02*
X659Y691D01*
X680Y691D02*
X879Y691D01*
X922Y691D02*
X980Y691D01*
X1023Y691D02*
X1095Y691D01*
X1161Y691D02*
X1204Y691D01*
X1258Y691D02*
X1313Y691D01*
X1316Y691D02*
X1358Y691D01*
X1435Y691D02*
X1480Y691D01*
X1609Y691D02*
X1671Y691D01*
X613Y690D02*
X660Y690D01*
X681Y690D02*
X879Y690D01*
X922Y690D02*
X980Y690D01*
X1023Y690D02*
X1095Y690D01*
X1161Y690D02*
X1204Y690D01*
X1258Y690D02*
X1313Y690D01*
X1316Y690D02*
X1359Y690D01*
X1436Y690D02*
X1480Y690D01*
X1609Y690D02*
X1671Y690D01*
X614Y689D02*
X661Y689D01*
X681Y689D02*
X879Y689D01*
X922Y689D02*
X980Y689D01*
X1023Y689D02*
X1094Y689D01*
X1162Y689D02*
X1205Y689D01*
X1259Y689D02*
X1313Y689D01*
X1317Y689D02*
X1359Y689D01*
X1437Y689D02*
X1481Y689D01*
X1609Y689D02*
X1671Y689D01*
X615Y688D02*
X662Y688D01*
X682Y688D02*
X879Y688D01*
X922Y688D02*
X980Y688D01*
X1023Y688D02*
X1094Y688D01*
X1162Y688D02*
X1205Y688D01*
X1259Y688D02*
X1313Y688D01*
X1317Y688D02*
X1360Y688D01*
X1437Y688D02*
X1481Y688D01*
X1609Y688D02*
X1671Y688D01*
X615Y687D02*
X662Y687D01*
X683Y687D02*
X879Y687D01*
X922Y687D02*
X980Y687D01*
X1023Y687D02*
X1093Y687D01*
X1163Y687D02*
X1206Y687D01*
X1260Y687D02*
X1313Y687D01*
X1318Y687D02*
X1360Y687D01*
X1438Y687D02*
X1481Y687D01*
X1609Y687D02*
X1671Y687D01*
X616Y686D02*
X663Y686D01*
X684Y686D02*
X879Y686D01*
X922Y686D02*
X980Y686D01*
X1024Y686D02*
X1093Y686D01*
X1163Y686D02*
X1206Y686D01*
X1261Y686D02*
X1313Y686D01*
X1318Y686D02*
X1361Y686D01*
X1438Y686D02*
X1482Y686D01*
X1609Y686D02*
X1671Y686D01*
X617Y685D02*
X664Y685D01*
X686Y685D02*
X878Y685D01*
X922Y685D02*
X980Y685D01*
X1023Y685D02*
X1092Y685D01*
X1164Y685D02*
X1206Y685D01*
X1261Y685D02*
X1313Y685D01*
X1319Y685D02*
X1361Y685D01*
X1439Y685D02*
X1482Y685D01*
X1609Y685D02*
X1671Y685D01*
X617Y684D02*
X665Y684D01*
X687Y684D02*
X879Y684D01*
X922Y684D02*
X980Y684D01*
X1023Y684D02*
X1092Y684D01*
X1164Y684D02*
X1206Y684D01*
X1262Y684D02*
X1313Y684D01*
X1319Y684D02*
X1362Y684D01*
X1440Y684D02*
X1482Y684D01*
X1609Y684D02*
X1671Y684D01*
X618Y683D02*
X665Y683D01*
X689Y683D02*
X879Y683D01*
X922Y683D02*
X980Y683D01*
X1022Y683D02*
X1091Y683D01*
X1165Y683D02*
X1206Y683D01*
X1262Y683D02*
X1313Y683D01*
X1320Y683D02*
X1362Y683D01*
X1440Y683D02*
X1482Y683D01*
X1609Y683D02*
X1671Y683D01*
X619Y682D02*
X666Y682D01*
X691Y682D02*
X880Y682D01*
X922Y682D02*
X980Y682D01*
X1022Y682D02*
X1091Y682D01*
X1165Y682D02*
X1206Y682D01*
X1263Y682D02*
X1313Y682D01*
X1320Y682D02*
X1363Y682D01*
X1441Y682D02*
X1482Y682D01*
X1609Y682D02*
X1671Y682D01*
X620Y681D02*
X667Y681D01*
X693Y681D02*
X880Y681D01*
X922Y681D02*
X980Y681D01*
X1022Y681D02*
X1091Y681D01*
X1165Y681D02*
X1206Y681D01*
X1263Y681D02*
X1313Y681D01*
X1321Y681D02*
X1363Y681D01*
X1440Y681D02*
X1482Y681D01*
X1609Y681D02*
X1671Y681D01*
X620Y680D02*
X668Y680D01*
X695Y680D02*
X881Y680D01*
X922Y680D02*
X980Y680D01*
X1021Y680D02*
X1092Y680D01*
X1165Y680D02*
X1206Y680D01*
X1264Y680D02*
X1313Y680D01*
X1321Y680D02*
X1364Y680D01*
X1440Y680D02*
X1482Y680D01*
X1609Y680D02*
X1671Y680D01*
X621Y679D02*
X668Y679D01*
X697Y679D02*
X881Y679D01*
X922Y679D02*
X980Y679D01*
X1021Y679D02*
X1092Y679D01*
X1164Y679D02*
X1206Y679D01*
X1265Y679D02*
X1313Y679D01*
X1322Y679D02*
X1364Y679D01*
X1439Y679D02*
X1482Y679D01*
X1609Y679D02*
X1671Y679D01*
X622Y678D02*
X669Y678D01*
X699Y678D02*
X882Y678D01*
X922Y678D02*
X980Y678D01*
X1020Y678D02*
X1093Y678D01*
X1164Y678D02*
X1206Y678D01*
X1265Y678D02*
X1313Y678D01*
X1322Y678D02*
X1365Y678D01*
X1439Y678D02*
X1482Y678D01*
X1609Y678D02*
X1671Y678D01*
X622Y677D02*
X670Y677D01*
X701Y677D02*
X882Y677D01*
X922Y677D02*
X980Y677D01*
X1020Y677D02*
X1093Y677D01*
X1163Y677D02*
X1206Y677D01*
X1266Y677D02*
X1313Y677D01*
X1323Y677D02*
X1365Y677D01*
X1438Y677D02*
X1482Y677D01*
X1609Y677D02*
X1671Y677D01*
X623Y676D02*
X671Y676D01*
X704Y676D02*
X882Y676D01*
X922Y676D02*
X979Y676D01*
X1019Y676D02*
X1094Y676D01*
X1163Y676D02*
X1205Y676D01*
X1266Y676D02*
X1313Y676D01*
X1323Y676D02*
X1366Y676D01*
X1438Y676D02*
X1481Y676D01*
X1609Y676D02*
X1671Y676D01*
X624Y675D02*
X672Y675D01*
X706Y675D02*
X883Y675D01*
X923Y675D02*
X979Y675D01*
X1019Y675D02*
X1094Y675D01*
X1162Y675D02*
X1205Y675D01*
X1267Y675D02*
X1313Y675D01*
X1324Y675D02*
X1366Y675D01*
X1437Y675D02*
X1481Y675D01*
X1609Y675D02*
X1671Y675D01*
X624Y674D02*
X672Y674D01*
X709Y674D02*
X883Y674D01*
X923Y674D02*
X979Y674D01*
X1018Y674D02*
X1095Y674D01*
X1162Y674D02*
X1204Y674D01*
X1268Y674D02*
X1313Y674D01*
X1324Y674D02*
X1367Y674D01*
X1436Y674D02*
X1480Y674D01*
X1609Y674D02*
X1671Y674D01*
X625Y673D02*
X673Y673D01*
X711Y673D02*
X884Y673D01*
X924Y673D02*
X978Y673D01*
X1018Y673D02*
X1095Y673D01*
X1161Y673D02*
X1204Y673D01*
X1268Y673D02*
X1313Y673D01*
X1325Y673D02*
X1367Y673D01*
X1436Y673D02*
X1480Y673D01*
X1609Y673D02*
X1671Y673D01*
X626Y672D02*
X674Y672D01*
X714Y672D02*
X884Y672D01*
X924Y672D02*
X978Y672D01*
X1017Y672D02*
X1096Y672D01*
X1161Y672D02*
X1203Y672D01*
X1269Y672D02*
X1313Y672D01*
X1325Y672D02*
X1367Y672D01*
X1435Y672D02*
X1479Y672D01*
X1609Y672D02*
X1671Y672D01*
X626Y671D02*
X675Y671D01*
X716Y671D02*
X885Y671D01*
X924Y671D02*
X977Y671D01*
X1017Y671D02*
X1096Y671D01*
X1160Y671D02*
X1203Y671D01*
X1269Y671D02*
X1313Y671D01*
X1326Y671D02*
X1368Y671D01*
X1435Y671D02*
X1479Y671D01*
X1609Y671D02*
X1671Y671D01*
X627Y670D02*
X676Y670D01*
X719Y670D02*
X885Y670D01*
X925Y670D02*
X977Y670D01*
X1016Y670D02*
X1097Y670D01*
X1160Y670D02*
X1202Y670D01*
X1270Y670D02*
X1313Y670D01*
X1326Y670D02*
X1368Y670D01*
X1434Y670D02*
X1478Y670D01*
X1609Y670D02*
X1671Y670D01*
X628Y669D02*
X676Y669D01*
X722Y669D02*
X886Y669D01*
X925Y669D02*
X976Y669D01*
X1016Y669D02*
X1097Y669D01*
X1159Y669D02*
X1202Y669D01*
X1270Y669D02*
X1313Y669D01*
X1327Y669D02*
X1369Y669D01*
X1433Y669D02*
X1478Y669D01*
X1609Y669D02*
X1670Y669D01*
X629Y668D02*
X677Y668D01*
X725Y668D02*
X886Y668D01*
X926Y668D02*
X976Y668D01*
X1016Y668D02*
X1098Y668D01*
X1159Y668D02*
X1201Y668D01*
X1271Y668D02*
X1314Y668D01*
X1327Y668D02*
X1369Y668D01*
X1433Y668D02*
X1477Y668D01*
X1610Y668D02*
X1669Y668D01*
X629Y667D02*
X678Y667D01*
X728Y667D02*
X842Y667D01*
X845Y667D02*
X887Y667D01*
X926Y667D02*
X976Y667D01*
X1015Y667D02*
X1098Y667D01*
X1158Y667D02*
X1201Y667D01*
X1272Y667D02*
X1314Y667D01*
X1328Y667D02*
X1370Y667D01*
X1432Y667D02*
X1476Y667D01*
X1611Y667D02*
X1668Y667D01*
X630Y666D02*
X679Y666D01*
X731Y666D02*
X840Y666D01*
X845Y666D02*
X887Y666D01*
X927Y666D02*
X975Y666D01*
X1015Y666D02*
X1099Y666D01*
X1158Y666D02*
X1200Y666D01*
X1272Y666D02*
X1314Y666D01*
X1328Y666D02*
X1370Y666D01*
X1432Y666D02*
X1476Y666D01*
X1613Y666D02*
X1667Y666D01*
X631Y665D02*
X680Y665D01*
X734Y665D02*
X838Y665D01*
X846Y665D02*
X888Y665D01*
X927Y665D02*
X975Y665D01*
X1014Y665D02*
X1099Y665D01*
X1157Y665D02*
X1200Y665D01*
X1273Y665D02*
X1314Y665D01*
X1329Y665D02*
X1371Y665D01*
X1431Y665D02*
X1475Y665D01*
X1616Y665D02*
X1664Y665D01*
X632Y664D02*
X681Y664D01*
X738Y664D02*
X835Y664D01*
X846Y664D02*
X888Y664D01*
X927Y664D02*
X974Y664D01*
X1014Y664D02*
X1100Y664D01*
X1157Y664D02*
X1199Y664D01*
X1273Y664D02*
X1314Y664D01*
X1329Y664D02*
X1371Y664D01*
X1430Y664D02*
X1475Y664D01*
X1621Y664D02*
X1659Y664D01*
X632Y663D02*
X681Y663D01*
X741Y663D02*
X833Y663D01*
X847Y663D02*
X888Y663D01*
X928Y663D02*
X974Y663D01*
X1013Y663D02*
X1100Y663D01*
X1156Y663D02*
X1199Y663D01*
X1274Y663D02*
X1314Y663D01*
X1330Y663D02*
X1372Y663D01*
X1430Y663D02*
X1474Y663D01*
X1621Y663D02*
X1659Y663D01*
X633Y662D02*
X682Y662D01*
X745Y662D02*
X831Y662D01*
X847Y662D02*
X889Y662D01*
X928Y662D02*
X973Y662D01*
X1013Y662D02*
X1055Y662D01*
X1057Y662D02*
X1101Y662D01*
X1155Y662D02*
X1198Y662D01*
X1275Y662D02*
X1314Y662D01*
X1330Y662D02*
X1372Y662D01*
X1429Y662D02*
X1473Y662D01*
X1621Y662D02*
X1659Y662D01*
X634Y661D02*
X683Y661D01*
X749Y661D02*
X828Y661D01*
X847Y661D02*
X889Y661D01*
X929Y661D02*
X973Y661D01*
X1012Y661D02*
X1055Y661D01*
X1058Y661D02*
X1102Y661D01*
X1155Y661D02*
X1198Y661D01*
X1275Y661D02*
X1314Y661D01*
X1331Y661D02*
X1373Y661D01*
X1429Y661D02*
X1473Y661D01*
X1621Y661D02*
X1659Y661D01*
X635Y660D02*
X684Y660D01*
X753Y660D02*
X825Y660D01*
X848Y660D02*
X890Y660D01*
X929Y660D02*
X972Y660D01*
X1012Y660D02*
X1054Y660D01*
X1059Y660D02*
X1102Y660D01*
X1154Y660D02*
X1197Y660D01*
X1276Y660D02*
X1314Y660D01*
X1331Y660D02*
X1373Y660D01*
X1428Y660D02*
X1472Y660D01*
X1518Y660D02*
X1538Y660D01*
X1621Y660D02*
X1659Y660D01*
X635Y659D02*
X685Y659D01*
X758Y659D02*
X824Y659D01*
X848Y659D02*
X890Y659D01*
X930Y659D02*
X972Y659D01*
X1011Y659D02*
X1054Y659D01*
X1059Y659D02*
X1103Y659D01*
X1154Y659D02*
X1197Y659D01*
X1276Y659D02*
X1314Y659D01*
X1332Y659D02*
X1374Y659D01*
X1427Y659D02*
X1472Y659D01*
X1517Y659D02*
X1541Y659D01*
X1621Y659D02*
X1659Y659D01*
X636Y658D02*
X686Y658D01*
X763Y658D02*
X823Y658D01*
X849Y658D02*
X891Y658D01*
X929Y658D02*
X972Y658D01*
X1011Y658D02*
X1053Y658D01*
X1060Y658D02*
X1103Y658D01*
X1153Y658D02*
X1196Y658D01*
X1276Y658D02*
X1314Y658D01*
X1332Y658D02*
X1374Y658D01*
X1427Y658D02*
X1471Y658D01*
X1515Y658D02*
X1543Y658D01*
X1621Y658D02*
X1659Y658D01*
X637Y657D02*
X687Y657D01*
X770Y657D02*
X822Y657D01*
X849Y657D02*
X891Y657D01*
X929Y657D02*
X973Y657D01*
X1011Y657D02*
X1053Y657D01*
X1060Y657D02*
X1104Y657D01*
X1153Y657D02*
X1196Y657D01*
X1276Y657D02*
X1314Y657D01*
X1332Y657D02*
X1375Y657D01*
X1426Y657D02*
X1471Y657D01*
X1512Y657D02*
X1544Y657D01*
X1621Y657D02*
X1659Y657D01*
X638Y656D02*
X687Y656D01*
X777Y656D02*
X822Y656D01*
X850Y656D02*
X892Y656D01*
X929Y656D02*
X973Y656D01*
X1010Y656D02*
X1052Y656D01*
X1061Y656D02*
X1104Y656D01*
X1152Y656D02*
X1195Y656D01*
X1276Y656D02*
X1314Y656D01*
X1333Y656D02*
X1375Y656D01*
X1425Y656D02*
X1470Y656D01*
X1509Y656D02*
X1546Y656D01*
X1621Y656D02*
X1659Y656D01*
X638Y655D02*
X688Y655D01*
X778Y655D02*
X821Y655D01*
X850Y655D02*
X892Y655D01*
X928Y655D02*
X974Y655D01*
X1010Y655D02*
X1052Y655D01*
X1061Y655D02*
X1105Y655D01*
X1152Y655D02*
X1195Y655D01*
X1276Y655D02*
X1314Y655D01*
X1333Y655D02*
X1376Y655D01*
X1425Y655D02*
X1469Y655D01*
X1504Y655D02*
X1547Y655D01*
X1621Y655D02*
X1659Y655D01*
X639Y654D02*
X689Y654D01*
X777Y654D02*
X821Y654D01*
X851Y654D02*
X893Y654D01*
X928Y654D02*
X974Y654D01*
X1009Y654D02*
X1051Y654D01*
X1062Y654D02*
X1105Y654D01*
X1151Y654D02*
X1194Y654D01*
X1276Y654D02*
X1314Y654D01*
X1334Y654D02*
X1376Y654D01*
X1424Y654D02*
X1469Y654D01*
X1500Y654D02*
X1549Y654D01*
X1621Y654D02*
X1660Y654D01*
X640Y653D02*
X690Y653D01*
X777Y653D02*
X820Y653D01*
X851Y653D02*
X893Y653D01*
X927Y653D02*
X974Y653D01*
X1009Y653D02*
X1051Y653D01*
X1062Y653D02*
X1106Y653D01*
X1151Y653D02*
X1194Y653D01*
X1276Y653D02*
X1314Y653D01*
X1334Y653D02*
X1377Y653D01*
X1424Y653D02*
X1468Y653D01*
X1499Y653D02*
X1550Y653D01*
X1622Y653D02*
X1660Y653D01*
X641Y652D02*
X691Y652D01*
X776Y652D02*
X820Y652D01*
X852Y652D02*
X894Y652D01*
X927Y652D02*
X975Y652D01*
X1008Y652D02*
X1050Y652D01*
X1063Y652D02*
X1106Y652D01*
X1150Y652D02*
X1193Y652D01*
X1276Y652D02*
X1314Y652D01*
X1335Y652D02*
X1377Y652D01*
X1423Y652D02*
X1468Y652D01*
X1498Y652D02*
X1553Y652D01*
X1622Y652D02*
X1660Y652D01*
X642Y651D02*
X692Y651D01*
X776Y651D02*
X819Y651D01*
X852Y651D02*
X894Y651D01*
X926Y651D02*
X975Y651D01*
X1008Y651D02*
X1050Y651D01*
X1063Y651D02*
X1107Y651D01*
X1150Y651D02*
X1193Y651D01*
X1276Y651D02*
X1314Y651D01*
X1335Y651D02*
X1378Y651D01*
X1422Y651D02*
X1467Y651D01*
X1499Y651D02*
X1555Y651D01*
X1622Y651D02*
X1660Y651D01*
X643Y650D02*
X693Y650D01*
X775Y650D02*
X818Y650D01*
X853Y650D02*
X894Y650D01*
X926Y650D02*
X976Y650D01*
X1007Y650D02*
X1049Y650D01*
X1064Y650D02*
X1107Y650D01*
X1149Y650D02*
X1192Y650D01*
X1276Y650D02*
X1314Y650D01*
X1336Y650D02*
X1378Y650D01*
X1422Y650D02*
X1466Y650D01*
X1499Y650D02*
X1558Y650D01*
X1622Y650D02*
X1660Y650D01*
X643Y649D02*
X694Y649D01*
X775Y649D02*
X818Y649D01*
X853Y649D02*
X895Y649D01*
X925Y649D02*
X976Y649D01*
X1007Y649D02*
X1049Y649D01*
X1065Y649D02*
X1108Y649D01*
X1149Y649D02*
X1192Y649D01*
X1276Y649D02*
X1314Y649D01*
X1336Y649D02*
X1379Y649D01*
X1421Y649D02*
X1466Y649D01*
X1500Y649D02*
X1560Y649D01*
X1622Y649D02*
X1660Y649D01*
X644Y648D02*
X695Y648D01*
X774Y648D02*
X817Y648D01*
X854Y648D02*
X895Y648D01*
X925Y648D02*
X977Y648D01*
X1006Y648D02*
X1048Y648D01*
X1065Y648D02*
X1108Y648D01*
X1148Y648D02*
X1191Y648D01*
X1276Y648D02*
X1314Y648D01*
X1337Y648D02*
X1379Y648D01*
X1421Y648D02*
X1465Y648D01*
X1501Y648D02*
X1562Y648D01*
X1622Y648D02*
X1660Y648D01*
X645Y647D02*
X696Y647D01*
X774Y647D02*
X817Y647D01*
X854Y647D02*
X896Y647D01*
X925Y647D02*
X977Y647D01*
X1006Y647D02*
X1048Y647D01*
X1066Y647D02*
X1109Y647D01*
X1147Y647D02*
X1191Y647D01*
X1276Y647D02*
X1314Y647D01*
X1337Y647D02*
X1380Y647D01*
X1420Y647D02*
X1465Y647D01*
X1502Y647D02*
X1563Y647D01*
X1622Y647D02*
X1660Y647D01*
X646Y646D02*
X696Y646D01*
X773Y646D02*
X816Y646D01*
X854Y646D02*
X896Y646D01*
X924Y646D02*
X978Y646D01*
X1005Y646D02*
X1047Y646D01*
X1066Y646D02*
X1109Y646D01*
X1147Y646D02*
X1190Y646D01*
X1276Y646D02*
X1314Y646D01*
X1338Y646D02*
X1380Y646D01*
X1419Y646D02*
X1464Y646D01*
X1503Y646D02*
X1564Y646D01*
X1622Y646D02*
X1660Y646D01*
X647Y645D02*
X697Y645D01*
X772Y645D02*
X816Y645D01*
X855Y645D02*
X897Y645D01*
X924Y645D02*
X978Y645D01*
X1005Y645D02*
X1047Y645D01*
X1067Y645D02*
X1110Y645D01*
X1146Y645D02*
X1189Y645D01*
X1276Y645D02*
X1314Y645D01*
X1338Y645D02*
X1381Y645D01*
X1419Y645D02*
X1463Y645D01*
X1503Y645D02*
X1565Y645D01*
X1622Y645D02*
X1660Y645D01*
X647Y644D02*
X698Y644D01*
X772Y644D02*
X815Y644D01*
X855Y644D02*
X897Y644D01*
X923Y644D02*
X979Y644D01*
X1005Y644D02*
X1047Y644D01*
X1067Y644D02*
X1111Y644D01*
X1146Y644D02*
X1189Y644D01*
X1276Y644D02*
X1314Y644D01*
X1339Y644D02*
X1381Y644D01*
X1418Y644D02*
X1463Y644D01*
X1504Y644D02*
X1566Y644D01*
X1622Y644D02*
X1660Y644D01*
X648Y643D02*
X699Y643D01*
X771Y643D02*
X815Y643D01*
X856Y643D02*
X898Y643D01*
X923Y643D02*
X979Y643D01*
X1004Y643D02*
X1046Y643D01*
X1068Y643D02*
X1111Y643D01*
X1145Y643D02*
X1188Y643D01*
X1277Y643D02*
X1314Y643D01*
X1339Y643D02*
X1382Y643D01*
X1418Y643D02*
X1462Y643D01*
X1505Y643D02*
X1567Y643D01*
X1622Y643D02*
X1660Y643D01*
X649Y642D02*
X700Y642D01*
X771Y642D02*
X814Y642D01*
X856Y642D02*
X898Y642D01*
X922Y642D02*
X980Y642D01*
X1004Y642D02*
X1046Y642D01*
X1068Y642D02*
X1112Y642D01*
X1145Y642D02*
X1188Y642D01*
X1277Y642D02*
X1315Y642D01*
X1340Y642D02*
X1382Y642D01*
X1417Y642D02*
X1462Y642D01*
X1485Y642D02*
X1486Y642D01*
X1506Y642D02*
X1568Y642D01*
X1622Y642D02*
X1660Y642D01*
X650Y641D02*
X701Y641D01*
X770Y641D02*
X814Y641D01*
X857Y641D02*
X899Y641D01*
X922Y641D02*
X980Y641D01*
X1003Y641D02*
X1045Y641D01*
X1069Y641D02*
X1112Y641D01*
X1144Y641D02*
X1187Y641D01*
X1277Y641D02*
X1315Y641D01*
X1340Y641D02*
X1383Y641D01*
X1416Y641D02*
X1461Y641D01*
X1484Y641D02*
X1487Y641D01*
X1507Y641D02*
X1569Y641D01*
X1622Y641D02*
X1660Y641D01*
X651Y640D02*
X702Y640D01*
X770Y640D02*
X813Y640D01*
X857Y640D02*
X899Y640D01*
X921Y640D02*
X980Y640D01*
X1003Y640D02*
X1045Y640D01*
X1069Y640D02*
X1113Y640D01*
X1144Y640D02*
X1187Y640D01*
X1277Y640D02*
X1315Y640D01*
X1341Y640D02*
X1383Y640D01*
X1416Y640D02*
X1460Y640D01*
X1484Y640D02*
X1488Y640D01*
X1508Y640D02*
X1569Y640D01*
X1622Y640D02*
X1660Y640D01*
X651Y639D02*
X703Y639D01*
X769Y639D02*
X813Y639D01*
X858Y639D02*
X900Y639D01*
X921Y639D02*
X981Y639D01*
X1002Y639D02*
X1044Y639D01*
X1070Y639D02*
X1113Y639D01*
X1143Y639D02*
X1186Y639D01*
X1277Y639D02*
X1315Y639D01*
X1341Y639D02*
X1384Y639D01*
X1415Y639D02*
X1460Y639D01*
X1483Y639D02*
X1489Y639D01*
X1508Y639D02*
X1570Y639D01*
X1622Y639D02*
X1660Y639D01*
X652Y638D02*
X704Y638D01*
X769Y638D02*
X812Y638D01*
X858Y638D02*
X900Y638D01*
X920Y638D02*
X981Y638D01*
X1002Y638D02*
X1044Y638D01*
X1070Y638D02*
X1114Y638D01*
X1143Y638D02*
X1186Y638D01*
X1277Y638D02*
X1315Y638D01*
X1342Y638D02*
X1384Y638D01*
X1415Y638D02*
X1459Y638D01*
X1483Y638D02*
X1490Y638D01*
X1509Y638D02*
X1571Y638D01*
X1622Y638D02*
X1660Y638D01*
X653Y637D02*
X705Y637D01*
X768Y637D02*
X811Y637D01*
X859Y637D02*
X900Y637D01*
X920Y637D02*
X982Y637D01*
X1001Y637D02*
X1043Y637D01*
X1071Y637D02*
X1114Y637D01*
X1142Y637D02*
X1185Y637D01*
X1277Y637D02*
X1315Y637D01*
X1342Y637D02*
X1385Y637D01*
X1414Y637D02*
X1459Y637D01*
X1483Y637D02*
X1490Y637D01*
X1510Y637D02*
X1572Y637D01*
X1622Y637D02*
X1660Y637D01*
X654Y636D02*
X706Y636D01*
X768Y636D02*
X811Y636D01*
X859Y636D02*
X901Y636D01*
X919Y636D02*
X982Y636D01*
X1001Y636D02*
X1043Y636D01*
X1072Y636D02*
X1115Y636D01*
X1142Y636D02*
X1185Y636D01*
X1277Y636D02*
X1315Y636D01*
X1343Y636D02*
X1385Y636D01*
X1413Y636D02*
X1458Y636D01*
X1482Y636D02*
X1491Y636D01*
X1511Y636D02*
X1572Y636D01*
X1622Y636D02*
X1660Y636D01*
X655Y635D02*
X707Y635D01*
X767Y635D02*
X810Y635D01*
X859Y635D02*
X901Y635D01*
X919Y635D02*
X983Y635D01*
X1000Y635D02*
X1042Y635D01*
X1072Y635D02*
X1115Y635D01*
X1141Y635D02*
X1184Y635D01*
X1277Y635D02*
X1315Y635D01*
X1343Y635D02*
X1386Y635D01*
X1413Y635D02*
X1457Y635D01*
X1482Y635D02*
X1492Y635D01*
X1512Y635D02*
X1573Y635D01*
X1622Y635D02*
X1660Y635D01*
X656Y634D02*
X708Y634D01*
X766Y634D02*
X810Y634D01*
X860Y634D02*
X902Y634D01*
X919Y634D02*
X983Y634D01*
X1000Y634D02*
X1042Y634D01*
X1073Y634D02*
X1116Y634D01*
X1141Y634D02*
X1184Y634D01*
X1277Y634D02*
X1315Y634D01*
X1344Y634D02*
X1386Y634D01*
X1412Y634D02*
X1457Y634D01*
X1481Y634D02*
X1493Y634D01*
X1512Y634D02*
X1574Y634D01*
X1622Y634D02*
X1660Y634D01*
X657Y633D02*
X709Y633D01*
X766Y633D02*
X809Y633D01*
X860Y633D02*
X902Y633D01*
X918Y633D02*
X984Y633D01*
X999Y633D02*
X1041Y633D01*
X1073Y633D02*
X1116Y633D01*
X1140Y633D02*
X1183Y633D01*
X1277Y633D02*
X1315Y633D01*
X1344Y633D02*
X1386Y633D01*
X1412Y633D02*
X1456Y633D01*
X1481Y633D02*
X1494Y633D01*
X1513Y633D02*
X1574Y633D01*
X1622Y633D02*
X1660Y633D01*
X658Y632D02*
X710Y632D01*
X765Y632D02*
X809Y632D01*
X861Y632D02*
X903Y632D01*
X918Y632D02*
X984Y632D01*
X999Y632D02*
X1041Y632D01*
X1074Y632D02*
X1117Y632D01*
X1139Y632D02*
X1183Y632D01*
X1277Y632D02*
X1315Y632D01*
X1345Y632D02*
X1387Y632D01*
X1411Y632D02*
X1455Y632D01*
X1481Y632D02*
X1495Y632D01*
X1514Y632D02*
X1575Y632D01*
X1622Y632D02*
X1660Y632D01*
X658Y631D02*
X711Y631D01*
X765Y631D02*
X808Y631D01*
X861Y631D02*
X903Y631D01*
X917Y631D02*
X985Y631D01*
X999Y631D02*
X1041Y631D01*
X1074Y631D02*
X1117Y631D01*
X1139Y631D02*
X1182Y631D01*
X1277Y631D02*
X1315Y631D01*
X1345Y631D02*
X1387Y631D01*
X1410Y631D02*
X1455Y631D01*
X1480Y631D02*
X1496Y631D01*
X1514Y631D02*
X1575Y631D01*
X1622Y631D02*
X1660Y631D01*
X659Y630D02*
X712Y630D01*
X764Y630D02*
X808Y630D01*
X862Y630D02*
X904Y630D01*
X917Y630D02*
X985Y630D01*
X998Y630D02*
X1040Y630D01*
X1075Y630D02*
X1118Y630D01*
X1138Y630D02*
X1182Y630D01*
X1277Y630D02*
X1315Y630D01*
X1346Y630D02*
X1388Y630D01*
X1410Y630D02*
X1454Y630D01*
X1480Y630D02*
X1496Y630D01*
X1513Y630D02*
X1575Y630D01*
X1622Y630D02*
X1660Y630D01*
X660Y629D02*
X713Y629D01*
X764Y629D02*
X807Y629D01*
X862Y629D02*
X904Y629D01*
X916Y629D02*
X986Y629D01*
X998Y629D02*
X1040Y629D01*
X1075Y629D02*
X1119Y629D01*
X1138Y629D02*
X1181Y629D01*
X1277Y629D02*
X1315Y629D01*
X1346Y629D02*
X1388Y629D01*
X1409Y629D02*
X1454Y629D01*
X1479Y629D02*
X1497Y629D01*
X1513Y629D02*
X1575Y629D01*
X1622Y629D02*
X1660Y629D01*
X661Y628D02*
X714Y628D01*
X763Y628D02*
X807Y628D01*
X863Y628D02*
X905Y628D01*
X916Y628D02*
X986Y628D01*
X997Y628D02*
X1039Y628D01*
X1076Y628D02*
X1119Y628D01*
X1137Y628D02*
X1180Y628D01*
X1277Y628D02*
X1315Y628D01*
X1347Y628D02*
X1389Y628D01*
X1408Y628D02*
X1453Y628D01*
X1479Y628D02*
X1498Y628D01*
X1512Y628D02*
X1575Y628D01*
X1622Y628D02*
X1660Y628D01*
X662Y627D02*
X715Y627D01*
X763Y627D02*
X806Y627D01*
X863Y627D02*
X905Y627D01*
X915Y627D02*
X987Y627D01*
X997Y627D02*
X1039Y627D01*
X1076Y627D02*
X1120Y627D01*
X1137Y627D02*
X1180Y627D01*
X1277Y627D02*
X1315Y627D01*
X1347Y627D02*
X1389Y627D01*
X1408Y627D02*
X1452Y627D01*
X1478Y627D02*
X1499Y627D01*
X1511Y627D02*
X1576Y627D01*
X1622Y627D02*
X1660Y627D01*
X663Y626D02*
X716Y626D01*
X762Y626D02*
X805Y626D01*
X864Y626D02*
X906Y626D01*
X915Y626D02*
X987Y626D01*
X996Y626D02*
X1038Y626D01*
X1077Y626D02*
X1120Y626D01*
X1136Y626D02*
X1179Y626D01*
X1277Y626D02*
X1315Y626D01*
X1348Y626D02*
X1390Y626D01*
X1407Y626D02*
X1452Y626D01*
X1477Y626D02*
X1500Y626D01*
X1510Y626D02*
X1576Y626D01*
X1622Y626D02*
X1660Y626D01*
X664Y625D02*
X717Y625D01*
X762Y625D02*
X805Y625D01*
X864Y625D02*
X906Y625D01*
X914Y625D02*
X987Y625D01*
X996Y625D02*
X1038Y625D01*
X1077Y625D02*
X1121Y625D01*
X1136Y625D02*
X1179Y625D01*
X1277Y625D02*
X1315Y625D01*
X1348Y625D02*
X1390Y625D01*
X1407Y625D02*
X1451Y625D01*
X1477Y625D02*
X1501Y625D01*
X1508Y625D02*
X1576Y625D01*
X1622Y625D02*
X1660Y625D01*
X665Y624D02*
X718Y624D01*
X761Y624D02*
X804Y624D01*
X865Y624D02*
X907Y624D01*
X914Y624D02*
X988Y624D01*
X995Y624D02*
X1037Y624D01*
X1078Y624D02*
X1121Y624D01*
X1135Y624D02*
X1178Y624D01*
X1277Y624D02*
X1315Y624D01*
X1349Y624D02*
X1391Y624D01*
X1406Y624D02*
X1451Y624D01*
X1476Y624D02*
X1502Y624D01*
X1507Y624D02*
X1576Y624D01*
X1622Y624D02*
X1660Y624D01*
X665Y623D02*
X719Y623D01*
X760Y623D02*
X804Y623D01*
X865Y623D02*
X907Y623D01*
X913Y623D02*
X988Y623D01*
X995Y623D02*
X1037Y623D01*
X1079Y623D02*
X1122Y623D01*
X1135Y623D02*
X1178Y623D01*
X1277Y623D02*
X1315Y623D01*
X1349Y623D02*
X1391Y623D01*
X1405Y623D02*
X1450Y623D01*
X1475Y623D02*
X1503Y623D01*
X1505Y623D02*
X1576Y623D01*
X1622Y623D02*
X1660Y623D01*
X666Y622D02*
X720Y622D01*
X760Y622D02*
X803Y622D01*
X865Y622D02*
X908Y622D01*
X913Y622D02*
X989Y622D01*
X994Y622D02*
X1036Y622D01*
X1079Y622D02*
X1122Y622D01*
X1134Y622D02*
X1177Y622D01*
X1277Y622D02*
X1315Y622D01*
X1350Y622D02*
X1392Y622D01*
X1405Y622D02*
X1449Y622D01*
X1475Y622D02*
X1577Y622D01*
X1622Y622D02*
X1660Y622D01*
X667Y621D02*
X721Y621D01*
X759Y621D02*
X803Y621D01*
X866Y621D02*
X908Y621D01*
X912Y621D02*
X989Y621D01*
X994Y621D02*
X1036Y621D01*
X1080Y621D02*
X1123Y621D01*
X1134Y621D02*
X1177Y621D01*
X1277Y621D02*
X1315Y621D01*
X1350Y621D02*
X1392Y621D01*
X1404Y621D02*
X1449Y621D01*
X1474Y621D02*
X1577Y621D01*
X1622Y621D02*
X1660Y621D01*
X668Y620D02*
X723Y620D01*
X759Y620D02*
X802Y620D01*
X866Y620D02*
X909Y620D01*
X912Y620D02*
X990Y620D01*
X993Y620D02*
X1035Y620D01*
X1080Y620D02*
X1123Y620D01*
X1133Y620D02*
X1176Y620D01*
X1277Y620D02*
X1315Y620D01*
X1350Y620D02*
X1393Y620D01*
X1404Y620D02*
X1448Y620D01*
X1474Y620D02*
X1578Y620D01*
X1622Y620D02*
X1660Y620D01*
X669Y619D02*
X724Y619D01*
X758Y619D02*
X802Y619D01*
X867Y619D02*
X909Y619D01*
X911Y619D02*
X990Y619D01*
X993Y619D02*
X1035Y619D01*
X1081Y619D02*
X1124Y619D01*
X1133Y619D02*
X1176Y619D01*
X1277Y619D02*
X1315Y619D01*
X1351Y619D02*
X1393Y619D01*
X1403Y619D02*
X1448Y619D01*
X1473Y619D02*
X1578Y619D01*
X1622Y619D02*
X1660Y619D01*
X670Y618D02*
X725Y618D01*
X758Y618D02*
X801Y618D01*
X867Y618D02*
X1034Y618D01*
X1081Y618D02*
X1124Y618D01*
X1132Y618D02*
X1175Y618D01*
X1278Y618D02*
X1315Y618D01*
X1351Y618D02*
X1394Y618D01*
X1402Y618D02*
X1447Y618D01*
X1473Y618D02*
X1578Y618D01*
X1622Y618D02*
X1660Y618D01*
X671Y617D02*
X726Y617D01*
X757Y617D02*
X801Y617D01*
X868Y617D02*
X1034Y617D01*
X1082Y617D02*
X1125Y617D01*
X1131Y617D02*
X1175Y617D01*
X1278Y617D02*
X1315Y617D01*
X1352Y617D02*
X1394Y617D01*
X1402Y617D02*
X1446Y617D01*
X1473Y617D02*
X1579Y617D01*
X1622Y617D02*
X1660Y617D01*
X672Y616D02*
X727Y616D01*
X757Y616D02*
X800Y616D01*
X868Y616D02*
X1034Y616D01*
X1082Y616D02*
X1126Y616D01*
X1131Y616D02*
X1174Y616D01*
X1278Y616D02*
X1316Y616D01*
X1352Y616D02*
X1395Y616D01*
X1401Y616D02*
X1446Y616D01*
X1473Y616D02*
X1579Y616D01*
X1622Y616D02*
X1660Y616D01*
X673Y615D02*
X728Y615D01*
X756Y615D02*
X799Y615D01*
X869Y615D02*
X1033Y615D01*
X1083Y615D02*
X1126Y615D01*
X1130Y615D02*
X1174Y615D01*
X1278Y615D02*
X1316Y615D01*
X1353Y615D02*
X1395Y615D01*
X1401Y615D02*
X1445Y615D01*
X1473Y615D02*
X1580Y615D01*
X1622Y615D02*
X1660Y615D01*
X674Y614D02*
X729Y614D01*
X756Y614D02*
X799Y614D01*
X869Y614D02*
X1033Y614D01*
X1083Y614D02*
X1127Y614D01*
X1130Y614D02*
X1173Y614D01*
X1278Y614D02*
X1316Y614D01*
X1353Y614D02*
X1396Y614D01*
X1400Y614D02*
X1445Y614D01*
X1472Y614D02*
X1580Y614D01*
X1622Y614D02*
X1660Y614D01*
X675Y613D02*
X730Y613D01*
X755Y613D02*
X798Y613D01*
X870Y613D02*
X1032Y613D01*
X1084Y613D02*
X1127Y613D01*
X1129Y613D02*
X1172Y613D01*
X1278Y613D02*
X1316Y613D01*
X1354Y613D02*
X1396Y613D01*
X1399Y613D02*
X1444Y613D01*
X1472Y613D02*
X1581Y613D01*
X1622Y613D02*
X1660Y613D01*
X676Y612D02*
X731Y612D01*
X754Y612D02*
X798Y612D01*
X870Y612D02*
X1032Y612D01*
X1084Y612D02*
X1172Y612D01*
X1278Y612D02*
X1316Y612D01*
X1354Y612D02*
X1443Y612D01*
X1472Y612D02*
X1581Y612D01*
X1622Y612D02*
X1660Y612D01*
X677Y611D02*
X732Y611D01*
X754Y611D02*
X797Y611D01*
X871Y611D02*
X1031Y611D01*
X1085Y611D02*
X1171Y611D01*
X1278Y611D02*
X1316Y611D01*
X1355Y611D02*
X1443Y611D01*
X1472Y611D02*
X1581Y611D01*
X1622Y611D02*
X1660Y611D01*
X678Y610D02*
X734Y610D01*
X753Y610D02*
X797Y610D01*
X871Y610D02*
X950Y610D01*
X952Y610D02*
X1031Y610D01*
X1086Y610D02*
X1171Y610D01*
X1278Y610D02*
X1316Y610D01*
X1355Y610D02*
X1442Y610D01*
X1472Y610D02*
X1581Y610D01*
X1622Y610D02*
X1660Y610D01*
X679Y609D02*
X735Y609D01*
X753Y609D02*
X796Y609D01*
X871Y609D02*
X949Y609D01*
X953Y609D02*
X1030Y609D01*
X1086Y609D02*
X1170Y609D01*
X1278Y609D02*
X1316Y609D01*
X1356Y609D02*
X1442Y609D01*
X1472Y609D02*
X1581Y609D01*
X1622Y609D02*
X1660Y609D01*
X680Y608D02*
X736Y608D01*
X752Y608D02*
X796Y608D01*
X872Y608D02*
X949Y608D01*
X953Y608D02*
X1030Y608D01*
X1087Y608D02*
X1170Y608D01*
X1278Y608D02*
X1316Y608D01*
X1356Y608D02*
X1441Y608D01*
X1472Y608D02*
X1581Y608D01*
X1622Y608D02*
X1660Y608D01*
X681Y607D02*
X737Y607D01*
X752Y607D02*
X795Y607D01*
X872Y607D02*
X948Y607D01*
X954Y607D02*
X1029Y607D01*
X1087Y607D02*
X1169Y607D01*
X1278Y607D02*
X1316Y607D01*
X1357Y607D02*
X1440Y607D01*
X1472Y607D02*
X1581Y607D01*
X1623Y607D02*
X1660Y607D01*
X682Y606D02*
X738Y606D01*
X751Y606D02*
X795Y606D01*
X873Y606D02*
X948Y606D01*
X954Y606D02*
X1029Y606D01*
X1088Y606D02*
X1169Y606D01*
X1278Y606D02*
X1316Y606D01*
X1357Y606D02*
X1440Y606D01*
X1472Y606D02*
X1581Y606D01*
X1623Y606D02*
X1660Y606D01*
X683Y605D02*
X739Y605D01*
X751Y605D02*
X794Y605D01*
X873Y605D02*
X947Y605D01*
X955Y605D02*
X1028Y605D01*
X1088Y605D02*
X1168Y605D01*
X1278Y605D02*
X1316Y605D01*
X1358Y605D02*
X1439Y605D01*
X1472Y605D02*
X1581Y605D01*
X1623Y605D02*
X1660Y605D01*
X684Y604D02*
X741Y604D01*
X750Y604D02*
X794Y604D01*
X874Y604D02*
X947Y604D01*
X955Y604D02*
X1028Y604D01*
X1089Y604D02*
X1168Y604D01*
X1278Y604D02*
X1316Y604D01*
X1358Y604D02*
X1438Y604D01*
X1472Y604D02*
X1581Y604D01*
X1623Y604D02*
X1660Y604D01*
X685Y603D02*
X742Y603D01*
X750Y603D02*
X793Y603D01*
X874Y603D02*
X946Y603D01*
X955Y603D02*
X1028Y603D01*
X1089Y603D02*
X1167Y603D01*
X1278Y603D02*
X1316Y603D01*
X1359Y603D02*
X1438Y603D01*
X1472Y603D02*
X1581Y603D01*
X1623Y603D02*
X1660Y603D01*
X686Y602D02*
X743Y602D01*
X749Y602D02*
X792Y602D01*
X875Y602D02*
X946Y602D01*
X956Y602D02*
X1027Y602D01*
X1090Y602D02*
X1167Y602D01*
X1278Y602D02*
X1316Y602D01*
X1359Y602D02*
X1437Y602D01*
X1472Y602D02*
X1581Y602D01*
X1623Y602D02*
X1660Y602D01*
X687Y601D02*
X744Y601D01*
X748Y601D02*
X792Y601D01*
X875Y601D02*
X945Y601D01*
X956Y601D02*
X1027Y601D01*
X1090Y601D02*
X1166Y601D01*
X1278Y601D02*
X1316Y601D01*
X1360Y601D02*
X1437Y601D01*
X1472Y601D02*
X1581Y601D01*
X1623Y601D02*
X1660Y601D01*
X688Y600D02*
X746Y600D01*
X748Y600D02*
X791Y600D01*
X876Y600D02*
X945Y600D01*
X957Y600D02*
X1026Y600D01*
X1091Y600D02*
X1166Y600D01*
X1278Y600D02*
X1316Y600D01*
X1360Y600D02*
X1436Y600D01*
X1472Y600D02*
X1581Y600D01*
X1623Y600D02*
X1661Y600D01*
X689Y599D02*
X791Y599D01*
X876Y599D02*
X944Y599D01*
X957Y599D02*
X1026Y599D01*
X1091Y599D02*
X1165Y599D01*
X1278Y599D02*
X1316Y599D01*
X1361Y599D02*
X1435Y599D01*
X1473Y599D02*
X1581Y599D01*
X1623Y599D02*
X1661Y599D01*
X690Y598D02*
X790Y598D01*
X877Y598D02*
X944Y598D01*
X958Y598D02*
X1025Y598D01*
X1092Y598D02*
X1164Y598D01*
X1278Y598D02*
X1316Y598D01*
X1361Y598D02*
X1435Y598D01*
X1473Y598D02*
X1581Y598D01*
X1623Y598D02*
X1661Y598D01*
X691Y597D02*
X790Y597D01*
X877Y597D02*
X944Y597D01*
X958Y597D02*
X1025Y597D01*
X1092Y597D02*
X1164Y597D01*
X1278Y597D02*
X1316Y597D01*
X1362Y597D02*
X1434Y597D01*
X1473Y597D02*
X1581Y597D01*
X1623Y597D02*
X1661Y597D01*
X692Y596D02*
X789Y596D01*
X877Y596D02*
X943Y596D01*
X959Y596D02*
X1024Y596D01*
X1093Y596D02*
X1163Y596D01*
X1278Y596D02*
X1316Y596D01*
X1362Y596D02*
X1434Y596D01*
X1474Y596D02*
X1581Y596D01*
X1623Y596D02*
X1661Y596D01*
X693Y595D02*
X789Y595D01*
X878Y595D02*
X943Y595D01*
X959Y595D02*
X1024Y595D01*
X1094Y595D02*
X1163Y595D01*
X1278Y595D02*
X1316Y595D01*
X1363Y595D02*
X1433Y595D01*
X1474Y595D02*
X1580Y595D01*
X1623Y595D02*
X1661Y595D01*
X694Y594D02*
X788Y594D01*
X878Y594D02*
X942Y594D01*
X960Y594D02*
X1023Y594D01*
X1094Y594D02*
X1162Y594D01*
X1278Y594D02*
X1316Y594D01*
X1363Y594D02*
X1432Y594D01*
X1475Y594D02*
X1580Y594D01*
X1623Y594D02*
X1661Y594D01*
X695Y593D02*
X788Y593D01*
X879Y593D02*
X942Y593D01*
X960Y593D02*
X1023Y593D01*
X1095Y593D02*
X1162Y593D01*
X1279Y593D02*
X1316Y593D01*
X1364Y593D02*
X1432Y593D01*
X1475Y593D02*
X1580Y593D01*
X1623Y593D02*
X1661Y593D01*
X696Y592D02*
X787Y592D01*
X879Y592D02*
X941Y592D01*
X961Y592D02*
X1022Y592D01*
X1095Y592D02*
X1161Y592D01*
X1279Y592D02*
X1316Y592D01*
X1364Y592D02*
X1431Y592D01*
X1476Y592D02*
X1580Y592D01*
X1623Y592D02*
X1661Y592D01*
X697Y591D02*
X786Y591D01*
X880Y591D02*
X941Y591D01*
X961Y591D02*
X1022Y591D01*
X1096Y591D02*
X1161Y591D01*
X1279Y591D02*
X1316Y591D01*
X1365Y591D02*
X1431Y591D01*
X1476Y591D02*
X1579Y591D01*
X1623Y591D02*
X1661Y591D01*
X698Y590D02*
X786Y590D01*
X880Y590D02*
X940Y590D01*
X962Y590D02*
X1021Y590D01*
X1096Y590D02*
X1160Y590D01*
X1279Y590D02*
X1317Y590D01*
X1365Y590D02*
X1430Y590D01*
X1476Y590D02*
X1579Y590D01*
X1623Y590D02*
X1661Y590D01*
X699Y589D02*
X785Y589D01*
X881Y589D02*
X940Y589D01*
X962Y589D02*
X1021Y589D01*
X1097Y589D02*
X1160Y589D01*
X1279Y589D02*
X1317Y589D01*
X1366Y589D02*
X1429Y589D01*
X1477Y589D02*
X1578Y589D01*
X1623Y589D02*
X1661Y589D01*
X701Y588D02*
X785Y588D01*
X881Y588D02*
X939Y588D01*
X962Y588D02*
X1021Y588D01*
X1097Y588D02*
X1159Y588D01*
X1279Y588D02*
X1317Y588D01*
X1366Y588D02*
X1429Y588D01*
X1477Y588D02*
X1578Y588D01*
X1623Y588D02*
X1661Y588D01*
X702Y587D02*
X784Y587D01*
X882Y587D02*
X939Y587D01*
X963Y587D02*
X1020Y587D01*
X1098Y587D02*
X1159Y587D01*
X1279Y587D02*
X1317Y587D01*
X1366Y587D02*
X1428Y587D01*
X1477Y587D02*
X1577Y587D01*
X1623Y587D02*
X1661Y587D01*
X703Y586D02*
X784Y586D01*
X882Y586D02*
X938Y586D01*
X963Y586D02*
X1020Y586D01*
X1098Y586D02*
X1158Y586D01*
X1279Y586D02*
X1317Y586D01*
X1367Y586D02*
X1428Y586D01*
X1477Y586D02*
X1576Y586D01*
X1623Y586D02*
X1661Y586D01*
X704Y585D02*
X783Y585D01*
X883Y585D02*
X938Y585D01*
X964Y585D02*
X1019Y585D01*
X1099Y585D02*
X1158Y585D01*
X1279Y585D02*
X1317Y585D01*
X1367Y585D02*
X1427Y585D01*
X1478Y585D02*
X1576Y585D01*
X1623Y585D02*
X1661Y585D01*
X705Y584D02*
X783Y584D01*
X883Y584D02*
X937Y584D01*
X964Y584D02*
X1019Y584D01*
X1099Y584D02*
X1157Y584D01*
X1279Y584D02*
X1317Y584D01*
X1368Y584D02*
X1426Y584D01*
X1478Y584D02*
X1575Y584D01*
X1623Y584D02*
X1661Y584D01*
X706Y583D02*
X782Y583D01*
X883Y583D02*
X937Y583D01*
X965Y583D02*
X1018Y583D01*
X1100Y583D02*
X1157Y583D01*
X1279Y583D02*
X1317Y583D01*
X1368Y583D02*
X1426Y583D01*
X1478Y583D02*
X1574Y583D01*
X1623Y583D02*
X1661Y583D01*
X707Y582D02*
X782Y582D01*
X884Y582D02*
X936Y582D01*
X965Y582D02*
X1018Y582D01*
X1100Y582D02*
X1156Y582D01*
X1279Y582D02*
X1317Y582D01*
X1369Y582D02*
X1425Y582D01*
X1478Y582D02*
X1574Y582D01*
X1623Y582D02*
X1661Y582D01*
X708Y581D02*
X781Y581D01*
X884Y581D02*
X936Y581D01*
X966Y581D02*
X1017Y581D01*
X1101Y581D02*
X1155Y581D01*
X1279Y581D02*
X1317Y581D01*
X1369Y581D02*
X1425Y581D01*
X1478Y581D02*
X1573Y581D01*
X1623Y581D02*
X1661Y581D01*
X710Y580D02*
X780Y580D01*
X885Y580D02*
X936Y580D01*
X966Y580D02*
X1017Y580D01*
X1102Y580D02*
X1155Y580D01*
X1279Y580D02*
X1317Y580D01*
X1370Y580D02*
X1424Y580D01*
X1478Y580D02*
X1573Y580D01*
X1623Y580D02*
X1661Y580D01*
X711Y579D02*
X780Y579D01*
X885Y579D02*
X935Y579D01*
X967Y579D02*
X1016Y579D01*
X1102Y579D02*
X1154Y579D01*
X1279Y579D02*
X1317Y579D01*
X1370Y579D02*
X1423Y579D01*
X1479Y579D02*
X1572Y579D01*
X1623Y579D02*
X1661Y579D01*
X712Y578D02*
X779Y578D01*
X886Y578D02*
X935Y578D01*
X967Y578D02*
X1016Y578D01*
X1103Y578D02*
X1154Y578D01*
X1279Y578D02*
X1317Y578D01*
X1371Y578D02*
X1423Y578D01*
X1479Y578D02*
X1572Y578D01*
X1623Y578D02*
X1661Y578D01*
X713Y577D02*
X779Y577D01*
X886Y577D02*
X934Y577D01*
X968Y577D02*
X1015Y577D01*
X1103Y577D02*
X1153Y577D01*
X1279Y577D02*
X1317Y577D01*
X1371Y577D02*
X1422Y577D01*
X1480Y577D02*
X1572Y577D01*
X1623Y577D02*
X1661Y577D01*
X714Y576D02*
X778Y576D01*
X887Y576D02*
X934Y576D01*
X968Y576D02*
X1015Y576D01*
X1104Y576D02*
X1153Y576D01*
X1279Y576D02*
X1317Y576D01*
X1372Y576D02*
X1421Y576D01*
X1480Y576D02*
X1571Y576D01*
X1623Y576D02*
X1661Y576D01*
X716Y575D02*
X778Y575D01*
X887Y575D02*
X933Y575D01*
X969Y575D02*
X1014Y575D01*
X1104Y575D02*
X1152Y575D01*
X1279Y575D02*
X1317Y575D01*
X1372Y575D02*
X1421Y575D01*
X1481Y575D02*
X1571Y575D01*
X1623Y575D02*
X1661Y575D01*
X717Y574D02*
X777Y574D01*
X888Y574D02*
X933Y574D01*
X969Y574D02*
X1014Y574D01*
X1105Y574D02*
X1152Y574D01*
X1279Y574D02*
X1317Y574D01*
X1373Y574D02*
X1420Y574D01*
X1482Y574D02*
X1571Y574D01*
X1623Y574D02*
X1661Y574D01*
X718Y573D02*
X777Y573D01*
X888Y573D02*
X932Y573D01*
X970Y573D02*
X1014Y573D01*
X1105Y573D02*
X1151Y573D01*
X1279Y573D02*
X1317Y573D01*
X1373Y573D02*
X1420Y573D01*
X1483Y573D02*
X1570Y573D01*
X1623Y573D02*
X1661Y573D01*
X719Y572D02*
X776Y572D01*
X889Y572D02*
X932Y572D01*
X970Y572D02*
X1013Y572D01*
X1106Y572D02*
X1151Y572D01*
X1279Y572D02*
X1317Y572D01*
X1374Y572D02*
X1419Y572D01*
X1483Y572D02*
X1570Y572D01*
X1623Y572D02*
X1661Y572D01*
X720Y571D02*
X776Y571D01*
X889Y571D02*
X931Y571D01*
X970Y571D02*
X1013Y571D01*
X1106Y571D02*
X1150Y571D01*
X1280Y571D02*
X1317Y571D01*
X1374Y571D02*
X1418Y571D01*
X1484Y571D02*
X1569Y571D01*
X1623Y571D02*
X1661Y571D01*
X722Y570D02*
X775Y570D01*
X890Y570D02*
X931Y570D01*
X971Y570D02*
X1012Y570D01*
X1107Y570D02*
X1150Y570D01*
X1280Y570D02*
X1317Y570D01*
X1375Y570D02*
X1418Y570D01*
X1485Y570D02*
X1568Y570D01*
X1623Y570D02*
X1661Y570D01*
X723Y569D02*
X774Y569D01*
X890Y569D02*
X930Y569D01*
X971Y569D02*
X1012Y569D01*
X1108Y569D02*
X1149Y569D01*
X1280Y569D02*
X1317Y569D01*
X1375Y569D02*
X1417Y569D01*
X1486Y569D02*
X1567Y569D01*
X1623Y569D02*
X1661Y569D01*
X724Y568D02*
X774Y568D01*
X891Y568D02*
X930Y568D01*
X972Y568D02*
X1011Y568D01*
X1108Y568D02*
X1148Y568D01*
X1280Y568D02*
X1317Y568D01*
X1376Y568D02*
X1417Y568D01*
X1487Y568D02*
X1567Y568D01*
X1623Y568D02*
X1661Y568D01*
X725Y567D02*
X773Y567D01*
X891Y567D02*
X929Y567D01*
X972Y567D02*
X1011Y567D01*
X1109Y567D02*
X1148Y567D01*
X1280Y567D02*
X1317Y567D01*
X1376Y567D02*
X1416Y567D01*
X1488Y567D02*
X1565Y567D01*
X1623Y567D02*
X1661Y567D01*
X727Y566D02*
X773Y566D01*
X892Y566D02*
X929Y566D01*
X973Y566D02*
X1010Y566D01*
X1109Y566D02*
X1147Y566D01*
X1280Y566D02*
X1317Y566D01*
X1377Y566D02*
X1415Y566D01*
X1489Y566D02*
X1564Y566D01*
X1623Y566D02*
X1661Y566D01*
X728Y565D02*
X772Y565D01*
X892Y565D02*
X929Y565D01*
X973Y565D02*
X1010Y565D01*
X1110Y565D02*
X1147Y565D01*
X1280Y565D02*
X1316Y565D01*
X1377Y565D02*
X1415Y565D01*
X1490Y565D02*
X1563Y565D01*
X1623Y565D02*
X1661Y565D01*
X729Y564D02*
X772Y564D01*
X892Y564D02*
X928Y564D01*
X974Y564D02*
X1009Y564D01*
X1110Y564D02*
X1146Y564D01*
X1280Y564D02*
X1316Y564D01*
X1378Y564D02*
X1414Y564D01*
X1491Y564D02*
X1562Y564D01*
X1623Y564D02*
X1661Y564D01*
X731Y563D02*
X771Y563D01*
X893Y563D02*
X928Y563D01*
X974Y563D02*
X1009Y563D01*
X1111Y563D02*
X1146Y563D01*
X1281Y563D02*
X1316Y563D01*
X1378Y563D02*
X1413Y563D01*
X1492Y563D02*
X1561Y563D01*
X1623Y563D02*
X1661Y563D01*
X732Y562D02*
X770Y562D01*
X893Y562D02*
X927Y562D01*
X975Y562D02*
X1008Y562D01*
X1112Y562D02*
X1145Y562D01*
X1281Y562D02*
X1315Y562D01*
X1379Y562D02*
X1413Y562D01*
X1494Y562D02*
X1560Y562D01*
X1623Y562D02*
X1661Y562D01*
X733Y561D02*
X770Y561D01*
X894Y561D02*
X926Y561D01*
X975Y561D02*
X1008Y561D01*
X1112Y561D02*
X1144Y561D01*
X1282Y561D02*
X1315Y561D01*
X1379Y561D02*
X1412Y561D01*
X1496Y561D02*
X1558Y561D01*
X1623Y561D02*
X1661Y561D01*
X735Y560D02*
X769Y560D01*
X894Y560D02*
X926Y560D01*
X976Y560D02*
X1007Y560D01*
X1113Y560D02*
X1144Y560D01*
X1282Y560D02*
X1314Y560D01*
X1380Y560D02*
X1411Y560D01*
X1499Y560D02*
X1557Y560D01*
X1623Y560D02*
X1661Y560D01*
X736Y559D02*
X768Y559D01*
X895Y559D02*
X925Y559D01*
X976Y559D02*
X1007Y559D01*
X1113Y559D02*
X1143Y559D01*
X1283Y559D02*
X1313Y559D01*
X1381Y559D02*
X1411Y559D01*
X1501Y559D02*
X1555Y559D01*
X1623Y559D02*
X1661Y559D01*
X738Y558D02*
X768Y558D01*
X896Y558D02*
X924Y558D01*
X977Y558D02*
X1006Y558D01*
X1114Y558D02*
X1142Y558D01*
X1284Y558D02*
X1313Y558D01*
X1381Y558D02*
X1410Y558D01*
X1503Y558D02*
X1554Y558D01*
X1623Y558D02*
X1661Y558D01*
X739Y557D02*
X767Y557D01*
X896Y557D02*
X924Y557D01*
X978Y557D02*
X1005Y557D01*
X1115Y557D02*
X1142Y557D01*
X1285Y557D02*
X1312Y557D01*
X1382Y557D02*
X1409Y557D01*
X1505Y557D02*
X1551Y557D01*
X1593Y557D02*
X1593Y557D01*
X1623Y557D02*
X1661Y557D01*
X740Y556D02*
X766Y556D01*
X898Y556D02*
X922Y556D01*
X979Y556D02*
X1004Y556D01*
X1116Y556D02*
X1141Y556D01*
X1286Y556D02*
X1311Y556D01*
X1383Y556D02*
X1408Y556D01*
X1507Y556D02*
X1546Y556D01*
X1592Y556D02*
X1594Y556D01*
X1623Y556D02*
X1661Y556D01*
X742Y555D02*
X765Y555D01*
X899Y555D02*
X921Y555D01*
X980Y555D02*
X1003Y555D01*
X1117Y555D02*
X1139Y555D01*
X1287Y555D02*
X1310Y555D01*
X1384Y555D02*
X1407Y555D01*
X1508Y555D02*
X1542Y555D01*
X1592Y555D02*
X1595Y555D01*
X1623Y555D02*
X1661Y555D01*
X744Y554D02*
X763Y554D01*
X900Y554D02*
X920Y554D01*
X982Y554D02*
X1001Y554D01*
X1118Y554D02*
X1138Y554D01*
X1288Y554D02*
X1308Y554D01*
X1386Y554D02*
X1406Y554D01*
X1509Y554D02*
X1539Y554D01*
X1591Y554D02*
X1596Y554D01*
X1623Y554D02*
X1661Y554D01*
X745Y553D02*
X762Y553D01*
X902Y553D02*
X918Y553D01*
X984Y553D02*
X1000Y553D01*
X1120Y553D02*
X1136Y553D01*
X1290Y553D02*
X1306Y553D01*
X1388Y553D02*
X1404Y553D01*
X1511Y553D02*
X1537Y553D01*
X1590Y553D02*
X1597Y553D01*
X1623Y553D02*
X1661Y553D01*
X748Y552D02*
X759Y552D01*
X905Y552D02*
X916Y552D01*
X986Y552D02*
X998Y552D01*
X1122Y552D02*
X1134Y552D01*
X1293Y552D02*
X1304Y552D01*
X1390Y552D02*
X1402Y552D01*
X1514Y552D02*
X1535Y552D01*
X1589Y552D02*
X1597Y552D01*
X1623Y552D02*
X1661Y552D01*
X753Y551D02*
X754Y551D01*
X910Y551D02*
X911Y551D01*
X991Y551D02*
X992Y551D01*
X1127Y551D02*
X1129Y551D01*
X1298Y551D02*
X1299Y551D01*
X1519Y551D02*
X1532Y551D01*
X1588Y551D02*
X1598Y551D01*
X1623Y551D02*
X1661Y551D01*
X1587Y550D02*
X1599Y550D01*
X1623Y550D02*
X1661Y550D01*
X1586Y549D02*
X1600Y549D01*
X1623Y549D02*
X1661Y549D01*
X1585Y548D02*
X1601Y548D01*
X1623Y548D02*
X1661Y548D01*
X1584Y547D02*
X1601Y547D01*
X1623Y547D02*
X1661Y547D01*
X1583Y546D02*
X1602Y546D01*
X1623Y546D02*
X1661Y546D01*
X1582Y545D02*
X1603Y545D01*
X1623Y545D02*
X1661Y545D01*
X1581Y544D02*
X1604Y544D01*
X1623Y544D02*
X1661Y544D01*
X1580Y543D02*
X1605Y543D01*
X1623Y543D02*
X1661Y543D01*
X1578Y542D02*
X1605Y542D01*
X1623Y542D02*
X1661Y542D01*
X1577Y541D02*
X1606Y541D01*
X1623Y541D02*
X1661Y541D01*
X1576Y540D02*
X1607Y540D01*
X1623Y540D02*
X1661Y540D01*
X1575Y539D02*
X1608Y539D01*
X1623Y539D02*
X1661Y539D01*
X1573Y538D02*
X1609Y538D01*
X1623Y538D02*
X1661Y538D01*
X1572Y537D02*
X1609Y537D01*
X1623Y537D02*
X1661Y537D01*
X1570Y536D02*
X1610Y536D01*
X1623Y536D02*
X1661Y536D01*
X1569Y535D02*
X1611Y535D01*
X1623Y535D02*
X1661Y535D01*
X1567Y534D02*
X1612Y534D01*
X1623Y534D02*
X1661Y534D01*
X1566Y533D02*
X1613Y533D01*
X1623Y533D02*
X1661Y533D01*
X1565Y532D02*
X1613Y532D01*
X1623Y532D02*
X1661Y532D01*
X1566Y531D02*
X1614Y531D01*
X1623Y531D02*
X1661Y531D01*
X1566Y530D02*
X1615Y530D01*
X1623Y530D02*
X1661Y530D01*
X1567Y529D02*
X1616Y529D01*
X1623Y529D02*
X1661Y529D01*
X1568Y528D02*
X1617Y528D01*
X1623Y528D02*
X1661Y528D01*
X1569Y527D02*
X1617Y527D01*
X1623Y527D02*
X1661Y527D01*
X1569Y526D02*
X1618Y526D01*
X1623Y526D02*
X1661Y526D01*
X1570Y525D02*
X1619Y525D01*
X1623Y525D02*
X1661Y525D01*
X1571Y524D02*
X1620Y524D01*
X1623Y524D02*
X1661Y524D01*
X1572Y523D02*
X1621Y523D01*
X1623Y523D02*
X1661Y523D01*
X1573Y522D02*
X1621Y522D01*
X1623Y522D02*
X1661Y522D01*
X1573Y521D02*
X1661Y521D01*
X1574Y520D02*
X1661Y520D01*
X1575Y519D02*
X1662Y519D01*
X1576Y518D02*
X1662Y518D01*
X1576Y517D02*
X1662Y517D01*
X1577Y516D02*
X1662Y516D01*
X1578Y515D02*
X1662Y515D01*
X1579Y514D02*
X1662Y514D01*
X1580Y513D02*
X1662Y513D01*
X1580Y512D02*
X1662Y512D01*
X1581Y511D02*
X1662Y511D01*
X1582Y510D02*
X1662Y510D01*
X1583Y509D02*
X1662Y509D01*
X1584Y508D02*
X1662Y508D01*
X1584Y507D02*
X1662Y507D01*
X1585Y506D02*
X1662Y506D01*
X1586Y505D02*
X1662Y505D01*
X1587Y504D02*
X1662Y504D01*
X1587Y503D02*
X1662Y503D01*
X1588Y502D02*
X1662Y502D01*
X1589Y501D02*
X1662Y501D01*
X1590Y500D02*
X1662Y500D01*
X1591Y499D02*
X1662Y499D01*
X1591Y498D02*
X1662Y498D01*
X1592Y497D02*
X1662Y497D01*
X1593Y496D02*
X1662Y496D01*
X1594Y495D02*
X1662Y495D01*
X1594Y494D02*
X1662Y494D01*
X1595Y493D02*
X1662Y493D01*
X1596Y492D02*
X1662Y492D01*
X1597Y491D02*
X1662Y491D01*
X1598Y490D02*
X1662Y490D01*
X1598Y489D02*
X1662Y489D01*
X1599Y488D02*
X1662Y488D01*
X1600Y487D02*
X1662Y487D01*
X1601Y486D02*
X1662Y486D01*
X1601Y485D02*
X1662Y485D01*
X1602Y484D02*
X1662Y484D01*
X1603Y483D02*
X1662Y483D01*
X1604Y482D02*
X1662Y482D01*
X1604Y481D02*
X1662Y481D01*
X1605Y480D02*
X1662Y480D01*
X1606Y479D02*
X1662Y479D01*
X1607Y478D02*
X1662Y478D01*
X1607Y477D02*
X1662Y477D01*
X1608Y476D02*
X1662Y476D01*
X1609Y475D02*
X1662Y475D01*
X1610Y474D02*
X1662Y474D01*
X1611Y473D02*
X1662Y473D01*
X1611Y472D02*
X1662Y472D01*
X1612Y471D02*
X1662Y471D01*
X1613Y470D02*
X1662Y470D01*
X1614Y469D02*
X1662Y469D01*
X1614Y468D02*
X1662Y468D01*
X1615Y467D02*
X1662Y467D01*
X1616Y466D02*
X1663Y466D01*
X1617Y465D02*
X1664Y465D01*
X1617Y464D02*
X1665Y464D01*
X1618Y463D02*
X1665Y463D01*
X1619Y462D02*
X1666Y462D01*
X1620Y461D02*
X1667Y461D01*
X1620Y460D02*
X1668Y460D01*
X1621Y459D02*
X1668Y459D01*
X1622Y458D02*
X1669Y458D01*
X1623Y457D02*
X1670Y457D01*
X1623Y456D02*
X1670Y456D01*
X1624Y455D02*
X1671Y455D01*
X1624Y454D02*
X1672Y454D01*
X1624Y453D02*
X1672Y453D01*
X1624Y452D02*
X1673Y452D01*
X1624Y451D02*
X1674Y451D01*
X1624Y450D02*
X1675Y450D01*
X1624Y449D02*
X1675Y449D01*
X1624Y448D02*
X1676Y448D01*
X1624Y447D02*
X1677Y447D01*
X1624Y446D02*
X1677Y446D01*
X1624Y445D02*
X1678Y445D01*
X1624Y444D02*
X1679Y444D01*
X1624Y443D02*
X1680Y443D01*
X1624Y442D02*
X1680Y442D01*
X1624Y441D02*
X1681Y441D01*
X1624Y440D02*
X1682Y440D01*
X1624Y439D02*
X1682Y439D01*
X1624Y438D02*
X1683Y438D01*
X1624Y437D02*
X1684Y437D01*
X1624Y436D02*
X1684Y436D01*
X1624Y435D02*
X1685Y435D01*
X1624Y434D02*
X1686Y434D01*
X1624Y433D02*
X1687Y433D01*
X1624Y432D02*
X1687Y432D01*
X1624Y431D02*
X1688Y431D01*
X1624Y430D02*
X1689Y430D01*
X1624Y429D02*
X1689Y429D01*
X1624Y428D02*
X1690Y428D01*
X1624Y427D02*
X1691Y427D01*
X1624Y426D02*
X1691Y426D01*
X1624Y425D02*
X1692Y425D01*
X1624Y424D02*
X1693Y424D01*
X1624Y423D02*
X1693Y423D01*
X1624Y422D02*
X1694Y422D01*
X1624Y421D02*
X1695Y421D01*
X1624Y420D02*
X1695Y420D01*
X1624Y419D02*
X1696Y419D01*
X1624Y418D02*
X1697Y418D01*
X1624Y417D02*
X1698Y417D01*
X1624Y416D02*
X1698Y416D01*
X1624Y415D02*
X1699Y415D01*
X1624Y414D02*
X1700Y414D01*
X1624Y413D02*
X1700Y413D01*
X1624Y412D02*
X1701Y412D01*
X1624Y411D02*
X1702Y411D01*
X1624Y410D02*
X1702Y410D01*
X1624Y409D02*
X1703Y409D01*
X1624Y408D02*
X1704Y408D01*
X1624Y407D02*
X1704Y407D01*
X1624Y406D02*
X1705Y406D01*
X1624Y405D02*
X1706Y405D01*
X1624Y404D02*
X1706Y404D01*
X1624Y403D02*
X1707Y403D01*
X1624Y402D02*
X1708Y402D01*
X1624Y401D02*
X1708Y401D01*
X1624Y400D02*
X1709Y400D01*
X1624Y399D02*
X1709Y399D01*
X1624Y398D02*
X1662Y398D01*
X1664Y398D02*
X1710Y398D01*
X1624Y397D02*
X1662Y397D01*
X1665Y397D02*
X1711Y397D01*
X1624Y396D02*
X1662Y396D01*
X1666Y396D02*
X1711Y396D01*
X1624Y395D02*
X1662Y395D01*
X1666Y395D02*
X1712Y395D01*
X1624Y394D02*
X1662Y394D01*
X1667Y394D02*
X1713Y394D01*
X1624Y393D02*
X1662Y393D01*
X1668Y393D02*
X1713Y393D01*
X1624Y392D02*
X1662Y392D01*
X1668Y392D02*
X1714Y392D01*
X1624Y391D02*
X1662Y391D01*
X1669Y391D02*
X1715Y391D01*
X1624Y390D02*
X1662Y390D01*
X1670Y390D02*
X1715Y390D01*
X1624Y389D02*
X1662Y389D01*
X1670Y389D02*
X1716Y389D01*
X1624Y388D02*
X1662Y388D01*
X1671Y388D02*
X1717Y388D01*
X1624Y387D02*
X1662Y387D01*
X1672Y387D02*
X1717Y387D01*
X1624Y386D02*
X1662Y386D01*
X1672Y386D02*
X1718Y386D01*
X1624Y385D02*
X1662Y385D01*
X1673Y385D02*
X1719Y385D01*
X1624Y384D02*
X1662Y384D01*
X1674Y384D02*
X1719Y384D01*
X1624Y383D02*
X1662Y383D01*
X1674Y383D02*
X1720Y383D01*
X1624Y382D02*
X1662Y382D01*
X1675Y382D02*
X1720Y382D01*
X1624Y381D02*
X1662Y381D01*
X1676Y381D02*
X1721Y381D01*
X1624Y380D02*
X1662Y380D01*
X1676Y380D02*
X1722Y380D01*
X1624Y379D02*
X1662Y379D01*
X1677Y379D02*
X1722Y379D01*
X1624Y378D02*
X1662Y378D01*
X1678Y378D02*
X1723Y378D01*
X1624Y377D02*
X1662Y377D01*
X1678Y377D02*
X1724Y377D01*
X1624Y376D02*
X1662Y376D01*
X1679Y376D02*
X1724Y376D01*
X1624Y375D02*
X1662Y375D01*
X1679Y375D02*
X1725Y375D01*
X1624Y374D02*
X1662Y374D01*
X1680Y374D02*
X1726Y374D01*
X1624Y373D02*
X1662Y373D01*
X1681Y373D02*
X1726Y373D01*
X1624Y372D02*
X1662Y372D01*
X1681Y372D02*
X1727Y372D01*
X1624Y371D02*
X1662Y371D01*
X1682Y371D02*
X1727Y371D01*
X1624Y370D02*
X1662Y370D01*
X1683Y370D02*
X1728Y370D01*
X1624Y369D02*
X1662Y369D01*
X1683Y369D02*
X1729Y369D01*
X1624Y368D02*
X1662Y368D01*
X1684Y368D02*
X1729Y368D01*
X1624Y367D02*
X1662Y367D01*
X1685Y367D02*
X1730Y367D01*
X1624Y366D02*
X1662Y366D01*
X1685Y366D02*
X1731Y366D01*
X1624Y365D02*
X1662Y365D01*
X1686Y365D02*
X1731Y365D01*
X1624Y364D02*
X1662Y364D01*
X1687Y364D02*
X1732Y364D01*
X1624Y363D02*
X1662Y363D01*
X1687Y363D02*
X1732Y363D01*
X1624Y362D02*
X1662Y362D01*
X1688Y362D02*
X1733Y362D01*
X1624Y361D02*
X1662Y361D01*
X1688Y361D02*
X1734Y361D01*
X1624Y360D02*
X1662Y360D01*
X1689Y360D02*
X1734Y360D01*
X1624Y359D02*
X1662Y359D01*
X1690Y359D02*
X1735Y359D01*
X1624Y358D02*
X1662Y358D01*
X1690Y358D02*
X1735Y358D01*
X1623Y357D02*
X1662Y357D01*
X1691Y357D02*
X1736Y357D01*
X1623Y356D02*
X1661Y356D01*
X1692Y356D02*
X1737Y356D01*
X1623Y355D02*
X1661Y355D01*
X1692Y355D02*
X1737Y355D01*
X1623Y354D02*
X1661Y354D01*
X1693Y354D02*
X1738Y354D01*
X1623Y353D02*
X1661Y353D01*
X1694Y353D02*
X1738Y353D01*
X1623Y352D02*
X1661Y352D01*
X1694Y352D02*
X1739Y352D01*
X1623Y351D02*
X1661Y351D01*
X1695Y351D02*
X1740Y351D01*
X1623Y350D02*
X1661Y350D01*
X1695Y350D02*
X1740Y350D01*
X1623Y349D02*
X1661Y349D01*
X1696Y349D02*
X1741Y349D01*
X1623Y348D02*
X1661Y348D01*
X1697Y348D02*
X1741Y348D01*
X1623Y347D02*
X1661Y347D01*
X1697Y347D02*
X1742Y347D01*
X1623Y346D02*
X1661Y346D01*
X1698Y346D02*
X1743Y346D01*
X1623Y345D02*
X1661Y345D01*
X1699Y345D02*
X1743Y345D01*
X1623Y344D02*
X1661Y344D01*
X1699Y344D02*
X1744Y344D01*
X1623Y343D02*
X1661Y343D01*
X1700Y343D02*
X1744Y343D01*
X1623Y342D02*
X1661Y342D01*
X1700Y342D02*
X1745Y342D01*
X1623Y341D02*
X1661Y341D01*
X1701Y341D02*
X1746Y341D01*
X1623Y340D02*
X1661Y340D01*
X1702Y340D02*
X1746Y340D01*
X1623Y339D02*
X1661Y339D01*
X1702Y339D02*
X1747Y339D01*
X1623Y338D02*
X1661Y338D01*
X1703Y338D02*
X1747Y338D01*
X1623Y337D02*
X1661Y337D01*
X1703Y337D02*
X1748Y337D01*
X1623Y336D02*
X1661Y336D01*
X1704Y336D02*
X1748Y336D01*
X1623Y335D02*
X1661Y335D01*
X1705Y335D02*
X1749Y335D01*
X1623Y334D02*
X1661Y334D01*
X1705Y334D02*
X1750Y334D01*
X1623Y333D02*
X1661Y333D01*
X1706Y333D02*
X1750Y333D01*
X1623Y332D02*
X1661Y332D01*
X1706Y332D02*
X1751Y332D01*
X1623Y331D02*
X1661Y331D01*
X1707Y331D02*
X1751Y331D01*
X1623Y330D02*
X1661Y330D01*
X1708Y330D02*
X1752Y330D01*
X1623Y329D02*
X1661Y329D01*
X1708Y329D02*
X1752Y329D01*
X1623Y328D02*
X1661Y328D01*
X1709Y328D02*
X1753Y328D01*
X1623Y327D02*
X1661Y327D01*
X1709Y327D02*
X1754Y327D01*
X1623Y326D02*
X1661Y326D01*
X1710Y326D02*
X1754Y326D01*
X1623Y325D02*
X1661Y325D01*
X1711Y325D02*
X1755Y325D01*
X1623Y324D02*
X1661Y324D01*
X1711Y324D02*
X1755Y324D01*
X1623Y323D02*
X1661Y323D01*
X1712Y323D02*
X1756Y323D01*
X1623Y322D02*
X1661Y322D01*
X1712Y322D02*
X1756Y322D01*
X1623Y321D02*
X1661Y321D01*
X1713Y321D02*
X1757Y321D01*
X1623Y320D02*
X1661Y320D01*
X1714Y320D02*
X1757Y320D01*
X1623Y319D02*
X1661Y319D01*
X1714Y319D02*
X1758Y319D01*
X1623Y318D02*
X1661Y318D01*
X1715Y318D02*
X1758Y318D01*
X1623Y317D02*
X1661Y317D01*
X1715Y317D02*
X1759Y317D01*
X1623Y316D02*
X1661Y316D01*
X1716Y316D02*
X1759Y316D01*
X1623Y315D02*
X1661Y315D01*
X1717Y315D02*
X1760Y315D01*
X1623Y314D02*
X1661Y314D01*
X1717Y314D02*
X1760Y314D01*
X1623Y313D02*
X1661Y313D01*
X1718Y313D02*
X1761Y313D01*
X1623Y312D02*
X1661Y312D01*
X1718Y312D02*
X1761Y312D01*
X1623Y311D02*
X1661Y311D01*
X1719Y311D02*
X1762Y311D01*
X1623Y310D02*
X1661Y310D01*
X1719Y310D02*
X1762Y310D01*
X1623Y309D02*
X1661Y309D01*
X1720Y309D02*
X1763Y309D01*
X1623Y308D02*
X1661Y308D01*
X1721Y308D02*
X1763Y308D01*
X1623Y307D02*
X1661Y307D01*
X1721Y307D02*
X1764Y307D01*
X1623Y306D02*
X1661Y306D01*
X1722Y306D02*
X1764Y306D01*
X1623Y305D02*
X1661Y305D01*
X1722Y305D02*
X1764Y305D01*
X1623Y304D02*
X1661Y304D01*
X1722Y304D02*
X1765Y304D01*
X1623Y303D02*
X1661Y303D01*
X1722Y303D02*
X1765Y303D01*
X1623Y302D02*
X1661Y302D01*
X1721Y302D02*
X1765Y302D01*
X1623Y301D02*
X1661Y301D01*
X1720Y301D02*
X1765Y301D01*
X1623Y300D02*
X1661Y300D01*
X1719Y300D02*
X1765Y300D01*
X1623Y299D02*
X1661Y299D01*
X1718Y299D02*
X1765Y299D01*
X1623Y298D02*
X1661Y298D01*
X1717Y298D02*
X1764Y298D01*
X1623Y297D02*
X1661Y297D01*
X1716Y297D02*
X1764Y297D01*
X1623Y296D02*
X1661Y296D01*
X1715Y296D02*
X1764Y296D01*
X1623Y295D02*
X1661Y295D01*
X1715Y295D02*
X1764Y295D01*
X1623Y294D02*
X1661Y294D01*
X1714Y294D02*
X1763Y294D01*
X1623Y293D02*
X1661Y293D01*
X1713Y293D02*
X1763Y293D01*
X1623Y292D02*
X1661Y292D01*
X1712Y292D02*
X1762Y292D01*
X1623Y291D02*
X1661Y291D01*
X1711Y291D02*
X1762Y291D01*
X1623Y290D02*
X1661Y290D01*
X1710Y290D02*
X1761Y290D01*
X1623Y289D02*
X1661Y289D01*
X1709Y289D02*
X1761Y289D01*
X1623Y288D02*
X1661Y288D01*
X1708Y288D02*
X1760Y288D01*
X1623Y287D02*
X1661Y287D01*
X1707Y287D02*
X1759Y287D01*
X1623Y286D02*
X1661Y286D01*
X1707Y286D02*
X1758Y286D01*
X1623Y285D02*
X1661Y285D01*
X1706Y285D02*
X1757Y285D01*
X1623Y284D02*
X1661Y284D01*
X1705Y284D02*
X1756Y284D01*
X1623Y283D02*
X1661Y283D01*
X1704Y283D02*
X1755Y283D01*
X1623Y282D02*
X1661Y282D01*
X1703Y282D02*
X1754Y282D01*
X1623Y281D02*
X1661Y281D01*
X1702Y281D02*
X1754Y281D01*
X1623Y280D02*
X1661Y280D01*
X1701Y280D02*
X1753Y280D01*
X1623Y279D02*
X1661Y279D01*
X1700Y279D02*
X1752Y279D01*
X1623Y278D02*
X1661Y278D01*
X1699Y278D02*
X1751Y278D01*
X1623Y277D02*
X1661Y277D01*
X1698Y277D02*
X1750Y277D01*
X1623Y276D02*
X1661Y276D01*
X1698Y276D02*
X1749Y276D01*
X1623Y275D02*
X1661Y275D01*
X1697Y275D02*
X1748Y275D01*
X1623Y274D02*
X1661Y274D01*
X1696Y274D02*
X1747Y274D01*
X1623Y273D02*
X1661Y273D01*
X1695Y273D02*
X1746Y273D01*
X1623Y272D02*
X1661Y272D01*
X1694Y272D02*
X1745Y272D01*
X1623Y271D02*
X1661Y271D01*
X1693Y271D02*
X1745Y271D01*
X1623Y270D02*
X1661Y270D01*
X1692Y270D02*
X1744Y270D01*
X1623Y269D02*
X1661Y269D01*
X1691Y269D02*
X1743Y269D01*
X1623Y268D02*
X1661Y268D01*
X1690Y268D02*
X1742Y268D01*
X1623Y267D02*
X1661Y267D01*
X1689Y267D02*
X1741Y267D01*
X1623Y266D02*
X1661Y266D01*
X1689Y266D02*
X1740Y266D01*
X1623Y265D02*
X1661Y265D01*
X1688Y265D02*
X1739Y265D01*
X1623Y264D02*
X1661Y264D01*
X1687Y264D02*
X1738Y264D01*
X1623Y263D02*
X1661Y263D01*
X1686Y263D02*
X1737Y263D01*
X1623Y262D02*
X1661Y262D01*
X1685Y262D02*
X1736Y262D01*
X1623Y261D02*
X1661Y261D01*
X1684Y261D02*
X1736Y261D01*
X1623Y260D02*
X1661Y260D01*
X1683Y260D02*
X1735Y260D01*
X1623Y259D02*
X1660Y259D01*
X1682Y259D02*
X1734Y259D01*
X1622Y258D02*
X1660Y258D01*
X1681Y258D02*
X1733Y258D01*
X1622Y257D02*
X1660Y257D01*
X1680Y257D02*
X1732Y257D01*
X1622Y256D02*
X1660Y256D01*
X1679Y256D02*
X1731Y256D01*
X1622Y255D02*
X1660Y255D01*
X1679Y255D02*
X1730Y255D01*
X1622Y254D02*
X1660Y254D01*
X1678Y254D02*
X1729Y254D01*
X1622Y253D02*
X1660Y253D01*
X1677Y253D02*
X1728Y253D01*
X1622Y252D02*
X1660Y252D01*
X1676Y252D02*
X1727Y252D01*
X1622Y251D02*
X1660Y251D01*
X1675Y251D02*
X1726Y251D01*
X1622Y250D02*
X1660Y250D01*
X1674Y250D02*
X1726Y250D01*
X1622Y249D02*
X1660Y249D01*
X1673Y249D02*
X1725Y249D01*
X1622Y248D02*
X1660Y248D01*
X1672Y248D02*
X1724Y248D01*
X1622Y247D02*
X1660Y247D01*
X1671Y247D02*
X1723Y247D01*
X1622Y246D02*
X1660Y246D01*
X1670Y246D02*
X1722Y246D01*
X1622Y245D02*
X1660Y245D01*
X1669Y245D02*
X1721Y245D01*
X1622Y244D02*
X1660Y244D01*
X1669Y244D02*
X1720Y244D01*
X1622Y243D02*
X1660Y243D01*
X1668Y243D02*
X1719Y243D01*
X1622Y242D02*
X1660Y242D01*
X1667Y242D02*
X1718Y242D01*
X1622Y241D02*
X1660Y241D01*
X1666Y241D02*
X1717Y241D01*
X1622Y240D02*
X1660Y240D01*
X1665Y240D02*
X1717Y240D01*
X1622Y239D02*
X1660Y239D01*
X1664Y239D02*
X1716Y239D01*
X1622Y238D02*
X1660Y238D01*
X1663Y238D02*
X1715Y238D01*
X1622Y237D02*
X1660Y237D01*
X1662Y237D02*
X1714Y237D01*
X1622Y236D02*
X1713Y236D01*
X1622Y235D02*
X1712Y235D01*
X1622Y234D02*
X1711Y234D01*
X1622Y233D02*
X1710Y233D01*
X1622Y232D02*
X1709Y232D01*
X1622Y231D02*
X1708Y231D01*
X1622Y230D02*
X1708Y230D01*
X1622Y229D02*
X1707Y229D01*
X1622Y228D02*
X1706Y228D01*
X1622Y227D02*
X1705Y227D01*
X1622Y226D02*
X1704Y226D01*
X1622Y225D02*
X1703Y225D01*
X1622Y224D02*
X1702Y224D01*
X1622Y223D02*
X1701Y223D01*
X1622Y222D02*
X1700Y222D01*
X1622Y221D02*
X1699Y221D01*
X1622Y220D02*
X1698Y220D01*
X1622Y219D02*
X1698Y219D01*
X1622Y218D02*
X1697Y218D01*
X1622Y217D02*
X1696Y217D01*
X1622Y216D02*
X1695Y216D01*
X1622Y215D02*
X1694Y215D01*
X1622Y214D02*
X1693Y214D01*
X1622Y213D02*
X1692Y213D01*
X1622Y212D02*
X1691Y212D01*
X1622Y211D02*
X1690Y211D01*
X1622Y210D02*
X1689Y210D01*
X1622Y209D02*
X1689Y209D01*
X1622Y208D02*
X1688Y208D01*
X1622Y207D02*
X1687Y207D01*
X1622Y206D02*
X1686Y206D01*
X1622Y205D02*
X1685Y205D01*
X1622Y204D02*
X1684Y204D01*
X1621Y203D02*
X1683Y203D01*
X1621Y202D02*
X1682Y202D01*
X1621Y201D02*
X1681Y201D01*
X1621Y200D02*
X1680Y200D01*
X1621Y199D02*
X1680Y199D01*
X1621Y198D02*
X1679Y198D01*
X1621Y197D02*
X1678Y197D01*
X1621Y196D02*
X1677Y196D01*
X1621Y195D02*
X1676Y195D01*
X1621Y194D02*
X1675Y194D01*
X1621Y193D02*
X1674Y193D01*
X1621Y192D02*
X1673Y192D01*
X1621Y191D02*
X1672Y191D01*
X1621Y190D02*
X1671Y190D01*
X1621Y189D02*
X1670Y189D01*
X1621Y188D02*
X1670Y188D01*
X1621Y187D02*
X1669Y187D01*
X1621Y186D02*
X1668Y186D01*
X1621Y185D02*
X1667Y185D01*
X1621Y184D02*
X1666Y184D01*
X1621Y183D02*
X1665Y183D01*
X1621Y182D02*
X1664Y182D01*
X1621Y181D02*
X1663Y181D01*
X1621Y180D02*
X1662Y180D01*
X1621Y179D02*
X1661Y179D01*
X1622Y178D02*
X1661Y178D01*
X1622Y177D02*
X1660Y177D01*
X1623Y176D02*
X1659Y176D01*
X1623Y175D02*
X1658Y175D01*
X1624Y174D02*
X1657Y174D01*
X1624Y173D02*
X1656Y173D01*
X1625Y172D02*
X1655Y172D01*
X1626Y171D02*
X1654Y171D01*
X1627Y170D02*
X1653Y170D01*
X1628Y169D02*
X1652Y169D01*
X1629Y168D02*
X1651Y168D01*
X1631Y167D02*
X1649Y167D01*
X1632Y166D02*
X1647Y166D01*
X1635Y165D02*
X1645Y165D01*
D02*
G04 End of Mask1*
M02*