G04 MADE WITH FRITZING*
G04 WWW.FRITZING.ORG*
G04 DOUBLE SIDED*
G04 HOLES PLATED*
G04 CONTOUR ON CENTER OF CONTOUR VECTOR*
%ASAXBY*%
%FSLAX23Y23*%
%MOIN*%
%OFA0B0*%
%SFA1.0B1.0*%
%ADD10C,0.008*%
%LNCONTOUR*%
G90*
G70*
G54D10*
X1516Y4625D02*
X1517Y4625D01*
X1518Y4625D01*
X1519Y4625D01*
X1520Y4625D01*
X1521Y4625D01*
X1522Y4625D01*
X1523Y4625D01*
X1524Y4625D01*
X1525Y4625D01*
X1526Y4625D01*
X1527Y4625D01*
X1528Y4625D01*
X1529Y4625D01*
X1530Y4625D01*
X1531Y4625D01*
X1532Y4625D01*
X1533Y4625D01*
X1534Y4625D01*
X1535Y4625D01*
X1536Y4625D01*
X1537Y4625D01*
X1538Y4625D01*
X1539Y4625D01*
X1540Y4625D01*
X1541Y4625D01*
X1542Y4625D01*
X1543Y4625D01*
X1544Y4625D01*
X1545Y4625D01*
X1546Y4625D01*
X1547Y4625D01*
X1548Y4625D01*
X1549Y4625D01*
X1550Y4625D01*
X1551Y4625D01*
X1552Y4625D01*
X1553Y4625D01*
X1554Y4625D01*
X1555Y4625D01*
X1556Y4625D01*
X1557Y4625D01*
X1558Y4625D01*
X1559Y4624D01*
X1560Y4624D01*
X1561Y4624D01*
X1562Y4624D01*
X1563Y4624D01*
X1564Y4624D01*
X1565Y4624D01*
X1566Y4624D01*
X1567Y4624D01*
X1568Y4624D01*
X1569Y4623D01*
X1570Y4623D01*
X1571Y4623D01*
X1572Y4623D01*
X1573Y4623D01*
X1574Y4623D01*
X1575Y4623D01*
X1576Y4623D01*
X1577Y4622D01*
X1578Y4622D01*
X1579Y4622D01*
X1580Y4622D01*
X1581Y4622D01*
X1582Y4622D01*
X1583Y4621D01*
X1584Y4621D01*
X1585Y4621D01*
X1586Y4621D01*
X1587Y4621D01*
X1588Y4621D01*
X1589Y4620D01*
X1590Y4620D01*
X1591Y4620D01*
X1592Y4620D01*
X1593Y4620D01*
X1594Y4619D01*
X1595Y4619D01*
X1596Y4619D01*
X1597Y4619D01*
X1598Y4618D01*
X1599Y4618D01*
X1600Y4618D01*
X1601Y4618D01*
X1602Y4618D01*
X1603Y4617D01*
X1604Y4617D01*
X1605Y4617D01*
X1606Y4617D01*
X1607Y4616D01*
X1608Y4616D01*
X1609Y4616D01*
X1610Y4615D01*
X1611Y4615D01*
X1612Y4615D01*
X1613Y4614D01*
X1614Y4614D01*
X1615Y4614D01*
X1616Y4613D01*
X1617Y4613D01*
X1618Y4613D01*
X1619Y4612D01*
X1620Y4612D01*
X1621Y4612D01*
X1622Y4611D01*
X1623Y4611D01*
X1624Y4610D01*
X1625Y4610D01*
X1626Y4609D01*
X1627Y4609D01*
X1628Y4609D01*
X1629Y4608D01*
X1630Y4608D01*
X1631Y4607D01*
X1632Y4607D01*
X1633Y4606D01*
X1634Y4606D01*
X1635Y4605D01*
X1636Y4605D01*
X1637Y4604D01*
X1638Y4604D01*
X1639Y4603D01*
X1640Y4603D01*
X1641Y4602D01*
X1642Y4601D01*
X1643Y4601D01*
X1644Y4600D01*
X1645Y4600D01*
X1646Y4599D01*
X1647Y4599D01*
X1648Y4598D01*
X1649Y4598D01*
X1650Y4597D01*
X1651Y4597D01*
X1652Y4596D01*
X1653Y4595D01*
X1654Y4595D01*
X1655Y4594D01*
X1656Y4594D01*
X1657Y4593D01*
X1658Y4592D01*
X1659Y4592D01*
X1660Y4591D01*
X1661Y4591D01*
X1662Y4590D01*
X1663Y4589D01*
X1664Y4589D01*
X1665Y4588D01*
X1666Y4587D01*
X1667Y4587D01*
X1668Y4586D01*
X1669Y4586D01*
X1670Y4585D01*
X1671Y4584D01*
X1672Y4584D01*
X1673Y4583D01*
X1674Y4582D01*
X1675Y4581D01*
X1676Y4581D01*
X1677Y4580D01*
X1678Y4579D01*
X1679Y4579D01*
X1680Y4578D01*
X1681Y4577D01*
X1682Y4576D01*
X1683Y4575D01*
X1684Y4575D01*
X1685Y4574D01*
X1686Y4573D01*
X1687Y4572D01*
X1688Y4571D01*
X1689Y4571D01*
X1690Y4570D01*
X1691Y4569D01*
X1692Y4568D01*
X1693Y4567D01*
X1694Y4566D01*
X1695Y4565D01*
X1696Y4564D01*
X1697Y4563D01*
X1698Y4563D01*
X1699Y4562D01*
X1700Y4561D01*
X1701Y4560D01*
X1702Y4559D01*
X1703Y4558D01*
X1704Y4557D01*
X1704Y4556D01*
X1705Y4555D01*
X1706Y4554D01*
X1707Y4553D01*
X1708Y4552D01*
X1709Y4551D01*
X1710Y4550D01*
X1711Y4549D01*
X1712Y4548D01*
X1713Y4547D01*
X1713Y4546D01*
X1714Y4545D01*
X1715Y4544D01*
X1716Y4543D01*
X1717Y4542D01*
X1718Y4541D01*
X1718Y4540D01*
X1719Y4539D01*
X1720Y4538D01*
X1721Y4537D01*
X1721Y4536D01*
X1722Y4535D01*
X1723Y4534D01*
X1724Y4533D01*
X1724Y4532D01*
X1725Y4531D01*
X1726Y4530D01*
X1727Y4529D01*
X1727Y4528D01*
X1728Y4527D01*
X1729Y4526D01*
X1729Y4525D01*
X1730Y4524D01*
X1731Y4523D01*
X1731Y4522D01*
X1732Y4521D01*
X1733Y4520D01*
X1733Y4519D01*
X1734Y4518D01*
X1735Y4517D01*
X1735Y4516D01*
X1736Y4515D01*
X1736Y4514D01*
X1737Y4513D01*
X1738Y4512D01*
X1738Y4511D01*
X1739Y4510D01*
X1740Y4509D01*
X1740Y4508D01*
X1741Y4507D01*
X1741Y4506D01*
X1742Y4505D01*
X1742Y4504D01*
X1743Y4503D01*
X1744Y4502D01*
X1744Y4501D01*
X1745Y4500D01*
X1745Y4499D01*
X1746Y4498D01*
X1746Y4497D01*
X1747Y4496D01*
X1748Y4495D01*
X1748Y4494D01*
X1749Y4493D01*
X1749Y4492D01*
X1750Y4491D01*
X1750Y4490D01*
X1751Y4489D01*
X1751Y4488D01*
X1752Y4487D01*
X1752Y4486D01*
X1753Y4485D01*
X1753Y4484D01*
X1754Y4483D01*
X1754Y4482D01*
X1755Y4481D01*
X1756Y4480D01*
X1756Y4479D01*
X1757Y4478D01*
X1757Y4477D01*
X1758Y4476D01*
X1758Y4475D01*
X1759Y4474D01*
X1759Y4472D01*
X1760Y4471D01*
X1760Y4470D01*
X1761Y4469D01*
X1761Y4468D01*
X1762Y4467D01*
X1762Y4466D01*
X1763Y4465D01*
X1763Y4464D01*
X1764Y4463D01*
X1764Y4462D01*
X1765Y4461D01*
X1765Y4460D01*
X1766Y4459D01*
X1766Y4458D01*
X1767Y4457D01*
X1767Y4456D01*
X1768Y4455D01*
X1768Y4453D01*
X1769Y4452D01*
X1769Y4451D01*
X1770Y4450D01*
X1770Y4449D01*
X1771Y4448D01*
X1771Y4447D01*
X1772Y4446D01*
X1772Y4445D01*
X1773Y4444D01*
X1773Y4442D01*
X1774Y4441D01*
X1774Y4437D01*
X1775Y4436D01*
X1775Y4431D01*
X1776Y4430D01*
X1776Y4426D01*
X1777Y4425D01*
X1777Y4421D01*
X1778Y4420D01*
X1778Y4415D01*
X1779Y4414D01*
X1779Y4410D01*
X1780Y4409D01*
X1780Y4404D01*
X1781Y4403D01*
X1781Y4397D01*
X1782Y4396D01*
X1782Y4391D01*
X1783Y4390D01*
X1783Y4385D01*
X1784Y4384D01*
X1784Y4378D01*
X1785Y4377D01*
X1785Y4371D01*
X1786Y4370D01*
X1786Y4364D01*
X1787Y4363D01*
X1787Y4355D01*
X1788Y4354D01*
X1788Y4347D01*
X1789Y4346D01*
X1789Y4337D01*
X1790Y4336D01*
X1790Y4326D01*
X1791Y4325D01*
X1791Y4313D01*
X1792Y4312D01*
X1792Y4298D01*
X1793Y4297D01*
X1793Y4270D01*
X1794Y4269D01*
X1794Y4218D01*
X1793Y4217D01*
X1793Y4178D01*
X1792Y4177D01*
X1792Y4142D01*
X1791Y4141D01*
X1791Y4101D01*
X1790Y4100D01*
X1790Y3995D01*
X1791Y3994D01*
X1791Y3956D01*
X1792Y3955D01*
X1792Y3932D01*
X1793Y3931D01*
X1793Y3915D01*
X1794Y3914D01*
X1794Y3902D01*
X1795Y3901D01*
X1795Y3891D01*
X1796Y3890D01*
X1796Y3881D01*
X1797Y3880D01*
X1797Y3873D01*
X1798Y3872D01*
X1798Y3865D01*
X1799Y3864D01*
X1799Y3857D01*
X1800Y3856D01*
X1800Y3850D01*
X1801Y3849D01*
X1801Y3842D01*
X1802Y3841D01*
X1802Y3837D01*
X1803Y3836D01*
X1803Y3833D01*
X1804Y3832D01*
X1804Y3830D01*
X1805Y3829D01*
X1805Y3827D01*
X1806Y3826D01*
X1806Y3823D01*
X1807Y3822D01*
X1807Y3820D01*
X1808Y3819D01*
X1808Y3817D01*
X1809Y3816D01*
X1809Y3814D01*
X1810Y3813D01*
X1810Y3811D01*
X1811Y3810D01*
X1811Y3808D01*
X1812Y3807D01*
X1812Y3805D01*
X1813Y3804D01*
X1813Y3802D01*
X1814Y3801D01*
X1814Y3798D01*
X1815Y3797D01*
X1815Y3795D01*
X1816Y3794D01*
X1816Y3792D01*
X1817Y3791D01*
X1817Y3789D01*
X1818Y3788D01*
X1818Y3785D01*
X1819Y3784D01*
X1819Y3782D01*
X1820Y3781D01*
X1820Y3779D01*
X1821Y3778D01*
X1821Y3776D01*
X1822Y3775D01*
X1822Y3772D01*
X1823Y3771D01*
X1823Y3769D01*
X1824Y3768D01*
X1824Y3765D01*
X1825Y3764D01*
X1825Y3762D01*
X1826Y3761D01*
X1826Y3758D01*
X1827Y3757D01*
X1827Y3754D01*
X1828Y3753D01*
X1828Y3751D01*
X1829Y3750D01*
X1829Y3747D01*
X1830Y3746D01*
X1830Y3743D01*
X1831Y3742D01*
X1831Y3740D01*
X1832Y3739D01*
X1832Y3736D01*
X1833Y3735D01*
X1833Y3732D01*
X1834Y3731D01*
X1834Y3728D01*
X1835Y3727D01*
X1835Y3724D01*
X1836Y3723D01*
X1836Y3720D01*
X1837Y3719D01*
X1837Y3716D01*
X1838Y3715D01*
X1838Y3711D01*
X1839Y3710D01*
X1839Y3707D01*
X1840Y3706D01*
X1840Y3703D01*
X1841Y3702D01*
X1841Y3698D01*
X1842Y3697D01*
X1842Y3694D01*
X1843Y3693D01*
X1843Y3689D01*
X1844Y3688D01*
X1844Y3684D01*
X1845Y3683D01*
X1845Y3679D01*
X1846Y3678D01*
X1846Y3674D01*
X1847Y3673D01*
X1847Y3669D01*
X1848Y3668D01*
X1848Y3664D01*
X1849Y3663D01*
X1849Y3658D01*
X1850Y3657D01*
X1850Y3653D01*
X1851Y3652D01*
X1851Y3647D01*
X1852Y3646D01*
X1852Y3640D01*
X1853Y3639D01*
X1853Y3634D01*
X1854Y3633D01*
X1854Y3628D01*
X1855Y3627D01*
X1855Y3621D01*
X1856Y3620D01*
X1856Y3613D01*
X1857Y3612D01*
X1857Y3605D01*
X1858Y3604D01*
X1858Y3598D01*
X1859Y3597D01*
X1859Y3589D01*
X1860Y3588D01*
X1860Y3578D01*
X1861Y3577D01*
X1861Y3567D01*
X1862Y3566D01*
X1862Y3553D01*
X1863Y3552D01*
X1863Y3535D01*
X1864Y3534D01*
X1864Y3464D01*
X1863Y3463D01*
X1863Y3449D01*
X1862Y3448D01*
X1862Y3437D01*
X1861Y3436D01*
X1861Y3428D01*
X1860Y3427D01*
X1860Y3419D01*
X1859Y3418D01*
X1859Y3411D01*
X1858Y3410D01*
X1858Y3404D01*
X1857Y3403D01*
X1857Y3397D01*
X1856Y3396D01*
X1856Y3391D01*
X1855Y3390D01*
X1855Y3384D01*
X1854Y3383D01*
X1854Y3378D01*
X1853Y3377D01*
X1853Y3373D01*
X1852Y3372D01*
X1852Y3367D01*
X1851Y3366D01*
X1851Y3361D01*
X1850Y3360D01*
X1850Y3356D01*
X1849Y3355D01*
X1849Y3351D01*
X1848Y3350D01*
X1848Y3346D01*
X1847Y3345D01*
X1847Y3341D01*
X1846Y3340D01*
X1846Y3336D01*
X1845Y3335D01*
X1845Y3331D01*
X1844Y3330D01*
X1844Y3326D01*
X1843Y3325D01*
X1843Y3321D01*
X1842Y3320D01*
X1842Y3316D01*
X1841Y3315D01*
X1841Y3311D01*
X1840Y3310D01*
X1840Y3306D01*
X1839Y3305D01*
X1839Y3301D01*
X1838Y3300D01*
X1838Y3297D01*
X1837Y3296D01*
X1837Y3292D01*
X1836Y3291D01*
X1836Y3287D01*
X1835Y3286D01*
X1835Y3283D01*
X1834Y3282D01*
X1834Y3278D01*
X1833Y3277D01*
X1833Y3274D01*
X1832Y3273D01*
X1832Y3269D01*
X1831Y3268D01*
X1831Y3264D01*
X1830Y3263D01*
X1830Y3260D01*
X1829Y3259D01*
X1829Y3256D01*
X1828Y3255D01*
X1828Y3253D01*
X1827Y3252D01*
X1827Y3249D01*
X1826Y3248D01*
X1826Y3246D01*
X1825Y3245D01*
X1825Y3243D01*
X1824Y3242D01*
X1824Y3240D01*
X1823Y3239D01*
X1823Y3237D01*
X1822Y3236D01*
X1822Y3234D01*
X1821Y3233D01*
X1821Y3232D01*
X1820Y3231D01*
X1820Y3229D01*
X1819Y3228D01*
X1819Y3226D01*
X1818Y3225D01*
X1818Y3224D01*
X1817Y3223D01*
X1817Y3221D01*
X1816Y3220D01*
X1816Y3219D01*
X1815Y3218D01*
X1815Y3216D01*
X1814Y3215D01*
X1814Y3214D01*
X1813Y3213D01*
X1813Y3211D01*
X1812Y3210D01*
X1812Y3209D01*
X1811Y3208D01*
X1811Y3207D01*
X1810Y3206D01*
X1810Y3204D01*
X1809Y3203D01*
X1809Y3202D01*
X1808Y3201D01*
X1808Y3200D01*
X1807Y3199D01*
X1807Y3198D01*
X1806Y3197D01*
X1806Y3195D01*
X1805Y3194D01*
X1805Y3193D01*
X1804Y3192D01*
X1804Y3191D01*
X1803Y3190D01*
X1803Y3189D01*
X1802Y3188D01*
X1802Y3187D01*
X1801Y3186D01*
X1801Y3184D01*
X1800Y3183D01*
X1800Y3182D01*
X1799Y3181D01*
X1799Y3180D01*
X1798Y3179D01*
X1798Y3178D01*
X1797Y3177D01*
X1797Y3176D01*
X1796Y3175D01*
X1796Y3174D01*
X1795Y3173D01*
X1795Y3172D01*
X1794Y3171D01*
X1794Y3170D01*
X1793Y3169D01*
X1793Y3168D01*
X1792Y3167D01*
X1792Y3166D01*
X1791Y3165D01*
X1791Y3164D01*
X1790Y3163D01*
X1790Y3162D01*
X1789Y3161D01*
X1789Y3160D01*
X1788Y3159D01*
X1788Y3158D01*
X1787Y3157D01*
X1787Y3156D01*
X1786Y3155D01*
X1786Y3154D01*
X1785Y3153D01*
X1785Y3152D01*
X1784Y3151D01*
X1783Y3150D01*
X1783Y3149D01*
X1782Y3148D01*
X1782Y3147D01*
X1781Y3146D01*
X1781Y3145D01*
X1780Y3144D01*
X1780Y3143D01*
X1779Y3142D01*
X1779Y3141D01*
X1778Y3140D01*
X1778Y3139D01*
X1777Y3138D01*
X1777Y3137D01*
X1776Y3136D01*
X1775Y3135D01*
X1775Y3134D01*
X1774Y3133D01*
X1774Y3132D01*
X1773Y3131D01*
X1773Y3130D01*
X1772Y3129D01*
X1771Y3128D01*
X1771Y3127D01*
X1770Y3126D01*
X1770Y3125D01*
X1769Y3124D01*
X1769Y3123D01*
X1768Y3122D01*
X1767Y3121D01*
X1767Y3120D01*
X1766Y3119D01*
X1766Y3118D01*
X1765Y3117D01*
X1765Y3116D01*
X1764Y3115D01*
X1763Y3114D01*
X1763Y3113D01*
X1762Y3112D01*
X1762Y3111D01*
X1761Y3110D01*
X1760Y3109D01*
X1760Y3108D01*
X1759Y3107D01*
X1758Y3106D01*
X1758Y3105D01*
X1757Y3104D01*
X1757Y3103D01*
X1756Y3102D01*
X1755Y3101D01*
X1755Y3100D01*
X1754Y3099D01*
X1754Y3098D01*
X1753Y3097D01*
X1752Y3096D01*
X1752Y3095D01*
X1751Y3094D01*
X1751Y3093D01*
X1750Y3092D01*
X1749Y3091D01*
X1749Y3090D01*
X1748Y3089D01*
X1747Y3088D01*
X1747Y3087D01*
X1746Y3086D01*
X1746Y3085D01*
X1745Y3084D01*
X1744Y3083D01*
X1744Y3082D01*
X1743Y3081D01*
X1743Y3080D01*
X1742Y3079D01*
X1741Y3078D01*
X1741Y3077D01*
X1740Y3076D01*
X1739Y3075D01*
X1739Y3074D01*
X1738Y3073D01*
X1738Y3072D01*
X1737Y3071D01*
X1736Y3070D01*
X1736Y3069D01*
X1735Y3068D01*
X1735Y3067D01*
X1734Y3066D01*
X1733Y3065D01*
X1733Y3064D01*
X1732Y3063D01*
X1731Y3062D01*
X1731Y3061D01*
X1730Y3060D01*
X1730Y3059D01*
X1729Y3058D01*
X1729Y3057D01*
X1728Y3056D01*
X1727Y3055D01*
X1727Y3054D01*
X1726Y3053D01*
X1726Y3052D01*
X1725Y3051D01*
X1724Y3050D01*
X1724Y3049D01*
X1723Y3048D01*
X1723Y3047D01*
X1722Y3046D01*
X1722Y3045D01*
X1721Y3044D01*
X1721Y3043D01*
X1720Y3042D01*
X1720Y3041D01*
X1719Y3040D01*
X1718Y3039D01*
X1718Y3038D01*
X1717Y3037D01*
X1717Y3036D01*
X1716Y3035D01*
X1716Y3033D01*
X1715Y3032D01*
X1715Y3031D01*
X1714Y3030D01*
X1714Y3029D01*
X1713Y3028D01*
X1713Y3026D01*
X1712Y3025D01*
X1712Y3023D01*
X1711Y3022D01*
X1711Y3020D01*
X1710Y3019D01*
X1710Y2999D01*
X1711Y2998D01*
X1711Y2995D01*
X1712Y2994D01*
X1712Y2993D01*
X1713Y2992D01*
X1713Y2991D01*
X1714Y2990D01*
X1714Y2989D01*
X1715Y2988D01*
X1716Y2987D01*
X1716Y2986D01*
X1717Y2985D01*
X1718Y2984D01*
X1718Y2983D01*
X1719Y2982D01*
X1720Y2981D01*
X1721Y2980D01*
X1722Y2979D01*
X1723Y2978D01*
X1724Y2977D01*
X1725Y2977D01*
X1726Y2976D01*
X1727Y2975D01*
X1728Y2974D01*
X1729Y2974D01*
X1730Y2973D01*
X1731Y2973D01*
X1732Y2972D01*
X1733Y2972D01*
X1734Y2971D01*
X1735Y2971D01*
X1736Y2970D01*
X1737Y2970D01*
X1738Y2969D01*
X1739Y2969D01*
X1740Y2969D01*
X1741Y2968D01*
X1742Y2968D01*
X1743Y2968D01*
X1744Y2967D01*
X1745Y2967D01*
X1746Y2967D01*
X1747Y2967D01*
X1748Y2967D01*
X1749Y2966D01*
X1750Y2966D01*
X1751Y2966D01*
X1752Y2966D01*
X1753Y2966D01*
X1754Y2966D01*
X1755Y2966D01*
X1756Y2966D01*
X1757Y2966D01*
X1758Y2966D01*
X1759Y2966D01*
X1760Y2966D01*
X1761Y2966D01*
X1762Y2966D01*
X1763Y2966D01*
X1764Y2966D01*
X1765Y2966D01*
X1766Y2967D01*
X1767Y2967D01*
X1768Y2967D01*
X1769Y2967D01*
X1770Y2967D01*
X1771Y2967D01*
X1772Y2968D01*
X1773Y2968D01*
X1774Y2968D01*
X1775Y2969D01*
X1776Y2969D01*
X1777Y2969D01*
X1778Y2969D01*
X1779Y2970D01*
X1780Y2970D01*
X1781Y2970D01*
X1782Y2971D01*
X1783Y2971D01*
X1784Y2971D01*
X1785Y2972D01*
X1786Y2972D01*
X1787Y2973D01*
X1788Y2973D01*
X1789Y2974D01*
X1790Y2974D01*
X1791Y2974D01*
X1792Y2975D01*
X1793Y2975D01*
X1794Y2976D01*
X1795Y2976D01*
X1796Y2977D01*
X1797Y2977D01*
X1798Y2978D01*
X1799Y2979D01*
X1800Y2979D01*
X1801Y2980D01*
X1802Y2980D01*
X1803Y2981D01*
X1804Y2981D01*
X1805Y2982D01*
X1806Y2983D01*
X1807Y2983D01*
X1808Y2984D01*
X1809Y2985D01*
X1810Y2985D01*
X1811Y2986D01*
X1812Y2987D01*
X1813Y2987D01*
X1814Y2988D01*
X1815Y2989D01*
X1816Y2989D01*
X1817Y2990D01*
X1818Y2991D01*
X1819Y2991D01*
X1820Y2992D01*
X1821Y2993D01*
X1822Y2994D01*
X1823Y2994D01*
X1824Y2995D01*
X1825Y2996D01*
X1826Y2997D01*
X1827Y2998D01*
X1828Y2998D01*
X1829Y2999D01*
X1830Y3000D01*
X1831Y3001D01*
X1832Y3002D01*
X1833Y3003D01*
X1834Y3003D01*
X1835Y3004D01*
X1836Y3005D01*
X1837Y3006D01*
X1838Y3007D01*
X1839Y3008D01*
X1840Y3009D01*
X1841Y3010D01*
X1842Y3011D01*
X1843Y3011D01*
X1844Y3012D01*
X1845Y3013D01*
X1846Y3014D01*
X1847Y3015D01*
X1848Y3016D01*
X1849Y3017D01*
X1850Y3018D01*
X1851Y3019D01*
X1852Y3020D01*
X1853Y3021D01*
X1854Y3022D01*
X1855Y3023D01*
X1856Y3024D01*
X1857Y3025D01*
X1858Y3026D01*
X1859Y3027D01*
X1860Y3028D01*
X1861Y3029D01*
X1862Y3030D01*
X1863Y3031D01*
X1864Y3032D01*
X1865Y3033D01*
X1866Y3034D01*
X1866Y3035D01*
X1867Y3036D01*
X1868Y3037D01*
X1869Y3038D01*
X1870Y3039D01*
X1871Y3040D01*
X1872Y3041D01*
X1873Y3042D01*
X1874Y3043D01*
X1875Y3044D01*
X1876Y3045D01*
X1876Y3046D01*
X1877Y3047D01*
X1878Y3048D01*
X1879Y3049D01*
X1880Y3050D01*
X1881Y3051D01*
X1882Y3052D01*
X1882Y3053D01*
X1883Y3054D01*
X1884Y3055D01*
X1885Y3056D01*
X1886Y3057D01*
X1887Y3058D01*
X1888Y3059D01*
X1888Y3060D01*
X1889Y3061D01*
X1890Y3062D01*
X1891Y3063D01*
X1892Y3064D01*
X1892Y3065D01*
X1893Y3066D01*
X1894Y3067D01*
X1895Y3068D01*
X1896Y3069D01*
X1896Y3070D01*
X1897Y3071D01*
X1898Y3072D01*
X1899Y3073D01*
X1900Y3074D01*
X1900Y3075D01*
X1901Y3076D01*
X1902Y3077D01*
X1903Y3078D01*
X1904Y3079D01*
X1904Y3080D01*
X1905Y3081D01*
X1906Y3082D01*
X1907Y3083D01*
X1907Y3084D01*
X1908Y3085D01*
X1909Y3086D01*
X1910Y3087D01*
X1910Y3088D01*
X1911Y3089D01*
X1912Y3090D01*
X1913Y3091D01*
X1913Y3092D01*
X1914Y3093D01*
X1915Y3094D01*
X1916Y3095D01*
X1916Y3096D01*
X1917Y3097D01*
X1918Y3098D01*
X1918Y3099D01*
X1919Y3100D01*
X1920Y3101D01*
X1921Y3102D01*
X1921Y3103D01*
X1922Y3104D01*
X1923Y3105D01*
X1923Y3106D01*
X1924Y3107D01*
X1925Y3108D01*
X1925Y3109D01*
X1926Y3110D01*
X1927Y3111D01*
X1928Y3112D01*
X1928Y3113D01*
X1929Y3114D01*
X1930Y3115D01*
X1930Y3116D01*
X1931Y3117D01*
X1932Y3118D01*
X1932Y3119D01*
X1933Y3120D01*
X1934Y3121D01*
X1934Y3122D01*
X1935Y3123D01*
X1936Y3124D01*
X1936Y3125D01*
X1937Y3126D01*
X1938Y3127D01*
X1938Y3128D01*
X1939Y3129D01*
X1940Y3130D01*
X1940Y3131D01*
X1941Y3132D01*
X1942Y3133D01*
X1942Y3134D01*
X1943Y3135D01*
X1944Y3136D01*
X1944Y3137D01*
X1945Y3138D01*
X1946Y3139D01*
X1946Y3140D01*
X1947Y3141D01*
X1948Y3142D01*
X1948Y3143D01*
X1949Y3144D01*
X1950Y3145D01*
X1950Y3146D01*
X1951Y3147D01*
X1951Y3148D01*
X1952Y3149D01*
X1953Y3150D01*
X1953Y3151D01*
X1954Y3152D01*
X1955Y3153D01*
X1955Y3154D01*
X1956Y3155D01*
X1957Y3156D01*
X1957Y3157D01*
X1958Y3158D01*
X1958Y3159D01*
X1959Y3160D01*
X1960Y3161D01*
X1960Y3162D01*
X1961Y3163D01*
X1961Y3164D01*
X1962Y3165D01*
X1963Y3166D01*
X1963Y3167D01*
X1964Y3168D01*
X1964Y3169D01*
X1965Y3170D01*
X1966Y3171D01*
X1966Y3172D01*
X1967Y3173D01*
X1967Y3174D01*
X1968Y3175D01*
X1969Y3176D01*
X1969Y3177D01*
X1970Y3178D01*
X1970Y3179D01*
X1971Y3180D01*
X1972Y3181D01*
X1972Y3182D01*
X1973Y3183D01*
X1973Y3184D01*
X1974Y3185D01*
X1974Y3186D01*
X1975Y3187D01*
X1976Y3188D01*
X1976Y3189D01*
X1977Y3190D01*
X1977Y3191D01*
X1978Y3192D01*
X1979Y3193D01*
X1979Y3194D01*
X1980Y3195D01*
X1980Y3196D01*
X1981Y3197D01*
X1981Y3198D01*
X1982Y3199D01*
X1983Y3200D01*
X1983Y3201D01*
X1984Y3202D01*
X1984Y3203D01*
X1985Y3204D01*
X1985Y3205D01*
X1986Y3206D01*
X1986Y3207D01*
X1987Y3208D01*
X1987Y3209D01*
X1988Y3210D01*
X1989Y3211D01*
X1989Y3212D01*
X1990Y3213D01*
X1990Y3214D01*
X1991Y3215D01*
X1991Y3216D01*
X1992Y3217D01*
X1992Y3218D01*
X1993Y3219D01*
X1993Y3220D01*
X1994Y3221D01*
X1995Y3222D01*
X1995Y3223D01*
X1996Y3224D01*
X1996Y3225D01*
X1997Y3226D01*
X1997Y3227D01*
X1998Y3228D01*
X1998Y3229D01*
X1999Y3230D01*
X1999Y3231D01*
X2000Y3232D01*
X2000Y3233D01*
X2001Y3234D01*
X2001Y3235D01*
X2002Y3236D01*
X2002Y3237D01*
X2003Y3238D01*
X2003Y3239D01*
X2004Y3240D01*
X2004Y3241D01*
X2005Y3242D01*
X2005Y3243D01*
X2006Y3244D01*
X2007Y3245D01*
X2007Y3246D01*
X2008Y3247D01*
X2008Y3248D01*
X2009Y3249D01*
X2009Y3251D01*
X2010Y3252D01*
X2010Y3253D01*
X2011Y3254D01*
X2011Y3255D01*
X2012Y3256D01*
X2012Y3257D01*
X2013Y3258D01*
X2013Y3259D01*
X2014Y3260D01*
X2014Y3261D01*
X2015Y3262D01*
X2015Y3263D01*
X2016Y3264D01*
X2016Y3265D01*
X2017Y3266D01*
X2017Y3267D01*
X2018Y3268D01*
X2018Y3269D01*
X2019Y3270D01*
X2019Y3271D01*
X2020Y3272D01*
X2020Y3273D01*
X2021Y3274D01*
X2021Y3275D01*
X2022Y3276D01*
X2022Y3278D01*
X2023Y3279D01*
X2023Y3280D01*
X2024Y3281D01*
X2024Y3282D01*
X2025Y3283D01*
X2025Y3284D01*
X2026Y3285D01*
X2026Y3286D01*
X2027Y3287D01*
X2027Y3288D01*
X2028Y3289D01*
X2028Y3291D01*
X2029Y3292D01*
X2029Y3293D01*
X2030Y3294D01*
X2030Y3295D01*
X2031Y3296D01*
X2031Y3297D01*
X2032Y3298D01*
X2032Y3300D01*
X2033Y3301D01*
X2033Y3302D01*
X2034Y3303D01*
X2034Y3304D01*
X2035Y3305D01*
X2035Y3307D01*
X2036Y3308D01*
X2036Y3309D01*
X2037Y3310D01*
X2037Y3311D01*
X2038Y3312D01*
X2038Y3314D01*
X2039Y3315D01*
X2039Y3316D01*
X2040Y3317D01*
X2040Y3319D01*
X2041Y3320D01*
X2041Y3321D01*
X2042Y3322D01*
X2042Y3324D01*
X2043Y3325D01*
X2043Y3326D01*
X2044Y3327D01*
X2044Y3329D01*
X2045Y3330D01*
X2045Y3331D01*
X2046Y3332D01*
X2046Y3334D01*
X2047Y3335D01*
X2047Y3336D01*
X2048Y3337D01*
X2048Y3339D01*
X2049Y3340D01*
X2049Y3342D01*
X2050Y3343D01*
X2050Y3344D01*
X2051Y3345D01*
X2051Y3347D01*
X2052Y3348D01*
X2052Y3350D01*
X2053Y3351D01*
X2053Y3352D01*
X2054Y3353D01*
X2054Y3355D01*
X2055Y3356D01*
X2055Y3358D01*
X2056Y3359D01*
X2056Y3361D01*
X2057Y3362D01*
X2057Y3364D01*
X2058Y3365D01*
X2058Y3367D01*
X2059Y3368D01*
X2059Y3370D01*
X2060Y3371D01*
X2060Y3373D01*
X2061Y3374D01*
X2061Y3377D01*
X2062Y3378D01*
X2062Y3380D01*
X2063Y3381D01*
X2063Y3383D01*
X2064Y3384D01*
X2064Y3386D01*
X2065Y3387D01*
X2065Y3390D01*
X2066Y3391D01*
X2066Y3394D01*
X2067Y3395D01*
X2067Y3398D01*
X2068Y3399D01*
X2068Y3402D01*
X2069Y3403D01*
X2069Y3405D01*
X2070Y3406D01*
X2070Y3410D01*
X2071Y3411D01*
X2071Y3414D01*
X2072Y3415D01*
X2072Y3419D01*
X2073Y3420D01*
X2073Y3425D01*
X2074Y3426D01*
X2074Y3432D01*
X2075Y3433D01*
X2075Y3441D01*
X2076Y3442D01*
X2076Y3456D01*
X2077Y3457D01*
X2077Y3470D01*
X2078Y3471D01*
X2078Y3483D01*
X2079Y3484D01*
X2079Y3496D01*
X2080Y3497D01*
X2080Y3508D01*
X2081Y3509D01*
X2081Y3519D01*
X2082Y3520D01*
X2082Y3529D01*
X2083Y3530D01*
X2083Y3540D01*
X2084Y3541D01*
X2084Y3549D01*
X2085Y3550D01*
X2085Y3558D01*
X2086Y3559D01*
X2086Y3568D01*
X2087Y3569D01*
X2087Y3576D01*
X2088Y3577D01*
X2088Y3584D01*
X2089Y3585D01*
X2089Y3592D01*
X2090Y3593D01*
X2090Y3600D01*
X2091Y3601D01*
X2091Y3607D01*
X2092Y3608D01*
X2092Y3614D01*
X2093Y3615D01*
X2093Y3622D01*
X2094Y3623D01*
X2094Y3628D01*
X2095Y3629D01*
X2095Y3635D01*
X2096Y3636D01*
X2096Y3641D01*
X2097Y3642D01*
X2097Y3647D01*
X2098Y3648D01*
X2098Y3653D01*
X2099Y3654D01*
X2099Y3659D01*
X2100Y3660D01*
X2100Y3665D01*
X2101Y3666D01*
X2101Y3670D01*
X2102Y3671D01*
X2102Y3676D01*
X2103Y3677D01*
X2103Y3681D01*
X2104Y3682D01*
X2104Y3686D01*
X2105Y3687D01*
X2105Y3692D01*
X2106Y3693D01*
X2106Y3697D01*
X2107Y3698D01*
X2107Y3702D01*
X2108Y3703D01*
X2108Y3706D01*
X2109Y3707D01*
X2109Y3711D01*
X2110Y3712D01*
X2110Y3716D01*
X2111Y3717D01*
X2111Y3721D01*
X2112Y3722D01*
X2112Y3725D01*
X2113Y3726D01*
X2113Y3730D01*
X2114Y3731D01*
X2114Y3734D01*
X2115Y3735D01*
X2115Y3738D01*
X2116Y3739D01*
X2116Y3743D01*
X2117Y3744D01*
X2117Y3747D01*
X2118Y3748D01*
X2118Y3752D01*
X2119Y3753D01*
X2119Y3756D01*
X2120Y3757D01*
X2120Y3761D01*
X2121Y3762D01*
X2121Y3765D01*
X2122Y3766D01*
X2122Y3769D01*
X2123Y3770D01*
X2123Y3773D01*
X2124Y3774D01*
X2124Y3777D01*
X2125Y3778D01*
X2125Y3781D01*
X2126Y3782D01*
X2126Y3786D01*
X2127Y3787D01*
X2127Y3790D01*
X2128Y3791D01*
X2128Y3794D01*
X2129Y3795D01*
X2129Y3798D01*
X2130Y3799D01*
X2130Y3802D01*
X2131Y3803D01*
X2131Y3806D01*
X2132Y3807D01*
X2132Y3811D01*
X2133Y3812D01*
X2133Y3815D01*
X2134Y3816D01*
X2134Y3819D01*
X2135Y3820D01*
X2135Y3823D01*
X2136Y3824D01*
X2136Y3827D01*
X2137Y3828D01*
X2137Y3831D01*
X2138Y3832D01*
X2138Y3835D01*
X2139Y3836D01*
X2139Y3840D01*
X2140Y3841D01*
X2140Y3844D01*
X2141Y3845D01*
X2141Y3848D01*
X2142Y3849D01*
X2142Y3851D01*
X2143Y3852D01*
X2143Y3854D01*
X2144Y3855D01*
X2144Y3856D01*
X2145Y3857D01*
X2145Y3859D01*
X2146Y3860D01*
X2146Y3861D01*
X2147Y3862D01*
X2147Y3864D01*
X2148Y3865D01*
X2148Y3866D01*
X2149Y3867D01*
X2149Y3869D01*
X2150Y3870D01*
X2150Y3871D01*
X2151Y3872D01*
X2151Y3873D01*
X2152Y3874D01*
X2152Y3876D01*
X2153Y3877D01*
X2153Y3879D01*
X2154Y3880D01*
X2154Y3881D01*
X2155Y3882D01*
X2155Y3884D01*
X2156Y3885D01*
X2156Y3887D01*
X2157Y3888D01*
X2157Y3890D01*
X2158Y3891D01*
X2158Y3893D01*
X2159Y3894D01*
X2159Y3895D01*
X2160Y3896D01*
X2160Y3899D01*
X2161Y3900D01*
X2161Y3902D01*
X2162Y3903D01*
X2162Y3905D01*
X2163Y3906D01*
X2163Y3908D01*
X2164Y3909D01*
X2164Y3912D01*
X2165Y3913D01*
X2165Y3915D01*
X2166Y3916D01*
X2166Y3919D01*
X2167Y3920D01*
X2167Y3923D01*
X2168Y3924D01*
X2168Y3928D01*
X2169Y3929D01*
X2169Y3934D01*
X2170Y3935D01*
X2170Y3941D01*
X2171Y3942D01*
X2171Y3965D01*
X2170Y3966D01*
X2170Y3971D01*
X2169Y3972D01*
X2169Y3975D01*
X2168Y3976D01*
X2168Y3978D01*
X2167Y3979D01*
X2167Y3980D01*
X2166Y3981D01*
X2166Y3983D01*
X2165Y3984D01*
X2165Y3985D01*
X2164Y3986D01*
X2164Y3987D01*
X2163Y3988D01*
X2163Y3989D01*
X2162Y3990D01*
X2162Y3991D01*
X2161Y3992D01*
X2160Y3993D01*
X2160Y3994D01*
X2159Y3995D01*
X2159Y3996D01*
X2158Y3997D01*
X2157Y3998D01*
X2157Y3999D01*
X2156Y4000D01*
X2155Y4001D01*
X2155Y4002D01*
X2154Y4003D01*
X2153Y4004D01*
X2153Y4005D01*
X2152Y4006D01*
X2151Y4007D01*
X2150Y4008D01*
X2150Y4009D01*
X2149Y4010D01*
X2148Y4011D01*
X2148Y4012D01*
X2147Y4013D01*
X2146Y4014D01*
X2146Y4015D01*
X2145Y4016D01*
X2144Y4017D01*
X2143Y4018D01*
X2143Y4019D01*
X2142Y4020D01*
X2141Y4021D01*
X2141Y4022D01*
X2140Y4023D01*
X2139Y4024D01*
X2139Y4025D01*
X2138Y4026D01*
X2137Y4027D01*
X2137Y4028D01*
X2136Y4029D01*
X2135Y4030D01*
X2135Y4031D01*
X2134Y4032D01*
X2134Y4033D01*
X2133Y4034D01*
X2132Y4035D01*
X2132Y4036D01*
X2131Y4037D01*
X2131Y4038D01*
X2130Y4039D01*
X2130Y4040D01*
X2129Y4041D01*
X2129Y4042D01*
X2128Y4043D01*
X2127Y4044D01*
X2127Y4045D01*
X2126Y4046D01*
X2125Y4047D01*
X2125Y4048D01*
X2124Y4049D01*
X2123Y4050D01*
X2123Y4051D01*
X2122Y4052D01*
X2122Y4053D01*
X2121Y4054D01*
X2120Y4055D01*
X2120Y4056D01*
X2119Y4057D01*
X2119Y4058D01*
X2118Y4059D01*
X2118Y4060D01*
X2117Y4061D01*
X2116Y4062D01*
X2116Y4063D01*
X2115Y4064D01*
X2115Y4065D01*
X2114Y4066D01*
X2114Y4067D01*
X2113Y4068D01*
X2113Y4069D01*
X2112Y4070D01*
X2112Y4071D01*
X2111Y4072D01*
X2111Y4073D01*
X2110Y4074D01*
X2110Y4075D01*
X2109Y4076D01*
X2109Y4077D01*
X2108Y4078D01*
X2108Y4080D01*
X2107Y4081D01*
X2107Y4082D01*
X2106Y4083D01*
X2106Y4084D01*
X2105Y4085D01*
X2105Y4086D01*
X2104Y4087D01*
X2104Y4089D01*
X2103Y4090D01*
X2103Y4091D01*
X2102Y4092D01*
X2102Y4094D01*
X2101Y4095D01*
X2101Y4097D01*
X2100Y4098D01*
X2100Y4099D01*
X2099Y4100D01*
X2099Y4102D01*
X2098Y4103D01*
X2098Y4105D01*
X2097Y4106D01*
X2097Y4108D01*
X2096Y4109D01*
X2096Y4112D01*
X2095Y4113D01*
X2095Y4115D01*
X2094Y4116D01*
X2094Y4119D01*
X2093Y4120D01*
X2093Y4123D01*
X2092Y4124D01*
X2092Y4127D01*
X2091Y4128D01*
X2091Y4132D01*
X2090Y4133D01*
X2090Y4137D01*
X2089Y4138D01*
X2089Y4144D01*
X2088Y4145D01*
X2088Y4153D01*
X2087Y4154D01*
X2087Y4190D01*
X2088Y4191D01*
X2088Y4198D01*
X2089Y4199D01*
X2089Y4204D01*
X2090Y4205D01*
X2090Y4209D01*
X2091Y4210D01*
X2091Y4214D01*
X2092Y4215D01*
X2092Y4218D01*
X2093Y4219D01*
X2093Y4221D01*
X2094Y4222D01*
X2094Y4225D01*
X2095Y4226D01*
X2095Y4228D01*
X2096Y4229D01*
X2096Y4231D01*
X2097Y4232D01*
X2097Y4234D01*
X2098Y4235D01*
X2098Y4236D01*
X2099Y4237D01*
X2099Y4239D01*
X2100Y4240D01*
X2100Y4241D01*
X2101Y4242D01*
X2101Y4244D01*
X2102Y4245D01*
X2102Y4246D01*
X2103Y4247D01*
X2103Y4248D01*
X2104Y4249D01*
X2104Y4250D01*
X2105Y4251D01*
X2105Y4252D01*
X2106Y4253D01*
X2106Y4254D01*
X2107Y4255D01*
X2107Y4256D01*
X2108Y4257D01*
X2108Y4258D01*
X2109Y4259D01*
X2109Y4260D01*
X2110Y4261D01*
X2111Y4262D01*
X2111Y4263D01*
X2112Y4264D01*
X2112Y4265D01*
X2113Y4266D01*
X2113Y4267D01*
X2114Y4268D01*
X2115Y4269D01*
X2115Y4270D01*
X2116Y4271D01*
X2117Y4272D01*
X2117Y4273D01*
X2118Y4274D01*
X2118Y4275D01*
X2119Y4276D01*
X2120Y4277D01*
X2120Y4278D01*
X2121Y4279D01*
X2122Y4280D01*
X2122Y4281D01*
X2123Y4282D01*
X2124Y4283D01*
X2124Y4284D01*
X2125Y4285D01*
X2126Y4286D01*
X2126Y4287D01*
X2127Y4288D01*
X2128Y4289D01*
X2129Y4290D01*
X2129Y4291D01*
X2130Y4292D01*
X2131Y4293D01*
X2131Y4294D01*
X2132Y4295D01*
X2133Y4296D01*
X2134Y4297D01*
X2135Y4298D01*
X2135Y4299D01*
X2136Y4300D01*
X2137Y4301D01*
X2138Y4302D01*
X2138Y4303D01*
X2139Y4304D01*
X2140Y4305D01*
X2141Y4306D01*
X2142Y4307D01*
X2143Y4308D01*
X2144Y4309D01*
X2145Y4310D01*
X2146Y4311D01*
X2146Y4312D01*
X2147Y4313D01*
X2148Y4314D01*
X2149Y4315D01*
X2150Y4316D01*
X2151Y4316D01*
X2152Y4317D01*
X2153Y4318D01*
X2154Y4319D01*
X2155Y4320D01*
X2156Y4321D01*
X2157Y4322D01*
X2158Y4323D01*
X2159Y4323D01*
X2160Y4324D01*
X2161Y4325D01*
X2162Y4325D01*
X2163Y4326D01*
X2164Y4327D01*
X2165Y4328D01*
X2166Y4328D01*
X2167Y4329D01*
X2168Y4329D01*
X2169Y4330D01*
X2170Y4330D01*
X2171Y4331D01*
X2172Y4331D01*
X2173Y4332D01*
X2174Y4332D01*
X2175Y4333D01*
X2176Y4333D01*
X2177Y4333D01*
X2178Y4334D01*
X2179Y4334D01*
X2180Y4334D01*
X2181Y4334D01*
X2182Y4335D01*
X2183Y4335D01*
X2184Y4335D01*
X2185Y4335D01*
X2186Y4335D01*
X2187Y4335D01*
X2188Y4335D01*
X2189Y4336D01*
X2190Y4336D01*
X2191Y4336D01*
X2192Y4336D01*
X2193Y4335D01*
X2194Y4335D01*
X2195Y4335D01*
X2196Y4335D01*
X2197Y4335D01*
X2198Y4335D01*
X2199Y4335D01*
X2200Y4335D01*
X2201Y4334D01*
X2202Y4334D01*
X2203Y4334D01*
X2204Y4334D01*
X2205Y4333D01*
X2206Y4333D01*
X2207Y4333D01*
X2208Y4332D01*
X2209Y4332D01*
X2210Y4332D01*
X2211Y4331D01*
X2212Y4331D01*
X2213Y4331D01*
X2214Y4330D01*
X2215Y4330D01*
X2216Y4329D01*
X2217Y4329D01*
X2218Y4329D01*
X2219Y4328D01*
X2220Y4328D01*
X2221Y4328D01*
X2222Y4327D01*
X2223Y4327D01*
X2224Y4327D01*
X2225Y4326D01*
X2226Y4326D01*
X2227Y4326D01*
X2228Y4326D01*
X2229Y4325D01*
X2230Y4325D01*
X2231Y4325D01*
X2232Y4325D01*
X2233Y4325D01*
X2234Y4325D01*
X2235Y4325D01*
X2236Y4326D01*
X2237Y4326D01*
X2238Y4326D01*
X2239Y4327D01*
X2240Y4327D01*
X2241Y4328D01*
X2242Y4328D01*
X2243Y4329D01*
X2244Y4330D01*
X2244Y4331D01*
X2245Y4332D01*
X2245Y4333D01*
X2246Y4334D01*
X2246Y4335D01*
X2247Y4336D01*
X2247Y4337D01*
X2248Y4338D01*
X2248Y4339D01*
X2249Y4340D01*
X2249Y4341D01*
X2250Y4342D01*
X2250Y4343D01*
X2251Y4344D01*
X2251Y4345D01*
X2252Y4346D01*
X2253Y4347D01*
X2253Y4348D01*
X2254Y4349D01*
X2254Y4350D01*
X2255Y4351D01*
X2255Y4352D01*
X2256Y4353D01*
X2257Y4354D01*
X2257Y4355D01*
X2258Y4356D01*
X2259Y4357D01*
X2259Y4358D01*
X2260Y4359D01*
X2261Y4360D01*
X2261Y4361D01*
X2262Y4362D01*
X2263Y4363D01*
X2264Y4364D01*
X2264Y4365D01*
X2265Y4366D01*
X2266Y4367D01*
X2266Y4368D01*
X2267Y4369D01*
X2268Y4370D01*
X2269Y4371D01*
X2270Y4372D01*
X2270Y4373D01*
X2271Y4374D01*
X2272Y4375D01*
X2273Y4376D01*
X2274Y4377D01*
X2275Y4378D01*
X2276Y4379D01*
X2277Y4380D01*
X2278Y4381D01*
X2279Y4382D01*
X2280Y4383D01*
X2281Y4384D01*
X2282Y4385D01*
X2283Y4386D01*
X2284Y4387D01*
X2285Y4388D01*
X2286Y4389D01*
X2287Y4389D01*
X2288Y4390D01*
X2289Y4391D01*
X2290Y4392D01*
X2291Y4393D01*
X2292Y4393D01*
X2293Y4394D01*
X2294Y4395D01*
X2295Y4395D01*
X2296Y4396D01*
X2297Y4396D01*
X2298Y4397D01*
X2299Y4398D01*
X2300Y4398D01*
X2301Y4399D01*
X2302Y4399D01*
X2303Y4400D01*
X2304Y4400D01*
X2305Y4401D01*
X2306Y4401D01*
X2307Y4402D01*
X2308Y4402D01*
X2309Y4402D01*
X2310Y4403D01*
X2311Y4403D01*
X2312Y4404D01*
X2313Y4404D01*
X2314Y4404D01*
X2315Y4405D01*
X2316Y4405D01*
X2317Y4405D01*
X2318Y4405D01*
X2319Y4406D01*
X2320Y4406D01*
X2321Y4406D01*
X2322Y4406D01*
X2323Y4406D01*
X2324Y4406D01*
X2325Y4407D01*
X2326Y4407D01*
X2327Y4407D01*
X2328Y4407D01*
X2329Y4407D01*
X2330Y4407D01*
X2331Y4407D01*
X2332Y4407D01*
X2333Y4407D01*
X2334Y4407D01*
X2335Y4407D01*
X2336Y4407D01*
X2337Y4407D01*
X2338Y4407D01*
X2339Y4407D01*
X2340Y4407D01*
X2341Y4406D01*
X2342Y4406D01*
X2343Y4406D01*
X2344Y4406D01*
X2345Y4406D01*
X2346Y4406D01*
X2347Y4405D01*
X2348Y4405D01*
X2349Y4405D01*
X2350Y4405D01*
X2351Y4404D01*
X2352Y4404D01*
X2353Y4404D01*
X2354Y4403D01*
X2355Y4403D01*
X2356Y4403D01*
X2357Y4402D01*
X2358Y4402D01*
X2359Y4402D01*
X2360Y4401D01*
X2361Y4401D01*
X2362Y4400D01*
X2363Y4400D01*
X2364Y4399D01*
X2365Y4399D01*
X2366Y4398D01*
X2367Y4398D01*
X2368Y4397D01*
X2369Y4397D01*
X2370Y4396D01*
X2371Y4396D01*
X2372Y4395D01*
X2373Y4395D01*
X2374Y4394D01*
X2375Y4393D01*
X2376Y4393D01*
X2377Y4392D01*
X2378Y4391D01*
X2379Y4391D01*
X2380Y4390D01*
X2381Y4389D01*
X2382Y4389D01*
X2383Y4388D01*
X2384Y4387D01*
X2385Y4386D01*
X2386Y4386D01*
X2387Y4385D01*
X2388Y4384D01*
X2389Y4383D01*
X2390Y4382D01*
X2391Y4382D01*
X2392Y4381D01*
X2393Y4380D01*
X2394Y4379D01*
X2395Y4378D01*
X2396Y4377D01*
X2397Y4376D01*
X2398Y4375D01*
X2399Y4374D01*
X2400Y4374D01*
X2401Y4374D01*
X2402Y4374D01*
X2403Y4375D01*
X2404Y4376D01*
X2405Y4376D01*
X2406Y4377D01*
X2407Y4378D01*
X2408Y4378D01*
X2409Y4379D01*
X2410Y4380D01*
X2411Y4380D01*
X2412Y4381D01*
X2413Y4382D01*
X2414Y4382D01*
X2415Y4383D01*
X2416Y4383D01*
X2417Y4384D01*
X2418Y4385D01*
X2419Y4385D01*
X2420Y4386D01*
X2421Y4386D01*
X2422Y4387D01*
X2423Y4388D01*
X2424Y4388D01*
X2425Y4389D01*
X2426Y4389D01*
X2427Y4390D01*
X2428Y4390D01*
X2429Y4391D01*
X2430Y4391D01*
X2431Y4392D01*
X2432Y4393D01*
X2433Y4393D01*
X2434Y4394D01*
X2435Y4394D01*
X2436Y4395D01*
X2437Y4395D01*
X2438Y4396D01*
X2439Y4396D01*
X2440Y4397D01*
X2441Y4397D01*
X2442Y4398D01*
X2443Y4398D01*
X2444Y4398D01*
X2445Y4399D01*
X2446Y4399D01*
X2447Y4400D01*
X2448Y4400D01*
X2449Y4401D01*
X2450Y4401D01*
X2451Y4401D01*
X2452Y4402D01*
X2453Y4402D01*
X2454Y4402D01*
X2455Y4403D01*
X2456Y4403D01*
X2457Y4404D01*
X2458Y4404D01*
X2459Y4404D01*
X2460Y4405D01*
X2461Y4405D01*
X2462Y4405D01*
X2463Y4405D01*
X2464Y4406D01*
X2465Y4406D01*
X2466Y4406D01*
X2467Y4406D01*
X2468Y4407D01*
X2469Y4407D01*
X2470Y4407D01*
X2471Y4407D01*
X2472Y4407D01*
X2473Y4408D01*
X2474Y4408D01*
X2475Y4408D01*
X2476Y4408D01*
X2477Y4408D01*
X2478Y4408D01*
X2479Y4408D01*
X2480Y4408D01*
X2481Y4408D01*
X2482Y4408D01*
X2483Y4408D01*
X2484Y4408D01*
X2485Y4407D01*
X2486Y4407D01*
X2487Y4407D01*
X2488Y4407D01*
X2489Y4406D01*
X2490Y4406D01*
X2491Y4406D01*
X2492Y4406D01*
X2493Y4406D01*
X2494Y4405D01*
X2495Y4405D01*
X2496Y4405D01*
X2497Y4405D01*
X2498Y4405D01*
X2499Y4405D01*
X2500Y4404D01*
X2501Y4404D01*
X2502Y4404D01*
X2503Y4404D01*
X2504Y4404D01*
X2505Y4403D01*
X2506Y4403D01*
X2507Y4403D01*
X2508Y4403D01*
X2509Y4402D01*
X2510Y4402D01*
X2511Y4402D01*
X2512Y4402D01*
X2513Y4401D01*
X2514Y4401D01*
X2515Y4401D01*
X2516Y4400D01*
X2517Y4400D01*
X2518Y4399D01*
X2519Y4399D01*
X2520Y4399D01*
X2521Y4398D01*
X2522Y4398D01*
X2523Y4397D01*
X2524Y4397D01*
X2525Y4396D01*
X2526Y4396D01*
X2527Y4395D01*
X2528Y4395D01*
X2529Y4394D01*
X2530Y4393D01*
X2531Y4393D01*
X2532Y4392D01*
X2533Y4391D01*
X2534Y4391D01*
X2535Y4390D01*
X2536Y4389D01*
X2537Y4388D01*
X2538Y4388D01*
X2539Y4387D01*
X2540Y4386D01*
X2541Y4385D01*
X2542Y4384D01*
X2543Y4383D01*
X2544Y4382D01*
X2545Y4381D01*
X2545Y4380D01*
X2546Y4379D01*
X2547Y4378D01*
X2548Y4377D01*
X2548Y4376D01*
X2549Y4375D01*
X2550Y4374D01*
X2550Y4373D01*
X2551Y4372D01*
X2551Y4371D01*
X2552Y4370D01*
X2553Y4369D01*
X2553Y4368D01*
X2554Y4367D01*
X2554Y4366D01*
X2555Y4365D01*
X2555Y4364D01*
X2556Y4363D01*
X2556Y4362D01*
X2557Y4361D01*
X2557Y4359D01*
X2558Y4358D01*
X2558Y4357D01*
X2559Y4356D01*
X2559Y4354D01*
X2560Y4353D01*
X2560Y4351D01*
X2561Y4350D01*
X2561Y4348D01*
X2562Y4347D01*
X2562Y4345D01*
X2563Y4344D01*
X2563Y4342D01*
X2564Y4341D01*
X2564Y4339D01*
X2565Y4338D01*
X2565Y4336D01*
X2566Y4335D01*
X2566Y4334D01*
X2567Y4333D01*
X2567Y4332D01*
X2568Y4331D01*
X2568Y4330D01*
X2569Y4329D01*
X2569Y4328D01*
X2570Y4327D01*
X2571Y4326D01*
X2571Y4325D01*
X2572Y4324D01*
X2573Y4323D01*
X2574Y4322D01*
X2575Y4322D01*
X2576Y4321D01*
X2577Y4320D01*
X2578Y4320D01*
X2579Y4319D01*
X2580Y4319D01*
X2581Y4318D01*
X2582Y4318D01*
X2583Y4318D01*
X2584Y4318D01*
X2585Y4317D01*
X2586Y4317D01*
X2587Y4317D01*
X2588Y4317D01*
X2589Y4316D01*
X2590Y4316D01*
X2591Y4316D01*
X2592Y4316D01*
X2593Y4316D01*
X2594Y4316D01*
X2595Y4316D01*
X2596Y4316D01*
X2597Y4316D01*
X2598Y4315D01*
X2599Y4315D01*
X2600Y4315D01*
X2601Y4315D01*
X2602Y4315D01*
X2603Y4315D01*
X2604Y4315D01*
X2605Y4315D01*
X2606Y4314D01*
X2607Y4314D01*
X2608Y4314D01*
X2609Y4314D01*
X2610Y4314D01*
X2611Y4314D01*
X2612Y4313D01*
X2613Y4313D01*
X2614Y4313D01*
X2615Y4313D01*
X2616Y4312D01*
X2617Y4312D01*
X2618Y4312D01*
X2619Y4311D01*
X2620Y4311D01*
X2621Y4311D01*
X2622Y4310D01*
X2623Y4310D01*
X2624Y4310D01*
X2625Y4309D01*
X2626Y4309D01*
X2627Y4308D01*
X2628Y4308D01*
X2629Y4307D01*
X2630Y4307D01*
X2631Y4306D01*
X2632Y4305D01*
X2633Y4305D01*
X2634Y4304D01*
X2635Y4303D01*
X2636Y4303D01*
X2637Y4302D01*
X2638Y4301D01*
X2639Y4301D01*
X2640Y4300D01*
X2641Y4299D01*
X2642Y4298D01*
X2643Y4297D01*
X2644Y4296D01*
X2645Y4296D01*
X2646Y4295D01*
X2647Y4294D01*
X2648Y4293D01*
X2649Y4292D01*
X2650Y4291D01*
X2651Y4290D01*
X2652Y4289D01*
X2652Y4288D01*
X2653Y4287D01*
X2654Y4286D01*
X2654Y4285D01*
X2655Y4284D01*
X2656Y4283D01*
X2656Y4282D01*
X2657Y4281D01*
X2657Y4280D01*
X2658Y4279D01*
X2658Y4278D01*
X2659Y4277D01*
X2659Y4276D01*
X2660Y4275D01*
X2660Y4274D01*
X2661Y4273D01*
X2661Y4272D01*
X2662Y4271D01*
X2662Y4269D01*
X2663Y4268D01*
X2663Y4266D01*
X2664Y4265D01*
X2664Y4263D01*
X2665Y4262D01*
X2665Y4260D01*
X2666Y4259D01*
X2666Y4256D01*
X2667Y4255D01*
X2667Y4253D01*
X2668Y4252D01*
X2668Y4249D01*
X2669Y4248D01*
X2669Y4244D01*
X2670Y4243D01*
X2670Y4240D01*
X2671Y4239D01*
X2671Y4234D01*
X2672Y4233D01*
X2672Y4228D01*
X2673Y4227D01*
X2673Y4222D01*
X2674Y4221D01*
X2674Y4214D01*
X2675Y4213D01*
X2675Y4205D01*
X2676Y4204D01*
X2676Y4194D01*
X2677Y4193D01*
X2677Y4173D01*
X2678Y4172D01*
X2678Y4139D01*
X2677Y4138D01*
X2677Y4119D01*
X2676Y4118D01*
X2676Y4106D01*
X2675Y4105D01*
X2675Y4097D01*
X2674Y4096D01*
X2674Y4089D01*
X2673Y4088D01*
X2673Y4082D01*
X2672Y4081D01*
X2672Y4075D01*
X2671Y4074D01*
X2671Y4070D01*
X2670Y4069D01*
X2670Y4064D01*
X2669Y4063D01*
X2669Y4060D01*
X2668Y4059D01*
X2668Y4055D01*
X2667Y4054D01*
X2667Y4051D01*
X2666Y4050D01*
X2666Y4048D01*
X2665Y4047D01*
X2665Y4044D01*
X2664Y4043D01*
X2664Y4041D01*
X2663Y4040D01*
X2663Y4037D01*
X2662Y4036D01*
X2662Y4034D01*
X2661Y4033D01*
X2661Y4031D01*
X2660Y4030D01*
X2660Y4028D01*
X2659Y4027D01*
X2659Y4026D01*
X2658Y4025D01*
X2658Y4023D01*
X2657Y4022D01*
X2657Y4021D01*
X2656Y4020D01*
X2656Y4018D01*
X2655Y4017D01*
X2655Y4015D01*
X2654Y4014D01*
X2654Y4013D01*
X2653Y4012D01*
X2653Y4011D01*
X2652Y4010D01*
X2652Y4008D01*
X2651Y4007D01*
X2651Y4006D01*
X2650Y4005D01*
X2650Y4004D01*
X2649Y4003D01*
X2649Y4002D01*
X2648Y4001D01*
X2648Y3999D01*
X2647Y3998D01*
X2647Y3997D01*
X2646Y3996D01*
X2646Y3995D01*
X2645Y3994D01*
X2645Y3993D01*
X2644Y3992D01*
X2644Y3991D01*
X2643Y3990D01*
X2643Y3989D01*
X2642Y3988D01*
X2642Y3987D01*
X2641Y3986D01*
X2641Y3985D01*
X2640Y3984D01*
X2640Y3983D01*
X2639Y3982D01*
X2638Y3981D01*
X2638Y3980D01*
X2637Y3979D01*
X2637Y3978D01*
X2636Y3977D01*
X2636Y3976D01*
X2635Y3975D01*
X2634Y3974D01*
X2634Y3973D01*
X2633Y3972D01*
X2633Y3970D01*
X2632Y3969D01*
X2632Y3968D01*
X2631Y3967D01*
X2631Y3965D01*
X2630Y3964D01*
X2630Y3963D01*
X2629Y3962D01*
X2629Y3961D01*
X2628Y3960D01*
X2628Y3959D01*
X2627Y3958D01*
X2627Y3957D01*
X2626Y3956D01*
X2626Y3955D01*
X2625Y3954D01*
X2625Y3953D01*
X2624Y3952D01*
X2624Y3951D01*
X2623Y3950D01*
X2622Y3949D01*
X2622Y3948D01*
X2621Y3947D01*
X2620Y3946D01*
X2620Y3945D01*
X2619Y3944D01*
X2619Y3943D01*
X2618Y3942D01*
X2617Y3941D01*
X2617Y3940D01*
X2616Y3939D01*
X2615Y3938D01*
X2614Y3937D01*
X2614Y3936D01*
X2613Y3935D01*
X2612Y3934D01*
X2611Y3933D01*
X2611Y3932D01*
X2610Y3931D01*
X2609Y3930D01*
X2608Y3929D01*
X2607Y3928D01*
X2606Y3927D01*
X2605Y3926D01*
X2604Y3925D01*
X2604Y3924D01*
X2603Y3923D01*
X2602Y3922D01*
X2601Y3921D01*
X2600Y3920D01*
X2599Y3919D01*
X2598Y3918D01*
X2597Y3917D01*
X2596Y3916D01*
X2595Y3915D01*
X2594Y3914D01*
X2593Y3913D01*
X2592Y3912D01*
X2591Y3911D01*
X2590Y3911D01*
X2589Y3910D01*
X2588Y3909D01*
X2587Y3908D01*
X2586Y3907D01*
X2585Y3906D01*
X2584Y3905D01*
X2583Y3904D01*
X2582Y3903D01*
X2581Y3902D01*
X2580Y3901D01*
X2579Y3900D01*
X2578Y3899D01*
X2577Y3898D01*
X2576Y3897D01*
X2575Y3896D01*
X2574Y3895D01*
X2574Y3894D01*
X2573Y3893D01*
X2572Y3892D01*
X2571Y3891D01*
X2570Y3890D01*
X2569Y3889D01*
X2569Y3888D01*
X2568Y3887D01*
X2567Y3886D01*
X2567Y3885D01*
X2566Y3884D01*
X2565Y3883D01*
X2565Y3882D01*
X2564Y3881D01*
X2564Y3880D01*
X2563Y3879D01*
X2563Y3878D01*
X2562Y3877D01*
X2562Y3875D01*
X2561Y3874D01*
X2561Y3872D01*
X2560Y3871D01*
X2560Y3867D01*
X2559Y3866D01*
X2559Y3849D01*
X2560Y3848D01*
X2560Y3835D01*
X2561Y3834D01*
X2561Y3762D01*
X2562Y3761D01*
X2562Y3728D01*
X2563Y3727D01*
X2563Y3704D01*
X2564Y3703D01*
X2564Y3682D01*
X2565Y3681D01*
X2565Y3664D01*
X2566Y3663D01*
X2566Y3645D01*
X2567Y3644D01*
X2567Y3626D01*
X2568Y3625D01*
X2568Y3596D01*
X2567Y3595D01*
X2567Y3578D01*
X2566Y3577D01*
X2566Y3565D01*
X2565Y3564D01*
X2565Y3555D01*
X2564Y3554D01*
X2564Y3546D01*
X2563Y3545D01*
X2563Y3538D01*
X2562Y3537D01*
X2562Y3531D01*
X2561Y3530D01*
X2561Y3524D01*
X2560Y3523D01*
X2560Y3517D01*
X2559Y3516D01*
X2559Y3511D01*
X2558Y3510D01*
X2558Y3505D01*
X2557Y3504D01*
X2557Y3499D01*
X2556Y3498D01*
X2556Y3493D01*
X2555Y3492D01*
X2555Y3488D01*
X2554Y3487D01*
X2554Y3482D01*
X2553Y3481D01*
X2553Y3477D01*
X2552Y3476D01*
X2552Y3472D01*
X2551Y3471D01*
X2551Y3467D01*
X2550Y3466D01*
X2550Y3461D01*
X2549Y3460D01*
X2549Y3456D01*
X2548Y3455D01*
X2548Y3451D01*
X2547Y3450D01*
X2547Y3447D01*
X2546Y3446D01*
X2546Y3442D01*
X2545Y3441D01*
X2545Y3437D01*
X2544Y3436D01*
X2544Y3432D01*
X2543Y3431D01*
X2543Y3427D01*
X2542Y3426D01*
X2542Y3422D01*
X2541Y3421D01*
X2541Y3417D01*
X2540Y3416D01*
X2540Y3412D01*
X2539Y3411D01*
X2539Y3407D01*
X2538Y3406D01*
X2538Y3403D01*
X2537Y3402D01*
X2537Y3398D01*
X2536Y3397D01*
X2536Y3392D01*
X2535Y3391D01*
X2535Y3387D01*
X2534Y3386D01*
X2534Y3381D01*
X2533Y3380D01*
X2533Y3375D01*
X2532Y3374D01*
X2532Y3370D01*
X2531Y3369D01*
X2531Y3364D01*
X2530Y3363D01*
X2530Y3358D01*
X2529Y3357D01*
X2529Y3353D01*
X2528Y3352D01*
X2528Y3348D01*
X2527Y3347D01*
X2527Y3343D01*
X2526Y3342D01*
X2526Y3338D01*
X2525Y3337D01*
X2525Y3333D01*
X2524Y3332D01*
X2524Y3328D01*
X2523Y3327D01*
X2523Y3323D01*
X2522Y3322D01*
X2522Y3318D01*
X2521Y3317D01*
X2521Y3314D01*
X2520Y3313D01*
X2520Y3309D01*
X2519Y3308D01*
X2519Y3305D01*
X2518Y3304D01*
X2518Y3301D01*
X2517Y3300D01*
X2517Y3296D01*
X2516Y3295D01*
X2516Y3292D01*
X2515Y3291D01*
X2515Y3287D01*
X2514Y3286D01*
X2514Y3283D01*
X2513Y3282D01*
X2513Y3279D01*
X2512Y3278D01*
X2512Y3275D01*
X2511Y3274D01*
X2511Y3271D01*
X2510Y3270D01*
X2510Y3267D01*
X2509Y3266D01*
X2509Y3262D01*
X2508Y3261D01*
X2508Y3258D01*
X2507Y3257D01*
X2507Y3254D01*
X2506Y3253D01*
X2506Y3250D01*
X2505Y3249D01*
X2505Y3246D01*
X2504Y3245D01*
X2504Y3242D01*
X2503Y3241D01*
X2503Y3238D01*
X2502Y3237D01*
X2502Y3235D01*
X2501Y3234D01*
X2501Y3231D01*
X2500Y3230D01*
X2500Y3227D01*
X2499Y3226D01*
X2499Y3223D01*
X2498Y3222D01*
X2498Y3219D01*
X2497Y3218D01*
X2497Y3215D01*
X2496Y3214D01*
X2496Y3211D01*
X2495Y3210D01*
X2495Y3208D01*
X2494Y3207D01*
X2494Y3204D01*
X2493Y3203D01*
X2493Y3200D01*
X2492Y3199D01*
X2492Y3196D01*
X2491Y3195D01*
X2491Y3193D01*
X2490Y3192D01*
X2490Y3189D01*
X2489Y3188D01*
X2489Y3185D01*
X2488Y3184D01*
X2488Y3182D01*
X2487Y3181D01*
X2487Y3178D01*
X2486Y3177D01*
X2486Y3174D01*
X2485Y3173D01*
X2485Y3171D01*
X2484Y3170D01*
X2484Y3167D01*
X2483Y3166D01*
X2483Y3164D01*
X2482Y3163D01*
X2482Y3160D01*
X2481Y3159D01*
X2481Y3156D01*
X2480Y3155D01*
X2480Y3153D01*
X2479Y3152D01*
X2479Y3149D01*
X2478Y3148D01*
X2478Y3146D01*
X2477Y3145D01*
X2477Y3142D01*
X2476Y3141D01*
X2476Y3139D01*
X2475Y3138D01*
X2475Y3135D01*
X2474Y3134D01*
X2474Y3132D01*
X2473Y3131D01*
X2473Y3128D01*
X2472Y3127D01*
X2472Y3125D01*
X2471Y3124D01*
X2471Y3122D01*
X2470Y3121D01*
X2470Y3118D01*
X2469Y3117D01*
X2469Y3115D01*
X2468Y3114D01*
X2468Y3111D01*
X2467Y3110D01*
X2467Y3108D01*
X2466Y3107D01*
X2466Y3105D01*
X2465Y3104D01*
X2465Y3101D01*
X2464Y3100D01*
X2464Y3098D01*
X2463Y3097D01*
X2463Y3094D01*
X2462Y3093D01*
X2462Y3091D01*
X2461Y3090D01*
X2461Y3088D01*
X2460Y3087D01*
X2460Y3085D01*
X2459Y3084D01*
X2459Y3081D01*
X2458Y3080D01*
X2458Y3078D01*
X2457Y3077D01*
X2457Y3075D01*
X2456Y3074D01*
X2456Y3072D01*
X2455Y3071D01*
X2455Y3068D01*
X2454Y3067D01*
X2454Y3065D01*
X2453Y3064D01*
X2453Y3062D01*
X2452Y3061D01*
X2452Y3059D01*
X2451Y3058D01*
X2451Y3056D01*
X2450Y3055D01*
X2450Y3052D01*
X2449Y3051D01*
X2449Y3049D01*
X2448Y3048D01*
X2448Y3046D01*
X2447Y3045D01*
X2447Y3043D01*
X2446Y3042D01*
X2446Y3040D01*
X2445Y3039D01*
X2445Y3037D01*
X2444Y3036D01*
X2444Y3034D01*
X2443Y3033D01*
X2443Y3031D01*
X2442Y3030D01*
X2442Y3027D01*
X2441Y3026D01*
X2441Y3024D01*
X2440Y3023D01*
X2440Y3021D01*
X2439Y3020D01*
X2439Y3018D01*
X2438Y3017D01*
X2438Y3015D01*
X2437Y3014D01*
X2437Y3012D01*
X2436Y3011D01*
X2436Y3009D01*
X2435Y3008D01*
X2435Y3006D01*
X2434Y3005D01*
X2434Y3003D01*
X2433Y3002D01*
X2433Y3000D01*
X2432Y2999D01*
X2432Y2997D01*
X2431Y2996D01*
X2431Y2994D01*
X2430Y2993D01*
X2430Y2991D01*
X2429Y2990D01*
X2429Y2988D01*
X2428Y2987D01*
X2428Y2985D01*
X2427Y2984D01*
X2427Y2982D01*
X2426Y2981D01*
X2426Y2979D01*
X2425Y2978D01*
X2425Y2976D01*
X2424Y2975D01*
X2424Y2974D01*
X2423Y2973D01*
X2423Y2971D01*
X2422Y2970D01*
X2422Y2968D01*
X2421Y2967D01*
X2421Y2965D01*
X2420Y2964D01*
X2420Y2962D01*
X2419Y2961D01*
X2419Y2959D01*
X2418Y2958D01*
X2418Y2957D01*
X2417Y2956D01*
X2417Y2954D01*
X2416Y2953D01*
X2416Y2951D01*
X2415Y2950D01*
X2415Y2948D01*
X2414Y2947D01*
X2414Y2945D01*
X2413Y2944D01*
X2413Y2943D01*
X2412Y2942D01*
X2412Y2940D01*
X2411Y2939D01*
X2411Y2937D01*
X2410Y2936D01*
X2410Y2934D01*
X2409Y2933D01*
X2409Y2932D01*
X2408Y2931D01*
X2408Y2929D01*
X2407Y2928D01*
X2407Y2926D01*
X2406Y2925D01*
X2406Y2924D01*
X2405Y2923D01*
X2405Y2921D01*
X2404Y2920D01*
X2404Y2918D01*
X2403Y2917D01*
X2403Y2916D01*
X2402Y2915D01*
X2402Y2913D01*
X2401Y2912D01*
X2401Y2911D01*
X2400Y2910D01*
X2400Y2908D01*
X2399Y2907D01*
X2399Y2905D01*
X2398Y2904D01*
X2398Y2903D01*
X2397Y2902D01*
X2397Y2900D01*
X2396Y2899D01*
X2396Y2897D01*
X2395Y2896D01*
X2395Y2895D01*
X2394Y2894D01*
X2394Y2892D01*
X2393Y2891D01*
X2393Y2890D01*
X2392Y2889D01*
X2392Y2887D01*
X2391Y2886D01*
X2391Y2885D01*
X2390Y2884D01*
X2390Y2882D01*
X2389Y2881D01*
X2389Y2880D01*
X2388Y2879D01*
X2388Y2877D01*
X2387Y2876D01*
X2387Y2875D01*
X2386Y2874D01*
X2386Y2873D01*
X2385Y2872D01*
X2385Y2870D01*
X2384Y2869D01*
X2384Y2868D01*
X2383Y2867D01*
X2383Y2866D01*
X2382Y2865D01*
X2382Y2863D01*
X2381Y2862D01*
X2381Y2861D01*
X2380Y2860D01*
X2380Y2859D01*
X2379Y2858D01*
X2379Y2856D01*
X2378Y2855D01*
X2378Y2854D01*
X2377Y2853D01*
X2377Y2852D01*
X2376Y2851D01*
X2376Y2849D01*
X2375Y2848D01*
X2375Y2847D01*
X2374Y2846D01*
X2374Y2845D01*
X2373Y2844D01*
X2373Y2843D01*
X2372Y2842D01*
X2372Y2841D01*
X2371Y2840D01*
X2371Y2838D01*
X2370Y2837D01*
X2370Y2836D01*
X2369Y2835D01*
X2369Y2834D01*
X2368Y2833D01*
X2368Y2832D01*
X2367Y2831D01*
X2367Y2830D01*
X2366Y2829D01*
X2366Y2828D01*
X2365Y2827D01*
X2365Y2826D01*
X2364Y2825D01*
X2364Y2824D01*
X2363Y2823D01*
X2363Y2822D01*
X2362Y2821D01*
X2362Y2820D01*
X2361Y2819D01*
X2361Y2818D01*
X2360Y2817D01*
X2360Y2816D01*
X2359Y2815D01*
X2359Y2814D01*
X2358Y2813D01*
X2358Y2812D01*
X2357Y2811D01*
X2357Y2810D01*
X2356Y2809D01*
X2356Y2808D01*
X2355Y2807D01*
X2355Y2806D01*
X2354Y2805D01*
X2354Y2804D01*
X2353Y2803D01*
X2353Y2802D01*
X2352Y2801D01*
X2351Y2800D01*
X2351Y2799D01*
X2350Y2798D01*
X2350Y2797D01*
X2349Y2796D01*
X2349Y2795D01*
X2348Y2794D01*
X2347Y2793D01*
X2347Y2792D01*
X2346Y2791D01*
X2346Y2790D01*
X2345Y2789D01*
X2344Y2788D01*
X2344Y2787D01*
X2343Y2786D01*
X2343Y2785D01*
X2342Y2784D01*
X2341Y2783D01*
X2341Y2782D01*
X2340Y2781D01*
X2340Y2780D01*
X2339Y2779D01*
X2338Y2778D01*
X2338Y2777D01*
X2337Y2776D01*
X2337Y2775D01*
X2336Y2774D01*
X2335Y2773D01*
X2335Y2772D01*
X2334Y2771D01*
X2334Y2770D01*
X2333Y2769D01*
X2332Y2768D01*
X2332Y2767D01*
X2331Y2766D01*
X2330Y2765D01*
X2330Y2764D01*
X2329Y2763D01*
X2329Y2762D01*
X2328Y2761D01*
X2327Y2760D01*
X2327Y2759D01*
X2326Y2758D01*
X2325Y2757D01*
X2325Y2756D01*
X2324Y2755D01*
X2324Y2754D01*
X2323Y2753D01*
X2322Y2752D01*
X2322Y2751D01*
X2321Y2750D01*
X2320Y2749D01*
X2320Y2748D01*
X2319Y2747D01*
X2318Y2746D01*
X2318Y2745D01*
X2317Y2744D01*
X2316Y2743D01*
X2316Y2742D01*
X2315Y2741D01*
X2314Y2740D01*
X2314Y2739D01*
X2313Y2738D01*
X2312Y2737D01*
X2312Y2736D01*
X2311Y2735D01*
X2310Y2734D01*
X2310Y2733D01*
X2309Y2732D01*
X2308Y2731D01*
X2308Y2730D01*
X2307Y2729D01*
X2306Y2728D01*
X2306Y2727D01*
X2305Y2726D01*
X2304Y2725D01*
X2304Y2724D01*
X2303Y2723D01*
X2302Y2722D01*
X2302Y2721D01*
X2301Y2720D01*
X2300Y2719D01*
X2300Y2718D01*
X2299Y2717D01*
X2298Y2716D01*
X2298Y2715D01*
X2297Y2714D01*
X2296Y2713D01*
X2296Y2712D01*
X2295Y2711D01*
X2294Y2710D01*
X2294Y2709D01*
X2293Y2708D01*
X2292Y2707D01*
X2292Y2706D01*
X2291Y2705D01*
X2290Y2704D01*
X2290Y2703D01*
X2289Y2702D01*
X2288Y2701D01*
X2288Y2700D01*
X2287Y2699D01*
X2286Y2698D01*
X2286Y2697D01*
X2285Y2696D01*
X2284Y2695D01*
X2283Y2694D01*
X2283Y2693D01*
X2282Y2692D01*
X2281Y2691D01*
X2281Y2690D01*
X2280Y2689D01*
X2279Y2688D01*
X2279Y2687D01*
X2278Y2686D01*
X2277Y2685D01*
X2277Y2684D01*
X2276Y2683D01*
X2275Y2682D01*
X2275Y2681D01*
X2274Y2680D01*
X2273Y2679D01*
X2272Y2678D01*
X2272Y2677D01*
X2271Y2676D01*
X2270Y2675D01*
X2270Y2674D01*
X2269Y2673D01*
X2268Y2672D01*
X2268Y2671D01*
X2267Y2670D01*
X2266Y2669D01*
X2265Y2668D01*
X2265Y2667D01*
X2264Y2666D01*
X2263Y2665D01*
X2263Y2664D01*
X2262Y2663D01*
X2261Y2662D01*
X2261Y2661D01*
X2260Y2660D01*
X2259Y2659D01*
X2258Y2658D01*
X2258Y2657D01*
X2257Y2656D01*
X2256Y2655D01*
X2256Y2654D01*
X2255Y2653D01*
X2254Y2652D01*
X2254Y2651D01*
X2253Y2650D01*
X2252Y2649D01*
X2251Y2648D01*
X2251Y2647D01*
X2250Y2646D01*
X2249Y2645D01*
X2249Y2644D01*
X2248Y2643D01*
X2247Y2642D01*
X2247Y2641D01*
X2246Y2640D01*
X2245Y2639D01*
X2244Y2638D01*
X2244Y2637D01*
X2243Y2636D01*
X2242Y2635D01*
X2242Y2634D01*
X2241Y2633D01*
X2240Y2632D01*
X2240Y2631D01*
X2239Y2630D01*
X2238Y2629D01*
X2237Y2628D01*
X2237Y2627D01*
X2236Y2626D01*
X2235Y2625D01*
X2235Y2624D01*
X2234Y2623D01*
X2233Y2622D01*
X2233Y2621D01*
X2232Y2620D01*
X2231Y2619D01*
X2230Y2618D01*
X2230Y2617D01*
X2229Y2616D01*
X2228Y2615D01*
X2228Y2614D01*
X2227Y2613D01*
X2226Y2612D01*
X2226Y2611D01*
X2225Y2610D01*
X2224Y2609D01*
X2223Y2608D01*
X2223Y2607D01*
X2222Y2606D01*
X2221Y2605D01*
X2221Y2604D01*
X2220Y2603D01*
X2219Y2602D01*
X2219Y2601D01*
X2218Y2600D01*
X2217Y2599D01*
X2217Y2598D01*
X2216Y2597D01*
X2215Y2596D01*
X2214Y2595D01*
X2214Y2594D01*
X2213Y2593D01*
X2212Y2592D01*
X2212Y2591D01*
X2211Y2590D01*
X2210Y2589D01*
X2210Y2588D01*
X2209Y2587D01*
X2208Y2586D01*
X2207Y2585D01*
X2207Y2584D01*
X2206Y2583D01*
X2205Y2582D01*
X2205Y2581D01*
X2204Y2580D01*
X2203Y2579D01*
X2203Y2578D01*
X2202Y2577D01*
X2201Y2576D01*
X2201Y2575D01*
X2200Y2574D01*
X2199Y2573D01*
X2199Y2572D01*
X2198Y2571D01*
X2197Y2570D01*
X2197Y2569D01*
X2196Y2568D01*
X2195Y2567D01*
X2195Y2566D01*
X2194Y2565D01*
X2193Y2564D01*
X2193Y2563D01*
X2192Y2562D01*
X2191Y2561D01*
X2190Y2560D01*
X2190Y2559D01*
X2189Y2558D01*
X2188Y2557D01*
X2188Y2556D01*
X2187Y2555D01*
X2186Y2554D01*
X2186Y2553D01*
X2185Y2552D01*
X2184Y2551D01*
X2184Y2550D01*
X2183Y2549D01*
X2182Y2548D01*
X2182Y2547D01*
X2181Y2546D01*
X2180Y2545D01*
X2180Y2544D01*
X2179Y2543D01*
X2178Y2542D01*
X2178Y2541D01*
X2177Y2540D01*
X2177Y2539D01*
X2176Y2538D01*
X2175Y2537D01*
X2175Y2536D01*
X2174Y2535D01*
X2173Y2534D01*
X2173Y2533D01*
X2172Y2532D01*
X2171Y2531D01*
X2171Y2530D01*
X2170Y2529D01*
X2169Y2528D01*
X2169Y2527D01*
X2168Y2526D01*
X2167Y2525D01*
X2167Y2524D01*
X2166Y2523D01*
X2166Y2522D01*
X2165Y2521D01*
X2164Y2520D01*
X2164Y2519D01*
X2163Y2518D01*
X2162Y2517D01*
X2162Y2516D01*
X2161Y2515D01*
X2160Y2514D01*
X2160Y2513D01*
X2159Y2512D01*
X2158Y2511D01*
X2158Y2510D01*
X2157Y2509D01*
X2157Y2508D01*
X2156Y2507D01*
X2155Y2506D01*
X2155Y2505D01*
X2154Y2504D01*
X2154Y2503D01*
X2153Y2502D01*
X2152Y2501D01*
X2152Y2500D01*
X2151Y2499D01*
X2150Y2498D01*
X2150Y2497D01*
X2149Y2496D01*
X2149Y2495D01*
X2148Y2494D01*
X2147Y2493D01*
X2147Y2492D01*
X2146Y2491D01*
X2146Y2490D01*
X2145Y2489D01*
X2144Y2488D01*
X2144Y2487D01*
X2143Y2486D01*
X2143Y2485D01*
X2142Y2484D01*
X2141Y2483D01*
X2141Y2482D01*
X2140Y2481D01*
X2140Y2480D01*
X2139Y2479D01*
X2139Y2478D01*
X2138Y2477D01*
X2137Y2476D01*
X2137Y2475D01*
X2136Y2474D01*
X2136Y2473D01*
X2135Y2472D01*
X2135Y2471D01*
X2134Y2470D01*
X2133Y2469D01*
X2133Y2468D01*
X2132Y2467D01*
X2132Y2466D01*
X2131Y2465D01*
X2131Y2464D01*
X2130Y2463D01*
X2130Y2462D01*
X2129Y2461D01*
X2129Y2460D01*
X2128Y2459D01*
X2127Y2458D01*
X2127Y2457D01*
X2126Y2456D01*
X2126Y2455D01*
X2125Y2454D01*
X2125Y2453D01*
X2124Y2452D01*
X2124Y2451D01*
X2123Y2450D01*
X2123Y2449D01*
X2122Y2448D01*
X2122Y2447D01*
X2121Y2446D01*
X2121Y2445D01*
X2120Y2444D01*
X2120Y2443D01*
X2119Y2442D01*
X2119Y2441D01*
X2118Y2440D01*
X2118Y2439D01*
X2117Y2438D01*
X2117Y2437D01*
X2116Y2436D01*
X2115Y2435D01*
X2115Y2433D01*
X2114Y2432D01*
X2114Y2431D01*
X2113Y2430D01*
X2113Y2429D01*
X2112Y2428D01*
X2112Y2427D01*
X2111Y2426D01*
X2111Y2425D01*
X2110Y2424D01*
X2110Y2423D01*
X2109Y2422D01*
X2109Y2421D01*
X2108Y2420D01*
X2108Y2418D01*
X2107Y2417D01*
X2107Y2416D01*
X2106Y2415D01*
X2106Y2414D01*
X2105Y2413D01*
X2105Y2411D01*
X2104Y2410D01*
X2104Y2409D01*
X2103Y2408D01*
X2103Y2407D01*
X2102Y2406D01*
X2102Y2404D01*
X2101Y2403D01*
X2101Y2402D01*
X2100Y2401D01*
X2100Y2399D01*
X2099Y2398D01*
X2099Y2396D01*
X2098Y2395D01*
X2098Y2394D01*
X2097Y2393D01*
X2097Y2391D01*
X2096Y2390D01*
X2096Y2388D01*
X2095Y2387D01*
X2095Y2385D01*
X2094Y2384D01*
X2094Y2382D01*
X2093Y2381D01*
X2093Y2379D01*
X2092Y2378D01*
X2092Y2376D01*
X2091Y2375D01*
X2091Y2373D01*
X2090Y2372D01*
X2090Y2369D01*
X2089Y2368D01*
X2089Y2365D01*
X2088Y2364D01*
X2088Y2362D01*
X2087Y2361D01*
X2087Y2357D01*
X2086Y2356D01*
X2086Y2352D01*
X2085Y2351D01*
X2085Y2347D01*
X2084Y2346D01*
X2084Y2341D01*
X2083Y2340D01*
X2083Y2332D01*
X2082Y2331D01*
X2082Y2307D01*
X2083Y2306D01*
X2083Y2294D01*
X2084Y2293D01*
X2084Y2264D01*
X2083Y2263D01*
X2083Y2243D01*
X2082Y2242D01*
X2082Y2226D01*
X2081Y2225D01*
X2081Y2208D01*
X2080Y2207D01*
X2080Y2184D01*
X2079Y2183D01*
X2079Y2162D01*
X2080Y2161D01*
X2080Y2141D01*
X2081Y2140D01*
X2081Y2131D01*
X2082Y2130D01*
X2082Y2123D01*
X2083Y2122D01*
X2083Y2116D01*
X2084Y2115D01*
X2084Y2110D01*
X2085Y2109D01*
X2085Y2104D01*
X2086Y2103D01*
X2086Y2097D01*
X2087Y2096D01*
X2087Y2091D01*
X2088Y2090D01*
X2088Y2083D01*
X2089Y2082D01*
X2089Y2074D01*
X2090Y2073D01*
X2090Y2065D01*
X2091Y2064D01*
X2091Y2053D01*
X2092Y2052D01*
X2092Y2037D01*
X2093Y2036D01*
X2093Y2002D01*
X2094Y2001D01*
X2093Y2000D01*
X2093Y1960D01*
X2092Y1959D01*
X2092Y1944D01*
X2091Y1943D01*
X2091Y1931D01*
X2090Y1930D01*
X2090Y1920D01*
X2089Y1919D01*
X2089Y1910D01*
X2088Y1909D01*
X2088Y1903D01*
X2087Y1902D01*
X2087Y1895D01*
X2086Y1894D01*
X2086Y1887D01*
X2085Y1886D01*
X2085Y1880D01*
X2084Y1879D01*
X2084Y1874D01*
X2083Y1873D01*
X2083Y1868D01*
X2082Y1867D01*
X2082Y1861D01*
X2081Y1860D01*
X2081Y1856D01*
X2080Y1855D01*
X2080Y1850D01*
X2079Y1849D01*
X2079Y1845D01*
X2078Y1844D01*
X2078Y1840D01*
X2077Y1839D01*
X2077Y1835D01*
X2076Y1834D01*
X2076Y1830D01*
X2075Y1829D01*
X2075Y1826D01*
X2074Y1825D01*
X2074Y1821D01*
X2073Y1820D01*
X2073Y1817D01*
X2072Y1816D01*
X2072Y1812D01*
X2071Y1811D01*
X2071Y1808D01*
X2070Y1807D01*
X2070Y1804D01*
X2069Y1803D01*
X2069Y1800D01*
X2068Y1799D01*
X2068Y1796D01*
X2067Y1795D01*
X2067Y1793D01*
X2066Y1792D01*
X2066Y1789D01*
X2065Y1788D01*
X2065Y1785D01*
X2064Y1784D01*
X2064Y1781D01*
X2063Y1780D01*
X2063Y1778D01*
X2062Y1777D01*
X2062Y1775D01*
X2061Y1774D01*
X2061Y1771D01*
X2060Y1770D01*
X2060Y1768D01*
X2059Y1767D01*
X2059Y1765D01*
X2058Y1764D01*
X2058Y1761D01*
X2057Y1760D01*
X2057Y1758D01*
X2056Y1757D01*
X2056Y1755D01*
X2055Y1754D01*
X2055Y1752D01*
X2054Y1751D01*
X2054Y1749D01*
X2053Y1748D01*
X2053Y1746D01*
X2052Y1745D01*
X2052Y1743D01*
X2051Y1742D01*
X2051Y1740D01*
X2050Y1739D01*
X2050Y1737D01*
X2049Y1736D01*
X2049Y1734D01*
X2048Y1733D01*
X2048Y1732D01*
X2047Y1731D01*
X2047Y1729D01*
X2046Y1728D01*
X2046Y1726D01*
X2045Y1725D01*
X2045Y1724D01*
X2044Y1723D01*
X2044Y1721D01*
X2043Y1720D01*
X2043Y1718D01*
X2042Y1717D01*
X2042Y1716D01*
X2041Y1715D01*
X2041Y1713D01*
X2040Y1712D01*
X2040Y1711D01*
X2039Y1710D01*
X2039Y1708D01*
X2038Y1707D01*
X2038Y1706D01*
X2037Y1705D01*
X2037Y1703D01*
X2036Y1702D01*
X2036Y1700D01*
X2035Y1699D01*
X2035Y1697D01*
X2034Y1696D01*
X2034Y1693D01*
X2033Y1692D01*
X2033Y1689D01*
X2032Y1688D01*
X2032Y1683D01*
X2031Y1682D01*
X2031Y1675D01*
X2030Y1674D01*
X2030Y1641D01*
X2029Y1640D01*
X2029Y1630D01*
X2030Y1629D01*
X2030Y1597D01*
X2031Y1596D01*
X2031Y1588D01*
X2032Y1587D01*
X2032Y1583D01*
X2033Y1582D01*
X2033Y1578D01*
X2034Y1577D01*
X2034Y1575D01*
X2035Y1574D01*
X2035Y1572D01*
X2036Y1571D01*
X2036Y1570D01*
X2037Y1569D01*
X2037Y1567D01*
X2038Y1566D01*
X2038Y1565D01*
X2039Y1564D01*
X2040Y1563D01*
X2040Y1562D01*
X2041Y1561D01*
X2041Y1560D01*
X2042Y1559D01*
X2043Y1558D01*
X2044Y1557D01*
X2044Y1556D01*
X2045Y1555D01*
X2046Y1554D01*
X2047Y1553D01*
X2048Y1552D01*
X2049Y1551D01*
X2049Y1550D01*
X2050Y1549D01*
X2051Y1548D01*
X2052Y1547D01*
X2053Y1546D01*
X2054Y1545D01*
X2055Y1544D01*
X2056Y1543D01*
X2057Y1542D01*
X2058Y1541D01*
X2059Y1540D01*
X2060Y1539D01*
X2061Y1538D01*
X2062Y1538D01*
X2063Y1537D01*
X2064Y1536D01*
X2065Y1535D01*
X2066Y1534D01*
X2067Y1533D01*
X2068Y1532D01*
X2069Y1531D01*
X2070Y1530D01*
X2071Y1529D01*
X2072Y1528D01*
X2073Y1527D01*
X2074Y1526D01*
X2075Y1525D01*
X2076Y1524D01*
X2077Y1523D01*
X2078Y1522D01*
X2079Y1521D01*
X2080Y1520D01*
X2081Y1519D01*
X2082Y1518D01*
X2083Y1517D01*
X2084Y1516D01*
X2085Y1515D01*
X2086Y1514D01*
X2087Y1513D01*
X2088Y1512D01*
X2088Y1511D01*
X2089Y1510D01*
X2090Y1509D01*
X2091Y1508D01*
X2092Y1507D01*
X2093Y1506D01*
X2094Y1505D01*
X2094Y1504D01*
X2095Y1503D01*
X2096Y1502D01*
X2097Y1501D01*
X2098Y1500D01*
X2099Y1499D01*
X2099Y1498D01*
X2100Y1497D01*
X2101Y1496D01*
X2102Y1495D01*
X2103Y1494D01*
X2103Y1493D01*
X2104Y1492D01*
X2105Y1491D01*
X2106Y1490D01*
X2107Y1489D01*
X2107Y1488D01*
X2108Y1487D01*
X2109Y1486D01*
X2110Y1485D01*
X2111Y1484D01*
X2111Y1483D01*
X2112Y1482D01*
X2113Y1481D01*
X2114Y1480D01*
X2114Y1479D01*
X2115Y1478D01*
X2116Y1477D01*
X2117Y1476D01*
X2117Y1475D01*
X2118Y1474D01*
X2119Y1473D01*
X2120Y1472D01*
X2120Y1471D01*
X2121Y1470D01*
X2122Y1469D01*
X2123Y1468D01*
X2124Y1467D01*
X2124Y1466D01*
X2125Y1465D01*
X2126Y1464D01*
X2127Y1463D01*
X2127Y1462D01*
X2128Y1461D01*
X2129Y1460D01*
X2130Y1459D01*
X2131Y1458D01*
X2131Y1457D01*
X2132Y1456D01*
X2133Y1455D01*
X2134Y1454D01*
X2134Y1453D01*
X2135Y1452D01*
X2136Y1451D01*
X2137Y1450D01*
X2138Y1449D01*
X2138Y1448D01*
X2139Y1447D01*
X2140Y1446D01*
X2141Y1445D01*
X2141Y1444D01*
X2142Y1443D01*
X2143Y1442D01*
X2144Y1441D01*
X2144Y1440D01*
X2145Y1439D01*
X2146Y1438D01*
X2147Y1437D01*
X2147Y1436D01*
X2148Y1435D01*
X2149Y1434D01*
X2150Y1433D01*
X2150Y1432D01*
X2151Y1431D01*
X2152Y1430D01*
X2152Y1429D01*
X2153Y1428D01*
X2154Y1427D01*
X2154Y1426D01*
X2155Y1425D01*
X2155Y1424D01*
X2156Y1423D01*
X2157Y1422D01*
X2157Y1421D01*
X2158Y1420D01*
X2158Y1419D01*
X2159Y1418D01*
X2159Y1417D01*
X2160Y1416D01*
X2160Y1415D01*
X2161Y1414D01*
X2161Y1413D01*
X2162Y1412D01*
X2162Y1411D01*
X2163Y1410D01*
X2163Y1409D01*
X2164Y1408D01*
X2164Y1406D01*
X2165Y1405D01*
X2165Y1404D01*
X2166Y1403D01*
X2166Y1401D01*
X2167Y1400D01*
X2167Y1399D01*
X2168Y1398D01*
X2168Y1395D01*
X2169Y1394D01*
X2169Y1392D01*
X2170Y1391D01*
X2170Y1389D01*
X2171Y1388D01*
X2171Y1386D01*
X2172Y1385D01*
X2172Y1382D01*
X2173Y1381D01*
X2173Y1379D01*
X2174Y1378D01*
X2174Y1375D01*
X2175Y1374D01*
X2175Y1371D01*
X2176Y1370D01*
X2176Y1366D01*
X2177Y1365D01*
X2177Y1362D01*
X2178Y1361D01*
X2178Y1357D01*
X2179Y1356D01*
X2179Y1352D01*
X2180Y1351D01*
X2180Y1347D01*
X2181Y1346D01*
X2181Y1341D01*
X2182Y1340D01*
X2182Y1335D01*
X2183Y1334D01*
X2183Y1329D01*
X2184Y1328D01*
X2184Y1322D01*
X2185Y1321D01*
X2185Y1314D01*
X2186Y1313D01*
X2186Y1305D01*
X2187Y1304D01*
X2187Y1295D01*
X2188Y1294D01*
X2188Y1283D01*
X2189Y1282D01*
X2189Y1278D01*
X2190Y1277D01*
X2190Y1273D01*
X2191Y1272D01*
X2191Y1269D01*
X2192Y1268D01*
X2192Y1264D01*
X2193Y1263D01*
X2193Y1260D01*
X2194Y1259D01*
X2194Y1255D01*
X2195Y1254D01*
X2195Y1250D01*
X2196Y1249D01*
X2196Y1246D01*
X2197Y1245D01*
X2197Y1241D01*
X2198Y1240D01*
X2198Y1237D01*
X2199Y1236D01*
X2199Y1232D01*
X2200Y1231D01*
X2200Y1228D01*
X2201Y1227D01*
X2201Y1223D01*
X2202Y1222D01*
X2202Y1219D01*
X2203Y1218D01*
X2203Y1214D01*
X2204Y1213D01*
X2204Y1209D01*
X2205Y1208D01*
X2205Y1205D01*
X2206Y1204D01*
X2206Y1199D01*
X2207Y1198D01*
X2207Y1194D01*
X2208Y1193D01*
X2208Y1188D01*
X2209Y1187D01*
X2209Y1184D01*
X2210Y1183D01*
X2210Y1179D01*
X2211Y1178D01*
X2211Y1175D01*
X2212Y1174D01*
X2212Y1172D01*
X2213Y1171D01*
X2213Y1169D01*
X2214Y1168D01*
X2214Y1166D01*
X2215Y1165D01*
X2215Y1163D01*
X2216Y1162D01*
X2216Y1160D01*
X2217Y1159D01*
X2217Y1158D01*
X2218Y1157D01*
X2218Y1155D01*
X2219Y1154D01*
X2219Y1153D01*
X2220Y1152D01*
X2220Y1150D01*
X2221Y1149D01*
X2221Y1148D01*
X2222Y1147D01*
X2222Y1145D01*
X2223Y1144D01*
X2223Y1143D01*
X2224Y1142D01*
X2224Y1141D01*
X2225Y1140D01*
X2225Y1138D01*
X2226Y1137D01*
X2226Y1136D01*
X2227Y1135D01*
X2227Y1133D01*
X2228Y1132D01*
X2228Y1131D01*
X2229Y1130D01*
X2229Y1128D01*
X2230Y1127D01*
X2230Y1126D01*
X2231Y1125D01*
X2231Y1123D01*
X2232Y1122D01*
X2232Y1120D01*
X2233Y1119D01*
X2233Y1118D01*
X2234Y1117D01*
X2234Y1115D01*
X2235Y1114D01*
X2235Y1113D01*
X2236Y1112D01*
X2236Y1110D01*
X2237Y1109D01*
X2237Y1107D01*
X2238Y1106D01*
X2238Y1105D01*
X2239Y1104D01*
X2239Y1102D01*
X2240Y1101D01*
X2240Y1099D01*
X2241Y1098D01*
X2241Y1096D01*
X2242Y1095D01*
X2242Y1094D01*
X2243Y1093D01*
X2243Y1091D01*
X2244Y1090D01*
X2244Y1088D01*
X2245Y1087D01*
X2245Y1084D01*
X2246Y1083D01*
X2246Y1080D01*
X2247Y1079D01*
X2247Y1076D01*
X2248Y1075D01*
X2248Y1071D01*
X2249Y1070D01*
X2249Y1067D01*
X2250Y1066D01*
X2250Y1062D01*
X2251Y1061D01*
X2251Y1057D01*
X2252Y1056D01*
X2252Y1051D01*
X2253Y1050D01*
X2253Y1045D01*
X2254Y1044D01*
X2254Y1038D01*
X2255Y1037D01*
X2255Y1030D01*
X2256Y1029D01*
X2256Y1018D01*
X2257Y1017D01*
X2257Y981D01*
X2256Y980D01*
X2256Y967D01*
X2255Y966D01*
X2255Y955D01*
X2254Y954D01*
X2254Y944D01*
X2253Y943D01*
X2253Y933D01*
X2252Y932D01*
X2252Y912D01*
X2253Y911D01*
X2253Y899D01*
X2254Y898D01*
X2254Y890D01*
X2255Y889D01*
X2255Y884D01*
X2256Y883D01*
X2256Y878D01*
X2257Y877D01*
X2257Y873D01*
X2258Y872D01*
X2258Y868D01*
X2259Y867D01*
X2259Y864D01*
X2260Y863D01*
X2260Y861D01*
X2261Y860D01*
X2261Y857D01*
X2262Y856D01*
X2262Y853D01*
X2263Y852D01*
X2263Y848D01*
X2264Y847D01*
X2264Y843D01*
X2265Y842D01*
X2265Y836D01*
X2266Y835D01*
X2266Y828D01*
X2267Y827D01*
X2267Y818D01*
X2268Y817D01*
X2268Y804D01*
X2269Y803D01*
X2269Y782D01*
X2270Y781D01*
X2270Y750D01*
X2271Y749D01*
X2271Y671D01*
X2270Y670D01*
X2270Y657D01*
X2269Y656D01*
X2269Y648D01*
X2268Y647D01*
X2268Y641D01*
X2267Y640D01*
X2267Y635D01*
X2266Y634D01*
X2266Y630D01*
X2265Y629D01*
X2265Y625D01*
X2264Y624D01*
X2264Y621D01*
X2263Y620D01*
X2263Y617D01*
X2262Y616D01*
X2262Y613D01*
X2261Y612D01*
X2261Y609D01*
X2260Y608D01*
X2260Y605D01*
X2259Y604D01*
X2259Y602D01*
X2258Y601D01*
X2258Y599D01*
X2257Y598D01*
X2257Y595D01*
X2256Y594D01*
X2256Y592D01*
X2255Y591D01*
X2255Y589D01*
X2254Y588D01*
X2254Y586D01*
X2253Y585D01*
X2253Y583D01*
X2252Y582D01*
X2252Y580D01*
X2251Y579D01*
X2251Y578D01*
X2250Y577D01*
X2250Y575D01*
X2249Y574D01*
X2249Y572D01*
X2248Y571D01*
X2248Y570D01*
X2247Y569D01*
X2247Y567D01*
X2246Y566D01*
X2246Y564D01*
X2245Y563D01*
X2245Y562D01*
X2244Y561D01*
X2244Y559D01*
X2243Y558D01*
X2243Y557D01*
X2242Y556D01*
X2242Y555D01*
X2241Y554D01*
X2241Y552D01*
X2240Y551D01*
X2240Y550D01*
X2239Y549D01*
X2239Y548D01*
X2238Y547D01*
X2238Y546D01*
X2237Y545D01*
X2237Y543D01*
X2236Y542D01*
X2236Y541D01*
X2235Y540D01*
X2235Y539D01*
X2234Y538D01*
X2234Y537D01*
X2233Y536D01*
X2233Y535D01*
X2232Y534D01*
X2232Y533D01*
X2231Y532D01*
X2231Y531D01*
X2230Y530D01*
X2230Y529D01*
X2229Y528D01*
X2229Y527D01*
X2228Y526D01*
X2228Y525D01*
X2227Y524D01*
X2227Y523D01*
X2226Y522D01*
X2226Y521D01*
X2225Y520D01*
X2225Y519D01*
X2224Y518D01*
X2224Y517D01*
X2223Y516D01*
X2223Y515D01*
X2222Y514D01*
X2222Y513D01*
X2221Y512D01*
X2221Y511D01*
X2220Y510D01*
X2219Y509D01*
X2219Y508D01*
X2218Y507D01*
X2218Y506D01*
X2217Y505D01*
X2217Y504D01*
X2216Y503D01*
X2216Y502D01*
X2215Y501D01*
X2214Y500D01*
X2214Y499D01*
X2213Y498D01*
X2213Y497D01*
X2212Y496D01*
X2212Y495D01*
X2211Y494D01*
X2210Y493D01*
X2210Y492D01*
X2209Y491D01*
X2209Y490D01*
X2208Y489D01*
X2207Y488D01*
X2207Y487D01*
X2206Y486D01*
X2206Y485D01*
X2205Y484D01*
X2204Y483D01*
X2204Y482D01*
X2203Y481D01*
X2203Y480D01*
X2202Y479D01*
X2201Y478D01*
X2201Y477D01*
X2200Y476D01*
X2200Y475D01*
X2199Y474D01*
X2198Y473D01*
X2198Y472D01*
X2197Y471D01*
X2196Y470D01*
X2196Y469D01*
X2195Y468D01*
X2194Y467D01*
X2194Y466D01*
X2193Y465D01*
X2193Y464D01*
X2192Y463D01*
X2191Y462D01*
X2191Y461D01*
X2190Y460D01*
X2189Y459D01*
X2189Y458D01*
X2188Y457D01*
X2187Y456D01*
X2187Y455D01*
X2186Y454D01*
X2185Y453D01*
X2185Y452D01*
X2184Y451D01*
X2183Y450D01*
X2183Y449D01*
X2182Y448D01*
X2181Y447D01*
X2181Y446D01*
X2180Y445D01*
X2179Y444D01*
X2179Y443D01*
X2178Y442D01*
X2177Y441D01*
X2176Y440D01*
X2176Y439D01*
X2175Y438D01*
X2174Y437D01*
X2174Y436D01*
X2173Y435D01*
X2172Y434D01*
X2172Y433D01*
X2171Y432D01*
X2170Y431D01*
X2169Y430D01*
X2169Y429D01*
X2168Y428D01*
X2167Y427D01*
X2167Y426D01*
X2166Y425D01*
X2165Y424D01*
X2164Y423D01*
X2164Y422D01*
X2163Y421D01*
X2162Y420D01*
X2162Y419D01*
X2161Y418D01*
X2160Y417D01*
X2159Y416D01*
X2159Y415D01*
X2158Y414D01*
X2157Y413D01*
X2156Y412D01*
X2156Y411D01*
X2155Y410D01*
X2154Y409D01*
X2154Y408D01*
X2153Y407D01*
X2152Y406D01*
X2151Y405D01*
X2151Y404D01*
X2150Y403D01*
X2149Y402D01*
X2148Y401D01*
X2148Y400D01*
X2147Y399D01*
X2146Y398D01*
X2145Y397D01*
X2145Y396D01*
X2144Y395D01*
X2143Y394D01*
X2142Y393D01*
X2142Y392D01*
X2141Y391D01*
X2140Y390D01*
X2139Y389D01*
X2139Y388D01*
X2138Y387D01*
X2137Y386D01*
X2136Y385D01*
X2136Y384D01*
X2135Y383D01*
X2134Y382D01*
X2133Y381D01*
X2132Y380D01*
X2132Y379D01*
X2131Y378D01*
X2130Y377D01*
X2129Y376D01*
X2129Y375D01*
X2128Y374D01*
X2127Y373D01*
X2126Y372D01*
X2125Y371D01*
X2125Y370D01*
X2124Y369D01*
X2123Y368D01*
X2122Y367D01*
X2121Y366D01*
X2120Y365D01*
X2120Y364D01*
X2119Y363D01*
X2118Y362D01*
X2117Y361D01*
X2116Y360D01*
X2116Y359D01*
X2115Y358D01*
X2114Y357D01*
X2113Y356D01*
X2112Y355D01*
X2111Y354D01*
X2110Y353D01*
X2109Y352D01*
X2109Y351D01*
X2108Y350D01*
X2107Y349D01*
X2106Y348D01*
X2105Y347D01*
X2104Y346D01*
X2103Y345D01*
X2102Y344D01*
X2101Y343D01*
X2100Y342D01*
X2099Y341D01*
X2098Y340D01*
X2097Y339D01*
X2096Y338D01*
X2095Y337D01*
X2094Y336D01*
X2093Y335D01*
X2092Y334D01*
X2091Y333D01*
X2090Y332D01*
X2089Y331D01*
X2088Y330D01*
X2087Y329D01*
X2086Y328D01*
X2085Y327D01*
X2084Y326D01*
X2083Y325D01*
X2082Y324D01*
X2081Y323D01*
X2080Y322D01*
X2079Y321D01*
X2078Y320D01*
X2077Y320D01*
X2076Y319D01*
X2075Y318D01*
X2074Y317D01*
X2073Y316D01*
X2072Y315D01*
X2071Y314D01*
X2070Y313D01*
X2069Y312D01*
X2068Y311D01*
X2067Y311D01*
X2066Y310D01*
X2065Y309D01*
X2064Y308D01*
X2063Y307D01*
X2062Y306D01*
X2061Y305D01*
X2060Y304D01*
X2059Y304D01*
X2058Y303D01*
X2057Y302D01*
X2056Y301D01*
X2055Y300D01*
X2054Y299D01*
X2053Y298D01*
X2052Y297D01*
X2051Y297D01*
X2050Y296D01*
X2049Y295D01*
X2048Y294D01*
X2047Y293D01*
X2046Y292D01*
X2045Y292D01*
X2044Y291D01*
X2043Y290D01*
X2042Y289D01*
X2041Y288D01*
X2040Y287D01*
X2039Y286D01*
X2038Y286D01*
X2037Y285D01*
X2036Y284D01*
X2035Y283D01*
X2034Y282D01*
X2033Y282D01*
X2032Y281D01*
X2031Y280D01*
X2030Y279D01*
X2029Y278D01*
X2028Y277D01*
X2027Y277D01*
X2026Y276D01*
X2025Y275D01*
X2024Y274D01*
X2023Y273D01*
X2022Y273D01*
X2021Y272D01*
X2020Y271D01*
X2019Y270D01*
X2018Y269D01*
X2017Y269D01*
X2016Y268D01*
X2015Y267D01*
X2014Y266D01*
X2013Y265D01*
X2012Y265D01*
X2011Y264D01*
X2010Y263D01*
X2009Y262D01*
X2008Y261D01*
X2007Y261D01*
X2006Y260D01*
X2005Y259D01*
X2004Y258D01*
X2003Y258D01*
X2002Y257D01*
X2001Y256D01*
X2000Y255D01*
X1999Y255D01*
X1998Y254D01*
X1997Y253D01*
X1996Y252D01*
X1995Y252D01*
X1994Y251D01*
X1993Y250D01*
X1992Y249D01*
X1991Y249D01*
X1990Y248D01*
X1989Y247D01*
X1988Y246D01*
X1987Y246D01*
X1986Y245D01*
X1985Y244D01*
X1984Y243D01*
X1983Y243D01*
X1982Y242D01*
X1981Y241D01*
X1980Y240D01*
X1979Y240D01*
X1978Y239D01*
X1977Y238D01*
X1976Y237D01*
X1975Y237D01*
X1974Y236D01*
X1973Y235D01*
X1972Y235D01*
X1971Y234D01*
X1970Y233D01*
X1969Y233D01*
X1968Y232D01*
X1967Y231D01*
X1966Y230D01*
X1965Y230D01*
X1964Y229D01*
X1963Y228D01*
X1962Y228D01*
X1961Y227D01*
X1960Y226D01*
X1959Y225D01*
X1958Y225D01*
X1957Y224D01*
X1956Y223D01*
X1955Y223D01*
X1954Y222D01*
X1953Y221D01*
X1952Y221D01*
X1951Y220D01*
X1950Y219D01*
X1949Y219D01*
X1948Y218D01*
X1947Y217D01*
X1946Y217D01*
X1945Y216D01*
X1944Y215D01*
X1943Y215D01*
X1942Y214D01*
X1941Y213D01*
X1940Y213D01*
X1939Y212D01*
X1938Y211D01*
X1937Y211D01*
X1936Y210D01*
X1935Y209D01*
X1934Y209D01*
X1933Y208D01*
X1932Y207D01*
X1931Y207D01*
X1930Y206D01*
X1929Y205D01*
X1928Y205D01*
X1927Y204D01*
X1926Y204D01*
X1925Y203D01*
X1924Y202D01*
X1923Y202D01*
X1922Y201D01*
X1921Y200D01*
X1920Y200D01*
X1919Y199D01*
X1918Y199D01*
X1917Y198D01*
X1916Y197D01*
X1915Y197D01*
X1914Y196D01*
X1913Y195D01*
X1912Y195D01*
X1911Y194D01*
X1910Y194D01*
X1909Y193D01*
X1908Y192D01*
X1907Y192D01*
X1906Y191D01*
X1905Y191D01*
X1904Y190D01*
X1903Y189D01*
X1902Y189D01*
X1901Y188D01*
X1900Y188D01*
X1899Y187D01*
X1898Y186D01*
X1897Y186D01*
X1896Y185D01*
X1895Y185D01*
X1894Y184D01*
X1893Y184D01*
X1892Y183D01*
X1891Y182D01*
X1890Y182D01*
X1889Y181D01*
X1888Y181D01*
X1887Y180D01*
X1886Y179D01*
X1885Y179D01*
X1884Y178D01*
X1883Y178D01*
X1882Y177D01*
X1881Y177D01*
X1880Y176D01*
X1879Y176D01*
X1878Y175D01*
X1877Y174D01*
X1876Y174D01*
X1875Y173D01*
X1874Y173D01*
X1873Y172D01*
X1872Y172D01*
X1871Y171D01*
X1870Y171D01*
X1869Y170D01*
X1868Y169D01*
X1867Y169D01*
X1866Y168D01*
X1865Y168D01*
X1864Y167D01*
X1863Y167D01*
X1862Y166D01*
X1861Y166D01*
X1860Y165D01*
X1859Y165D01*
X1858Y164D01*
X1857Y164D01*
X1856Y163D01*
X1855Y163D01*
X1854Y162D01*
X1853Y162D01*
X1852Y161D01*
X1851Y160D01*
X1850Y160D01*
X1849Y159D01*
X1848Y159D01*
X1847Y158D01*
X1846Y158D01*
X1845Y157D01*
X1844Y157D01*
X1843Y156D01*
X1842Y156D01*
X1841Y155D01*
X1840Y155D01*
X1839Y154D01*
X1838Y154D01*
X1837Y153D01*
X1836Y153D01*
X1835Y152D01*
X1834Y152D01*
X1833Y151D01*
X1832Y151D01*
X1831Y150D01*
X1830Y150D01*
X1829Y149D01*
X1828Y149D01*
X1827Y148D01*
X1826Y148D01*
X1825Y148D01*
X1824Y147D01*
X1823Y147D01*
X1822Y146D01*
X1821Y146D01*
X1820Y145D01*
X1819Y145D01*
X1818Y144D01*
X1817Y144D01*
X1816Y143D01*
X1815Y143D01*
X1814Y142D01*
X1813Y142D01*
X1812Y141D01*
X1811Y141D01*
X1810Y141D01*
X1809Y140D01*
X1808Y140D01*
X1807Y139D01*
X1806Y139D01*
X1805Y138D01*
X1804Y138D01*
X1803Y137D01*
X1802Y137D01*
X1801Y137D01*
X1800Y136D01*
X1799Y136D01*
X1798Y135D01*
X1797Y135D01*
X1796Y134D01*
X1795Y134D01*
X1794Y133D01*
X1793Y133D01*
X1792Y133D01*
X1791Y132D01*
X1790Y132D01*
X1789Y131D01*
X1788Y131D01*
X1787Y130D01*
X1786Y130D01*
X1785Y129D01*
X1784Y129D01*
X1783Y128D01*
X1782Y128D01*
X1781Y128D01*
X1780Y127D01*
X1779Y127D01*
X1778Y126D01*
X1777Y126D01*
X1776Y125D01*
X1775Y125D01*
X1774Y124D01*
X1773Y124D01*
X1772Y124D01*
X1771Y123D01*
X1770Y123D01*
X1769Y122D01*
X1768Y122D01*
X1767Y121D01*
X1766Y121D01*
X1765Y120D01*
X1764Y120D01*
X1763Y119D01*
X1762Y119D01*
X1761Y118D01*
X1760Y118D01*
X1759Y117D01*
X1758Y117D01*
X1757Y116D01*
X1756Y116D01*
X1755Y115D01*
X1754Y115D01*
X1753Y114D01*
X1752Y114D01*
X1751Y113D01*
X1750Y113D01*
X1749Y112D01*
X1748Y112D01*
X1747Y112D01*
X1746Y111D01*
X1745Y111D01*
X1744Y110D01*
X1743Y110D01*
X1742Y109D01*
X1741Y109D01*
X1740Y108D01*
X1739Y108D01*
X1738Y107D01*
X1737Y107D01*
X1736Y106D01*
X1735Y106D01*
X1734Y105D01*
X1733Y105D01*
X1732Y104D01*
X1731Y104D01*
X1730Y103D01*
X1729Y103D01*
X1728Y102D01*
X1727Y102D01*
X1726Y101D01*
X1725Y101D01*
X1724Y100D01*
X1723Y100D01*
X1722Y100D01*
X1721Y99D01*
X1720Y99D01*
X1719Y98D01*
X1718Y98D01*
X1717Y97D01*
X1716Y97D01*
X1715Y96D01*
X1714Y96D01*
X1713Y95D01*
X1712Y95D01*
X1711Y95D01*
X1710Y94D01*
X1709Y94D01*
X1708Y93D01*
X1707Y93D01*
X1706Y92D01*
X1705Y92D01*
X1704Y92D01*
X1703Y91D01*
X1702Y91D01*
X1701Y90D01*
X1700Y90D01*
X1699Y90D01*
X1698Y89D01*
X1697Y89D01*
X1696Y88D01*
X1695Y88D01*
X1694Y87D01*
X1693Y87D01*
X1692Y87D01*
X1691Y86D01*
X1690Y86D01*
X1689Y85D01*
X1688Y85D01*
X1687Y85D01*
X1686Y84D01*
X1685Y84D01*
X1684Y84D01*
X1683Y83D01*
X1682Y83D01*
X1681Y83D01*
X1680Y82D01*
X1679Y82D01*
X1678Y81D01*
X1677Y81D01*
X1676Y81D01*
X1675Y80D01*
X1674Y80D01*
X1673Y80D01*
X1672Y79D01*
X1671Y79D01*
X1670Y79D01*
X1669Y78D01*
X1668Y78D01*
X1667Y77D01*
X1666Y77D01*
X1665Y77D01*
X1664Y76D01*
X1663Y76D01*
X1662Y76D01*
X1661Y75D01*
X1660Y75D01*
X1659Y75D01*
X1658Y74D01*
X1657Y74D01*
X1656Y74D01*
X1655Y74D01*
X1654Y73D01*
X1653Y73D01*
X1652Y73D01*
X1651Y72D01*
X1650Y72D01*
X1649Y72D01*
X1648Y71D01*
X1647Y71D01*
X1646Y71D01*
X1645Y70D01*
X1644Y70D01*
X1643Y70D01*
X1642Y69D01*
X1641Y69D01*
X1640Y69D01*
X1639Y68D01*
X1638Y68D01*
X1637Y68D01*
X1636Y68D01*
X1635Y67D01*
X1634Y67D01*
X1633Y67D01*
X1632Y66D01*
X1631Y66D01*
X1630Y66D01*
X1629Y66D01*
X1628Y65D01*
X1627Y65D01*
X1626Y65D01*
X1625Y64D01*
X1624Y64D01*
X1623Y64D01*
X1622Y64D01*
X1621Y63D01*
X1620Y63D01*
X1619Y63D01*
X1618Y62D01*
X1617Y62D01*
X1616Y62D01*
X1615Y62D01*
X1614Y61D01*
X1613Y61D01*
X1612Y61D01*
X1611Y60D01*
X1610Y60D01*
X1609Y60D01*
X1608Y60D01*
X1607Y59D01*
X1606Y59D01*
X1605Y59D01*
X1604Y58D01*
X1603Y58D01*
X1602Y58D01*
X1601Y58D01*
X1600Y57D01*
X1599Y57D01*
X1598Y57D01*
X1597Y57D01*
X1596Y56D01*
X1595Y56D01*
X1594Y56D01*
X1593Y55D01*
X1592Y55D01*
X1591Y55D01*
X1590Y55D01*
X1589Y54D01*
X1588Y54D01*
X1587Y54D01*
X1586Y54D01*
X1585Y53D01*
X1584Y53D01*
X1583Y53D01*
X1582Y52D01*
X1581Y52D01*
X1580Y52D01*
X1579Y52D01*
X1578Y51D01*
X1577Y51D01*
X1576Y51D01*
X1575Y51D01*
X1574Y50D01*
X1573Y50D01*
X1572Y50D01*
X1571Y50D01*
X1570Y49D01*
X1569Y49D01*
X1568Y49D01*
X1567Y49D01*
X1566Y48D01*
X1565Y48D01*
X1564Y48D01*
X1563Y48D01*
X1562Y47D01*
X1561Y47D01*
X1560Y47D01*
X1559Y47D01*
X1558Y46D01*
X1557Y46D01*
X1556Y46D01*
X1555Y46D01*
X1554Y45D01*
X1553Y45D01*
X1552Y45D01*
X1551Y45D01*
X1550Y44D01*
X1549Y44D01*
X1548Y44D01*
X1547Y44D01*
X1546Y43D01*
X1545Y43D01*
X1544Y43D01*
X1543Y43D01*
X1542Y42D01*
X1541Y42D01*
X1540Y42D01*
X1539Y42D01*
X1538Y41D01*
X1537Y41D01*
X1536Y41D01*
X1535Y41D01*
X1534Y40D01*
X1533Y40D01*
X1532Y40D01*
X1531Y40D01*
X1530Y39D01*
X1529Y39D01*
X1528Y39D01*
X1527Y39D01*
X1526Y39D01*
X1525Y38D01*
X1524Y38D01*
X1523Y38D01*
X1522Y38D01*
X1521Y37D01*
X1520Y37D01*
X1519Y37D01*
X1518Y37D01*
X1517Y36D01*
X1516Y36D01*
X1515Y36D01*
X1514Y36D01*
X1513Y36D01*
X1512Y35D01*
X1511Y35D01*
X1510Y35D01*
X1509Y35D01*
X1508Y35D01*
X1507Y34D01*
X1506Y34D01*
X1505Y34D01*
X1504Y34D01*
X1503Y33D01*
X1502Y33D01*
X1501Y33D01*
X1500Y33D01*
X1499Y33D01*
X1498Y32D01*
X1497Y32D01*
X1496Y32D01*
X1495Y32D01*
X1494Y32D01*
X1493Y31D01*
X1492Y31D01*
X1491Y31D01*
X1490Y31D01*
X1489Y31D01*
X1488Y30D01*
X1487Y30D01*
X1486Y30D01*
X1485Y30D01*
X1484Y30D01*
X1483Y29D01*
X1482Y29D01*
X1481Y29D01*
X1480Y29D01*
X1479Y29D01*
X1478Y28D01*
X1477Y28D01*
X1476Y28D01*
X1475Y28D01*
X1474Y28D01*
X1473Y27D01*
X1472Y27D01*
X1471Y27D01*
X1470Y27D01*
X1469Y27D01*
X1468Y27D01*
X1467Y26D01*
X1466Y26D01*
X1465Y26D01*
X1464Y26D01*
X1463Y26D01*
X1462Y25D01*
X1461Y25D01*
X1460Y25D01*
X1459Y25D01*
X1458Y25D01*
X1457Y25D01*
X1456Y24D01*
X1455Y24D01*
X1454Y24D01*
X1453Y24D01*
X1452Y24D01*
X1451Y24D01*
X1450Y23D01*
X1449Y23D01*
X1448Y23D01*
X1447Y23D01*
X1446Y23D01*
X1445Y23D01*
X1444Y22D01*
X1443Y22D01*
X1442Y22D01*
X1441Y22D01*
X1440Y22D01*
X1439Y22D01*
X1438Y22D01*
X1437Y21D01*
X1436Y21D01*
X1435Y21D01*
X1434Y21D01*
X1433Y21D01*
X1432Y21D01*
X1431Y21D01*
X1430Y20D01*
X1429Y20D01*
X1428Y20D01*
X1427Y20D01*
X1426Y20D01*
X1425Y20D01*
X1424Y20D01*
X1423Y19D01*
X1422Y19D01*
X1421Y19D01*
X1420Y19D01*
X1419Y19D01*
X1418Y19D01*
X1417Y19D01*
X1416Y19D01*
X1415Y18D01*
X1414Y18D01*
X1413Y18D01*
X1412Y18D01*
X1411Y18D01*
X1410Y18D01*
X1409Y18D01*
X1408Y18D01*
X1407Y17D01*
X1406Y17D01*
X1405Y17D01*
X1404Y17D01*
X1403Y17D01*
X1402Y17D01*
X1401Y17D01*
X1400Y17D01*
X1399Y17D01*
X1398Y16D01*
X1397Y16D01*
X1396Y16D01*
X1395Y16D01*
X1394Y16D01*
X1393Y16D01*
X1392Y16D01*
X1391Y16D01*
X1390Y16D01*
X1389Y16D01*
X1388Y15D01*
X1387Y15D01*
X1386Y15D01*
X1385Y15D01*
X1384Y15D01*
X1383Y15D01*
X1382Y15D01*
X1381Y15D01*
X1380Y15D01*
X1379Y15D01*
X1378Y15D01*
X1377Y14D01*
X1376Y14D01*
X1375Y14D01*
X1374Y14D01*
X1373Y14D01*
X1372Y14D01*
X1371Y14D01*
X1370Y14D01*
X1369Y14D01*
X1368Y14D01*
X1367Y14D01*
X1366Y14D01*
X1365Y13D01*
X1364Y13D01*
X1363Y13D01*
X1362Y13D01*
X1361Y13D01*
X1360Y13D01*
X1359Y13D01*
X1358Y13D01*
X1357Y13D01*
X1356Y13D01*
X1355Y13D01*
X1354Y13D01*
X1353Y13D01*
X1352Y13D01*
X1351Y12D01*
X1350Y12D01*
X1349Y12D01*
X1348Y12D01*
X1347Y12D01*
X1346Y12D01*
X1345Y12D01*
X1344Y12D01*
X1343Y12D01*
X1342Y12D01*
X1341Y12D01*
X1340Y12D01*
X1339Y12D01*
X1338Y12D01*
X1337Y12D01*
X1336Y11D01*
X1335Y11D01*
X1334Y11D01*
X1333Y11D01*
X1332Y11D01*
X1331Y11D01*
X1330Y11D01*
X1329Y11D01*
X1328Y11D01*
X1327Y11D01*
X1326Y11D01*
X1325Y11D01*
X1324Y11D01*
X1323Y11D01*
X1322Y11D01*
X1321Y10D01*
X1320Y10D01*
X1319Y10D01*
X1318Y10D01*
X1317Y10D01*
X1316Y10D01*
X1315Y10D01*
X1314Y10D01*
X1313Y10D01*
X1312Y10D01*
X1311Y10D01*
X1310Y10D01*
X1309Y10D01*
X1308Y10D01*
X1307Y9D01*
X1306Y9D01*
X1305Y9D01*
X1304Y9D01*
X1303Y9D01*
X1302Y9D01*
X1301Y9D01*
X1300Y9D01*
X1299Y9D01*
X1298Y9D01*
X1297Y9D01*
X1296Y9D01*
X1295Y9D01*
X1294Y9D01*
X1293Y8D01*
X1292Y8D01*
X1291Y8D01*
X1290Y8D01*
X1289Y8D01*
X1288Y8D01*
X1287Y8D01*
X1286Y8D01*
X1285Y8D01*
X1284Y8D01*
X1283Y8D01*
X1282Y8D01*
X1281Y8D01*
X1280Y8D01*
X1279Y7D01*
X1278Y7D01*
X1277Y7D01*
X1276Y7D01*
X1275Y7D01*
X1274Y7D01*
X1273Y7D01*
X1272Y7D01*
X1271Y7D01*
X1270Y7D01*
X1269Y7D01*
X1268Y7D01*
X1267Y7D01*
X1266Y6D01*
X1265Y6D01*
X1264Y6D01*
X1263Y6D01*
X1262Y6D01*
X1261Y6D01*
X1260Y6D01*
X1259Y6D01*
X1258Y6D01*
X1257Y6D01*
X1256Y6D01*
X1255Y6D01*
X1254Y6D01*
X1253Y5D01*
X1252Y5D01*
X1251Y5D01*
X1250Y5D01*
X1249Y5D01*
X1248Y5D01*
X1247Y5D01*
X1246Y5D01*
X1245Y5D01*
X1244Y5D01*
X1243Y5D01*
X1242Y5D01*
X1241Y5D01*
X1240Y5D01*
X1239Y4D01*
X1238Y4D01*
X1237Y4D01*
X1236Y4D01*
X1235Y4D01*
X1234Y4D01*
X1233Y4D01*
X1232Y4D01*
X1231Y4D01*
X1230Y4D01*
X1229Y4D01*
X1228Y4D01*
X1227Y4D01*
X1226Y4D01*
X1225Y3D01*
X1224Y3D01*
X1223Y3D01*
X1222Y3D01*
X1221Y3D01*
X1220Y3D01*
X1219Y3D01*
X1218Y3D01*
X1217Y3D01*
X1216Y3D01*
X1215Y3D01*
X1214Y3D01*
X1213Y3D01*
X1212Y3D01*
X1211Y3D01*
X1210Y3D01*
X1209Y2D01*
X1208Y2D01*
X1207Y2D01*
X1206Y2D01*
X1205Y2D01*
X1204Y2D01*
X1203Y2D01*
X1202Y2D01*
X1201Y2D01*
X1200Y2D01*
X1199Y2D01*
X1198Y2D01*
X1197Y2D01*
X1196Y2D01*
X1195Y2D01*
X1194Y2D01*
X1193Y2D01*
X1192Y2D01*
X1191Y1D01*
X1190Y1D01*
X1189Y1D01*
X1188Y1D01*
X1187Y1D01*
X1186Y1D01*
X1185Y1D01*
X1184Y1D01*
X1183Y1D01*
X1182Y1D01*
X1181Y1D01*
X1180Y1D01*
X1179Y1D01*
X1178Y1D01*
X1177Y1D01*
X1176Y1D01*
X1175Y1D01*
X1174Y1D01*
X1173Y1D01*
X1172Y1D01*
X1171Y1D01*
X1170Y1D01*
X1169Y1D01*
X1168Y1D01*
X1167Y1D01*
X1166Y1D01*
X1165Y1D01*
X1164Y1D01*
X1163Y1D01*
X1162Y1D01*
X1161Y1D01*
X1160Y1D01*
X1159Y1D01*
X1158Y1D01*
X1157Y1D01*
X1156Y1D01*
X1155Y1D01*
X1154Y1D01*
X1153Y1D01*
X1152Y1D01*
X1151Y1D01*
X1150Y1D01*
X1149Y1D01*
X1148Y1D01*
X1147Y2D01*
X1146Y2D01*
X1145Y2D01*
X1144Y2D01*
X1143Y2D01*
X1142Y2D01*
X1141Y2D01*
X1140Y2D01*
X1139Y2D01*
X1138Y2D01*
X1137Y2D01*
X1136Y2D01*
X1135Y2D01*
X1134Y2D01*
X1133Y2D01*
X1132Y2D01*
X1131Y2D01*
X1130Y2D01*
X1129Y2D01*
X1128Y2D01*
X1127Y2D01*
X1126Y2D01*
X1125Y2D01*
X1124Y2D01*
X1123Y2D01*
X1122Y2D01*
X1121Y2D01*
X1120Y2D01*
X1119Y2D01*
X1118Y2D01*
X1117Y2D01*
X1116Y2D01*
X1115Y2D01*
X1114Y2D01*
X1113Y2D01*
X1112Y3D01*
X1111Y3D01*
X1110Y3D01*
X1109Y3D01*
X1108Y3D01*
X1107Y3D01*
X1106Y3D01*
X1105Y3D01*
X1104Y3D01*
X1103Y3D01*
X1102Y3D01*
X1101Y3D01*
X1100Y3D01*
X1099Y3D01*
X1098Y3D01*
X1097Y3D01*
X1096Y3D01*
X1095Y3D01*
X1094Y3D01*
X1093Y3D01*
X1092Y3D01*
X1091Y3D01*
X1090Y3D01*
X1089Y3D01*
X1088Y3D01*
X1087Y3D01*
X1086Y3D01*
X1085Y3D01*
X1084Y3D01*
X1083Y3D01*
X1082Y3D01*
X1081Y3D01*
X1080Y3D01*
X1079Y3D01*
X1078Y3D01*
X1077Y4D01*
X1076Y4D01*
X1075Y4D01*
X1074Y4D01*
X1073Y4D01*
X1072Y4D01*
X1071Y4D01*
X1070Y4D01*
X1069Y4D01*
X1068Y4D01*
X1067Y4D01*
X1066Y4D01*
X1065Y4D01*
X1064Y4D01*
X1063Y4D01*
X1062Y4D01*
X1061Y4D01*
X1060Y4D01*
X1059Y4D01*
X1058Y4D01*
X1057Y4D01*
X1056Y4D01*
X1055Y4D01*
X1054Y4D01*
X1053Y4D01*
X1052Y4D01*
X1051Y4D01*
X1050Y4D01*
X1049Y4D01*
X1048Y4D01*
X1047Y4D01*
X1046Y4D01*
X1045Y4D01*
X1044Y4D01*
X1043Y4D01*
X1042Y5D01*
X1041Y5D01*
X1040Y5D01*
X1039Y5D01*
X1038Y5D01*
X1037Y5D01*
X1036Y5D01*
X1035Y5D01*
X1034Y5D01*
X1033Y5D01*
X1032Y5D01*
X1031Y5D01*
X1030Y5D01*
X1029Y5D01*
X1028Y5D01*
X1027Y5D01*
X1026Y5D01*
X1025Y5D01*
X1024Y5D01*
X1023Y5D01*
X1022Y5D01*
X1021Y5D01*
X1020Y5D01*
X1019Y5D01*
X1018Y6D01*
X1017Y6D01*
X1016Y6D01*
X1015Y6D01*
X1014Y6D01*
X1013Y6D01*
X1012Y6D01*
X1011Y6D01*
X1010Y6D01*
X1009Y6D01*
X1008Y6D01*
X1007Y6D01*
X1006Y6D01*
X1005Y6D01*
X1004Y6D01*
X1003Y6D01*
X1002Y6D01*
X1001Y7D01*
X1000Y7D01*
X999Y7D01*
X998Y7D01*
X997Y7D01*
X996Y7D01*
X995Y7D01*
X994Y7D01*
X993Y7D01*
X992Y7D01*
X991Y7D01*
X990Y7D01*
X989Y7D01*
X988Y7D01*
X987Y7D01*
X986Y7D01*
X985Y7D01*
X984Y8D01*
X983Y8D01*
X982Y8D01*
X981Y8D01*
X980Y8D01*
X979Y8D01*
X978Y8D01*
X977Y8D01*
X976Y8D01*
X975Y8D01*
X974Y8D01*
X973Y8D01*
X972Y8D01*
X971Y8D01*
X970Y8D01*
X969Y8D01*
X968Y9D01*
X967Y9D01*
X966Y9D01*
X965Y9D01*
X964Y9D01*
X963Y9D01*
X962Y9D01*
X961Y9D01*
X960Y9D01*
X959Y9D01*
X958Y9D01*
X957Y9D01*
X956Y9D01*
X955Y9D01*
X954Y9D01*
X953Y9D01*
X952Y9D01*
X951Y10D01*
X950Y10D01*
X949Y10D01*
X948Y10D01*
X947Y10D01*
X946Y10D01*
X945Y10D01*
X944Y10D01*
X943Y10D01*
X942Y10D01*
X941Y10D01*
X940Y10D01*
X939Y10D01*
X938Y10D01*
X937Y10D01*
X936Y10D01*
X935Y11D01*
X934Y11D01*
X933Y11D01*
X932Y11D01*
X931Y11D01*
X930Y11D01*
X929Y11D01*
X928Y11D01*
X927Y11D01*
X926Y11D01*
X925Y11D01*
X924Y11D01*
X923Y11D01*
X922Y11D01*
X921Y11D01*
X920Y11D01*
X919Y11D01*
X918Y12D01*
X917Y12D01*
X916Y12D01*
X915Y12D01*
X914Y12D01*
X913Y12D01*
X912Y12D01*
X911Y12D01*
X910Y12D01*
X909Y12D01*
X908Y12D01*
X907Y12D01*
X906Y12D01*
X905Y12D01*
X904Y12D01*
X903Y13D01*
X902Y13D01*
X901Y13D01*
X900Y13D01*
X899Y13D01*
X898Y13D01*
X897Y14D01*
X896Y14D01*
X895Y14D01*
X894Y14D01*
X893Y14D01*
X892Y14D01*
X891Y14D01*
X890Y15D01*
X889Y15D01*
X888Y15D01*
X887Y15D01*
X886Y15D01*
X885Y15D01*
X884Y16D01*
X883Y16D01*
X882Y16D01*
X881Y16D01*
X880Y16D01*
X879Y16D01*
X878Y16D01*
X877Y17D01*
X876Y17D01*
X875Y17D01*
X874Y17D01*
X873Y17D01*
X872Y17D01*
X871Y18D01*
X870Y18D01*
X869Y18D01*
X868Y18D01*
X867Y18D01*
X866Y18D01*
X865Y19D01*
X864Y19D01*
X863Y19D01*
X862Y19D01*
X861Y19D01*
X860Y19D01*
X859Y19D01*
X858Y20D01*
X857Y20D01*
X856Y20D01*
X855Y20D01*
X854Y20D01*
X853Y20D01*
X852Y21D01*
X851Y21D01*
X850Y21D01*
X849Y21D01*
X848Y21D01*
X847Y21D01*
X846Y21D01*
X845Y22D01*
X844Y22D01*
X843Y22D01*
X842Y22D01*
X841Y22D01*
X840Y22D01*
X839Y23D01*
X838Y23D01*
X837Y23D01*
X836Y23D01*
X835Y23D01*
X834Y23D01*
X833Y23D01*
X832Y24D01*
X831Y24D01*
X830Y24D01*
X829Y24D01*
X828Y24D01*
X827Y24D01*
X826Y25D01*
X825Y25D01*
X824Y25D01*
X823Y25D01*
X822Y25D01*
X821Y25D01*
X820Y26D01*
X819Y26D01*
X818Y26D01*
X817Y26D01*
X816Y26D01*
X815Y26D01*
X814Y26D01*
X813Y27D01*
X812Y27D01*
X811Y27D01*
X810Y27D01*
X809Y27D01*
X808Y27D01*
X807Y28D01*
X806Y28D01*
X805Y28D01*
X804Y28D01*
X803Y28D01*
X802Y28D01*
X801Y28D01*
X800Y29D01*
X799Y29D01*
X798Y29D01*
X797Y29D01*
X796Y29D01*
X795Y29D01*
X794Y30D01*
X793Y30D01*
X792Y30D01*
X791Y30D01*
X790Y30D01*
X789Y30D01*
X788Y30D01*
X787Y31D01*
X786Y31D01*
X785Y31D01*
X784Y31D01*
X783Y31D01*
X782Y32D01*
X781Y32D01*
X780Y32D01*
X779Y32D01*
X778Y33D01*
X777Y33D01*
X776Y33D01*
X775Y33D01*
X774Y34D01*
X773Y34D01*
X772Y34D01*
X771Y34D01*
X770Y35D01*
X769Y35D01*
X768Y35D01*
X767Y35D01*
X766Y36D01*
X765Y36D01*
X764Y36D01*
X763Y36D01*
X762Y37D01*
X761Y37D01*
X760Y37D01*
X759Y37D01*
X758Y38D01*
X757Y38D01*
X756Y38D01*
X755Y38D01*
X754Y39D01*
X753Y39D01*
X752Y39D01*
X751Y39D01*
X750Y39D01*
X749Y40D01*
X748Y40D01*
X747Y40D01*
X746Y40D01*
X745Y41D01*
X744Y41D01*
X743Y41D01*
X742Y41D01*
X741Y42D01*
X740Y42D01*
X739Y42D01*
X738Y42D01*
X737Y43D01*
X736Y43D01*
X735Y43D01*
X734Y43D01*
X733Y44D01*
X732Y44D01*
X731Y44D01*
X730Y44D01*
X729Y45D01*
X728Y45D01*
X727Y45D01*
X726Y45D01*
X725Y46D01*
X724Y46D01*
X723Y46D01*
X722Y46D01*
X721Y47D01*
X720Y47D01*
X719Y47D01*
X718Y47D01*
X717Y48D01*
X716Y48D01*
X715Y48D01*
X714Y48D01*
X713Y48D01*
X712Y49D01*
X711Y49D01*
X710Y49D01*
X709Y49D01*
X708Y50D01*
X707Y50D01*
X706Y50D01*
X705Y50D01*
X704Y51D01*
X703Y51D01*
X702Y51D01*
X701Y51D01*
X700Y52D01*
X699Y52D01*
X698Y52D01*
X697Y52D01*
X696Y53D01*
X695Y53D01*
X694Y53D01*
X693Y53D01*
X692Y54D01*
X691Y54D01*
X690Y54D01*
X689Y54D01*
X688Y55D01*
X687Y55D01*
X686Y55D01*
X685Y55D01*
X684Y56D01*
X683Y56D01*
X682Y56D01*
X681Y56D01*
X680Y57D01*
X679Y57D01*
X678Y57D01*
X677Y57D01*
X676Y58D01*
X675Y58D01*
X674Y58D01*
X673Y58D01*
X672Y58D01*
X671Y59D01*
X670Y59D01*
X669Y59D01*
X668Y59D01*
X667Y60D01*
X666Y60D01*
X665Y60D01*
X664Y61D01*
X663Y61D01*
X662Y61D01*
X661Y62D01*
X660Y62D01*
X659Y62D01*
X658Y63D01*
X657Y63D01*
X656Y63D01*
X655Y64D01*
X654Y64D01*
X653Y64D01*
X652Y65D01*
X651Y65D01*
X650Y65D01*
X649Y66D01*
X648Y66D01*
X647Y66D01*
X646Y67D01*
X645Y67D01*
X644Y67D01*
X643Y68D01*
X642Y68D01*
X641Y68D01*
X640Y69D01*
X639Y69D01*
X638Y69D01*
X637Y70D01*
X636Y70D01*
X635Y70D01*
X634Y71D01*
X633Y71D01*
X632Y71D01*
X631Y72D01*
X630Y72D01*
X629Y72D01*
X628Y73D01*
X627Y73D01*
X626Y73D01*
X625Y74D01*
X624Y74D01*
X623Y74D01*
X622Y75D01*
X621Y75D01*
X620Y75D01*
X619Y76D01*
X618Y76D01*
X617Y76D01*
X616Y77D01*
X615Y77D01*
X614Y77D01*
X613Y78D01*
X612Y78D01*
X611Y78D01*
X610Y79D01*
X609Y79D01*
X608Y79D01*
X607Y80D01*
X606Y80D01*
X605Y80D01*
X604Y81D01*
X603Y81D01*
X602Y81D01*
X601Y82D01*
X600Y82D01*
X599Y82D01*
X598Y83D01*
X597Y83D01*
X596Y83D01*
X595Y84D01*
X594Y84D01*
X593Y84D01*
X592Y85D01*
X591Y85D01*
X590Y85D01*
X589Y86D01*
X588Y86D01*
X587Y86D01*
X586Y87D01*
X585Y87D01*
X584Y87D01*
X583Y88D01*
X582Y88D01*
X581Y88D01*
X580Y89D01*
X579Y89D01*
X578Y89D01*
X577Y90D01*
X576Y90D01*
X575Y90D01*
X574Y91D01*
X573Y91D01*
X572Y91D01*
X571Y92D01*
X570Y92D01*
X569Y92D01*
X568Y93D01*
X567Y93D01*
X566Y93D01*
X565Y94D01*
X564Y94D01*
X563Y94D01*
X562Y95D01*
X561Y95D01*
X560Y95D01*
X559Y96D01*
X558Y96D01*
X557Y96D01*
X556Y97D01*
X555Y97D01*
X554Y97D01*
X553Y98D01*
X552Y98D01*
X551Y98D01*
X550Y99D01*
X549Y99D01*
X548Y99D01*
X547Y100D01*
X546Y100D01*
X545Y100D01*
X544Y101D01*
X543Y101D01*
X542Y101D01*
X541Y102D01*
X540Y102D01*
X539Y102D01*
X538Y103D01*
X537Y103D01*
X536Y103D01*
X535Y104D01*
X534Y104D01*
X533Y105D01*
X532Y105D01*
X531Y105D01*
X530Y106D01*
X529Y106D01*
X528Y106D01*
X527Y107D01*
X526Y107D01*
X525Y108D01*
X524Y108D01*
X523Y108D01*
X522Y109D01*
X521Y109D01*
X520Y110D01*
X519Y110D01*
X518Y110D01*
X517Y111D01*
X516Y111D01*
X515Y112D01*
X514Y112D01*
X513Y112D01*
X512Y113D01*
X511Y113D01*
X510Y113D01*
X509Y114D01*
X508Y114D01*
X507Y115D01*
X506Y115D01*
X505Y115D01*
X504Y116D01*
X503Y116D01*
X502Y117D01*
X501Y117D01*
X500Y117D01*
X499Y118D01*
X498Y118D01*
X497Y119D01*
X496Y119D01*
X495Y119D01*
X494Y120D01*
X493Y120D01*
X492Y121D01*
X491Y121D01*
X490Y121D01*
X489Y122D01*
X488Y122D01*
X487Y123D01*
X486Y123D01*
X485Y123D01*
X484Y124D01*
X483Y124D01*
X482Y125D01*
X481Y125D01*
X480Y125D01*
X479Y126D01*
X478Y126D01*
X477Y127D01*
X476Y127D01*
X475Y127D01*
X474Y128D01*
X473Y128D01*
X472Y129D01*
X471Y129D01*
X470Y129D01*
X469Y130D01*
X468Y130D01*
X467Y131D01*
X466Y131D01*
X465Y132D01*
X464Y132D01*
X463Y132D01*
X462Y133D01*
X461Y133D01*
X460Y134D01*
X459Y134D01*
X458Y134D01*
X457Y135D01*
X456Y135D01*
X455Y136D01*
X454Y136D01*
X453Y136D01*
X452Y137D01*
X451Y137D01*
X450Y138D01*
X449Y138D01*
X448Y139D01*
X447Y139D01*
X446Y139D01*
X445Y140D01*
X444Y140D01*
X443Y141D01*
X442Y141D01*
X441Y142D01*
X440Y142D01*
X439Y143D01*
X438Y143D01*
X437Y143D01*
X436Y144D01*
X435Y144D01*
X434Y145D01*
X433Y145D01*
X432Y146D01*
X431Y146D01*
X430Y146D01*
X429Y147D01*
X428Y147D01*
X427Y148D01*
X426Y148D01*
X425Y149D01*
X424Y149D01*
X423Y149D01*
X422Y150D01*
X421Y150D01*
X420Y151D01*
X419Y151D01*
X418Y152D01*
X417Y152D01*
X416Y153D01*
X415Y153D01*
X414Y154D01*
X413Y154D01*
X412Y154D01*
X411Y155D01*
X410Y155D01*
X409Y156D01*
X408Y156D01*
X407Y157D01*
X406Y157D01*
X405Y158D01*
X404Y158D01*
X403Y159D01*
X402Y159D01*
X401Y160D01*
X400Y160D01*
X399Y161D01*
X398Y161D01*
X397Y162D01*
X396Y162D01*
X395Y163D01*
X394Y163D01*
X393Y163D01*
X392Y164D01*
X391Y164D01*
X390Y165D01*
X389Y165D01*
X388Y166D01*
X387Y166D01*
X386Y167D01*
X385Y167D01*
X384Y168D01*
X383Y168D01*
X382Y169D01*
X381Y169D01*
X380Y170D01*
X379Y170D01*
X378Y171D01*
X377Y171D01*
X376Y172D01*
X375Y173D01*
X374Y173D01*
X373Y174D01*
X372Y174D01*
X371Y175D01*
X370Y175D01*
X369Y176D01*
X368Y176D01*
X367Y177D01*
X366Y177D01*
X365Y178D01*
X364Y178D01*
X363Y179D01*
X362Y179D01*
X361Y180D01*
X360Y181D01*
X359Y181D01*
X358Y182D01*
X357Y182D01*
X356Y183D01*
X355Y183D01*
X354Y184D01*
X353Y184D01*
X352Y185D01*
X351Y185D01*
X350Y186D01*
X349Y187D01*
X348Y187D01*
X347Y188D01*
X346Y188D01*
X345Y189D01*
X344Y189D01*
X343Y190D01*
X342Y191D01*
X341Y191D01*
X340Y192D01*
X339Y192D01*
X338Y193D01*
X337Y193D01*
X336Y194D01*
X335Y195D01*
X334Y195D01*
X333Y196D01*
X332Y196D01*
X331Y197D01*
X330Y198D01*
X329Y198D01*
X328Y199D01*
X327Y199D01*
X326Y200D01*
X325Y201D01*
X324Y201D01*
X323Y202D01*
X322Y202D01*
X321Y203D01*
X320Y204D01*
X319Y204D01*
X318Y205D01*
X317Y205D01*
X316Y206D01*
X315Y207D01*
X314Y207D01*
X313Y208D01*
X312Y208D01*
X311Y209D01*
X310Y210D01*
X309Y210D01*
X308Y211D01*
X307Y211D01*
X306Y212D01*
X305Y213D01*
X304Y213D01*
X303Y214D01*
X302Y215D01*
X301Y215D01*
X300Y216D01*
X299Y217D01*
X298Y217D01*
X297Y218D01*
X296Y218D01*
X295Y219D01*
X294Y220D01*
X293Y220D01*
X292Y221D01*
X291Y222D01*
X290Y222D01*
X289Y223D01*
X288Y224D01*
X287Y224D01*
X286Y225D01*
X285Y225D01*
X284Y226D01*
X283Y227D01*
X282Y227D01*
X281Y228D01*
X280Y229D01*
X279Y229D01*
X278Y230D01*
X277Y231D01*
X276Y231D01*
X275Y232D01*
X274Y232D01*
X273Y233D01*
X272Y234D01*
X271Y234D01*
X270Y235D01*
X269Y236D01*
X268Y236D01*
X267Y237D01*
X266Y238D01*
X265Y238D01*
X264Y239D01*
X263Y240D01*
X262Y241D01*
X261Y241D01*
X260Y242D01*
X259Y243D01*
X258Y243D01*
X257Y244D01*
X256Y245D01*
X255Y246D01*
X254Y246D01*
X253Y247D01*
X252Y248D01*
X251Y248D01*
X250Y249D01*
X249Y250D01*
X248Y251D01*
X247Y252D01*
X246Y252D01*
X245Y253D01*
X244Y254D01*
X243Y255D01*
X242Y255D01*
X241Y256D01*
X240Y257D01*
X239Y258D01*
X238Y259D01*
X237Y259D01*
X236Y260D01*
X235Y261D01*
X234Y262D01*
X233Y263D01*
X232Y263D01*
X231Y264D01*
X230Y265D01*
X229Y266D01*
X228Y267D01*
X227Y267D01*
X226Y268D01*
X225Y269D01*
X224Y270D01*
X223Y271D01*
X222Y272D01*
X221Y273D01*
X220Y273D01*
X219Y274D01*
X218Y275D01*
X217Y276D01*
X216Y277D01*
X215Y278D01*
X214Y279D01*
X213Y279D01*
X212Y280D01*
X211Y281D01*
X210Y282D01*
X209Y283D01*
X208Y284D01*
X207Y285D01*
X206Y286D01*
X205Y287D01*
X204Y288D01*
X203Y288D01*
X202Y289D01*
X201Y290D01*
X200Y291D01*
X199Y292D01*
X198Y293D01*
X197Y294D01*
X196Y295D01*
X195Y296D01*
X194Y297D01*
X193Y298D01*
X192Y299D01*
X191Y300D01*
X190Y301D01*
X189Y301D01*
X188Y302D01*
X187Y303D01*
X186Y304D01*
X185Y305D01*
X184Y306D01*
X183Y307D01*
X182Y308D01*
X181Y309D01*
X180Y310D01*
X179Y311D01*
X178Y312D01*
X177Y313D01*
X176Y314D01*
X175Y315D01*
X174Y316D01*
X173Y317D01*
X172Y318D01*
X171Y319D01*
X170Y320D01*
X169Y321D01*
X168Y322D01*
X167Y323D01*
X166Y324D01*
X165Y325D01*
X164Y326D01*
X164Y327D01*
X163Y328D01*
X162Y329D01*
X161Y330D01*
X160Y331D01*
X159Y332D01*
X158Y333D01*
X157Y334D01*
X156Y335D01*
X155Y336D01*
X154Y337D01*
X153Y338D01*
X152Y339D01*
X151Y340D01*
X151Y341D01*
X150Y342D01*
X149Y343D01*
X148Y344D01*
X147Y345D01*
X146Y346D01*
X145Y347D01*
X145Y348D01*
X144Y349D01*
X143Y350D01*
X142Y351D01*
X141Y352D01*
X140Y353D01*
X139Y354D01*
X139Y355D01*
X138Y356D01*
X137Y357D01*
X136Y358D01*
X136Y359D01*
X135Y360D01*
X134Y361D01*
X133Y362D01*
X133Y363D01*
X132Y364D01*
X131Y365D01*
X130Y366D01*
X130Y367D01*
X129Y368D01*
X128Y369D01*
X128Y370D01*
X127Y371D01*
X126Y372D01*
X126Y373D01*
X125Y374D01*
X124Y375D01*
X124Y376D01*
X123Y377D01*
X122Y378D01*
X121Y379D01*
X121Y380D01*
X120Y381D01*
X119Y382D01*
X119Y383D01*
X118Y384D01*
X117Y385D01*
X117Y386D01*
X116Y387D01*
X115Y388D01*
X114Y389D01*
X114Y390D01*
X113Y391D01*
X112Y392D01*
X112Y393D01*
X111Y394D01*
X110Y395D01*
X109Y396D01*
X109Y397D01*
X108Y398D01*
X107Y399D01*
X107Y400D01*
X106Y401D01*
X105Y402D01*
X105Y403D01*
X104Y404D01*
X103Y405D01*
X102Y406D01*
X102Y407D01*
X101Y408D01*
X100Y409D01*
X100Y410D01*
X99Y411D01*
X98Y412D01*
X98Y413D01*
X97Y414D01*
X96Y415D01*
X96Y416D01*
X95Y417D01*
X94Y418D01*
X94Y419D01*
X93Y420D01*
X92Y421D01*
X92Y422D01*
X91Y423D01*
X90Y424D01*
X90Y425D01*
X89Y426D01*
X89Y427D01*
X88Y428D01*
X87Y429D01*
X87Y430D01*
X86Y431D01*
X86Y432D01*
X85Y433D01*
X84Y434D01*
X84Y435D01*
X83Y436D01*
X83Y437D01*
X82Y438D01*
X82Y439D01*
X81Y440D01*
X81Y441D01*
X80Y442D01*
X79Y443D01*
X79Y444D01*
X78Y445D01*
X78Y446D01*
X77Y447D01*
X77Y448D01*
X76Y449D01*
X76Y450D01*
X75Y451D01*
X75Y452D01*
X74Y453D01*
X74Y454D01*
X73Y455D01*
X72Y456D01*
X72Y457D01*
X71Y458D01*
X71Y459D01*
X70Y460D01*
X70Y462D01*
X69Y463D01*
X69Y464D01*
X68Y465D01*
X68Y466D01*
X67Y467D01*
X67Y468D01*
X66Y469D01*
X66Y470D01*
X65Y471D01*
X65Y472D01*
X64Y473D01*
X64Y474D01*
X63Y475D01*
X63Y476D01*
X62Y477D01*
X62Y478D01*
X61Y479D01*
X61Y480D01*
X60Y481D01*
X60Y482D01*
X59Y483D01*
X59Y484D01*
X58Y485D01*
X58Y486D01*
X57Y487D01*
X57Y489D01*
X56Y490D01*
X56Y491D01*
X55Y492D01*
X55Y493D01*
X54Y494D01*
X54Y495D01*
X53Y496D01*
X53Y497D01*
X52Y498D01*
X52Y500D01*
X51Y501D01*
X51Y502D01*
X50Y503D01*
X50Y504D01*
X49Y505D01*
X49Y506D01*
X48Y507D01*
X48Y508D01*
X47Y509D01*
X47Y511D01*
X46Y512D01*
X46Y514D01*
X45Y515D01*
X45Y517D01*
X44Y518D01*
X44Y521D01*
X43Y522D01*
X43Y524D01*
X42Y525D01*
X42Y527D01*
X41Y528D01*
X41Y531D01*
X40Y532D01*
X40Y534D01*
X39Y535D01*
X39Y538D01*
X38Y539D01*
X38Y541D01*
X37Y542D01*
X37Y545D01*
X36Y546D01*
X36Y548D01*
X35Y549D01*
X35Y552D01*
X34Y553D01*
X34Y556D01*
X33Y557D01*
X33Y560D01*
X32Y561D01*
X32Y564D01*
X31Y565D01*
X31Y568D01*
X30Y569D01*
X30Y572D01*
X29Y573D01*
X29Y577D01*
X28Y578D01*
X28Y581D01*
X27Y582D01*
X27Y586D01*
X26Y587D01*
X26Y591D01*
X25Y592D01*
X25Y596D01*
X24Y597D01*
X24Y601D01*
X23Y602D01*
X23Y607D01*
X22Y608D01*
X22Y613D01*
X21Y614D01*
X21Y621D01*
X20Y622D01*
X20Y628D01*
X19Y629D01*
X19Y637D01*
X18Y638D01*
X18Y647D01*
X17Y648D01*
X17Y661D01*
X16Y662D01*
X16Y683D01*
X15Y684D01*
X15Y763D01*
X16Y764D01*
X16Y800D01*
X17Y801D01*
X17Y815D01*
X18Y816D01*
X18Y830D01*
X19Y831D01*
X19Y844D01*
X20Y845D01*
X20Y858D01*
X21Y859D01*
X21Y869D01*
X22Y870D01*
X22Y879D01*
X23Y880D01*
X23Y887D01*
X24Y888D01*
X24Y894D01*
X25Y895D01*
X25Y900D01*
X26Y901D01*
X26Y906D01*
X27Y907D01*
X27Y911D01*
X28Y912D01*
X28Y916D01*
X29Y917D01*
X29Y921D01*
X30Y922D01*
X30Y925D01*
X31Y926D01*
X31Y929D01*
X32Y930D01*
X32Y933D01*
X33Y934D01*
X33Y936D01*
X34Y937D01*
X34Y940D01*
X35Y941D01*
X35Y943D01*
X36Y944D01*
X36Y946D01*
X37Y947D01*
X37Y950D01*
X38Y951D01*
X38Y953D01*
X39Y954D01*
X39Y956D01*
X40Y957D01*
X40Y959D01*
X41Y960D01*
X41Y963D01*
X42Y964D01*
X42Y966D01*
X43Y967D01*
X43Y970D01*
X44Y971D01*
X44Y974D01*
X45Y975D01*
X45Y978D01*
X46Y979D01*
X46Y983D01*
X47Y984D01*
X47Y988D01*
X48Y989D01*
X48Y995D01*
X49Y996D01*
X49Y1007D01*
X50Y1008D01*
X50Y1046D01*
X51Y1047D01*
X51Y1060D01*
X52Y1061D01*
X52Y1069D01*
X53Y1070D01*
X53Y1077D01*
X54Y1078D01*
X54Y1083D01*
X55Y1084D01*
X55Y1088D01*
X56Y1089D01*
X56Y1093D01*
X57Y1094D01*
X57Y1098D01*
X58Y1099D01*
X58Y1102D01*
X59Y1103D01*
X59Y1106D01*
X60Y1107D01*
X60Y1109D01*
X61Y1110D01*
X61Y1113D01*
X62Y1114D01*
X62Y1116D01*
X63Y1117D01*
X63Y1120D01*
X64Y1121D01*
X64Y1123D01*
X65Y1124D01*
X65Y1126D01*
X66Y1127D01*
X66Y1129D01*
X67Y1130D01*
X67Y1132D01*
X68Y1133D01*
X68Y1135D01*
X69Y1136D01*
X69Y1137D01*
X70Y1138D01*
X70Y1140D01*
X71Y1141D01*
X71Y1143D01*
X72Y1144D01*
X72Y1145D01*
X73Y1146D01*
X73Y1148D01*
X74Y1149D01*
X74Y1151D01*
X75Y1152D01*
X75Y1153D01*
X76Y1154D01*
X76Y1156D01*
X77Y1157D01*
X77Y1158D01*
X78Y1159D01*
X78Y1160D01*
X79Y1161D01*
X79Y1163D01*
X80Y1164D01*
X80Y1165D01*
X81Y1166D01*
X81Y1168D01*
X82Y1169D01*
X82Y1170D01*
X83Y1171D01*
X83Y1172D01*
X84Y1173D01*
X84Y1175D01*
X85Y1176D01*
X85Y1177D01*
X86Y1178D01*
X86Y1179D01*
X87Y1180D01*
X87Y1182D01*
X88Y1183D01*
X88Y1184D01*
X89Y1185D01*
X89Y1186D01*
X90Y1187D01*
X90Y1188D01*
X91Y1189D01*
X91Y1190D01*
X92Y1191D01*
X92Y1193D01*
X93Y1194D01*
X93Y1195D01*
X94Y1196D01*
X94Y1197D01*
X95Y1198D01*
X95Y1199D01*
X96Y1200D01*
X96Y1201D01*
X97Y1202D01*
X97Y1203D01*
X98Y1204D01*
X98Y1206D01*
X99Y1207D01*
X99Y1208D01*
X100Y1209D01*
X100Y1210D01*
X101Y1211D01*
X101Y1212D01*
X102Y1213D01*
X102Y1214D01*
X103Y1215D01*
X103Y1217D01*
X104Y1218D01*
X104Y1219D01*
X105Y1220D01*
X105Y1221D01*
X106Y1222D01*
X106Y1223D01*
X107Y1224D01*
X107Y1226D01*
X108Y1227D01*
X108Y1228D01*
X109Y1229D01*
X109Y1230D01*
X110Y1231D01*
X110Y1232D01*
X111Y1233D01*
X111Y1234D01*
X112Y1235D01*
X112Y1237D01*
X113Y1238D01*
X113Y1239D01*
X114Y1240D01*
X114Y1242D01*
X115Y1243D01*
X115Y1244D01*
X116Y1245D01*
X116Y1247D01*
X117Y1248D01*
X117Y1250D01*
X118Y1251D01*
X118Y1253D01*
X119Y1254D01*
X119Y1256D01*
X120Y1257D01*
X120Y1260D01*
X121Y1261D01*
X121Y1266D01*
X122Y1267D01*
X122Y1296D01*
X123Y1297D01*
X123Y1308D01*
X124Y1309D01*
X124Y1317D01*
X125Y1318D01*
X125Y1323D01*
X126Y1324D01*
X126Y1329D01*
X127Y1330D01*
X127Y1335D01*
X128Y1336D01*
X128Y1340D01*
X129Y1341D01*
X129Y1344D01*
X130Y1345D01*
X130Y1349D01*
X131Y1350D01*
X131Y1353D01*
X132Y1354D01*
X132Y1357D01*
X133Y1358D01*
X133Y1361D01*
X134Y1362D01*
X134Y1364D01*
X135Y1365D01*
X135Y1367D01*
X136Y1368D01*
X136Y1370D01*
X137Y1371D01*
X137Y1373D01*
X138Y1374D01*
X138Y1376D01*
X139Y1377D01*
X139Y1379D01*
X140Y1380D01*
X140Y1381D01*
X141Y1382D01*
X141Y1384D01*
X142Y1385D01*
X142Y1386D01*
X143Y1387D01*
X143Y1388D01*
X144Y1389D01*
X144Y1390D01*
X145Y1391D01*
X145Y1392D01*
X146Y1393D01*
X146Y1394D01*
X147Y1395D01*
X147Y1396D01*
X148Y1397D01*
X148Y1398D01*
X149Y1399D01*
X149Y1400D01*
X150Y1401D01*
X150Y1402D01*
X151Y1403D01*
X151Y1404D01*
X152Y1405D01*
X152Y1406D01*
X153Y1407D01*
X154Y1408D01*
X154Y1409D01*
X155Y1410D01*
X155Y1411D01*
X156Y1412D01*
X156Y1413D01*
X157Y1414D01*
X158Y1415D01*
X158Y1416D01*
X159Y1417D01*
X160Y1418D01*
X160Y1419D01*
X161Y1420D01*
X162Y1421D01*
X162Y1422D01*
X163Y1423D01*
X164Y1424D01*
X164Y1425D01*
X165Y1426D01*
X166Y1427D01*
X166Y1428D01*
X167Y1429D01*
X168Y1430D01*
X169Y1431D01*
X169Y1432D01*
X170Y1433D01*
X171Y1434D01*
X172Y1435D01*
X172Y1436D01*
X173Y1437D01*
X174Y1438D01*
X175Y1439D01*
X175Y1440D01*
X176Y1441D01*
X177Y1442D01*
X178Y1443D01*
X179Y1444D01*
X179Y1445D01*
X180Y1446D01*
X181Y1447D01*
X182Y1448D01*
X183Y1449D01*
X184Y1450D01*
X184Y1451D01*
X185Y1452D01*
X186Y1453D01*
X187Y1454D01*
X188Y1455D01*
X189Y1456D01*
X189Y1457D01*
X190Y1458D01*
X191Y1459D01*
X192Y1460D01*
X193Y1461D01*
X194Y1462D01*
X195Y1463D01*
X196Y1464D01*
X197Y1465D01*
X198Y1466D01*
X199Y1467D01*
X199Y1468D01*
X200Y1469D01*
X201Y1470D01*
X202Y1471D01*
X203Y1472D01*
X204Y1473D01*
X205Y1474D01*
X206Y1475D01*
X207Y1476D01*
X208Y1477D01*
X209Y1478D01*
X210Y1479D01*
X211Y1480D01*
X212Y1481D01*
X213Y1482D01*
X214Y1483D01*
X215Y1484D01*
X216Y1485D01*
X217Y1486D01*
X218Y1487D01*
X219Y1488D01*
X220Y1489D01*
X221Y1490D01*
X222Y1491D01*
X223Y1492D01*
X224Y1493D01*
X225Y1494D01*
X226Y1495D01*
X227Y1495D01*
X228Y1496D01*
X229Y1497D01*
X230Y1498D01*
X231Y1499D01*
X232Y1500D01*
X233Y1501D01*
X234Y1502D01*
X235Y1503D01*
X236Y1504D01*
X237Y1505D01*
X238Y1506D01*
X239Y1507D01*
X240Y1508D01*
X241Y1509D01*
X242Y1510D01*
X243Y1510D01*
X244Y1511D01*
X245Y1512D01*
X246Y1513D01*
X247Y1514D01*
X248Y1515D01*
X249Y1516D01*
X250Y1517D01*
X251Y1518D01*
X252Y1519D01*
X253Y1520D01*
X254Y1521D01*
X255Y1522D01*
X256Y1523D01*
X257Y1524D01*
X258Y1524D01*
X259Y1525D01*
X260Y1526D01*
X261Y1527D01*
X262Y1528D01*
X263Y1529D01*
X264Y1530D01*
X265Y1531D01*
X266Y1532D01*
X267Y1533D01*
X268Y1534D01*
X269Y1535D01*
X268Y1536D01*
X268Y1544D01*
X267Y1545D01*
X267Y1554D01*
X266Y1555D01*
X266Y1563D01*
X265Y1564D01*
X265Y1573D01*
X264Y1574D01*
X264Y1582D01*
X263Y1583D01*
X263Y1592D01*
X262Y1593D01*
X262Y1602D01*
X261Y1603D01*
X261Y1613D01*
X260Y1614D01*
X260Y1625D01*
X259Y1626D01*
X259Y1639D01*
X258Y1640D01*
X258Y1683D01*
X257Y1684D01*
X257Y1689D01*
X256Y1690D01*
X256Y1693D01*
X255Y1694D01*
X255Y1697D01*
X254Y1698D01*
X254Y1700D01*
X253Y1701D01*
X253Y1704D01*
X252Y1705D01*
X252Y1707D01*
X251Y1708D01*
X251Y1710D01*
X250Y1711D01*
X250Y1713D01*
X249Y1714D01*
X249Y1716D01*
X248Y1717D01*
X248Y1719D01*
X247Y1720D01*
X247Y1722D01*
X246Y1723D01*
X246Y1725D01*
X245Y1726D01*
X245Y1727D01*
X244Y1728D01*
X244Y1730D01*
X243Y1731D01*
X243Y1733D01*
X242Y1734D01*
X242Y1736D01*
X241Y1737D01*
X241Y1739D01*
X240Y1740D01*
X240Y1742D01*
X239Y1743D01*
X239Y1744D01*
X238Y1745D01*
X238Y1747D01*
X237Y1748D01*
X237Y1750D01*
X236Y1751D01*
X236Y1753D01*
X235Y1754D01*
X235Y1756D01*
X234Y1757D01*
X234Y1759D01*
X233Y1760D01*
X233Y1762D01*
X232Y1763D01*
X232Y1765D01*
X231Y1766D01*
X231Y1768D01*
X230Y1769D01*
X230Y1771D01*
X229Y1772D01*
X229Y1774D01*
X228Y1775D01*
X228Y1777D01*
X227Y1778D01*
X227Y1780D01*
X226Y1781D01*
X226Y1783D01*
X225Y1784D01*
X225Y1786D01*
X224Y1787D01*
X224Y1790D01*
X223Y1791D01*
X223Y1793D01*
X222Y1794D01*
X222Y1796D01*
X221Y1797D01*
X221Y1799D01*
X220Y1800D01*
X220Y1802D01*
X219Y1803D01*
X219Y1806D01*
X218Y1807D01*
X218Y1809D01*
X217Y1810D01*
X217Y1812D01*
X216Y1813D01*
X216Y1815D01*
X215Y1816D01*
X215Y1819D01*
X214Y1820D01*
X214Y1822D01*
X213Y1823D01*
X213Y1826D01*
X212Y1827D01*
X212Y1829D01*
X211Y1830D01*
X211Y1832D01*
X210Y1833D01*
X210Y1836D01*
X209Y1837D01*
X209Y1839D01*
X208Y1840D01*
X208Y1843D01*
X207Y1844D01*
X207Y1846D01*
X206Y1847D01*
X206Y1850D01*
X205Y1851D01*
X205Y1853D01*
X204Y1854D01*
X204Y1857D01*
X203Y1858D01*
X203Y1861D01*
X202Y1862D01*
X202Y1864D01*
X201Y1865D01*
X201Y1868D01*
X200Y1869D01*
X200Y1872D01*
X199Y1873D01*
X199Y1875D01*
X198Y1876D01*
X198Y1879D01*
X197Y1880D01*
X197Y1883D01*
X196Y1884D01*
X196Y1887D01*
X195Y1888D01*
X195Y1891D01*
X194Y1892D01*
X194Y1895D01*
X193Y1896D01*
X193Y1898D01*
X192Y1899D01*
X192Y1902D01*
X191Y1903D01*
X191Y1906D01*
X190Y1907D01*
X190Y1910D01*
X189Y1911D01*
X189Y1914D01*
X188Y1915D01*
X188Y1918D01*
X187Y1919D01*
X187Y1922D01*
X186Y1923D01*
X186Y1926D01*
X185Y1927D01*
X185Y1929D01*
X184Y1930D01*
X184Y1933D01*
X183Y1934D01*
X183Y1937D01*
X182Y1938D01*
X182Y1941D01*
X181Y1942D01*
X181Y1945D01*
X180Y1946D01*
X180Y1949D01*
X179Y1950D01*
X179Y1953D01*
X178Y1954D01*
X178Y1957D01*
X177Y1958D01*
X177Y2046D01*
X178Y2047D01*
X178Y2078D01*
X179Y2079D01*
X179Y2093D01*
X180Y2094D01*
X180Y2103D01*
X181Y2104D01*
X181Y2112D01*
X182Y2113D01*
X182Y2119D01*
X183Y2120D01*
X183Y2126D01*
X184Y2127D01*
X184Y2132D01*
X185Y2133D01*
X185Y2138D01*
X186Y2139D01*
X186Y2143D01*
X187Y2144D01*
X187Y2149D01*
X188Y2150D01*
X188Y2154D01*
X189Y2155D01*
X189Y2159D01*
X190Y2160D01*
X190Y2164D01*
X191Y2165D01*
X191Y2168D01*
X192Y2169D01*
X192Y2173D01*
X193Y2174D01*
X193Y2177D01*
X194Y2178D01*
X194Y2181D01*
X195Y2182D01*
X195Y2185D01*
X196Y2186D01*
X196Y2189D01*
X197Y2190D01*
X197Y2192D01*
X198Y2193D01*
X198Y2196D01*
X199Y2197D01*
X199Y2199D01*
X200Y2200D01*
X200Y2203D01*
X201Y2204D01*
X201Y2206D01*
X202Y2207D01*
X202Y2209D01*
X203Y2210D01*
X203Y2212D01*
X204Y2213D01*
X204Y2214D01*
X205Y2215D01*
X205Y2217D01*
X206Y2218D01*
X206Y2220D01*
X207Y2221D01*
X207Y2222D01*
X208Y2223D01*
X208Y2225D01*
X209Y2226D01*
X209Y2227D01*
X210Y2228D01*
X210Y2229D01*
X211Y2230D01*
X211Y2231D01*
X212Y2232D01*
X212Y2233D01*
X213Y2234D01*
X213Y2235D01*
X214Y2236D01*
X214Y2238D01*
X215Y2239D01*
X215Y2240D01*
X216Y2241D01*
X217Y2242D01*
X217Y2243D01*
X218Y2244D01*
X218Y2245D01*
X219Y2246D01*
X219Y2247D01*
X220Y2248D01*
X220Y2249D01*
X221Y2250D01*
X222Y2251D01*
X222Y2252D01*
X223Y2253D01*
X223Y2254D01*
X224Y2255D01*
X224Y2256D01*
X225Y2257D01*
X226Y2258D01*
X226Y2259D01*
X227Y2260D01*
X228Y2261D01*
X228Y2262D01*
X229Y2263D01*
X229Y2264D01*
X230Y2265D01*
X231Y2266D01*
X231Y2267D01*
X232Y2268D01*
X233Y2269D01*
X233Y2270D01*
X234Y2271D01*
X235Y2272D01*
X235Y2273D01*
X236Y2274D01*
X237Y2275D01*
X237Y2276D01*
X238Y2277D01*
X239Y2278D01*
X239Y2279D01*
X240Y2280D01*
X241Y2281D01*
X241Y2282D01*
X242Y2283D01*
X243Y2284D01*
X243Y2285D01*
X244Y2286D01*
X245Y2287D01*
X245Y2288D01*
X246Y2289D01*
X246Y2290D01*
X247Y2291D01*
X248Y2292D01*
X248Y2293D01*
X249Y2294D01*
X250Y2295D01*
X250Y2296D01*
X251Y2297D01*
X251Y2298D01*
X252Y2299D01*
X252Y2300D01*
X253Y2301D01*
X254Y2302D01*
X254Y2303D01*
X255Y2304D01*
X255Y2305D01*
X256Y2306D01*
X256Y2309D01*
X255Y2310D01*
X255Y2312D01*
X254Y2313D01*
X254Y2315D01*
X253Y2316D01*
X253Y2317D01*
X252Y2318D01*
X252Y2319D01*
X251Y2320D01*
X251Y2322D01*
X250Y2323D01*
X250Y2324D01*
X249Y2325D01*
X249Y2326D01*
X248Y2327D01*
X248Y2328D01*
X247Y2329D01*
X247Y2330D01*
X246Y2331D01*
X246Y2332D01*
X245Y2333D01*
X245Y2334D01*
X244Y2335D01*
X244Y2336D01*
X243Y2337D01*
X243Y2338D01*
X242Y2339D01*
X242Y2341D01*
X241Y2342D01*
X241Y2343D01*
X240Y2344D01*
X240Y2345D01*
X239Y2346D01*
X239Y2347D01*
X238Y2348D01*
X238Y2349D01*
X237Y2350D01*
X237Y2351D01*
X236Y2352D01*
X236Y2353D01*
X235Y2354D01*
X235Y2355D01*
X234Y2356D01*
X234Y2357D01*
X233Y2358D01*
X233Y2359D01*
X232Y2360D01*
X232Y2362D01*
X231Y2363D01*
X231Y2364D01*
X230Y2365D01*
X230Y2366D01*
X229Y2367D01*
X229Y2368D01*
X228Y2369D01*
X228Y2370D01*
X227Y2371D01*
X227Y2372D01*
X226Y2373D01*
X226Y2375D01*
X225Y2376D01*
X225Y2377D01*
X224Y2378D01*
X224Y2379D01*
X223Y2380D01*
X223Y2382D01*
X222Y2383D01*
X222Y2384D01*
X221Y2385D01*
X221Y2386D01*
X220Y2387D01*
X220Y2388D01*
X219Y2389D01*
X219Y2391D01*
X218Y2392D01*
X218Y2393D01*
X217Y2394D01*
X217Y2395D01*
X216Y2396D01*
X216Y2398D01*
X215Y2399D01*
X215Y2400D01*
X214Y2401D01*
X214Y2403D01*
X213Y2404D01*
X213Y2405D01*
X212Y2406D01*
X212Y2407D01*
X211Y2408D01*
X211Y2410D01*
X210Y2411D01*
X210Y2412D01*
X209Y2413D01*
X209Y2415D01*
X208Y2416D01*
X208Y2417D01*
X207Y2418D01*
X207Y2420D01*
X206Y2421D01*
X206Y2422D01*
X205Y2423D01*
X205Y2425D01*
X204Y2426D01*
X204Y2427D01*
X203Y2428D01*
X203Y2430D01*
X202Y2431D01*
X202Y2433D01*
X201Y2434D01*
X201Y2435D01*
X200Y2436D01*
X200Y2438D01*
X199Y2439D01*
X199Y2441D01*
X198Y2442D01*
X198Y2443D01*
X197Y2444D01*
X197Y2446D01*
X196Y2447D01*
X196Y2449D01*
X195Y2450D01*
X195Y2452D01*
X194Y2453D01*
X194Y2455D01*
X193Y2456D01*
X193Y2458D01*
X192Y2459D01*
X192Y2462D01*
X191Y2463D01*
X191Y2466D01*
X190Y2467D01*
X190Y2472D01*
X189Y2473D01*
X189Y2480D01*
X188Y2481D01*
X188Y2530D01*
X189Y2531D01*
X189Y2545D01*
X190Y2546D01*
X190Y2555D01*
X191Y2556D01*
X191Y2563D01*
X192Y2564D01*
X192Y2570D01*
X193Y2571D01*
X193Y2576D01*
X194Y2577D01*
X194Y2582D01*
X195Y2583D01*
X195Y2587D01*
X196Y2588D01*
X196Y2591D01*
X197Y2592D01*
X197Y2596D01*
X198Y2597D01*
X198Y2600D01*
X199Y2601D01*
X199Y2604D01*
X200Y2605D01*
X200Y2607D01*
X201Y2608D01*
X201Y2611D01*
X202Y2612D01*
X202Y2614D01*
X203Y2615D01*
X203Y2618D01*
X204Y2619D01*
X204Y2621D01*
X205Y2622D01*
X205Y2624D01*
X206Y2625D01*
X206Y2627D01*
X207Y2628D01*
X207Y2629D01*
X208Y2630D01*
X208Y2632D01*
X209Y2633D01*
X209Y2635D01*
X210Y2636D01*
X210Y2637D01*
X211Y2638D01*
X211Y2640D01*
X212Y2641D01*
X212Y2642D01*
X213Y2643D01*
X213Y2645D01*
X214Y2646D01*
X214Y2647D01*
X215Y2648D01*
X215Y2649D01*
X216Y2650D01*
X216Y2651D01*
X217Y2652D01*
X217Y2653D01*
X218Y2654D01*
X218Y2655D01*
X219Y2656D01*
X219Y2657D01*
X220Y2658D01*
X220Y2659D01*
X221Y2660D01*
X221Y2661D01*
X222Y2662D01*
X222Y2663D01*
X223Y2664D01*
X223Y2665D01*
X224Y2666D01*
X224Y2667D01*
X225Y2668D01*
X225Y2669D01*
X226Y2670D01*
X227Y2671D01*
X227Y2672D01*
X228Y2673D01*
X228Y2674D01*
X229Y2675D01*
X229Y2676D01*
X230Y2677D01*
X231Y2678D01*
X231Y2679D01*
X232Y2680D01*
X233Y2681D01*
X233Y2682D01*
X234Y2683D01*
X234Y2684D01*
X235Y2685D01*
X236Y2686D01*
X237Y2687D01*
X237Y2688D01*
X238Y2689D01*
X239Y2690D01*
X239Y2691D01*
X240Y2692D01*
X241Y2693D01*
X241Y2694D01*
X242Y2695D01*
X243Y2696D01*
X244Y2697D01*
X244Y2698D01*
X245Y2699D01*
X246Y2700D01*
X247Y2701D01*
X247Y2702D01*
X248Y2703D01*
X249Y2704D01*
X250Y2705D01*
X251Y2706D01*
X251Y2707D01*
X252Y2708D01*
X253Y2709D01*
X254Y2710D01*
X255Y2711D01*
X256Y2712D01*
X257Y2713D01*
X257Y2714D01*
X258Y2715D01*
X259Y2716D01*
X260Y2717D01*
X261Y2718D01*
X262Y2719D01*
X263Y2720D01*
X264Y2721D01*
X265Y2722D01*
X266Y2723D01*
X267Y2724D01*
X268Y2725D01*
X269Y2726D01*
X270Y2727D01*
X271Y2728D01*
X272Y2729D01*
X273Y2730D01*
X274Y2731D01*
X275Y2732D01*
X276Y2733D01*
X277Y2734D01*
X278Y2735D01*
X279Y2736D01*
X280Y2736D01*
X281Y2737D01*
X282Y2738D01*
X283Y2739D01*
X284Y2740D01*
X285Y2741D01*
X286Y2742D01*
X287Y2742D01*
X288Y2743D01*
X289Y2744D01*
X290Y2745D01*
X291Y2746D01*
X292Y2747D01*
X293Y2747D01*
X294Y2748D01*
X295Y2749D01*
X296Y2750D01*
X297Y2750D01*
X298Y2751D01*
X299Y2752D01*
X300Y2753D01*
X301Y2753D01*
X302Y2754D01*
X303Y2755D01*
X304Y2756D01*
X305Y2756D01*
X306Y2757D01*
X307Y2758D01*
X308Y2758D01*
X309Y2759D01*
X310Y2760D01*
X311Y2760D01*
X312Y2761D01*
X313Y2762D01*
X314Y2762D01*
X315Y2763D01*
X316Y2764D01*
X317Y2764D01*
X318Y2765D01*
X319Y2766D01*
X320Y2766D01*
X321Y2767D01*
X322Y2768D01*
X323Y2768D01*
X324Y2769D01*
X325Y2769D01*
X326Y2770D01*
X327Y2771D01*
X328Y2771D01*
X329Y2772D01*
X330Y2772D01*
X331Y2773D01*
X332Y2774D01*
X333Y2774D01*
X334Y2775D01*
X335Y2775D01*
X336Y2776D01*
X337Y2776D01*
X338Y2777D01*
X339Y2777D01*
X340Y2778D01*
X341Y2779D01*
X342Y2779D01*
X343Y2780D01*
X344Y2780D01*
X345Y2781D01*
X346Y2781D01*
X347Y2782D01*
X348Y2782D01*
X349Y2783D01*
X350Y2783D01*
X351Y2784D01*
X352Y2784D01*
X353Y2785D01*
X354Y2785D01*
X355Y2786D01*
X356Y2786D01*
X357Y2787D01*
X358Y2787D01*
X359Y2788D01*
X360Y2788D01*
X361Y2789D01*
X362Y2789D01*
X363Y2790D01*
X364Y2790D01*
X365Y2791D01*
X366Y2791D01*
X367Y2792D01*
X368Y2792D01*
X369Y2792D01*
X370Y2793D01*
X371Y2793D01*
X372Y2794D01*
X373Y2794D01*
X374Y2795D01*
X375Y2795D01*
X376Y2796D01*
X377Y2796D01*
X378Y2796D01*
X379Y2797D01*
X380Y2797D01*
X381Y2798D01*
X382Y2798D01*
X383Y2798D01*
X384Y2799D01*
X385Y2799D01*
X386Y2800D01*
X387Y2800D01*
X388Y2800D01*
X389Y2801D01*
X390Y2801D01*
X391Y2802D01*
X392Y2802D01*
X393Y2802D01*
X394Y2803D01*
X395Y2803D01*
X396Y2804D01*
X397Y2804D01*
X398Y2804D01*
X399Y2805D01*
X400Y2805D01*
X401Y2805D01*
X402Y2806D01*
X403Y2806D01*
X404Y2807D01*
X405Y2807D01*
X406Y2807D01*
X407Y2808D01*
X408Y2808D01*
X409Y2809D01*
X410Y2809D01*
X411Y2809D01*
X412Y2810D01*
X413Y2810D01*
X414Y2811D01*
X415Y2811D01*
X416Y2811D01*
X417Y2812D01*
X418Y2812D01*
X419Y2813D01*
X420Y2813D01*
X421Y2814D01*
X422Y2814D01*
X423Y2814D01*
X424Y2815D01*
X425Y2815D01*
X426Y2816D01*
X427Y2816D01*
X428Y2817D01*
X429Y2817D01*
X430Y2818D01*
X431Y2818D01*
X432Y2819D01*
X433Y2819D01*
X434Y2820D01*
X435Y2820D01*
X436Y2821D01*
X437Y2821D01*
X438Y2822D01*
X439Y2823D01*
X440Y2823D01*
X441Y2824D01*
X442Y2824D01*
X443Y2825D01*
X444Y2826D01*
X445Y2826D01*
X446Y2827D01*
X447Y2828D01*
X448Y2828D01*
X449Y2829D01*
X450Y2830D01*
X451Y2831D01*
X452Y2831D01*
X453Y2832D01*
X454Y2833D01*
X455Y2834D01*
X455Y2835D01*
X456Y2836D01*
X456Y2837D01*
X457Y2838D01*
X457Y2847D01*
X456Y2848D01*
X456Y2853D01*
X455Y2854D01*
X455Y2860D01*
X454Y2861D01*
X454Y2869D01*
X453Y2870D01*
X453Y2882D01*
X452Y2883D01*
X452Y2909D01*
X453Y2910D01*
X453Y2923D01*
X454Y2924D01*
X454Y2931D01*
X455Y2932D01*
X455Y2938D01*
X456Y2939D01*
X456Y2944D01*
X457Y2945D01*
X457Y2949D01*
X458Y2950D01*
X458Y2954D01*
X459Y2955D01*
X459Y2958D01*
X460Y2959D01*
X460Y2962D01*
X461Y2963D01*
X461Y2966D01*
X462Y2967D01*
X462Y2969D01*
X463Y2970D01*
X463Y2972D01*
X464Y2973D01*
X464Y2976D01*
X465Y2977D01*
X465Y2979D01*
X466Y2980D01*
X466Y2982D01*
X467Y2983D01*
X467Y2985D01*
X468Y2986D01*
X468Y2988D01*
X469Y2989D01*
X469Y2992D01*
X470Y2993D01*
X470Y2995D01*
X471Y2996D01*
X471Y2998D01*
X472Y2999D01*
X472Y3001D01*
X473Y3002D01*
X473Y3004D01*
X474Y3005D01*
X474Y3007D01*
X475Y3008D01*
X475Y3011D01*
X474Y3012D01*
X474Y3013D01*
X473Y3014D01*
X472Y3015D01*
X472Y3016D01*
X471Y3017D01*
X470Y3018D01*
X470Y3019D01*
X469Y3020D01*
X468Y3021D01*
X468Y3022D01*
X467Y3023D01*
X467Y3024D01*
X466Y3025D01*
X465Y3026D01*
X465Y3027D01*
X464Y3028D01*
X463Y3029D01*
X463Y3030D01*
X462Y3031D01*
X461Y3032D01*
X461Y3033D01*
X460Y3034D01*
X460Y3035D01*
X459Y3036D01*
X458Y3037D01*
X458Y3038D01*
X457Y3039D01*
X456Y3040D01*
X456Y3041D01*
X455Y3042D01*
X454Y3043D01*
X454Y3044D01*
X453Y3045D01*
X453Y3046D01*
X452Y3047D01*
X451Y3048D01*
X451Y3049D01*
X450Y3050D01*
X449Y3051D01*
X449Y3052D01*
X448Y3053D01*
X447Y3054D01*
X447Y3055D01*
X446Y3056D01*
X446Y3057D01*
X445Y3058D01*
X444Y3059D01*
X444Y3060D01*
X443Y3061D01*
X442Y3062D01*
X442Y3063D01*
X441Y3064D01*
X441Y3065D01*
X440Y3066D01*
X439Y3067D01*
X439Y3068D01*
X438Y3069D01*
X438Y3070D01*
X437Y3071D01*
X436Y3072D01*
X436Y3073D01*
X435Y3074D01*
X435Y3075D01*
X434Y3076D01*
X433Y3077D01*
X433Y3078D01*
X432Y3079D01*
X432Y3080D01*
X431Y3081D01*
X430Y3082D01*
X430Y3083D01*
X429Y3084D01*
X429Y3085D01*
X428Y3086D01*
X428Y3087D01*
X427Y3088D01*
X426Y3089D01*
X426Y3090D01*
X425Y3091D01*
X425Y3092D01*
X424Y3093D01*
X424Y3094D01*
X423Y3095D01*
X422Y3096D01*
X422Y3097D01*
X421Y3098D01*
X421Y3099D01*
X420Y3100D01*
X420Y3101D01*
X419Y3102D01*
X419Y3103D01*
X418Y3104D01*
X417Y3105D01*
X417Y3106D01*
X416Y3107D01*
X416Y3108D01*
X415Y3109D01*
X415Y3110D01*
X414Y3111D01*
X414Y3112D01*
X413Y3113D01*
X413Y3114D01*
X412Y3115D01*
X411Y3116D01*
X411Y3117D01*
X410Y3118D01*
X410Y3119D01*
X409Y3120D01*
X409Y3121D01*
X408Y3122D01*
X408Y3123D01*
X407Y3124D01*
X407Y3125D01*
X406Y3126D01*
X406Y3127D01*
X405Y3128D01*
X405Y3129D01*
X404Y3130D01*
X404Y3131D01*
X403Y3132D01*
X403Y3133D01*
X402Y3134D01*
X402Y3135D01*
X401Y3136D01*
X401Y3137D01*
X400Y3138D01*
X400Y3139D01*
X399Y3140D01*
X399Y3141D01*
X398Y3142D01*
X398Y3143D01*
X397Y3144D01*
X397Y3145D01*
X396Y3146D01*
X396Y3147D01*
X395Y3148D01*
X395Y3149D01*
X394Y3150D01*
X394Y3151D01*
X393Y3152D01*
X393Y3153D01*
X392Y3154D01*
X392Y3155D01*
X391Y3156D01*
X391Y3157D01*
X390Y3158D01*
X390Y3159D01*
X389Y3160D01*
X389Y3162D01*
X388Y3163D01*
X388Y3164D01*
X387Y3165D01*
X387Y3166D01*
X386Y3167D01*
X386Y3168D01*
X385Y3169D01*
X385Y3170D01*
X384Y3171D01*
X384Y3173D01*
X383Y3174D01*
X383Y3175D01*
X382Y3176D01*
X382Y3177D01*
X381Y3178D01*
X381Y3179D01*
X380Y3180D01*
X380Y3182D01*
X379Y3183D01*
X379Y3184D01*
X378Y3185D01*
X378Y3186D01*
X377Y3187D01*
X377Y3189D01*
X376Y3190D01*
X376Y3191D01*
X375Y3192D01*
X375Y3193D01*
X374Y3194D01*
X374Y3196D01*
X373Y3197D01*
X373Y3198D01*
X372Y3199D01*
X372Y3201D01*
X371Y3202D01*
X371Y3203D01*
X370Y3204D01*
X370Y3206D01*
X369Y3207D01*
X369Y3208D01*
X368Y3209D01*
X368Y3211D01*
X367Y3212D01*
X367Y3213D01*
X366Y3214D01*
X366Y3216D01*
X365Y3217D01*
X365Y3219D01*
X364Y3220D01*
X364Y3221D01*
X363Y3222D01*
X363Y3224D01*
X362Y3225D01*
X362Y3227D01*
X361Y3228D01*
X361Y3230D01*
X360Y3231D01*
X360Y3232D01*
X359Y3233D01*
X359Y3235D01*
X358Y3236D01*
X358Y3238D01*
X357Y3239D01*
X357Y3241D01*
X356Y3242D01*
X356Y3244D01*
X355Y3245D01*
X355Y3247D01*
X354Y3248D01*
X354Y3250D01*
X353Y3251D01*
X353Y3254D01*
X352Y3255D01*
X352Y3257D01*
X351Y3258D01*
X351Y3260D01*
X350Y3261D01*
X350Y3263D01*
X349Y3264D01*
X349Y3267D01*
X348Y3268D01*
X348Y3270D01*
X347Y3271D01*
X347Y3274D01*
X346Y3275D01*
X346Y3277D01*
X345Y3278D01*
X345Y3281D01*
X344Y3282D01*
X344Y3285D01*
X343Y3286D01*
X343Y3289D01*
X342Y3290D01*
X342Y3293D01*
X341Y3294D01*
X341Y3298D01*
X340Y3299D01*
X340Y3302D01*
X339Y3303D01*
X339Y3307D01*
X338Y3308D01*
X338Y3312D01*
X337Y3313D01*
X337Y3317D01*
X336Y3318D01*
X336Y3322D01*
X335Y3323D01*
X335Y3327D01*
X334Y3328D01*
X334Y3332D01*
X333Y3333D01*
X333Y3338D01*
X332Y3339D01*
X332Y3343D01*
X331Y3344D01*
X331Y3348D01*
X330Y3349D01*
X330Y3353D01*
X329Y3354D01*
X329Y3359D01*
X328Y3360D01*
X328Y3365D01*
X327Y3366D01*
X327Y3371D01*
X326Y3372D01*
X326Y3377D01*
X325Y3378D01*
X325Y3383D01*
X324Y3384D01*
X324Y3389D01*
X323Y3390D01*
X323Y3396D01*
X322Y3397D01*
X322Y3404D01*
X321Y3405D01*
X321Y3411D01*
X320Y3412D01*
X320Y3419D01*
X319Y3420D01*
X319Y3428D01*
X318Y3429D01*
X318Y3439D01*
X317Y3440D01*
X317Y3451D01*
X316Y3452D01*
X316Y3466D01*
X315Y3467D01*
X315Y3487D01*
X314Y3488D01*
X314Y3578D01*
X315Y3579D01*
X315Y3610D01*
X316Y3611D01*
X316Y3637D01*
X317Y3638D01*
X317Y3658D01*
X318Y3659D01*
X318Y3677D01*
X319Y3678D01*
X319Y3693D01*
X320Y3694D01*
X320Y3709D01*
X321Y3710D01*
X321Y3722D01*
X322Y3723D01*
X322Y3733D01*
X323Y3734D01*
X323Y3742D01*
X324Y3743D01*
X324Y3751D01*
X325Y3752D01*
X325Y3760D01*
X326Y3761D01*
X326Y3769D01*
X327Y3770D01*
X327Y3778D01*
X328Y3779D01*
X328Y3787D01*
X329Y3788D01*
X329Y3796D01*
X330Y3797D01*
X330Y3805D01*
X331Y3806D01*
X331Y3816D01*
X332Y3817D01*
X332Y3827D01*
X331Y3828D01*
X331Y3844D01*
X330Y3845D01*
X330Y3855D01*
X329Y3856D01*
X329Y3865D01*
X328Y3866D01*
X328Y3874D01*
X327Y3875D01*
X327Y3882D01*
X326Y3883D01*
X326Y3890D01*
X325Y3891D01*
X325Y3897D01*
X324Y3898D01*
X324Y3905D01*
X323Y3906D01*
X323Y3913D01*
X322Y3914D01*
X322Y3920D01*
X321Y3921D01*
X321Y3927D01*
X320Y3928D01*
X320Y3934D01*
X319Y3935D01*
X319Y3942D01*
X318Y3943D01*
X318Y3949D01*
X317Y3950D01*
X317Y3956D01*
X316Y3957D01*
X316Y3963D01*
X315Y3964D01*
X315Y3971D01*
X314Y3972D01*
X314Y3979D01*
X313Y3980D01*
X313Y3986D01*
X312Y3987D01*
X312Y3994D01*
X311Y3995D01*
X311Y4002D01*
X310Y4003D01*
X310Y4009D01*
X309Y4010D01*
X309Y4017D01*
X308Y4018D01*
X308Y4025D01*
X307Y4026D01*
X307Y4033D01*
X306Y4034D01*
X306Y4041D01*
X305Y4042D01*
X305Y4049D01*
X304Y4050D01*
X304Y4057D01*
X303Y4058D01*
X303Y4066D01*
X302Y4067D01*
X302Y4075D01*
X301Y4076D01*
X301Y4084D01*
X300Y4085D01*
X300Y4092D01*
X299Y4093D01*
X299Y4101D01*
X298Y4102D01*
X298Y4110D01*
X297Y4111D01*
X297Y4120D01*
X296Y4121D01*
X296Y4130D01*
X295Y4131D01*
X295Y4140D01*
X294Y4141D01*
X294Y4151D01*
X293Y4152D01*
X293Y4163D01*
X292Y4164D01*
X292Y4174D01*
X291Y4175D01*
X291Y4187D01*
X290Y4188D01*
X290Y4202D01*
X289Y4203D01*
X289Y4217D01*
X288Y4218D01*
X288Y4240D01*
X287Y4241D01*
X287Y4312D01*
X288Y4313D01*
X288Y4329D01*
X289Y4330D01*
X289Y4340D01*
X290Y4341D01*
X290Y4349D01*
X291Y4350D01*
X291Y4357D01*
X292Y4358D01*
X292Y4364D01*
X293Y4365D01*
X293Y4371D01*
X294Y4372D01*
X294Y4376D01*
X295Y4377D01*
X295Y4382D01*
X296Y4383D01*
X296Y4387D01*
X297Y4388D01*
X297Y4391D01*
X298Y4392D01*
X298Y4396D01*
X299Y4397D01*
X299Y4400D01*
X300Y4401D01*
X300Y4404D01*
X301Y4405D01*
X301Y4408D01*
X302Y4409D01*
X302Y4411D01*
X303Y4412D01*
X303Y4415D01*
X304Y4416D01*
X304Y4418D01*
X305Y4419D01*
X305Y4422D01*
X306Y4423D01*
X306Y4425D01*
X307Y4426D01*
X307Y4428D01*
X308Y4429D01*
X308Y4431D01*
X309Y4432D01*
X309Y4434D01*
X310Y4435D01*
X310Y4437D01*
X311Y4438D01*
X311Y4440D01*
X312Y4441D01*
X312Y4443D01*
X313Y4444D01*
X313Y4446D01*
X314Y4447D01*
X314Y4449D01*
X315Y4450D01*
X315Y4452D01*
X316Y4453D01*
X316Y4455D01*
X317Y4456D01*
X317Y4457D01*
X318Y4458D01*
X318Y4460D01*
X319Y4461D01*
X319Y4462D01*
X320Y4463D01*
X320Y4465D01*
X321Y4466D01*
X321Y4468D01*
X322Y4469D01*
X322Y4470D01*
X323Y4471D01*
X323Y4472D01*
X324Y4473D01*
X324Y4475D01*
X325Y4476D01*
X325Y4477D01*
X326Y4478D01*
X326Y4480D01*
X327Y4481D01*
X327Y4482D01*
X328Y4483D01*
X328Y4484D01*
X329Y4485D01*
X329Y4486D01*
X330Y4487D01*
X330Y4488D01*
X331Y4489D01*
X331Y4491D01*
X332Y4492D01*
X332Y4493D01*
X333Y4494D01*
X333Y4495D01*
X334Y4496D01*
X334Y4497D01*
X335Y4498D01*
X335Y4499D01*
X336Y4500D01*
X337Y4501D01*
X337Y4502D01*
X338Y4503D01*
X338Y4504D01*
X339Y4505D01*
X339Y4506D01*
X340Y4507D01*
X340Y4508D01*
X341Y4509D01*
X341Y4510D01*
X342Y4511D01*
X343Y4512D01*
X343Y4513D01*
X344Y4514D01*
X345Y4515D01*
X345Y4516D01*
X346Y4517D01*
X346Y4518D01*
X347Y4519D01*
X348Y4520D01*
X348Y4521D01*
X349Y4522D01*
X350Y4523D01*
X350Y4524D01*
X351Y4525D01*
X352Y4526D01*
X352Y4527D01*
X353Y4528D01*
X354Y4529D01*
X355Y4530D01*
X355Y4531D01*
X356Y4532D01*
X357Y4533D01*
X358Y4534D01*
X359Y4535D01*
X359Y4536D01*
X360Y4537D01*
X361Y4538D01*
X362Y4539D01*
X363Y4540D01*
X364Y4541D01*
X365Y4542D01*
X366Y4543D01*
X366Y4544D01*
X367Y4545D01*
X368Y4546D01*
X369Y4547D01*
X370Y4548D01*
X371Y4549D01*
X372Y4550D01*
X373Y4550D01*
X374Y4551D01*
X375Y4552D01*
X376Y4553D01*
X377Y4554D01*
X378Y4555D01*
X379Y4556D01*
X380Y4557D01*
X381Y4558D01*
X382Y4558D01*
X383Y4559D01*
X384Y4560D01*
X385Y4561D01*
X386Y4561D01*
X387Y4562D01*
X388Y4563D01*
X389Y4564D01*
X390Y4564D01*
X391Y4565D01*
X392Y4566D01*
X393Y4566D01*
X394Y4567D01*
X395Y4568D01*
X396Y4568D01*
X397Y4569D01*
X398Y4570D01*
X399Y4570D01*
X400Y4571D01*
X401Y4572D01*
X402Y4572D01*
X403Y4573D01*
X404Y4574D01*
X405Y4574D01*
X406Y4575D01*
X407Y4575D01*
X408Y4576D01*
X409Y4577D01*
X410Y4577D01*
X411Y4578D01*
X412Y4578D01*
X413Y4579D01*
X414Y4579D01*
X415Y4580D01*
X416Y4581D01*
X417Y4581D01*
X418Y4582D01*
X419Y4582D01*
X420Y4583D01*
X421Y4583D01*
X422Y4584D01*
X423Y4584D01*
X424Y4585D01*
X425Y4585D01*
X426Y4586D01*
X427Y4586D01*
X428Y4587D01*
X429Y4587D01*
X430Y4588D01*
X431Y4588D01*
X432Y4589D01*
X433Y4589D01*
X434Y4590D01*
X435Y4590D01*
X436Y4590D01*
X437Y4591D01*
X438Y4591D01*
X439Y4592D01*
X440Y4592D01*
X441Y4593D01*
X442Y4593D01*
X443Y4593D01*
X444Y4594D01*
X445Y4594D01*
X446Y4595D01*
X447Y4595D01*
X448Y4595D01*
X449Y4596D01*
X450Y4596D01*
X451Y4596D01*
X452Y4597D01*
X453Y4597D01*
X454Y4597D01*
X455Y4598D01*
X456Y4598D01*
X457Y4598D01*
X458Y4599D01*
X459Y4599D01*
X460Y4599D01*
X461Y4600D01*
X462Y4600D01*
X463Y4600D01*
X464Y4600D01*
X465Y4601D01*
X466Y4601D01*
X467Y4601D01*
X468Y4601D01*
X469Y4602D01*
X470Y4602D01*
X471Y4602D01*
X472Y4602D01*
X473Y4603D01*
X474Y4603D01*
X475Y4603D01*
X476Y4603D01*
X477Y4604D01*
X478Y4604D01*
X479Y4604D01*
X480Y4604D01*
X481Y4604D01*
X482Y4604D01*
X483Y4605D01*
X484Y4605D01*
X485Y4605D01*
X486Y4605D01*
X487Y4605D01*
X488Y4606D01*
X489Y4606D01*
X490Y4606D01*
X491Y4606D01*
X492Y4606D01*
X493Y4606D01*
X494Y4607D01*
X495Y4607D01*
X496Y4607D01*
X497Y4607D01*
X498Y4607D01*
X499Y4607D01*
X500Y4607D01*
X501Y4608D01*
X502Y4608D01*
X503Y4608D01*
X504Y4608D01*
X505Y4608D01*
X506Y4608D01*
X507Y4608D01*
X508Y4608D01*
X509Y4608D01*
X510Y4608D01*
X511Y4609D01*
X512Y4609D01*
X513Y4609D01*
X514Y4609D01*
X515Y4609D01*
X516Y4609D01*
X517Y4609D01*
X518Y4609D01*
X519Y4609D01*
X520Y4609D01*
X521Y4609D01*
X522Y4609D01*
X523Y4609D01*
X524Y4609D01*
X525Y4609D01*
X526Y4609D01*
X527Y4609D01*
X528Y4608D01*
X529Y4608D01*
X530Y4608D01*
X531Y4608D01*
X532Y4608D01*
X533Y4608D01*
X534Y4608D01*
X535Y4608D01*
X536Y4608D01*
X537Y4607D01*
X538Y4607D01*
X539Y4607D01*
X540Y4607D01*
X541Y4607D01*
X542Y4607D01*
X543Y4606D01*
X544Y4606D01*
X545Y4606D01*
X546Y4606D01*
X547Y4606D01*
X548Y4606D01*
X549Y4605D01*
X550Y4605D01*
X551Y4605D01*
X552Y4605D01*
X553Y4605D01*
X554Y4605D01*
X555Y4604D01*
X556Y4604D01*
X557Y4604D01*
X558Y4604D01*
X559Y4604D01*
X560Y4603D01*
X561Y4603D01*
X562Y4603D01*
X563Y4603D01*
X564Y4603D01*
X565Y4602D01*
X566Y4602D01*
X567Y4602D01*
X568Y4602D01*
X569Y4602D01*
X570Y4601D01*
X571Y4601D01*
X572Y4601D01*
X573Y4601D01*
X574Y4600D01*
X575Y4600D01*
X576Y4600D01*
X577Y4600D01*
X578Y4599D01*
X579Y4599D01*
X580Y4599D01*
X581Y4599D01*
X582Y4598D01*
X583Y4598D01*
X584Y4598D01*
X585Y4597D01*
X586Y4597D01*
X587Y4597D01*
X588Y4597D01*
X589Y4596D01*
X590Y4596D01*
X591Y4596D01*
X592Y4595D01*
X593Y4595D01*
X594Y4595D01*
X595Y4594D01*
X596Y4594D01*
X597Y4594D01*
X598Y4593D01*
X599Y4593D01*
X600Y4593D01*
X601Y4592D01*
X602Y4592D01*
X603Y4592D01*
X604Y4591D01*
X605Y4591D01*
X606Y4591D01*
X607Y4590D01*
X608Y4590D01*
X609Y4589D01*
X610Y4589D01*
X611Y4589D01*
X612Y4588D01*
X613Y4588D01*
X614Y4587D01*
X615Y4587D01*
X616Y4586D01*
X617Y4586D01*
X618Y4585D01*
X619Y4585D01*
X620Y4585D01*
X621Y4584D01*
X622Y4584D01*
X623Y4583D01*
X624Y4583D01*
X625Y4582D01*
X626Y4582D01*
X627Y4581D01*
X628Y4581D01*
X629Y4580D01*
X630Y4580D01*
X631Y4579D01*
X632Y4578D01*
X633Y4578D01*
X634Y4577D01*
X635Y4577D01*
X636Y4576D01*
X637Y4576D01*
X638Y4575D01*
X639Y4575D01*
X640Y4574D01*
X641Y4573D01*
X642Y4573D01*
X643Y4572D01*
X644Y4571D01*
X645Y4571D01*
X646Y4570D01*
X647Y4570D01*
X648Y4569D01*
X649Y4568D01*
X650Y4568D01*
X651Y4567D01*
X652Y4566D01*
X653Y4566D01*
X654Y4565D01*
X655Y4564D01*
X656Y4564D01*
X657Y4563D01*
X658Y4562D01*
X659Y4562D01*
X660Y4561D01*
X661Y4560D01*
X662Y4559D01*
X663Y4559D01*
X664Y4558D01*
X665Y4557D01*
X666Y4556D01*
X667Y4556D01*
X668Y4555D01*
X669Y4554D01*
X670Y4553D01*
X671Y4553D01*
X672Y4552D01*
X673Y4551D01*
X674Y4550D01*
X675Y4550D01*
X676Y4549D01*
X677Y4548D01*
X678Y4547D01*
X679Y4546D01*
X680Y4546D01*
X681Y4545D01*
X682Y4544D01*
X683Y4543D01*
X684Y4542D01*
X685Y4541D01*
X686Y4541D01*
X687Y4540D01*
X688Y4539D01*
X689Y4538D01*
X690Y4537D01*
X691Y4536D01*
X692Y4535D01*
X693Y4535D01*
X694Y4534D01*
X695Y4533D01*
X696Y4532D01*
X697Y4531D01*
X698Y4530D01*
X699Y4529D01*
X700Y4529D01*
X701Y4528D01*
X702Y4527D01*
X703Y4526D01*
X704Y4525D01*
X705Y4524D01*
X706Y4523D01*
X707Y4522D01*
X708Y4521D01*
X709Y4520D01*
X710Y4520D01*
X711Y4519D01*
X712Y4518D01*
X713Y4517D01*
X714Y4516D01*
X715Y4515D01*
X716Y4514D01*
X717Y4513D01*
X718Y4512D01*
X719Y4512D01*
X720Y4511D01*
X721Y4510D01*
X722Y4509D01*
X723Y4508D01*
X724Y4507D01*
X725Y4506D01*
X726Y4505D01*
X727Y4504D01*
X728Y4503D01*
X729Y4502D01*
X730Y4501D01*
X731Y4500D01*
X732Y4499D01*
X733Y4499D01*
X734Y4498D01*
X735Y4497D01*
X736Y4496D01*
X737Y4495D01*
X738Y4494D01*
X739Y4493D01*
X740Y4492D01*
X741Y4491D01*
X742Y4490D01*
X743Y4489D01*
X744Y4488D01*
X745Y4487D01*
X746Y4486D01*
X747Y4485D01*
X748Y4484D01*
X749Y4483D01*
X750Y4482D01*
X751Y4482D01*
X752Y4481D01*
X753Y4480D01*
X754Y4479D01*
X755Y4478D01*
X756Y4477D01*
X757Y4476D01*
X758Y4475D01*
X759Y4474D01*
X760Y4473D01*
X761Y4472D01*
X762Y4471D01*
X763Y4470D01*
X764Y4469D01*
X765Y4468D01*
X766Y4467D01*
X767Y4466D01*
X768Y4465D01*
X769Y4464D01*
X770Y4463D01*
X771Y4462D01*
X771Y4461D01*
X772Y4460D01*
X773Y4459D01*
X774Y4458D01*
X775Y4457D01*
X776Y4456D01*
X777Y4455D01*
X778Y4454D01*
X779Y4453D01*
X780Y4452D01*
X780Y4451D01*
X781Y4450D01*
X782Y4449D01*
X783Y4448D01*
X784Y4447D01*
X785Y4446D01*
X785Y4445D01*
X786Y4444D01*
X787Y4443D01*
X788Y4442D01*
X789Y4441D01*
X790Y4440D01*
X790Y4439D01*
X791Y4438D01*
X792Y4437D01*
X793Y4436D01*
X794Y4435D01*
X795Y4434D01*
X795Y4433D01*
X796Y4432D01*
X797Y4431D01*
X798Y4430D01*
X799Y4429D01*
X799Y4428D01*
X800Y4427D01*
X801Y4426D01*
X802Y4425D01*
X802Y4424D01*
X803Y4423D01*
X804Y4422D01*
X805Y4421D01*
X806Y4420D01*
X806Y4419D01*
X807Y4418D01*
X808Y4417D01*
X809Y4416D01*
X809Y4415D01*
X810Y4414D01*
X811Y4413D01*
X812Y4412D01*
X813Y4411D01*
X813Y4410D01*
X814Y4409D01*
X815Y4408D01*
X816Y4407D01*
X816Y4406D01*
X817Y4405D01*
X818Y4404D01*
X819Y4403D01*
X819Y4402D01*
X820Y4401D01*
X821Y4400D01*
X822Y4399D01*
X822Y4398D01*
X823Y4397D01*
X824Y4396D01*
X824Y4395D01*
X825Y4394D01*
X826Y4393D01*
X827Y4392D01*
X827Y4391D01*
X828Y4390D01*
X829Y4389D01*
X830Y4388D01*
X830Y4387D01*
X831Y4386D01*
X832Y4385D01*
X833Y4384D01*
X833Y4383D01*
X834Y4382D01*
X835Y4381D01*
X835Y4380D01*
X836Y4379D01*
X837Y4378D01*
X838Y4377D01*
X838Y4376D01*
X839Y4375D01*
X840Y4374D01*
X840Y4373D01*
X841Y4372D01*
X842Y4371D01*
X842Y4370D01*
X843Y4369D01*
X844Y4368D01*
X845Y4367D01*
X845Y4366D01*
X846Y4365D01*
X847Y4364D01*
X847Y4363D01*
X848Y4362D01*
X849Y4361D01*
X849Y4360D01*
X850Y4359D01*
X851Y4358D01*
X851Y4357D01*
X852Y4356D01*
X853Y4355D01*
X854Y4354D01*
X854Y4353D01*
X855Y4352D01*
X856Y4351D01*
X856Y4350D01*
X857Y4349D01*
X858Y4348D01*
X858Y4347D01*
X859Y4346D01*
X860Y4345D01*
X860Y4344D01*
X861Y4343D01*
X862Y4342D01*
X862Y4341D01*
X863Y4340D01*
X864Y4339D01*
X864Y4338D01*
X865Y4337D01*
X866Y4336D01*
X866Y4335D01*
X867Y4334D01*
X868Y4333D01*
X868Y4332D01*
X869Y4331D01*
X870Y4330D01*
X870Y4329D01*
X871Y4328D01*
X871Y4327D01*
X872Y4326D01*
X873Y4325D01*
X873Y4324D01*
X874Y4323D01*
X875Y4322D01*
X875Y4321D01*
X876Y4320D01*
X876Y4319D01*
X877Y4318D01*
X878Y4317D01*
X878Y4316D01*
X879Y4315D01*
X879Y4314D01*
X880Y4313D01*
X881Y4312D01*
X881Y4311D01*
X882Y4310D01*
X883Y4309D01*
X883Y4308D01*
X884Y4307D01*
X884Y4306D01*
X885Y4305D01*
X886Y4304D01*
X886Y4303D01*
X887Y4302D01*
X887Y4301D01*
X888Y4300D01*
X889Y4299D01*
X889Y4298D01*
X890Y4297D01*
X890Y4296D01*
X891Y4295D01*
X891Y4294D01*
X892Y4293D01*
X893Y4292D01*
X893Y4291D01*
X894Y4290D01*
X894Y4289D01*
X895Y4288D01*
X895Y4287D01*
X896Y4286D01*
X896Y4285D01*
X897Y4284D01*
X897Y4283D01*
X898Y4282D01*
X899Y4281D01*
X899Y4280D01*
X900Y4279D01*
X900Y4278D01*
X901Y4277D01*
X901Y4276D01*
X902Y4275D01*
X902Y4274D01*
X903Y4273D01*
X903Y4272D01*
X904Y4271D01*
X904Y4270D01*
X905Y4269D01*
X906Y4268D01*
X906Y4267D01*
X907Y4266D01*
X907Y4265D01*
X908Y4264D01*
X908Y4263D01*
X909Y4262D01*
X909Y4261D01*
X910Y4260D01*
X910Y4259D01*
X911Y4258D01*
X911Y4257D01*
X912Y4256D01*
X913Y4255D01*
X913Y4254D01*
X914Y4253D01*
X914Y4252D01*
X915Y4251D01*
X915Y4250D01*
X916Y4249D01*
X916Y4248D01*
X917Y4247D01*
X918Y4246D01*
X918Y4245D01*
X919Y4244D01*
X919Y4243D01*
X920Y4242D01*
X920Y4241D01*
X921Y4240D01*
X921Y4239D01*
X922Y4238D01*
X922Y4237D01*
X923Y4236D01*
X924Y4235D01*
X924Y4234D01*
X925Y4233D01*
X925Y4232D01*
X926Y4231D01*
X926Y4230D01*
X927Y4229D01*
X928Y4228D01*
X928Y4227D01*
X929Y4226D01*
X929Y4225D01*
X930Y4224D01*
X930Y4223D01*
X931Y4222D01*
X932Y4221D01*
X932Y4220D01*
X933Y4219D01*
X933Y4218D01*
X934Y4217D01*
X934Y4216D01*
X935Y4215D01*
X936Y4214D01*
X936Y4213D01*
X937Y4212D01*
X937Y4211D01*
X938Y4210D01*
X939Y4209D01*
X939Y4208D01*
X940Y4207D01*
X940Y4206D01*
X941Y4205D01*
X942Y4204D01*
X942Y4203D01*
X943Y4202D01*
X943Y4201D01*
X944Y4200D01*
X945Y4199D01*
X945Y4198D01*
X946Y4197D01*
X946Y4196D01*
X947Y4195D01*
X948Y4194D01*
X948Y4193D01*
X949Y4192D01*
X950Y4191D01*
X950Y4190D01*
X951Y4189D01*
X952Y4188D01*
X952Y4187D01*
X953Y4186D01*
X953Y4185D01*
X954Y4184D01*
X955Y4183D01*
X956Y4182D01*
X956Y4181D01*
X957Y4180D01*
X958Y4179D01*
X958Y4178D01*
X959Y4177D01*
X960Y4176D01*
X961Y4175D01*
X961Y4174D01*
X962Y4173D01*
X963Y4172D01*
X964Y4171D01*
X964Y4170D01*
X965Y4169D01*
X966Y4168D01*
X967Y4167D01*
X968Y4166D01*
X969Y4165D01*
X970Y4164D01*
X971Y4164D01*
X972Y4163D01*
X973Y4163D01*
X974Y4162D01*
X975Y4161D01*
X976Y4161D01*
X977Y4160D01*
X978Y4159D01*
X979Y4158D01*
X980Y4157D01*
X981Y4156D01*
X982Y4156D01*
X983Y4155D01*
X984Y4154D01*
X985Y4153D01*
X986Y4152D01*
X987Y4152D01*
X988Y4151D01*
X989Y4150D01*
X990Y4149D01*
X991Y4148D01*
X992Y4147D01*
X993Y4147D01*
X994Y4146D01*
X995Y4145D01*
X996Y4144D01*
X997Y4144D01*
X998Y4143D01*
X999Y4142D01*
X1000Y4142D01*
X1001Y4141D01*
X1002Y4140D01*
X1003Y4139D01*
X1004Y4139D01*
X1005Y4138D01*
X1006Y4137D01*
X1007Y4137D01*
X1008Y4136D01*
X1009Y4135D01*
X1010Y4135D01*
X1011Y4134D01*
X1012Y4133D01*
X1013Y4133D01*
X1014Y4132D01*
X1015Y4132D01*
X1016Y4131D01*
X1017Y4131D01*
X1018Y4130D01*
X1019Y4129D01*
X1020Y4129D01*
X1021Y4128D01*
X1022Y4128D01*
X1023Y4127D01*
X1024Y4127D01*
X1025Y4126D01*
X1026Y4126D01*
X1027Y4125D01*
X1028Y4125D01*
X1029Y4125D01*
X1030Y4124D01*
X1031Y4124D01*
X1032Y4123D01*
X1033Y4123D01*
X1034Y4123D01*
X1035Y4122D01*
X1036Y4122D01*
X1037Y4122D01*
X1038Y4121D01*
X1039Y4121D01*
X1040Y4121D01*
X1041Y4120D01*
X1042Y4120D01*
X1043Y4120D01*
X1044Y4119D01*
X1045Y4119D01*
X1046Y4119D01*
X1047Y4119D01*
X1048Y4119D01*
X1049Y4118D01*
X1050Y4118D01*
X1051Y4118D01*
X1052Y4118D01*
X1053Y4118D01*
X1054Y4118D01*
X1055Y4118D01*
X1056Y4117D01*
X1057Y4117D01*
X1058Y4117D01*
X1059Y4117D01*
X1060Y4117D01*
X1061Y4117D01*
X1062Y4117D01*
X1063Y4117D01*
X1064Y4117D01*
X1065Y4118D01*
X1066Y4118D01*
X1067Y4118D01*
X1068Y4118D01*
X1069Y4118D01*
X1070Y4118D01*
X1071Y4118D01*
X1072Y4119D01*
X1073Y4119D01*
X1074Y4119D01*
X1075Y4119D01*
X1076Y4120D01*
X1077Y4120D01*
X1078Y4120D01*
X1079Y4120D01*
X1080Y4121D01*
X1081Y4121D01*
X1082Y4121D01*
X1083Y4122D01*
X1084Y4122D01*
X1085Y4122D01*
X1086Y4123D01*
X1087Y4123D01*
X1088Y4124D01*
X1089Y4124D01*
X1090Y4124D01*
X1091Y4125D01*
X1092Y4125D01*
X1093Y4126D01*
X1094Y4126D01*
X1095Y4127D01*
X1096Y4127D01*
X1097Y4128D01*
X1098Y4128D01*
X1099Y4129D01*
X1100Y4129D01*
X1101Y4130D01*
X1102Y4130D01*
X1103Y4131D01*
X1104Y4132D01*
X1105Y4132D01*
X1106Y4133D01*
X1107Y4133D01*
X1108Y4134D01*
X1109Y4135D01*
X1110Y4135D01*
X1111Y4136D01*
X1112Y4137D01*
X1113Y4137D01*
X1114Y4138D01*
X1115Y4139D01*
X1116Y4139D01*
X1117Y4140D01*
X1118Y4141D01*
X1119Y4141D01*
X1120Y4142D01*
X1121Y4143D01*
X1122Y4143D01*
X1123Y4144D01*
X1124Y4145D01*
X1125Y4146D01*
X1126Y4146D01*
X1127Y4147D01*
X1128Y4148D01*
X1129Y4149D01*
X1130Y4149D01*
X1131Y4150D01*
X1132Y4151D01*
X1133Y4152D01*
X1134Y4153D01*
X1135Y4153D01*
X1136Y4154D01*
X1137Y4155D01*
X1138Y4155D01*
X1139Y4156D01*
X1140Y4157D01*
X1141Y4157D01*
X1142Y4158D01*
X1143Y4158D01*
X1144Y4159D01*
X1145Y4160D01*
X1146Y4161D01*
X1147Y4162D01*
X1148Y4163D01*
X1149Y4164D01*
X1150Y4165D01*
X1151Y4166D01*
X1152Y4167D01*
X1152Y4168D01*
X1153Y4169D01*
X1154Y4170D01*
X1155Y4171D01*
X1155Y4172D01*
X1156Y4173D01*
X1157Y4174D01*
X1158Y4175D01*
X1158Y4176D01*
X1159Y4177D01*
X1160Y4178D01*
X1160Y4179D01*
X1161Y4180D01*
X1162Y4181D01*
X1162Y4182D01*
X1163Y4183D01*
X1163Y4184D01*
X1164Y4185D01*
X1165Y4186D01*
X1165Y4187D01*
X1166Y4188D01*
X1167Y4189D01*
X1167Y4190D01*
X1168Y4191D01*
X1168Y4192D01*
X1169Y4193D01*
X1170Y4194D01*
X1170Y4195D01*
X1171Y4196D01*
X1171Y4197D01*
X1172Y4198D01*
X1172Y4199D01*
X1173Y4200D01*
X1174Y4201D01*
X1174Y4202D01*
X1175Y4203D01*
X1175Y4204D01*
X1176Y4205D01*
X1176Y4206D01*
X1177Y4207D01*
X1177Y4208D01*
X1178Y4209D01*
X1179Y4210D01*
X1179Y4211D01*
X1180Y4212D01*
X1180Y4213D01*
X1181Y4214D01*
X1181Y4215D01*
X1182Y4216D01*
X1182Y4217D01*
X1183Y4218D01*
X1183Y4219D01*
X1184Y4220D01*
X1184Y4221D01*
X1185Y4222D01*
X1185Y4223D01*
X1186Y4224D01*
X1186Y4225D01*
X1187Y4226D01*
X1187Y4227D01*
X1188Y4228D01*
X1188Y4229D01*
X1189Y4230D01*
X1189Y4231D01*
X1190Y4232D01*
X1190Y4233D01*
X1191Y4234D01*
X1191Y4235D01*
X1192Y4236D01*
X1192Y4237D01*
X1193Y4238D01*
X1193Y4239D01*
X1194Y4240D01*
X1194Y4242D01*
X1195Y4243D01*
X1195Y4244D01*
X1196Y4245D01*
X1196Y4246D01*
X1197Y4247D01*
X1197Y4248D01*
X1198Y4249D01*
X1198Y4250D01*
X1199Y4251D01*
X1199Y4253D01*
X1200Y4254D01*
X1200Y4255D01*
X1201Y4256D01*
X1201Y4257D01*
X1202Y4258D01*
X1202Y4259D01*
X1203Y4260D01*
X1203Y4262D01*
X1204Y4263D01*
X1204Y4264D01*
X1205Y4265D01*
X1205Y4266D01*
X1206Y4267D01*
X1206Y4269D01*
X1207Y4270D01*
X1207Y4271D01*
X1208Y4272D01*
X1208Y4273D01*
X1209Y4274D01*
X1209Y4276D01*
X1210Y4277D01*
X1210Y4278D01*
X1211Y4279D01*
X1211Y4280D01*
X1212Y4281D01*
X1212Y4283D01*
X1213Y4284D01*
X1213Y4285D01*
X1214Y4286D01*
X1214Y4288D01*
X1215Y4289D01*
X1215Y4290D01*
X1216Y4291D01*
X1216Y4292D01*
X1217Y4293D01*
X1217Y4295D01*
X1218Y4296D01*
X1218Y4297D01*
X1219Y4298D01*
X1219Y4299D01*
X1220Y4300D01*
X1220Y4302D01*
X1221Y4303D01*
X1221Y4304D01*
X1222Y4305D01*
X1222Y4306D01*
X1223Y4307D01*
X1223Y4309D01*
X1224Y4310D01*
X1224Y4311D01*
X1225Y4312D01*
X1225Y4313D01*
X1226Y4314D01*
X1226Y4315D01*
X1227Y4316D01*
X1227Y4318D01*
X1228Y4319D01*
X1228Y4320D01*
X1229Y4321D01*
X1229Y4322D01*
X1230Y4323D01*
X1230Y4324D01*
X1231Y4325D01*
X1231Y4327D01*
X1232Y4328D01*
X1232Y4329D01*
X1233Y4330D01*
X1233Y4331D01*
X1234Y4332D01*
X1234Y4333D01*
X1235Y4334D01*
X1235Y4336D01*
X1236Y4337D01*
X1236Y4338D01*
X1237Y4339D01*
X1237Y4340D01*
X1238Y4341D01*
X1238Y4342D01*
X1239Y4343D01*
X1239Y4345D01*
X1240Y4346D01*
X1240Y4347D01*
X1241Y4348D01*
X1241Y4349D01*
X1242Y4350D01*
X1242Y4351D01*
X1243Y4352D01*
X1243Y4353D01*
X1244Y4354D01*
X1244Y4355D01*
X1245Y4356D01*
X1245Y4358D01*
X1246Y4359D01*
X1246Y4360D01*
X1247Y4361D01*
X1247Y4362D01*
X1248Y4363D01*
X1248Y4364D01*
X1249Y4365D01*
X1249Y4366D01*
X1250Y4367D01*
X1250Y4368D01*
X1251Y4369D01*
X1251Y4370D01*
X1252Y4371D01*
X1252Y4372D01*
X1253Y4373D01*
X1253Y4375D01*
X1254Y4376D01*
X1254Y4377D01*
X1255Y4378D01*
X1255Y4379D01*
X1256Y4380D01*
X1256Y4381D01*
X1257Y4382D01*
X1257Y4383D01*
X1258Y4384D01*
X1258Y4385D01*
X1259Y4386D01*
X1259Y4387D01*
X1260Y4388D01*
X1260Y4389D01*
X1261Y4390D01*
X1261Y4391D01*
X1262Y4392D01*
X1262Y4393D01*
X1263Y4394D01*
X1263Y4395D01*
X1264Y4396D01*
X1264Y4397D01*
X1265Y4398D01*
X1265Y4399D01*
X1266Y4400D01*
X1266Y4401D01*
X1267Y4402D01*
X1267Y4403D01*
X1268Y4404D01*
X1268Y4405D01*
X1269Y4406D01*
X1269Y4407D01*
X1270Y4408D01*
X1270Y4409D01*
X1271Y4410D01*
X1271Y4411D01*
X1272Y4412D01*
X1272Y4413D01*
X1273Y4414D01*
X1273Y4415D01*
X1274Y4416D01*
X1274Y4417D01*
X1275Y4418D01*
X1275Y4419D01*
X1276Y4420D01*
X1276Y4421D01*
X1277Y4422D01*
X1277Y4423D01*
X1278Y4424D01*
X1278Y4425D01*
X1279Y4426D01*
X1279Y4427D01*
X1280Y4428D01*
X1281Y4429D01*
X1281Y4430D01*
X1282Y4431D01*
X1282Y4432D01*
X1283Y4433D01*
X1283Y4434D01*
X1284Y4435D01*
X1284Y4436D01*
X1285Y4437D01*
X1285Y4438D01*
X1286Y4439D01*
X1286Y4440D01*
X1287Y4441D01*
X1288Y4442D01*
X1288Y4443D01*
X1289Y4444D01*
X1289Y4445D01*
X1290Y4446D01*
X1290Y4447D01*
X1291Y4448D01*
X1291Y4449D01*
X1292Y4450D01*
X1292Y4451D01*
X1293Y4452D01*
X1294Y4453D01*
X1294Y4454D01*
X1295Y4455D01*
X1295Y4456D01*
X1296Y4457D01*
X1296Y4458D01*
X1297Y4459D01*
X1298Y4460D01*
X1298Y4461D01*
X1299Y4462D01*
X1299Y4463D01*
X1300Y4464D01*
X1301Y4465D01*
X1301Y4466D01*
X1302Y4467D01*
X1302Y4468D01*
X1303Y4469D01*
X1303Y4470D01*
X1304Y4471D01*
X1305Y4472D01*
X1305Y4473D01*
X1306Y4474D01*
X1306Y4475D01*
X1307Y4476D01*
X1308Y4477D01*
X1308Y4478D01*
X1309Y4479D01*
X1310Y4480D01*
X1310Y4481D01*
X1311Y4482D01*
X1311Y4483D01*
X1312Y4484D01*
X1313Y4485D01*
X1313Y4486D01*
X1314Y4487D01*
X1314Y4488D01*
X1315Y4489D01*
X1316Y4490D01*
X1316Y4491D01*
X1317Y4492D01*
X1318Y4493D01*
X1318Y4494D01*
X1319Y4495D01*
X1320Y4496D01*
X1320Y4497D01*
X1321Y4498D01*
X1322Y4499D01*
X1322Y4500D01*
X1323Y4501D01*
X1324Y4502D01*
X1324Y4503D01*
X1325Y4504D01*
X1326Y4505D01*
X1326Y4506D01*
X1327Y4507D01*
X1328Y4508D01*
X1329Y4509D01*
X1329Y4510D01*
X1330Y4511D01*
X1331Y4512D01*
X1331Y4513D01*
X1332Y4514D01*
X1333Y4515D01*
X1334Y4516D01*
X1334Y4517D01*
X1335Y4518D01*
X1336Y4519D01*
X1337Y4520D01*
X1337Y4521D01*
X1338Y4522D01*
X1339Y4523D01*
X1340Y4524D01*
X1340Y4525D01*
X1341Y4526D01*
X1342Y4527D01*
X1343Y4528D01*
X1344Y4529D01*
X1344Y4530D01*
X1345Y4531D01*
X1346Y4532D01*
X1347Y4533D01*
X1348Y4534D01*
X1349Y4535D01*
X1350Y4536D01*
X1351Y4537D01*
X1351Y4538D01*
X1352Y4539D01*
X1353Y4540D01*
X1354Y4541D01*
X1355Y4542D01*
X1356Y4543D01*
X1357Y4544D01*
X1358Y4545D01*
X1359Y4546D01*
X1360Y4547D01*
X1361Y4548D01*
X1362Y4548D01*
X1363Y4549D01*
X1364Y4550D01*
X1365Y4551D01*
X1366Y4552D01*
X1367Y4553D01*
X1368Y4553D01*
X1369Y4554D01*
X1370Y4555D01*
X1371Y4556D01*
X1372Y4556D01*
X1373Y4557D01*
X1374Y4558D01*
X1375Y4559D01*
X1376Y4559D01*
X1377Y4560D01*
X1378Y4561D01*
X1379Y4561D01*
X1380Y4562D01*
X1381Y4563D01*
X1382Y4564D01*
X1383Y4564D01*
X1384Y4565D01*
X1385Y4566D01*
X1386Y4566D01*
X1387Y4567D01*
X1388Y4568D01*
X1389Y4568D01*
X1390Y4569D01*
X1391Y4570D01*
X1392Y4570D01*
X1393Y4571D01*
X1394Y4572D01*
X1395Y4573D01*
X1396Y4573D01*
X1397Y4574D01*
X1398Y4575D01*
X1399Y4575D01*
X1400Y4576D01*
X1401Y4577D01*
X1402Y4577D01*
X1403Y4578D01*
X1404Y4578D01*
X1405Y4579D01*
X1406Y4580D01*
X1407Y4580D01*
X1408Y4581D01*
X1409Y4582D01*
X1410Y4582D01*
X1411Y4583D01*
X1412Y4583D01*
X1413Y4584D01*
X1414Y4585D01*
X1415Y4585D01*
X1416Y4586D01*
X1417Y4587D01*
X1418Y4587D01*
X1419Y4588D01*
X1420Y4588D01*
X1421Y4589D01*
X1422Y4589D01*
X1423Y4590D01*
X1424Y4591D01*
X1425Y4591D01*
X1426Y4592D01*
X1427Y4592D01*
X1428Y4593D01*
X1429Y4593D01*
X1430Y4594D01*
X1431Y4595D01*
X1432Y4595D01*
X1433Y4596D01*
X1434Y4596D01*
X1435Y4597D01*
X1436Y4597D01*
X1437Y4598D01*
X1438Y4598D01*
X1439Y4599D01*
X1440Y4599D01*
X1441Y4600D01*
X1442Y4600D01*
X1443Y4601D01*
X1444Y4601D01*
X1445Y4602D01*
X1446Y4602D01*
X1447Y4603D01*
X1448Y4603D01*
X1449Y4604D01*
X1450Y4604D01*
X1451Y4605D01*
X1452Y4605D01*
X1453Y4606D01*
X1454Y4606D01*
X1455Y4607D01*
X1456Y4607D01*
X1457Y4608D01*
X1458Y4608D01*
X1459Y4608D01*
X1460Y4609D01*
X1461Y4609D01*
X1462Y4610D01*
X1463Y4610D01*
X1464Y4610D01*
X1465Y4611D01*
X1466Y4611D01*
X1467Y4612D01*
X1468Y4612D01*
X1469Y4612D01*
X1470Y4613D01*
X1471Y4613D01*
X1472Y4614D01*
X1473Y4614D01*
X1474Y4614D01*
X1475Y4615D01*
X1476Y4615D01*
X1477Y4615D01*
X1478Y4616D01*
X1479Y4616D01*
X1480Y4616D01*
X1481Y4617D01*
X1482Y4617D01*
X1483Y4617D01*
X1484Y4618D01*
X1485Y4618D01*
X1486Y4618D01*
X1487Y4619D01*
X1488Y4619D01*
X1489Y4619D01*
X1490Y4620D01*
X1491Y4620D01*
X1492Y4620D01*
X1493Y4620D01*
X1494Y4621D01*
X1495Y4621D01*
X1496Y4621D01*
X1497Y4621D01*
X1498Y4622D01*
X1499Y4622D01*
X1500Y4622D01*
X1501Y4622D01*
X1502Y4622D01*
X1503Y4623D01*
X1504Y4623D01*
X1505Y4623D01*
X1506Y4623D01*
X1507Y4623D01*
X1508Y4623D01*
X1509Y4624D01*
X1510Y4624D01*
X1511Y4624D01*
X1512Y4624D01*
X1513Y4624D01*
X1514Y4624D01*
X1515Y4624D01*
X1516Y4625D01*
D02*
G04 End of contour*
M02*